<svg xmlns="http://www.w3.org/2000/svg" version="1.1" xmlns:xlink="http://www.w3.org/1999/xlink" width="512" height="512" x="0" y="0" viewBox="0 0 64 64" style="enable-background:new 0 0 512 512" xml:space="preserve" class=""><g><g data-name="12-Portion"><circle cx="32" cy="32" r="21" fill="#eeeeee" opacity="1" data-original="#eeeeee" class=""></circle><path fill="#e0e0e0" d="M32 11c-.506 0-1.003.04-1.5.076a20.976 20.976 0 0 1 0 41.848c.497.036.994.076 1.5.076a21 21 0 0 0 0-42Z" opacity="1" data-original="#e0e0e0"></path><path fill="#81c784" d="M47 32a15.005 15.005 0 0 1-15 15v-6a9 9 0 0 0 9-9 8.908 8.908 0 0 0-1.21-4.5l5.2-3A14.884 14.884 0 0 1 47 32Z" opacity="1" data-original="#81c784" class=""></path><path fill="#ef5350" d="m44.99 24.5-5.2 3a8.993 8.993 0 0 0-15.58 0l-5.2-3a15 15 0 0 1 25.98 0Z" opacity="1" data-original="#ef5350" class=""></path><path fill="#ffb74d" d="M32 41v6a15 15 0 0 1-12.99-22.5l5.2 3A8.908 8.908 0 0 0 23 32a9 9 0 0 0 9 9ZM9 53a2.824 2.824 0 0 1-2.819-2.994L8 20h2l1.819 30.006A2.824 2.824 0 0 1 9 53ZM55 53a2.824 2.824 0 0 1-2.819-2.994L54 20h2l1.819 30.006A2.824 2.824 0 0 1 55 53Z" opacity="1" data-original="#ffb74d" class=""></path><path fill="#ffa726" d="M56 20h-1.824l1.819 30.005a2.814 2.814 0 0 1-1.907 2.83A2.791 2.791 0 0 0 55 53a2.824 2.824 0 0 0 2.819-2.995ZM10 20H8.176l1.819 30.005a2.814 2.814 0 0 1-1.907 2.83A2.791 2.791 0 0 0 9 53a2.824 2.824 0 0 0 2.819-2.995Z" opacity="1" data-original="#ffa726"></path><ellipse cx="55" cy="19" fill="#ffb74d" rx="6" ry="8" opacity="1" data-original="#ffb74d" class=""></ellipse><path fill="#ffa726" d="M55 11a4.757 4.757 0 0 0-2.5.734C54.564 13 56 15.773 56 19s-1.436 6-3.5 7.266A4.757 4.757 0 0 0 55 27c3.314 0 6-3.582 6-8s-2.686-8-6-8Z" opacity="1" data-original="#ffa726"></path><path fill="#ffb74d" d="M3 19v2a6 6 0 0 0 12 0v-2Z" opacity="1" data-original="#ffb74d" class=""></path><path fill="#ffa726" d="M15 19v2a6.005 6.005 0 0 1-6 6 5.825 5.825 0 0 1-2.5-.55A5.995 5.995 0 0 0 10 21v-2ZM30.501 46.924c.493.05.993.076 1.499.076v-.301a14.959 14.959 0 0 1-1.499.225Z" opacity="1" data-original="#ffa726"></path><path fill="#66bb6a" d="m44.99 24.5-2.323 1.34A14.98 14.98 0 0 1 32 46.7V47a15 15 0 0 0 12.99-22.5Z" opacity="1" data-original="#66bb6a"></path><path fill="#e53935" d="m42.667 25.84 2.323-1.34A15.007 15.007 0 0 0 32 17c-.493 0-.978.032-1.459.079a15 15 0 0 1 12.126 8.761Z" opacity="1" data-original="#e53935"></path><path d="M32 16a16 16 0 1 0 16 16 16.018 16.018 0 0 0-16-16Zm0 2a13.996 13.996 0 0 1 11.588 6.154l-3.483 2.012a9.967 9.967 0 0 0-16.21 0l-3.483-2.012A13.996 13.996 0 0 1 32 18Zm0 22a8 8 0 1 1 8-8 8.01 8.01 0 0 1-8 8Zm-14-8a13.89 13.89 0 0 1 1.422-6.107l3.47 2.003A9.98 9.98 0 0 0 31 41.949v4A14.008 14.008 0 0 1 18 32Zm15 13.95v-4a9.98 9.98 0 0 0 8.109-14.054l3.47-2.003A13.953 13.953 0 0 1 33 45.949ZM16 21V11a1 1 0 0 0-2 0v8h-2v-8a1 1 0 0 0-2 0v8H8v-8a1 1 0 0 0-2 0v8H4v-8a1 1 0 0 0-2 0v10a7.006 7.006 0 0 0 4.544 6.547L5.182 49.948a3.825 3.825 0 1 0 7.636.001l-1.362-22.402A7.006 7.006 0 0 0 16 21Zm-5.178 29.071a1.795 1.795 0 0 1-.489 1.354 1.874 1.874 0 0 1-2.666 0 1.796 1.796 0 0 1-.49-1.355l1.345-22.094c.159.01.317.024.478.024s.32-.013.478-.024ZM9 26a5.006 5.006 0 0 1-5-5h10a5.006 5.006 0 0 1-5 5Zm9.216-9.852a1 1 0 0 1 .164-1.405A21.765 21.765 0 0 1 32 10a22.037 22.037 0 0 1 13.995 5.024 1 1 0 0 1-1.273 1.543A20.027 20.027 0 0 0 32 12a19.782 19.782 0 0 0-12.38 4.313.999.999 0 0 1-1.404-.165Zm30.882 28.061a1 1 0 0 1 .165 1.404 21.958 21.958 0 0 1-34.526-.001 1 1 0 0 1 1.57-1.24 19.957 19.957 0 0 0 31.385.002 1.002 1.002 0 0 1 1.406-.165ZM62 19c0-4.962-3.14-9-7-9s-7 4.038-7 9c0 3.853 1.897 7.138 4.55 8.42l-1.368 22.528a3.825 3.825 0 1 0 7.636.001l-1.367-22.53C60.103 26.14 62 22.853 62 19Zm-5.178 31.071a1.795 1.795 0 0 1-.489 1.354 1.874 1.874 0 0 1-2.666 0 1.796 1.796 0 0 1-.49-1.355L54.52 27.97c.16.014.319.031.481.031s.321-.017.48-.031ZM55 26c-2.757 0-5-3.14-5-7s2.243-7 5-7 5 3.14 5 7-2.243 7-5 7Zm-19.293 2.293a1 1 0 0 1 0 1.414l-6 6a1 1 0 0 1-1.414-1.414l6-6a1 1 0 0 1 1.414 0ZM28 29a1 1 0 1 1 1 1 1 1 0 0 1-1-1Zm8 6a1 1 0 1 1-1-1 1 1 0 0 1 1 1Z" fill="#000000" opacity="1" data-original="#000000" class=""></path></g></g></svg>