<svg xmlns="http://www.w3.org/2000/svg" version="1.1" xmlns:xlink="http://www.w3.org/1999/xlink" width="512" height="512" x="0" y="0" viewBox="0 0 512 512" style="enable-background:new 0 0 512 512" xml:space="preserve" class=""><g><path d="M195.45 226.5H255c8.284 0 15-6.716 15-15s-6.716-15-15-15h-23.336l34.393-34.394c9.418-9.418 2.746-25.606-10.606-25.606H196c-8.284 0-15 6.716-15 15s6.716 15 15 15h23.237l-34.393 34.394c-9.418 9.417-2.746 25.606 10.606 25.606zM314.638 150.5H405c8.284 0 15-6.716 15-15s-6.716-15-15-15h-54.149l64.393-64.394c9.418-9.418 2.746-25.606-10.606-25.606H315c-8.284 0-15 6.716-15 15s6.716 15 15 15h53.424l-64.393 64.394c-9.417 9.417-2.745 25.606 10.607 25.606zM30 182.5c0-8.28-6.72-15-15-15s-15 6.72-15 15v284c0 8.28 6.72 15 15 15s15-6.72 15-15v-29h106v-45H30zM497 287.5c-8.28 0-15 6.72-15 15v90h-30v-61c0-41.36-33.65-75-75-75H166v181h316v29c0 8.28 6.72 15 15 15s15-6.72 15-15v-164c0-8.28-6.72-15-15-15z" fill="#000000" opacity="1" data-original="#000000" class=""></path><path d="M30.05 332.5v30H136v-60H60.05c-16.57 0-30 13.43-30 30z" fill="#000000" opacity="1" data-original="#000000" class=""></path><circle cx="106" cy="257.5" r="45" fill="#000000" opacity="1" data-original="#000000" class=""></circle></g></svg>