<svg xmlns="http://www.w3.org/2000/svg" version="1.1" xmlns:xlink="http://www.w3.org/1999/xlink" width="512" height="512" x="0" y="0" viewBox="0 0 298.807 298.807" style="enable-background:new 0 0 512 512" xml:space="preserve" class=""><g><path d="m223.383 255.164-9.54-33.76c-71.4 63.126-130.786 5.012-141.612-11.675l5.504-3.399a7.85 7.85 0 0 0 3.707-7.081 7.847 7.847 0 0 0-4.423-6.654l-49.377-23.802a7.784 7.784 0 0 0-3.399-.782 7.851 7.851 0 0 0-4.121 1.175 7.824 7.824 0 0 0-3.722 6.548l-.841 54.812a7.849 7.849 0 0 0 3.965 6.937 7.85 7.85 0 0 0 7.993-.149l2.633-1.627c45.271 73.442 149.175 80.638 205.414 32.69-5.901-2.299-10.444-7.072-12.181-13.233zM56.666 169.026c-5.809-31.47 15.082-95.47 84.416-103.008v.836a7.842 7.842 0 0 0 7.838 7.838 7.834 7.834 0 0 0 4.221-1.234l46.196-29.5a7.842 7.842 0 0 0 .005-13.217L153.14 1.234a7.832 7.832 0 0 0-7.988-.269 7.84 7.84 0 0 0-4.071 6.873v8.639C73.737 16.189 2.111 79.857 6.727 165.732c0 0 10.425-10.112 17.517-10.112 5.963 0 7.03 1.168 32.422 13.406zM292.123 212.351a7.837 7.837 0 0 0-5.405-5.887l-5.652-1.707c16.622-46.53 11.226-126.807-66.247-171.649.293 1.383.532 2.787.532 4.24a20.145 20.145 0 0 1-9.346 17.054l-26.679 17.035c23.634 6.821 77.648 48.932 54.274 118.997l-3.384-1.02a7.91 7.91 0 0 0-2.265-.338 7.836 7.836 0 0 0-5.488 2.249 7.84 7.84 0 0 0-2.056 7.723l14.899 52.746a7.848 7.848 0 0 0 5.275 5.375 7.86 7.86 0 0 0 7.37-1.559l41.604-35.691a7.835 7.835 0 0 0 2.568-7.568z" fill="#000000" opacity="1" data-original="#000000" class=""></path></g></svg>