<svg xmlns="http://www.w3.org/2000/svg" version="1.1" xmlns:xlink="http://www.w3.org/1999/xlink" width="512" height="512" x="0" y="0" viewBox="0 0 682.667 682.667" style="enable-background:new 0 0 512 512" xml:space="preserve" class=""><g><defs><clipPath id="a" clipPathUnits="userSpaceOnUse"><path d="M0 512h512V0H0Z" fill="#000000" opacity="1" data-original="#000000"></path></clipPath></defs><g clip-path="url(#a)" transform="matrix(1.33333 0 0 -1.33333 0 682.667)"><path d="M0 0c-11.494.409-20.94-8.787-20.94-20.189V.539c0 10.955-8.519 20.285-19.466 20.675-11.494.408-20.941-8.788-20.941-20.191v19.719c0 10.955-8.518 20.285-19.466 20.675-11.494.408-20.94-8.788-20.94-20.19v68.207c0 10.955-8.518 20.285-19.467 20.674-11.493.409-20.94-8.788-20.94-20.19v-121.22c0 11.158-9.045 20.203-20.203 20.203s-20.203-9.045-20.203-20.203v-101.016a30.308 30.308 0 0 1 6.061-18.183l18.183-24.244a30.305 30.305 0 0 0 6.061-18.183v-32.325H9.365v32.479c0 6.607.81 13.189 2.412 19.599l5.277 21.105a80.833 80.833 0 0 1 2.413 19.599v111.797C19.467-9.72 10.948-.389 0 0" style="fill-opacity:1;fill-rule:nonzero;stroke:none" transform="translate(337.55 232.753)" fill="#fed2a4" data-original="#fed2a4" class=""></path><path d="M0 0c.071-.843.11-1.69.11-2.542v-32.325h161.627v32.478c0 6.608.809 13.19 2.412 19.6l5.276 21.104a80.798 80.798 0 0 1 2.413 19.6v93.088S138.703 15.858 0 0" style="fill-opacity:1;fill-rule:nonzero;stroke:none" transform="translate(185.178 42.367)" fill="#ffbd86" data-original="#ffbd86"></path><path d="M0 0h-67.729c-17.002 0-30.786 13.783-30.786 30.786v67.729c0 17.003 13.784 30.786 30.786 30.786H0c17.003 0 30.786-13.783 30.786-30.786V30.786C30.786 13.783 17.003 0 0 0" style="fill-opacity:1;fill-rule:nonzero;stroke:none" transform="translate(128.238 375.2)" fill="#00fc6c" data-original="#a2f5c3" class="" opacity="1"></path><path d="M0 0h-26.264C-9.261 0 4.522-13.783 4.522-30.786v-67.729c0-17.003-13.783-30.786-30.786-30.786H0c17.003 0 30.786 13.783 30.786 30.786v67.729C30.786-13.783 17.003 0 0 0" style="fill-opacity:1;fill-rule:nonzero;stroke:none" transform="translate(128.238 504.5)" fill="#88f2a9" data-original="#88f2a9" class=""></path><path d="M0 0h-67.729c-17.002 0-30.786 13.783-30.786 30.786v67.729c0 17.003 13.784 30.786 30.786 30.786H0c17.003 0 30.786-13.783 30.786-30.786V30.786C30.786 13.783 17.003 0 0 0" style="fill-opacity:1;fill-rule:nonzero;stroke:none" transform="translate(289.864 375.2)" fill="#ff0000" data-original="#4172ca" class="" opacity="1"></path><path d="M0 0h-26.264C-9.262 0 4.521-13.783 4.521-30.786v-67.729c0-17.003-13.783-30.786-30.785-30.786H0c17.003 0 30.786 13.783 30.786 30.786v67.729C30.786-13.783 17.003 0 0 0" style="fill-opacity:1;fill-rule:nonzero;stroke:none" transform="translate(289.864 504.5)" fill="#fc0000" data-original="#3a67c1" class="" opacity="1"></path><path d="M0 0h-67.729c-17.002 0-30.786 13.783-30.786 30.786v67.729c0 17.003 13.784 30.786 30.786 30.786H0c17.003 0 30.786-13.783 30.786-30.786V30.786C30.786 13.783 17.003 0 0 0" style="fill-opacity:1;fill-rule:nonzero;stroke:none" transform="translate(451.49 375.2)" fill="#ff0000" data-original="#4172ca" class="" opacity="1"></path><path d="M0 0h-26.264C-9.262 0 4.521-13.783 4.521-30.786v-67.729c0-17.003-13.783-30.786-30.785-30.786H0c17.003 0 30.786 13.783 30.786 30.786v67.729C30.786-13.783 17.003 0 0 0" style="fill-opacity:1;fill-rule:nonzero;stroke:none" transform="translate(451.49 504.5)" fill="#fc0000" data-original="#3a67c1" class="" opacity="1"></path><path d="M0 0v-34.699C0-41.26 2.13-47.64 6.06-52.89l18.19-24.24a30.348 30.348 0 0 0 6.06-18.18v-32.33h161.62v32.481c0 6.609.81 13.189 2.42 19.599l5.27 21.1a80.44 80.44 0 0 1 2.42 19.601V76.94c0 10.951-8.52 20.281-19.47 20.67-11.49.411-20.94-8.78-20.94-20.19v20.73c0 10.96-8.52 20.29-19.47 20.68-11.49.41-20.94-8.79-20.94-20.189v19.719c0 10.951-8.52 20.281-19.46 20.67-11.5.41-20.94-8.79-20.94-20.189v68.21c0 10.949-8.52 20.279-19.47 20.67-11.49.409-20.94-8.79-20.94-20.191V66.311c0 11.16-9.05 20.2-20.2 20.2-5.58 0-10.63-2.261-14.29-5.91A20.143 20.143 0 0 1 0 66.311V35" style="stroke-width:15;stroke-linecap:round;stroke-linejoin:round;stroke-miterlimit:10;stroke-dasharray:none;stroke-opacity:1" transform="translate(154.98 135.14)" fill="none" stroke="#000000" stroke-width="15" stroke-linecap="round" stroke-linejoin="round" stroke-miterlimit="10" stroke-dasharray="none" stroke-opacity="" data-original="#000000" class=""></path><path d="M0 0v-82.833" style="stroke-width:15;stroke-linecap:round;stroke-linejoin:round;stroke-miterlimit:10;stroke-dasharray:none;stroke-opacity:1" transform="translate(235.797 253.98)" fill="none" stroke="#000000" stroke-width="15" stroke-linecap="round" stroke-linejoin="round" stroke-miterlimit="10" stroke-dasharray="none" stroke-opacity="" data-original="#000000" class=""></path><path d="M0 0v-62.63" style="stroke-width:15;stroke-linecap:round;stroke-linejoin:round;stroke-miterlimit:10;stroke-dasharray:none;stroke-opacity:1" transform="translate(276.203 233.776)" fill="none" stroke="#000000" stroke-width="15" stroke-linecap="round" stroke-linejoin="round" stroke-miterlimit="10" stroke-dasharray="none" stroke-opacity="" data-original="#000000" class=""></path><path d="M0 0v-42.427" style="stroke-width:15;stroke-linecap:round;stroke-linejoin:round;stroke-miterlimit:10;stroke-dasharray:none;stroke-opacity:1" transform="translate(316.61 213.573)" fill="none" stroke="#000000" stroke-width="15" stroke-linecap="round" stroke-linejoin="round" stroke-miterlimit="10" stroke-dasharray="none" stroke-opacity="" data-original="#000000" class=""></path><path d="M0 0v-51.519l-5.556-5.555" style="stroke-width:15;stroke-linecap:round;stroke-linejoin:round;stroke-miterlimit:10;stroke-dasharray:none;stroke-opacity:1" transform="translate(195.39 201.451)" fill="none" stroke="#000000" stroke-width="15" stroke-linecap="round" stroke-linejoin="round" stroke-miterlimit="10" stroke-dasharray="none" stroke-opacity="" data-original="#000000" class=""></path><path d="m0 0 14.816-14.815 29.631 29.63" style="stroke-width:15;stroke-linecap:round;stroke-linejoin:round;stroke-miterlimit:10;stroke-dasharray:none;stroke-opacity:1" transform="translate(72.15 439.85)" fill="none" stroke="#000000" stroke-width="15" stroke-linecap="round" stroke-linejoin="round" stroke-miterlimit="10" stroke-dasharray="none" stroke-opacity="" data-original="#000000" class=""></path><path d="M0 0h16.37c17 0 30.78-13.78 30.78-30.79v-67.72c0-17.01-13.78-30.79-30.78-30.79h-67.73c-17 0-30.79 13.78-30.79 30.79v67.72C-82.15-13.78-68.36 0-51.36 0H-35" style="stroke-width:15;stroke-linecap:round;stroke-linejoin:round;stroke-miterlimit:10;stroke-dasharray:none;stroke-opacity:1" transform="translate(111.87 504.5)" fill="none" stroke="#000000" stroke-width="15" stroke-linecap="round" stroke-linejoin="round" stroke-miterlimit="10" stroke-dasharray="none" stroke-opacity="" data-original="#000000" class=""></path><path d="M0 0h-67.729c-17.002 0-30.786 13.783-30.786 30.786v67.729c0 17.003 13.784 30.786 30.786 30.786H0c17.003 0 30.786-13.783 30.786-30.786V30.786C30.786 13.783 17.003 0 0 0Z" style="stroke-width:15;stroke-linecap:round;stroke-linejoin:round;stroke-miterlimit:10;stroke-dasharray:none;stroke-opacity:1" transform="translate(289.864 375.2)" fill="none" stroke="#000000" stroke-width="15" stroke-linecap="round" stroke-linejoin="round" stroke-miterlimit="10" stroke-dasharray="none" stroke-opacity="" data-original="#000000" class=""></path><path d="M0 0h16.36c17 0 30.79 13.78 30.79 30.79v67.72c0 17.01-13.79 30.79-30.79 30.79h-67.73c-17 0-30.779-13.78-30.779-30.79V30.79C-82.149 13.78-68.37 0-51.37 0H-35" style="stroke-width:15;stroke-linecap:round;stroke-linejoin:round;stroke-miterlimit:10;stroke-dasharray:none;stroke-opacity:1" transform="translate(435.13 375.2)" fill="none" stroke="#000000" stroke-width="15" stroke-linecap="round" stroke-linejoin="round" stroke-miterlimit="10" stroke-dasharray="none" stroke-opacity="" data-original="#000000" class=""></path></g></g></svg>