<svg xmlns="http://www.w3.org/2000/svg" version="1.1" xmlns:xlink="http://www.w3.org/1999/xlink" width="512" height="512" x="0" y="0" viewBox="0 0 64 64" style="enable-background:new 0 0 512 512" xml:space="preserve" class=""><g><path d="M48.004 33.999a13.995 13.995 0 0 1 10.014 4.217 50.382 50.382 0 0 0-.47-9.384 3.055 3.055 0 0 1 .87-2.739 4.856 4.856 0 1 0-6.577-7.145 2.797 2.797 0 0 1-2.558.58 73.204 73.204 0 0 0-17.27-1.88 73.204 73.204 0 0 0-17.27 1.88 2.797 2.797 0 0 1-2.559-.58C7.297 14.71.991 21.606 5.608 26.093a3.055 3.055 0 0 1 .87 2.739 49.9 49.9 0 0 0 0 14.332 3.055 3.055 0 0 1-.87 2.738 4.856 4.856 0 1 0 6.576 7.146 2.797 2.797 0 0 1 2.559-.58 73.203 73.203 0 0 0 17.27 1.879c1.18 0 2.348-.02 3.488-.07a13.996 13.996 0 0 1 12.503-20.278z" fill="#000000" opacity="1" data-original="#000000" class=""></path><path d="M48.004 35.998A11.993 11.993 0 1 0 59.997 47.99a12.003 12.003 0 0 0-11.993-11.993zm5.706 9.374-6.666 6.656a.981.981 0 0 1-.71.29.96.96 0 0 1-.699-.29L42.297 48.7a1.004 1.004 0 1 1 1.42-1.419l2.618 2.629 5.956-5.957a1.004 1.004 0 0 1 1.42 1.42zM32.013 12.583h1.014l-1.72 1.72a1 1 0 0 0 .706 1.706h3.427a1 1 0 0 0 0-1.999h-1.014l1.72-1.72a1 1 0 0 0-.706-1.706h-3.427a1 1 0 0 0 0 1.999zM39.722 9.299h2.728l-3.434 3.434a1 1 0 0 0 .706 1.706h5.14a1 1 0 0 0 0-1.999h-2.727l3.434-3.434a1 1 0 0 0-.706-1.706h-5.14a1 1 0 0 0 0 1.999zM49.146 6.015h4.44l-5.147 5.147a1 1 0 0 0 .707 1.706h6.853a1 1 0 0 0 0-1.999h-4.44l5.147-5.147a1 1 0 0 0-.707-1.706h-6.853a1 1 0 0 0 0 2z" fill="#000000" opacity="1" data-original="#000000" class=""></path></g></svg>