<svg xmlns="http://www.w3.org/2000/svg" version="1.1" xmlns:xlink="http://www.w3.org/1999/xlink" width="512" height="512" x="0" y="0" viewBox="0 0 100 100" style="enable-background:new 0 0 512 512" xml:space="preserve" class=""><g><path d="M40.5 21.96c-4.322-7.1-9.046-13.599-11.823-17.279a3.054 3.054 0 0 0-4.868-.014C17.748 12.604 2.5 33.63 2.5 44.285c0 11.182 7.768 20.992 18.374 23.157l.785-.777C20.096 55.38 30.3 36.753 40.5 21.96zM66.65 9.255a3.048 3.048 0 0 0-4.79.01C54.24 18.915 31 49.545 31 64.235c0 17.57 14.73 32.3 33.25 32.3s33.25-14.25 33.25-32.3c0-15.08-23.21-45.41-30.85-54.98zm-2.4 78.28c-4.24 0-8.23-1.05-11.7-2.89 13.71.96 26.94-8.3 31.93-23.39.59-1.78.94-4.13 1.08-6.99 1.91 4.21 2.94 7.62 2.94 9.97 0 13.07-10.65 23.3-24.25 23.3z" fill="#0097f1" opacity="1" data-original="#000000" class=""></path></g></svg>