<svg xmlns="http://www.w3.org/2000/svg" version="1.1" xmlns:xlink="http://www.w3.org/1999/xlink" width="512" height="512" x="0" y="0" viewBox="0 0 313.725 313.725" style="enable-background:new 0 0 512 512" xml:space="preserve" class=""><g><path d="M141.404 167.936H98.379c-11.881 0-21.514 9.632-21.514 21.517h86.053c.001-11.886-9.632-21.517-21.514-21.517zM98.379 242.539h43.025c11.882 0 21.514-9.63 21.514-21.508H76.866c0 11.878 9.632 21.508 21.513 21.508zM160.442 213.674c4.661 0 8.438-3.772 8.438-8.432a8.44 8.44 0 0 0-8.438-8.44H79.341a8.44 8.44 0 0 0-8.438 8.44c0 4.659 3.778 8.432 8.438 8.432h81.101z" fill="#000000" opacity="1" data-original="#000000" class=""></path><path d="M156.862 0C70.368 0 0 70.368 0 156.862s70.368 156.862 156.862 156.862 156.862-70.368 156.862-156.862S243.356 0 156.862 0zM290 156.862c0 32.443-11.671 62.209-31.027 85.333l-47.82-47.819 6.707-62.53h4.036a6.213 6.213 0 0 0 6.213-6.214v-9.377a6.214 6.214 0 0 0-6.213-6.214h-28.568l8.67-25.807 28.285-17.051a6.213 6.213 0 1 0-6.416-10.642l-30.24 18.229a6.21 6.21 0 0 0-2.682 3.343l-10.727 31.928h-53.402l-55.29-55.286c23.124-19.358 52.891-31.03 85.336-31.03C230.274 23.725 290 83.45 290 156.862zm-266.275 0c0-32.443 11.671-62.209 31.026-85.332l76.854 76.852 1.098 10.234h8.702c.15 0 .297.01.447.012l30.378 30.377c.002.149.011.297.011.447v2.472l.885.907a17.659 17.659 0 0 1 5.073 12.411c0 4.656-1.802 9.058-5.073 12.403l-.885.903v2.482c0 8.61-3.553 16.404-9.266 22.004h37.376a6.215 6.215 0 0 0 6.178-5.551l1.374-12.808 34.295 34.294C219.073 278.328 189.307 290 156.862 290 83.45 290 23.725 230.274 23.725 156.862z" fill="#000000" opacity="1" data-original="#000000" class=""></path></g></svg>