<svg xmlns="http://www.w3.org/2000/svg" version="1.1" xmlns:xlink="http://www.w3.org/1999/xlink" width="512" height="512" x="0" y="0" viewBox="0 0 512 512" style="enable-background:new 0 0 512 512" xml:space="preserve" class=""><g><g fill-rule="evenodd" clip-rule="evenodd"><path d="M365.906 45.298A154.196 154.196 0 0 0 265.143.224v145.838h145.774a154.589 154.589 0 0 0-45.011-100.764zM301.714 383.776h-9.143v18.286h9.143a9.143 9.143 0 0 0 0-18.286zM148.05 420.347h14.757l-7.378-19.675zM246.857 151.419V.224C187.42 3.604 135.164 40.71 112.383 95.712s-12.065 118.19 27.576 162.606zM256 310.633c82.289.105 150.309-64.126 154.917-146.286H259.785L152.878 271.255A154.164 154.164 0 0 0 256 310.633zM374.857 383.776a9.143 9.143 0 0 0-9.143 9.143v36.571a9.143 9.143 0 0 0 18.286 0v-36.571a9.142 9.142 0 0 0-9.143-9.143z" fill="#000000" opacity="1" data-original="#000000" class=""></path></g><path d="M484.571 310.633H333.394a172.93 172.93 0 0 1-154.789 0H27.429C12.28 310.633 0 322.913 0 338.062v146.286c0 15.148 12.28 27.429 27.429 27.429h457.143c15.148 0 27.429-12.28 27.429-27.429V338.062c-.001-15.149-12.281-27.429-27.43-27.429zM101.705 456.846a9.768 9.768 0 0 1-1.134.073 9.144 9.144 0 0 1-9.061-8.009l-4.745-37.97-5.12 12.8a9.145 9.145 0 0 1-16.988 0l-5.12-12.8-4.745 37.97c-.732 4.911-5.25 8.34-10.177 7.724s-8.462-5.051-7.963-9.991l9.143-73.143a9.143 9.143 0 0 1 7.899-7.936 9.251 9.251 0 0 1 9.664 5.678l9.783 24.494 9.792-24.494a9.143 9.143 0 0 1 17.563 2.258l9.143 73.143c.627 5.008-2.926 9.575-7.934 10.203zm84.361-.503a9.42 9.42 0 0 1-3.209.576 9.143 9.143 0 0 1-8.567-5.925l-4.626-12.361h-28.471l-4.626 12.361a9.146 9.146 0 0 1-17.134-6.4l27.429-73.143a9.143 9.143 0 0 1 17.134 0l27.429 73.143c1.756 4.724-.64 9.979-5.359 11.749zm42.505-17.71a9.143 9.143 0 0 0 9.143-9.143 9.143 9.143 0 0 1 18.286 0c0 15.148-12.28 27.429-27.429 27.429-15.148 0-27.429-12.28-27.429-27.429v-36.571c0-15.148 12.28-27.429 27.429-27.429 15.148 0 27.429 12.28 27.429 27.429a9.143 9.143 0 0 1-18.286 0 9.143 9.143 0 0 0-18.286 0v36.571a9.144 9.144 0 0 0 9.143 9.143zm99.658 5.056a9.147 9.147 0 0 1-16.366 8.174l-15.799-31.515h-3.493v27.429a9.143 9.143 0 0 1-18.286 0v-73.143a9.143 9.143 0 0 1 9.143-9.143h18.286c12.542-.052 23.509 8.439 26.6 20.594 3.09 12.155-2.49 24.854-13.534 30.798zm74.057-14.199c0 15.148-12.28 27.429-27.429 27.429-15.148 0-27.429-12.28-27.429-27.429v-36.571c0-15.148 12.28-27.429 27.429-27.429 15.148 0 27.429 12.28 27.429 27.429zm50.285-27.428c16.371-1.142 30.625 11.075 32 27.429-2.451 15.776-16.035 27.412-32 27.412s-29.549-11.636-32-27.412a9.143 9.143 0 0 1 18.286 0c0 4.864 6.4 9.143 13.714 9.143s13.714-4.279 13.714-9.143-6.4-9.143-13.714-9.143c-16.371 1.142-30.625-11.075-32-27.429 2.451-15.776 16.035-27.412 32-27.412s29.549 11.636 32 27.412a9.143 9.143 0 0 1-18.286 0c0-4.864-6.4-9.143-13.714-9.143s-13.714 4.279-13.714 9.143 6.4 9.143 13.714 9.143z" fill="#000000" opacity="1" data-original="#000000" class=""></path></g></svg>