<svg xmlns="http://www.w3.org/2000/svg" version="1.1" xmlns:xlink="http://www.w3.org/1999/xlink" width="512" height="512" x="0" y="0" viewBox="0 0 500 500" style="enable-background:new 0 0 512 512" xml:space="preserve" class=""><g><path fill-rule="evenodd" d="M255.879 154.26c21.978 0 39.796-17.817 39.796-39.796s-17.817-39.796-39.796-39.796-39.796 17.817-39.796 39.796 17.817 39.796 39.796 39.796zm57.397 177.039-6.312-65.845c-.086-.895 1.061-1.351 1.613-.642 19.607 25.175 39.334 45.242 76.59 55.174l52.342 8.052c6.368.979 12.379-3.409 13.396-9.762a.802.802 0 0 0 .011-.147c-.027-6.433-3.628-11.608-9.834-13.333l-31.535-8.765a.9.9 0 0 1-.654-.987c3.126-24.421-17.112-16.586-21.139-10.104l-2.897 4.663a.9.9 0 0 1-1.283.266c-5.617-3.888-10.909-8.294-15.885-13.199-22.675-22.346-28.952-45.314-44.087-72.012a436.062 436.062 0 0 0-2.053-3.581c-14.039-24.219-37.696-37.51-65.67-37.51-27.975 0-51.632 13.292-65.671 37.51-.69 1.19-1.374 2.384-2.053 3.581-15.135 26.699-21.412 49.666-44.087 72.012-4.977 4.905-10.269 9.31-15.886 13.199a.9.9 0 0 1-1.283-.266l-2.774-4.464c-4.036-6.494-23.365-9.6-19.502 10.241a.903.903 0 0 1-.666 1.051l-33.282 8.365c-6.248 1.57-9.808 6.9-9.834 13.334 0 .052.003.096.011.147 1.017 6.352 7.029 10.74 13.396 9.762l52.342-8.052c37.256-9.933 56.983-30 76.59-55.175.553-.709 1.699-.253 1.613.642l-6.312 65.845a.883.883 0 0 1-.545.745 732.488 732.488 0 0 0-40.438 18.748c-12.791 6.418-61.528 27.139-54.595 45.84 6.511 17.567 69.295 20.046 86.617 21.676 44.197 4.158 72.188 7.024 116.773 7.024 5.558 0 22.336-4.931 13.981-13.676l-34.72-23.173.008-.012c-1.846-1.222-3.905-1.183-5.699.118l-13.905 10.085-.01-.014a6.74 6.74 0 0 1-5.422 1.127c-19.735-4.36-40.506-7.472-60.771-8.85a6.773 6.773 0 0 1 .901-13.514c19.819 1.347 39.882 4.269 59.393 8.431.26.055.505.004.72-.152l11.144-8.083c6.303-4.571 14.728-4.76 21.158-.412l.008-.012c5.82 3.88 23.114 13.693 34.456 23.658 12.582 11.054 9.58 14.843 10.715 15.891a.875.875 0 0 0 .685.237c24.978-1.992 64.644-6.119 69.918-20.349 6.933-18.7-41.804-39.422-54.595-45.84a732.829 732.829 0 0 0-40.438-18.748.889.889 0 0 1-.544-.745zm97.336-220.186h48.262a1.806 1.806 0 0 1 1.58 2.69l-23.628 42.372a1.803 1.803 0 0 0 1.062 2.614l28.338 8.47a1.807 1.807 0 0 1 .747 3.026l-77.493 75.849c-1.394 1.365-3.674-.164-2.941-1.972l22.255-54.876a1.802 1.802 0 0 0-1.066-2.382l-29.079-10.43a1.802 1.802 0 0 1-1.003-2.52l31.353-61.848a1.769 1.769 0 0 1 1.613-.993zm-258.029 27.811c13.742 13.742 13.742 36.229 0 49.971l-52.962 52.961a2.744 2.744 0 0 1-3.872 0l-52.961-52.961c-13.742-13.742-13.742-36.229 0-49.971 17.784-17.784 38.539-11.058 54.266 4.302a.904.904 0 0 0 1.263 0c15.726-15.36 36.482-22.086 54.266-4.302z" clip-rule="evenodd" fill="#000000" opacity="1" data-original="#000000" class=""></path></g></svg>