<svg xmlns="http://www.w3.org/2000/svg" version="1.1" xmlns:xlink="http://www.w3.org/1999/xlink" width="512" height="512" x="0" y="0" viewBox="0 0 512 512" style="enable-background:new 0 0 512 512" xml:space="preserve" class=""><g><path d="M367.111 161H497c8.284 0 15-6.716 15-15s-6.716-15-15-15H367.111c-47.44 0-91.648 22.288-119.856 60H15c-8.284 0-15 6.716-15 15 0 74.439 60.561 135 135 135 72.821 0 132.35-57.959 134.904-130.168 22.479-31.28 58.5-49.832 97.207-49.832zM402 261c-60.751 0-110 49.249-110 110s49.249 110 110 110 110-49.249 110-110-49.249-110-110-110zm45.607 134.393c5.858 5.858 5.858 15.355 0 21.213s-15.355 5.858-21.213 0L402 392.213l-24.393 24.393c-5.858 5.858-15.355 5.858-21.213 0s-5.858-15.355 0-21.213L380.787 371l-24.393-24.393c-5.858-5.858-5.858-15.355 0-21.213s15.355-5.858 21.213 0L402 349.787l24.393-24.393c5.858-5.858 15.355-5.858 21.213 0s5.858 15.355 0 21.213L423.213 371zM175 46c0-8.284-6.716-15-15-15h-50c-8.284 0-15 6.716-15 15v35h80z" fill="#000000" opacity="1" data-original="#000000" class=""></path><path d="M150 161h80v-35c0-8.284-6.716-15-15-15h-65zM120 111H55c-8.284 0-15 6.716-15 15v35h80z" fill="#000000" opacity="1" data-original="#000000" class=""></path></g></svg>