<svg xmlns="http://www.w3.org/2000/svg" version="1.1" xmlns:xlink="http://www.w3.org/1999/xlink" width="512" height="512" x="0" y="0" viewBox="0 0 141.239 141.238" style="enable-background:new 0 0 512 512" xml:space="preserve" class=""><g><path d="M6.616 106.26s12.69 1.544 16.944 1.539c3.915 0 9.738.164 18.714-6.567 0 0 1.317 7.558 8.887 12.871 0 0 2.484 4.787 5.323 9.783h49.406c.047-3.901-.183-7.956-.84-12.085 0 0 10.726-20.381 4.533-33.557 0 0 18.494-5.034 26.474-24.591 0 0 8.414-7.349 3.796-11.979 0 0-5.038-9.035-19.339-15.13 0 0-9.455-5.456-10.922-7.349 0 0-3.992-6.304-18.495 4.405 0 0-2.517 8.204 2.309 11.776 0 0 7.357 1.265 10.715-5.258 0 0 .626-.826-.616-1.253 0 0 2.718.208 4.197-2.523 0 0 6.309 2.523 9.236 10.09 2.941 7.573 2.516 8.187 4.201 9.461 0 0-13.022 3.579-15.968 13.445 0 0-14.086 2.309-16.395 11.141 0 0-11.135 1.675-8.819-8.832 0 0 1.892-2.309 6.999-2.024 0 0 2.554.142.7-4.772-.172-.459.436-1.001.771-1.828.317-.755.011-.892-1.391-2.09-.459-.378.373-1.237.723-2.167.22-.559-.723-2.6-.723-2.6s2.189-1.713 2.091-2.522c-.219-1.916-5.318-2.9-6.162-4.619-.337-.684.854-2.21.7-2.933-.579-2.741-3.403-8.323-7.185-10.501-5.182-2.977-19.329-3.924-25.493 8.547-1.665 3.365-.332 11.519 1.118 14.994 1.357 3.293 7.459 12.164 7.459 12.164.287.842 2.234 13.182-8.405 16.251 0 0-9.672-.562-16.676 5.888 0 0-11.908-.985-15.127 6.02 0 0-.829-12.192 6.875-19.611 0 0 4.476 1.116 6.299 0 0 0 1.401 4.552 4.48 2.801 0 0 2.182.625 2.528-1.411 0 0 3.214-.203 2.588-3.36 0 0 1.608-4.476-.98-5.734 0 0 .124-3.922-3.374-3.786 0 0-6.366.471-8.473.284-2.744-.229-7.575.701-10.512 5.893L8.57 78.818S1.425 88.344.446 97.729c.012-.005-2.935 7 6.17 8.531z" fill="#000000" opacity="1" data-original="#000000" class=""></path></g></svg>