<svg xmlns="http://www.w3.org/2000/svg" version="1.1" xmlns:xlink="http://www.w3.org/1999/xlink" width="512" height="512" x="0" y="0" viewBox="0 0 511.979 511.979" style="enable-background:new 0 0 512 512" xml:space="preserve" class=""><g><path fill="#c1e4fa" d="M249.347 212.357c0-25.371 18.847-30.897 18.847-56.726 0-17.988-12.363-40.178-45-68.131-25.735-22.042-74.689-26.688-110.25-13.969-1.714 1.271-7.401 2.58-9.027 3.973-32.634 27.951-45.996 50.14-45.996 68.127 0 25.829 18.847 31.355 18.847 56.726 0 22.978-18.847 29.951-18.847 60.032v10l8.966 70-8.966 57.111c0 13.807 16.193 35 30 35h155.273c7.269 0 14.128-11.734 20.206-14.794a44.796 44.796 0 0 0 4.794-20.206l-19.36-57.111 19.36-70c0-30.081-18.847-37.054-18.847-60.032z" opacity="1" data-original="#c1e4fa" class=""></path><path fill="#91b5f9" d="M243.194 424.5H87.921c-13.807 0-25-11.193-25-25V262.389c0-30.081 18.847-37.054 18.847-60.032 0-25.371-18.847-30.897-18.847-56.726 0-17.988 12.362-40.176 44.996-68.127 1.626-1.393 3.313-2.702 5.027-3.973-9.537 3.411-18.121 8.058-25.023 13.969-32.637 27.953-45 50.143-45 68.131 0 25.829 18.847 31.355 18.847 56.726 0 22.978-18.847 29.951-18.847 60.032l10.927 57.666L42.921 399.5c0 24.853 20.147 45 45 45h135.273c17.584 0 32.802-10.092 40.206-24.794a44.8 44.8 0 0 1-20.206 4.794z" opacity="1" data-original="#91b5f9"></path><path fill="#91b5f9" d="M62.921 399.5h205.273V272.389H62.921l-10 61.912z" opacity="1" data-original="#91b5f9"></path><path fill="#6985c8" d="M62.921 272.389h-20V399.5h20z" opacity="1" data-original="#6985c8"></path><path fill="#91b5f9" d="M228.747 7.5H87.921l-5 70 155.273-5V16.947a9.446 9.446 0 0 0-9.447-9.447z" opacity="1" data-original="#91b5f9"></path><path fill="#6985c8" d="M87.921 66.947V7.5c-8.284 0-15 6.716-15 15v50c0 8.284 6.716 15 15 15h135.273c8.284 0 15-6.716 15-15H93.475a5.554 5.554 0 0 1-5.554-5.553z" opacity="1" data-original="#6985c8"></path><path fill="#f7f9fa" d="M294.634 155.631c-43.075 0-82.495 15.623-112.924 41.5-34.738 34.738-51.5 79.85-51.5 122.924 0 96.332 78.092 174.424 174.424 174.424 43.075 0 87.084-15.659 122.924-51.5 25.877-30.43 41.5-69.85 41.5-112.924 0-96.332-78.093-174.424-174.424-174.424z" opacity="1" data-original="#f7f9fa"></path><path fill="#dce6eb" d="M140.21 310.055c0-43.075 15.623-82.495 41.5-112.924-37.623 31.994-61.5 79.667-61.5 132.924 0 96.332 78.092 174.424 174.424 174.424 53.257 0 100.931-23.876 132.924-61.5-30.43 25.877-69.85 41.5-112.924 41.5-96.332 0-174.424-78.092-174.424-174.424z" opacity="1" data-original="#dce6eb"></path><g fill="#91b5f9"><path d="m245.311 308.712-21.213-21.213c-3.903-3.903-9.465-5.18-14.468-3.861-4.866 4.866-5.042 15.565-1.139 19.468l21.213 21.213c3.903 3.903 15.045 3.283 19.467-1.139 1.321-5.003.043-10.565-3.86-14.468z" fill="#91b5f9" opacity="1" data-original="#91b5f9"></path><path d="m234.705 319.319-21.213-21.213c-3.903-3.903-5.18-9.465-3.861-14.468a14.855 14.855 0 0 0-6.746 3.861c-5.834 5.834-5.834 15.38 0 21.213l21.213 21.213c5.834 5.834 15.38 5.834 21.213 0a14.855 14.855 0 0 0 3.861-6.746c-5.002 1.32-10.564.043-14.467-3.86zM321.378 383.565l-21.213-21.213c-3.903-3.903-9.465-5.18-14.468-3.861-4.866 4.866-5.042 15.565-1.139 19.468l21.213 21.213c3.903 3.903 15.045 3.283 19.467-1.139 1.32-5.003.042-10.565-3.86-14.468z" fill="#91b5f9" opacity="1" data-original="#91b5f9"></path><path d="m310.771 394.172-21.213-21.213c-3.903-3.903-5.18-9.465-3.861-14.468a14.855 14.855 0 0 0-6.746 3.861c-5.834 5.834-5.834 15.38 0 21.213l21.213 21.213c5.834 5.834 15.38 5.834 21.213 0a14.855 14.855 0 0 0 3.861-6.746c-5.002 1.32-10.564.043-14.467-3.86zM330.164 308.712l-21.213-21.213c-3.903-3.903-9.465-5.18-14.468-3.861-4.866 4.866-5.042 15.565-1.139 19.468l21.213 21.213c3.903 3.903 15.045 3.283 19.467-1.139 1.321-5.003.043-10.565-3.86-14.468z" fill="#91b5f9" opacity="1" data-original="#91b5f9"></path><path d="m319.558 319.319-21.213-21.213c-3.903-3.903-5.18-9.465-3.861-14.468a14.855 14.855 0 0 0-6.746 3.861c-5.834 5.834-5.834 15.38 0 21.213l21.213 21.213c5.834 5.834 15.38 5.834 21.213 0a14.855 14.855 0 0 0 3.861-6.746c-5.003 1.32-10.564.043-14.467-3.86zM393.804 287.499l-21.213-21.213c-3.903-3.903-9.465-5.18-14.468-3.861-4.866 4.866-5.042 15.565-1.139 19.468l21.213 21.213c3.903 3.903 15.045 3.283 19.467-1.139 1.32-5.003.043-10.565-3.86-14.468z" fill="#91b5f9" opacity="1" data-original="#91b5f9"></path><path d="m383.197 298.106-21.213-21.213c-3.903-3.903-5.18-9.465-3.861-14.468a14.855 14.855 0 0 0-6.746 3.861c-5.834 5.834-5.834 15.38 0 21.213l21.213 21.213c5.834 5.834 15.38 5.834 21.213 0a14.855 14.855 0 0 0 3.861-6.746c-5.002 1.32-10.564.043-14.467-3.86zM419.392 345.885c-5.834-5.834-15.38-5.834-21.213 0l-10.607 10.607c-5.834 5.834-14.744 16.469-5 26.213s20.379.834 26.213-5l10.607-10.607c5.834-5.834 5.834-15.38 0-21.213z" fill="#91b5f9" opacity="1" data-original="#91b5f9"></path><path d="M387.573 377.705c-5.834-5.834-5.834-15.38 0-21.213l-10.607 10.607c-5.833 5.834-5.833 15.38 0 21.213 5.834 5.834 15.38 5.834 21.213 0l10.606-10.606c-5.833 5.832-15.379 5.832-21.212-.001zM247.738 391.139c-5.834-5.834-15.38-5.834-21.213 0l-10.607 10.607c-5.834 5.834-14.744 16.469-5 26.213s20.379.834 26.213-5l10.607-10.607c5.833-5.834 5.833-15.379 0-21.213z" fill="#91b5f9" opacity="1" data-original="#91b5f9"></path><path d="M215.918 422.959c-5.834-5.834-5.834-15.38 0-21.213l-10.607 10.607c-5.833 5.834-5.833 15.38 0 21.213 5.834 5.834 15.38 5.834 21.213 0l10.606-10.606c-5.833 5.832-15.379 5.832-21.212-.001zM285.639 201.761c-5.834-5.834-15.38-5.834-21.213 0l-10.607 10.607c-5.834 5.834-14.744 16.469-5 26.213s20.379.834 26.213-5l10.607-10.607c5.833-5.834 5.833-15.38 0-21.213z" fill="#91b5f9" opacity="1" data-original="#91b5f9"></path><path d="M253.819 233.581c-5.834-5.834-5.834-15.38 0-21.213l-10.607 10.607c-5.833 5.834-5.833 15.38 0 21.213 5.834 5.834 15.38 5.834 21.213 0l10.606-10.606c-5.833 5.832-15.379 5.832-21.212-.001z" fill="#91b5f9" opacity="1" data-original="#91b5f9"></path></g><path d="M294.634 511.979c-53.444 0-101.578-23.162-134.891-59.979H87.921c-28.949 0-52.5-23.551-52.5-52.5v-55.591a7.5 7.5 0 0 1 15 0V392h73.147c-7.027-19.344-10.859-40.203-10.859-61.945 0-17.395 2.454-34.225 7.033-50.167H50.421v34.02a7.5 7.5 0 0 1-15 0v-41.52c0-18.029 6.028-28.668 11.347-38.055 4.19-7.396 7.5-13.237 7.5-21.977 0-10.535-3.835-16.868-8.276-24.202-4.955-8.183-10.571-17.458-10.571-32.524 0-19.988 12.586-41.519 38.407-65.604-5.123-4.126-8.407-10.45-8.407-17.526v-50c0-12.407 10.093-22.5 22.5-22.5h135.273c12.406 0 22.5 10.093 22.5 22.5v50c0 7.079-3.286 13.404-8.412 17.532 13.318 12.448 23.232 24.361 29.541 35.511a7.5 7.5 0 1 1-13.055 7.387c-6.538-11.554-17.758-24.307-33.367-37.93H90.713c-26.739 23.331-40.292 43.723-40.292 60.631 0 10.878 3.894 17.309 8.402 24.754 4.896 8.085 10.445 17.249 10.445 31.971 0 12.694-4.804 21.172-9.449 29.371-3.903 6.889-7.632 13.47-8.922 23.161h73.876c26.262-68.219 92.5-116.757 169.86-116.757 41.676 0 80.886 13.712 113.392 39.653a7.5 7.5 0 1 1-9.355 11.725c-29.821-23.798-65.797-36.377-104.036-36.377-92.042 0-166.924 74.882-166.924 166.924S202.592 496.98 294.634 496.98s166.924-74.882 166.924-166.924c0-41.851-15.557-81.881-43.803-112.717a7.5 7.5 0 1 1 11.061-10.132c30.787 33.609 47.742 77.238 47.742 122.849 0 100.312-81.611 181.923-181.924 181.923zM51.175 407c3.485 17.095 18.637 30 36.747 30h59.623a182.008 182.008 0 0 1-17.75-30zM80.421 65v7.5c0 4.136 3.364 7.5 7.5 7.5h135.273c4.136 0 7.5-3.364 7.5-7.5V65h-89.796a7.5 7.5 0 0 1 0-15h89.796V22.5c0-4.135-3.364-7.5-7.5-7.5H87.921c-4.136 0-7.5 3.365-7.5 7.5V50h30.477a7.5 7.5 0 0 1 0 15zm281.581 395.775a7.5 7.5 0 0 1-7.5-7.5v-7.5h-7.5c-4.143 0-7.5-3.358-7.5-7.5s3.357-7.5 7.5-7.5h7.5v-7.5c0-4.142 3.357-7.5 7.5-7.5s7.5 3.358 7.5 7.5v7.5h7.5c4.143 0 7.5 3.358 7.5 7.5s-3.357 7.5-7.5 7.5h-7.5v7.5a7.5 7.5 0 0 1-7.5 7.5zm-188-76a7.5 7.5 0 0 1-7.5-7.5v-7.5h-7.5a7.5 7.5 0 0 1 0-15h7.5v-7.5a7.5 7.5 0 0 1 15 0v7.5h7.5a7.5 7.5 0 0 1 0 15h-7.5v7.5a7.5 7.5 0 0 1-7.5 7.5zm170-150a7.5 7.5 0 0 1-7.5-7.5v-7.5h-7.5c-4.143 0-7.5-3.358-7.5-7.5s3.357-7.5 7.5-7.5h7.5v-7.5c0-4.142 3.357-7.5 7.5-7.5s7.5 3.358 7.5 7.5v7.5h7.5c4.143 0 7.5 3.358 7.5 7.5s-3.357 7.5-7.5 7.5h-7.5v7.5a7.5 7.5 0 0 1-7.5 7.5zm-53.06-6.497-21.213 21.213c-8.773 8.773-23.047 8.773-31.82 0s-8.773-23.047 0-31.82l21.213-21.213c8.773-8.773 23.047-8.773 31.82 0s8.773 23.047 0 31.82zm-42.426 0c-2.924 2.924-2.924 7.682 0 10.607s7.682 2.924 10.607 0l21.213-21.213c2.924-2.924 2.924-7.682 0-10.607-2.924-2.924-7.682-2.924-10.607 0zm4.525 189.377-21.213 21.213c-8.773 8.773-23.047 8.773-31.82 0s-8.773-23.047 0-31.82l21.213-21.213c8.773-8.773 23.047-8.773 31.82 0s8.772 23.047 0 31.82zm-42.427 0c-2.924 2.924-2.924 7.682 0 10.607s7.682 2.924 10.607 0l21.213-21.213c2.924-2.924 2.924-7.682 0-10.607-2.924-2.924-7.682-2.924-10.607 0zm214.081-45.254-21.213 21.213c-8.773 8.773-23.047 8.773-31.82 0s-8.773-23.047 0-31.82l21.213-21.213c8.773-8.773 23.047-8.773 31.82 0s8.773 23.048 0 31.82zm-42.426 0c-2.924 2.924-2.924 7.682 0 10.607s7.682 2.924 10.607 0l21.213-21.213c2.924-2.924 2.924-7.682 0-10.607-2.924-2.924-7.682-2.924-10.607 0zm-4.376-111.418 21.213 21.213c8.773 8.773 8.773 23.047 0 31.82s-23.047 8.773-31.82 0l-21.213-21.213c-8.773-8.773-8.773-23.047 0-31.82s23.048-8.772 31.82 0zm0 42.427c2.924 2.924 7.682 2.924 10.607 0s2.924-7.682 0-10.607l-21.213-21.213c-2.924-2.924-7.682-2.924-10.607 0-2.924 2.924-2.924 7.682 0 10.607zm-63.638-21.214 21.213 21.213c8.773 8.773 8.773 23.047 0 31.82s-23.047 8.773-31.82 0l-21.213-21.213c-8.773-8.773-8.773-23.047 0-31.82s23.047-8.773 31.82 0zm0 42.426c2.924 2.924 7.682 2.924 10.607 0s2.924-7.682 0-10.607l-21.213-21.213c-2.924-2.924-7.682-2.924-10.607 0-2.924 2.924-2.924 7.682 0 10.607zm-84.853-42.426 21.213 21.213c8.773 8.773 8.773 23.047 0 31.82s-23.047 8.773-31.82 0l-21.213-21.213c-8.773-8.773-8.773-23.047 0-31.82s23.047-8.773 31.82 0zm0 42.426c2.924 2.924 7.682 2.924 10.607 0s2.924-7.682 0-10.607l-21.213-21.213c-2.924-2.924-7.682-2.924-10.607 0-2.924 2.924-2.924 7.682 0 10.607zm76.066 32.427 21.213 21.213c8.773 8.773 8.773 23.047 0 31.82s-23.047 8.773-31.82 0l-21.213-21.213c-8.773-8.773-8.773-23.047 0-31.82s23.048-8.773 31.82 0zm0 42.426c2.924 2.924 7.682 2.924 10.607 0s2.924-7.682 0-10.607l-21.213-21.213c-2.924-2.924-7.682-2.924-10.607 0-2.924 2.924-2.924 7.682 0 10.607z" fill="#000000" opacity="1" data-original="#000000" class=""></path></g></svg>
    