<svg xmlns="http://www.w3.org/2000/svg" version="1.1" xmlns:xlink="http://www.w3.org/1999/xlink" width="512" height="512" x="0" y="0" viewBox="0 0 512 512" style="enable-background:new 0 0 512 512" xml:space="preserve" class=""><g><path fill-rule="evenodd" d="M23.1 266.6c1.7 57.2 24 111.1 63.3 152.7l32-32c-30.6-33-48.3-75.7-50-120.7zm319.7-7c0 3.9-3.1 7-7 7s-7-3.1-7-7c0-40.2-32.6-72.8-72.8-72.8s-72.8 32.6-72.8 72.8c0 3.9-3.1 7-7 7s-7-3.1-7-7c0-47.9 38.9-86.8 86.8-86.8 21.4 0 41.1 7.8 56.2 20.7l39.6-39.6c2.7-2.7 7.2-2.7 9.9 0s2.7 7.2 0 9.9l-39.6 39.6c12.9 15.1 20.7 34.7 20.7 56.2zm-134.5 0c0 26.4 21.4 47.7 47.7 47.7 26.4 0 47.7-21.4 47.7-47.7 0-26.4-21.4-47.7-47.7-47.7-26.4-.1-47.7 21.3-47.7 47.7zm217.3 159.7c39.2-41.6 61.6-95.6 63.3-152.7h-45.3c-1.7 45-19.4 87.7-50 120.7zm63.3-166.7c-1.7-59.1-25.5-112.6-63.3-152.7l-32 32c29.6 31.9 48.3 74.1 50 120.7zM361.4 441.7c0 58.2-210.7 58.2-210.7 0s47.2-105.4 105.4-105.4c58.1 0 105.3 47.2 105.3 105.4zm54.3-351.8-32 32C351.8 92.3 309.6 73.7 263 72V26.7c59.1 1.7 112.6 25.4 152.7 63.2zM249 26.7C189.9 28.4 136.4 52.2 96.3 90l32 32c31.9-29.6 74.1-48.3 120.7-50zM86.4 99.8l32 32c-29.6 31.9-48.3 74.1-50 120.7H23.1c1.8-59 25.5-112.5 63.3-152.7z" clip-rule="evenodd" fill="#000000" opacity="1" data-original="#000000" class=""></path></g></svg>