<svg xmlns="http://www.w3.org/2000/svg" version="1.1" xmlns:xlink="http://www.w3.org/1999/xlink" width="512" height="512" x="0" y="0" viewBox="0 0 511.999 511" style="enable-background:new 0 0 512 512" xml:space="preserve" class="">
  <g transform="scale(1, -1) translate(0, -512)">
    <path d="M316 151.496c5.2 0 10.02-2.695 12.758-7.117a14.971 14.971 0 0 0 .66-14.59l-60-121.664c-5.098-10.168-21.738-10.168-26.836 0l-60 121.664a14.971 14.971 0 0 0 .66 14.59A15.006 15.006 0 0 0 196 151.496zM152.582 189.785l-59.996 120a14.961 14.961 0 0 0 .656 14.59 15.013 15.013 0 0 0 12.762 7.117h299.992c5.2 0 10.02-2.695 12.762-7.117a14.971 14.971 0 0 0 .656-14.59l-60-120A14.998 14.998 0 0 0 346 181.496H166a15.013 15.013 0 0 0-13.418 8.29zM2.246 505.371a15.001 15.001 0 0 0 12.758 7.121h481.992c5.2 0 10.02-2.695 12.758-7.12a14.97 14.97 0 0 0 .66-14.59l-60-120.997a15 15 0 0 0-13.418-8.293H75.004a15 15 0 0 0-13.418 8.293l-60 120.996a14.97 14.97 0 0 0 .66 14.59zm0 0" fill="#000000" opacity="1" data-original="#000000" class=""></path>
  </g>
</svg>
