<svg xmlns="http://www.w3.org/2000/svg" version="1.1" xmlns:xlink="http://www.w3.org/1999/xlink" width="512" height="512" x="0" y="0" viewBox="0 0 64 64" style="enable-background:new 0 0 512 512" xml:space="preserve" class=""><g><path d="M11 55.576c0 .914.356 1.774 1.003 2.421S13.51 59 14.424 59h24.152A3.428 3.428 0 0 0 42 55.576V53H11zm20-25.015c0-6.279 4.85-11.438 11-11.949V8.424c0-.914-.356-1.774-1.003-2.421A3.4 3.4 0 0 0 38.576 5H14.424c-.914 0-1.774.356-2.421 1.003S11 7.51 11 8.424V51h31v-8.49c-6.15-.511-11-5.67-11-11.949zM29.5 10h-6a1 1 0 0 1 0-2h6a1 1 0 0 1 0 2zM43 20.561c-5.514 0-10 4.486-10 10s4.486 10 10 10 10-4.486 10-10-4.486-10-10-10zm2.756 11.168h-2.588a1 1 0 0 1-1-1v-3.883a1 1 0 1 1 2 0v2.883h1.588a1 1 0 1 1 0 2z" fill="#000000" opacity="1" data-original="#000000" class=""></path></g></svg>