<svg xmlns="http://www.w3.org/2000/svg" version="1.1" xmlns:xlink="http://www.w3.org/1999/xlink" width="512" height="512" x="0" y="0" viewBox="0 0 512 512" style="enable-background:new 0 0 512 512" xml:space="preserve" class=""><g><circle cx="256" cy="327" r="30" fill="#000000" opacity="1" data-original="#000000" class=""></circle><circle cx="256" cy="50" r="50" fill="#000000" opacity="1" data-original="#000000" class=""></circle><path d="M176 210h160c8.284 0 15-6.716 15-15v-30c0-26.365-13.687-49.58-34.317-62.957C302 119.139 280.251 130 256 130s-46-10.861-60.683-27.957C174.687 115.42 161 138.635 161 165v30c0 8.284 6.716 15 15 15z" fill="#000000" opacity="1" data-original="#000000" class=""></path><circle cx="417" cy="352" r="50" fill="#000000" opacity="1" data-original="#000000" class=""></circle><path d="M477.683 404.043C463 421.139 441.251 432 417 432s-46-10.861-60.683-27.957C335.687 417.42 322 440.635 322 467v30c0 8.284 6.716 15 15 15h160c8.284 0 15-6.716 15-15v-30c0-26.365-13.687-49.58-34.317-62.957z" fill="#000000" opacity="1" data-original="#000000" class=""></path><circle cx="95" cy="352" r="50" fill="#000000" opacity="1" data-original="#000000" class=""></circle><path d="M155.683 404.043C141 421.139 119.251 432 95 432s-46-10.861-60.683-27.957C13.687 417.42 0 440.635 0 467v30c0 8.284 6.716 15 15 15h160c8.284 0 15-6.716 15-15v-30c0-26.365-13.687-49.58-34.317-62.957zM327.869 388.037l-22.801-26.571c-5.822 8.264-13.666 15.003-22.82 19.476l25.869 30.147a105.005 105.005 0 0 1 19.752-23.052zM206.932 361.466l-22.8 26.571a104.969 104.969 0 0 1 19.751 23.051l25.869-30.147c-9.154-4.472-16.998-11.211-22.82-19.475zM256 267c5.178 0 10.204.66 15 1.899V240h-30v28.899A59.897 59.897 0 0 1 256 267z" fill="#000000" opacity="1" data-original="#000000" class=""></path></g></svg>