<svg xmlns="http://www.w3.org/2000/svg" version="1.1" xmlns:xlink="http://www.w3.org/1999/xlink" width="512" height="512" x="0" y="0" viewBox="0 0 168.898 179.528" style="enable-background:new 0 0 512 512" xml:space="preserve" class=""><g><path d="m62.259 108.277 2.751-1.722a10.32 10.32 0 0 1 2.063-10.583c1.396-17.996 4.496-31.371 7.501-40.677l9.75 26.865c25.623-21.747 30.466-34.663 31.012-40.534l2.36-1.301c.082 7.32-5.647 24.851-47.82 56.198a8 8 0 0 0 4.779 14.421 7.966 7.966 0 0 0 4.767-1.58c39.402-29.288 57.051-53.226 53.953-73.183a26.743 26.743 0 0 0-.954-3.977c-3.116-9.852-11.271-15.727-16.993-18.194a7.706 7.706 0 0 0-6.788-.755l-2.311.839c4.633 12.843-2.028 27.067-14.867 31.727-10.093 3.663-21.046.34-27.546-7.479-5.408 12.005-13.37 36.378-13.601 76.221-.02 3.45 2.15 6.393 5.203 7.534-.538-5.361 1.929-10.807 6.741-13.82z" fill="#000000" opacity="1" data-original="#000000" class=""></path><path d="m165.176 158.481-28.529-27.664 5.964-42.333c.27-1.919.067-3.792-.499-5.516a7.81 7.81 0 0 0-.24-.797l-9.358-25.785c-6.897 16.114-24.022 34.234-51.722 54.822a10.214 10.214 0 0 1-6.139 2.034 10.348 10.348 0 0 1-8.272-4.156c-.115-.155-.213-.318-.319-.477l-2.583 1.617c-5.462 3.42-7.341 10.487-4.297 16.167l25 46.667a12.247 12.247 0 0 0 16.583 5.014c5.963-3.195 8.208-10.62 5.013-16.583l-19.593-36.575 12.264-7.678 16.365-10.246c.173-.108.33-.231.495-.346l-3.793 26.921a12.25 12.25 0 0 0 3.603 10.503l33 32a12.207 12.207 0 0 0 8.527 3.456c3.198 0 6.393-1.245 8.795-3.723 4.711-4.857 4.592-12.613-.265-17.322z" fill="#000000" opacity="1" data-original="#000000" class=""></path><circle cx="83.001" cy="22.506" r="22.5" transform="rotate(-19.95 83.034 22.525)" fill="#000000" opacity="1" data-original="#000000" class=""></circle><path d="m21.219 106.716 20.034 7.029.283-.928-23.003-11.028.489 9.789-17.97-5.982L0 109.704l22.273 5.777zM33.838 93.748l11.752 13.579.595-.562-12.25-17.766-3.755 7.397L19.502 84.45l-2.5 2.573 13.925 13.603zM42.845 122.041l-21.25-.039 3.879 7.184-15.653 1.951.682 3.469 18.815-3.654-3.936-6.212 17.58-1.905z" fill="#000000" opacity="1" data-original="#000000" class=""></path></g></svg>