<svg xmlns="http://www.w3.org/2000/svg" version="1.1" xmlns:xlink="http://www.w3.org/1999/xlink" width="512" height="512" x="0" y="0" viewBox="0 0 512 512" style="enable-background:new 0 0 512 512" xml:space="preserve" class=""><g><path d="M57 410v27c0 41.355 33.645 75 75 75h248c41.355 0 75-33.645 75-75v-27H57zM400.997 97H111.003C79.836 106.104 57 134.932 57 169v27h398v-27c0-34.068-22.836-62.896-54.003-72zM395 67V15c0-8.284-6.716-15-15-15H132c-8.284 0-15 6.716-15 15v52h278zM57 226v154h398V226H57zm292 101c0 8.284-6.716 15-15 15s-15-6.716-15-15v16c0 8.284-6.716 15-15 15s-15-6.716-15-15v-25h-70v25c0 8.284-6.716 15-15 15s-15-6.716-15-15v-16c0 8.284-6.716 15-15 15s-15-6.716-15-15v-46c0-8.284 6.716-15 15-15s15 6.716 15 15v-16c0-8.284 6.716-15 15-15s15 6.716 15 15v23h70v-23c0-8.284 6.716-15 15-15s15 6.716 15 15v16c0-8.284 6.716-15 15-15s15 6.716 15 15v46z" fill="#000000" opacity="1" data-original="#000000" class=""></path></g></svg>