<svg xmlns="http://www.w3.org/2000/svg" version="1.1" xmlns:xlink="http://www.w3.org/1999/xlink" width="512" height="512" x="0" y="0" viewBox="0 0 116.808 249.558" style="enable-background:new 0 0 512 512" xml:space="preserve" class=""><g><path d="M109.191 134.005A218.039 218.039 0 0 0 85.521 74.4c.895-4.105 1.748-9.66 1.761-16.025-.002-5.923-.753-12.566-3.063-19.31-3.408-10.11-10.639-20.384-23.046-27.563C48.776 4.284 31.634.006 8 0a8.002 8.002 0 0 0 0 16.002c14.482-.005 25.675 1.766 34.195 4.532 12.798 4.199 19.573 10.325 23.679 16.89 4.072 6.581 5.41 14.087 5.41 20.95 0 1.467-.066 2.889-.171 4.26a5.673 5.673 0 0 0-1.539.764c-9.642 6.719-19.281 13.438-28.922 20.158a7.946 7.946 0 0 0-2.823 1.868c-.283.298-3.73 3.853-7.274 9.721-3.51 5.86-7.272 14.133-7.307 24.05-.03 6.766 1.938 14.241 6.763 21.143 4.814 6.926 12.255 13.236 22.858 18.76a7.976 7.976 0 0 0 2.949.862c-2.928 15-10.133 38.521-27.541 71.221-3.246 6.092-.937 13.661 5.155 16.907a12.492 12.492 0 0 0 16.91-5.154c18.586-34.882 26.709-60.972 30.116-78.717l8.254-.879c1.51 15.491 3.097 39.83 3.097 73.719 0 6.904 5.597 12.501 12.501 12.501 6.902 0 12.5-5.597 12.5-12.501 0-67.004-6.069-98.484-6.233-99.317a12.54 12.54 0 0 0-1.386-3.735zm-66.04-2.792c-2.949-4.298-3.878-8.14-3.906-12.019-.029-4.449 1.474-9.029 3.418-12.907a165.102 165.102 0 0 1 14.199 36.738c-6.886-4.043-11.146-8.115-13.711-11.812z" fill="#000000" opacity="1" data-original="#000000"></path><circle cx="40.2" cy="51.269" r="22.495" transform="rotate(-12.94 40.189 51.25)" fill="#000000" opacity="1" data-original="#000000"></circle></g></svg>