<svg xmlns="http://www.w3.org/2000/svg" version="1.1" xmlns:xlink="http://www.w3.org/1999/xlink" width="512" height="512" x="0" y="0" viewBox="0 0 512 512" style="enable-background:new 0 0 512 512" xml:space="preserve" class=""><g><path fill="#6aabff" d="m362.159 118.033-3.547 3.547 18.407 18.407-93.517 93.515 6.594 89.848 135.143-135.143 18.407 18.407 3.547-3.547v-85.034z" opacity="1" data-original="#6aabff" class=""></path><path fill="#29ff6f" d="m134.98 139.987 18.407-18.407-3.547-3.547H64.806v85.034l3.547 3.547 18.407-18.407L221.903 323.35l9.261-87.18z" opacity="1" data-original="#b9e600" class=""></path><path fill="#ff8848" d="M195.872 60.128v5.017h26.031v267.471H256L266 173.5 256 0z" opacity="1" data-original="#ff8848" class=""></path><path fill="#ff4c4c" d="M256 0v332.616h34.097V65.145h26.031v-5.017z" opacity="1" data-original="#ff4c4c" class=""></path><path fill="#000000" d="M86.072 380.848c-12.663 0-22.928 10.265-22.928 22.928s10.265 22.928 22.928 22.928H109l10-22.928-10-22.928z" opacity="1" data-original="#a34f3e" class=""></path><path fill="#000000" d="M425.928 426.705c12.663 0 22.928-10.265 22.928-22.928s-10.265-22.928-22.928-22.928H403l-10 22.928 10 22.928z" opacity="1" data-original="#873f2e" class=""></path><path fill="#000000" d="M109 380.848v45.857l83.386 13.634V512H256l20-85-20-46.152z" opacity="1" data-original="#445373" class=""></path><path fill="#000000" d="M403 380.848v45.857l-83.386 13.634V512H256V380.848z" opacity="1" data-original="#363c5a" class=""></path><g fill="#a34f3e"><path d="m212.405 339.388.002-.067-.002-.067zM299.595 339.253l-.002.067.002.067zM212.407 339.32c.037 24.045 19.538 43.527 43.592 43.527l20-50.231-20-36.823c-24.054 0-43.555 19.482-43.592 43.527z" fill="#000000" opacity="1" data-original="#a34f3e" class=""></path></g><path fill="#000000" d="m256 295.793-.001 87.055H256c24.054 0 43.556-19.482 43.593-43.527-.037-24.046-19.539-43.528-43.593-43.528z" opacity="1" data-original="#873f2e" class=""></path></g></svg>