<svg xmlns="http://www.w3.org/2000/svg" version="1.1" xmlns:xlink="http://www.w3.org/1999/xlink" width="512" height="512" x="0" y="0" viewBox="0 0 512 512" style="enable-background:new 0 0 512 512" xml:space="preserve" class=""><g><path d="M256 0C115.39 0 0 115.39 0 256s115.39 256 256 256 256-115.39 256-256S396.61 0 256 0zM30 256C30 131.928 131.928 30 256 30c56.624 0 108.279 22.182 147.869 56.831L290.501 200.2c-1.501-1.501-3.001-2.701-4.501-3.9V151h-60v45.3c-19.21 14.324-30 36.947-30 59.7v38.699L86.831 403.869C52.182 364.279 30 312.624 30 256zm226 226c-56.624 0-108.279-22.182-147.869-56.831l317.038-317.038C459.818 147.721 482 199.376 482 256c0 124.072-101.928 226-226 226z" fill="#000000" opacity="1" data-original="#000000" class=""></path><path d="M226 61h60v60h-60zM196 436h120V259.6l-120 120z" fill="#000000" opacity="1" data-original="#000000" class=""></path></g></svg>