<svg xmlns="http://www.w3.org/2000/svg" version="1.1" xmlns:xlink="http://www.w3.org/1999/xlink" width="512" height="512" x="0" y="0" viewBox="0 0 324.885 174.94" style="enable-background:new 0 0 512 512" xml:space="preserve" class=""><g><path d="M220.573 50.76h41.037v32.358c0 2.2 1.8 4 4 4h.716c1.86 0 3.421-1.292 3.863-3.02.442 1.727 2.003 3.02 3.863 3.02h.716c1.915 0 3.526-1.366 3.911-3.172.385 1.806 1.995 3.172 3.911 3.172h.716c2.2 0 4-1.8 4-4V61.56h6.821v-10.8h30.758v-5.558h-30.758v-10.8h-6.821V12.844c0-2.2-1.8-4-4-4h-.716c-1.916 0-3.526 1.366-3.911 3.172-.385-1.806-1.995-3.172-3.911-3.172h-.716c-1.86 0-3.421 1.292-3.863 3.02-.442-1.727-2.004-3.02-3.863-3.02h-.716c-2.2 0-4 1.8-4 4v32.358h-40.616v2.664a10.212 10.212 0 0 1-.421 2.894zM124.068 50.76h18.328c-.607.06-1.2.165-1.759.355-6.95 1.529-12.896 6.737-17.718 12.931l-.518-9.988c-1.882 2.489-4.857 4.107-8.211 4.107-3.108 0-5.893-1.39-7.783-3.574l2.025 39.036v.001c.013.239.038.475.072.71.004.027.005.055.009.082.021.135.053.268.081.401.183.896.507 1.737.96 2.492l.038.059c.118.192.241.381.373.562.063.086.134.167.2.251.088.11.173.223.267.328.094.107.197.207.297.308.075.076.147.155.226.228.107.1.221.194.334.288.082.069.162.14.247.205.107.082.219.158.33.235.103.072.205.144.312.211.098.061.2.117.301.175.131.075.263.147.398.215.087.043.176.082.265.122.158.071.318.138.481.199.038.014.074.033.113.047.054.019.109.032.163.05.129.043.259.084.391.12.112.031.225.057.337.083.116.027.232.054.35.076.152.028.305.048.457.067.082.01.163.024.245.031.248.023.496.038.743.038l.036-.003a7.77 7.77 0 0 0 1.146-.089c.015-.002.031-.002.046-.005a7.848 7.848 0 0 0 1.269-.313 7.939 7.939 0 0 0 1.961-.96c.06-.041.121-.08.18-.123.287-.205.561-.424.818-.664.052-.048.099-.102.15-.151.217-.214.421-.44.613-.677.05-.062.103-.121.152-.185.215-.283.408-.581.584-.891.038-.066.073-.134.109-.202.18-.339.343-.689.473-1.055 2.434-6.826 6.844-15.624 11.439-21.781v35.855l-21.37-5.506a12.25 12.25 0 0 0-14.991 14.626l10.736 46.358c1.312 5.662 6.352 9.489 11.924 9.489.915 0 1.845-.104 2.774-.319 6.591-1.526 10.697-8.107 9.171-14.698l-6.183-26.696 21.634 5.574c5.249 1.355 10.57-.912 13.351-5.233 2.781 4.319 8.104 6.583 13.351 5.233l21.635-5.575-6.183 26.695c-1.527 6.591 2.578 13.172 9.17 14.698.93.215 1.859.319 2.774.319 5.572 0 10.612-3.828 11.923-9.489l10.738-46.358a12.248 12.248 0 0 0-3.38-11.532 12.247 12.247 0 0 0-11.611-3.095l-21.372 5.507V74.118c4.594 6.154 9.002 14.945 11.437 21.77.132.372.296.727.48 1.072.034.064.067.127.102.19a8 8 0 0 0 .589.9c.046.06.096.116.143.175.195.242.403.473.625.691.048.047.092.096.141.142.258.242.535.463.824.669.057.04.115.078.172.117a7.924 7.924 0 0 0 2.166 1.025c.348.104.703.194 1.07.25l.043.004a8.105 8.105 0 0 0 1.148.089c.012 0 .023.003.035.003.247 0 .495-.014.743-.038.081-.007.16-.021.24-.031.155-.019.309-.04.463-.068.116-.021.229-.048.344-.074.115-.027.231-.054.346-.086.129-.036.255-.076.381-.117.056-.019.113-.032.17-.052.04-.014.077-.034.117-.049.159-.06.315-.125.469-.194.093-.042.186-.083.277-.128.13-.065.257-.135.383-.206.107-.06.214-.12.317-.184.099-.063.195-.13.291-.197.118-.082.237-.162.35-.249.076-.059.148-.122.221-.184.122-.102.245-.202.36-.311.065-.061.125-.128.189-.191.113-.114.228-.226.334-.346.075-.085.143-.176.215-.264.084-.105.172-.206.251-.315.108-.148.206-.303.304-.458.035-.055.074-.107.107-.163a7.967 7.967 0 0 0 .835-1.967c.014-.05.033-.099.046-.15.02-.078.032-.159.049-.238.098-.438.165-.884.188-1.337l2.025-39.025c-1.89 2.184-4.675 3.574-7.783 3.574-3.354 0-6.329-1.618-8.211-4.107l-.518 9.988c-4.822-6.193-10.767-11.401-17.717-12.93a7.795 7.795 0 0 0-1.76-.355h18.328a10.25 10.25 0 0 1-.421-2.895v-2.664h-26.362a25.335 25.335 0 0 1-11.591 2.798c-4.172 0-8.11-1.014-11.591-2.798H124.49v2.664c0 1.003-.152 1.973-.422 2.892zM50.842 8.844h-.716a4.016 4.016 0 0 0-3.916 3.188 4.015 4.015 0 0 0-3.916-3.188h-.716c-2.199 0-4 1.8-4 4v21.558h-6.82v10.8H0v5.558h30.759v10.8h6.82v21.558c0 2.2 1.801 4 4 4h.716a4.015 4.015 0 0 0 3.916-3.188 4.016 4.016 0 0 0 3.916 3.188h.716c1.86 0 3.421-1.292 3.863-3.02.442 1.727 2.004 3.02 3.863 3.02h.716c2.2 0 4-1.8 4-4V50.76h41.027a10.25 10.25 0 0 1-.421-2.895v-2.664H63.284V12.844c0-2.2-1.8-4-4-4h-.716c-1.859 0-3.421 1.292-3.863 3.02-.441-1.727-2.002-3.02-3.863-3.02z" fill="#000000" opacity="1" data-original="#000000"></path><circle cx="162.443" cy="22.5" r="22.5" fill="#000000" opacity="1" data-original="#000000"></circle><path d="M106.189 47.866a8 8 0 0 0 16 0v-2.779c0-4.418-16-4.418-16 0zM202.695 47.866a8 8 0 0 0 16 0v-2.779c0-4.418-16-4.418-16 0z" fill="#000000" opacity="1" data-original="#000000"></path></g></svg>