<svg xmlns="http://www.w3.org/2000/svg" version="1.1" xmlns:xlink="http://www.w3.org/1999/xlink" width="512" height="512" x="0" y="0" viewBox="0 0 500 500" style="enable-background:new 0 0 512 512" xml:space="preserve" class=""><g><path fill-rule="evenodd" d="M240.992 151.973c-.512 1.556-1.223 1.793-.937 2.524a21.989 21.989 0 0 1 1.153 4.134c1.422 7.9-11.62 16.323-20.219 11.043a.88.88 0 0 0-1.127.168c-9.686 10.939-25.134 18.496-44.12 19.432-1.579.078-.42 1.971-.197 2.438l6.387 13.378 37.581 16.041c.936.4 1.852-1.202 5.896-1.682a.863.863 0 0 0 .698-.504c2.855-6.083 6.126-12.157 7.592-15.35 2.698-5.876 5.72-10.319 9.063-13.327 10.413-9.37 18.216-7.52 24.628 1.489 4.34 6.098 7.376 16.338 10.165 28.418 8.125 35.194-6.571 156.475 24.846 156.124 2.386-.027 5.174-3.929 8.342-13.269 3.606-10.633 6.619-26.89 8.695-50.217 1.067-11.991 2.564-24.792 4.431-37.843l-.676-5.027c-10.831-76.564-22.989-162.517-49.544-164.334-3.852-.264-8.047.473-12.772 5.51-5.916 6.303-12.472 18.425-19.885 40.854zM37.26 421.644a6.649 6.649 0 1 1 0-13.297h32.239c.455 0 .833-.34.881-.792 1.126-10.538 6.924-28.167 13.336-48.3a.57.57 0 0 1 .016-.044c17.252-45.676 18.947-70.684 5.087-75.023-31.178-9.995-44.153-25.114-38.923-45.355a.875.875 0 0 1 .027-.087c11.492-30.982 26.95-59.191 46.373-84.624 10.243-13.413 21.562-34.217 39.907-24.681 14.283 7.425 20.653 26.538 45.265 33.609l12.703-4.523c12.655-4.506 13.75-6.227 23.719-11.68a16.829 16.829 0 0 1 10.66-1.868.879.879 0 0 0 .974-.589c7.655-22.325 14.884-35.108 21.69-42.362 8.336-8.885 16.098-10.159 23.317-9.665 31.161 2.133 45.333 66.418 55.884 135.099.149.97 1.543 1.008 1.743.047 6.647-31.872 17.428-71.853 31.242-90.676 12.459-16.977 29.033-20.053 44.385-5.497a.885.885 0 0 0 1.47-.43c4.684-18.962 14.141-40.118 29.985-41.211 5.162-.356 10.098 1.56 14.503 5.784 7.024 6.734 12.835 20.172 15.585 40.367a6.63 6.63 0 0 1-13.14 1.766c-2.317-17.012-6.624-27.769-11.638-32.576-3.486-3.342-6.355-2.457-9.853 1.153-6.143 6.341-11.741 19.69-15.015 39.967a.857.857 0 0 0 .118.603c10.437 17.118 20.985 44.683 30.857 85.437a6.627 6.627 0 0 1-12.882 3.116c-6.523-26.928-13.261-47.734-19.993-63.311-.355-.822-1.571-.655-1.692.232-4.214 30.926-8.128 58.519-11.745 82.156-4.505 29.44-8.682 53.741-12.583 72.086-4.261 20.039-8.578 31.607-12.877 38.44-5.274 8.383-10.693 10.537-16.028 11.389-6.031.964-12.394.193-18.391-8.505-4.755-6.896-8.538-18.403-11.938-36.646-.184-.987-1.623-.947-1.75.05-2.682 20.936-8.588 58.121-28.274 58.34-49.109.548-29.128-128.486-37.883-166.408-2.446-10.597-4.946-19.35-8.036-23.692-1.018-1.43-2.541-1.468-4.942.693-2.019 1.817-3.984 4.805-5.894 8.964-1.319 2.873-4.705 9.005-7.512 14.976a.866.866 0 0 0 .093.908c6.757 9.021.632 22.01-10.665 22.488a.818.818 0 0 1-.203-.015c-26.49-5.028-58.098-19.772-94.821-44.23a.883.883 0 0 0-1.255.287l-1.683 2.85c-7.827 13.262-11.672 17.087-11.232 21.087 1.237 11.266 25.131 27.754 32.503 37.594 17.657 23.567-9.669 58.986-21.413 82.536l-20.346 40.802c-.308.618.2 1.107.869 1.279 12.222 3.133 21.076 4.364 26.293 7.148 9.217 4.919 3.997 11.536 6.711 11.536h91.354a6.65 6.65 0 0 1 0 13.297H37.26zM168.723 78.356c15.554 0 28.164 12.609 28.164 28.164 0 15.554-12.609 28.164-28.164 28.164-15.554 0-28.164-12.609-28.164-28.164.001-15.554 12.61-28.164 28.164-28.164zm168.572 196.567c2.533 17.866 5.027 35.102 7.725 50.726 3.344 19.362 6.862 29.555 10.354 34.619 1.997 2.896 3.781 3.206 5.405 2.947 2.114-.337 4.339-1.315 6.886-5.364 3.522-5.599 7.207-15.767 11.111-34.129 3.809-17.914 7.938-41.973 12.427-71.306 4.57-29.864 9.386-64.237 14.533-102.565a.851.851 0 0 0-.151-.624c-4.706-6.773-9.146-10.897-13.26-12.766-33.128-15.052-55.171 137.48-55.03 138.462z" clip-rule="evenodd" fill="#000000" opacity="1" data-original="#000000" class=""></path></g></svg>