<svg xmlns="http://www.w3.org/2000/svg" version="1.1" xmlns:xlink="http://www.w3.org/1999/xlink" width="512" height="512" x="0" y="0" viewBox="0 0 128.826 237.279" style="enable-background:new 0 0 512 512" xml:space="preserve" class=""><g transform="matrix(1,0,0,1,0,4.263256414560601e-14)"><circle cx="64.412" cy="22.5" r="22.5" fill="#000000" opacity="1" data-original="#000000" class=""></circle><path d="M23.131 127.576c.223-.015.446-.021.666-.021 4.157 0 7.774 2.503 9.389 6.112.051.027.11.045.16.073 1.93 1.082 3.034 2.92 3.374 5.618.592 4.7.817 15.51 1.078 28.027.526 25.188 1.18 56.536 5.106 65.87a1 1 0 0 0 .777.602c5.867.855 13.004 1.296 20.73 1.29 7.681-.003 14.866-.435 20.733-1.29a1 1 0 0 0 .777-.602c3.926-9.334 4.58-40.682 5.106-65.87.261-12.517.487-23.327 1.078-28.026.34-2.699 1.444-4.537 3.373-5.619.052-.028.11-.046.162-.073 1.614-3.61 5.23-6.112 9.388-6.112a10.223 10.223 0 0 1 7.045 2.778l-4.632-33.083c-.274-11.455-2.762-45.897-22.44-46.438a7.746 7.746 0 0 0-1.27-.114H45.094c-.433 0-.856.045-1.27.114-19.678.54-22.167 34.983-22.44 46.438l-4.633 33.082a10.222 10.222 0 0 1 6.38-2.756zM69.9 233.064c-1.791.052-3.624.08-5.488.082-1.866.002-3.7-.023-5.492-.074a12.3 12.3 0 0 0 3.176-8.253v-90.271h4.635v90.271c0 3.173 1.205 6.057 3.17 8.245zM96.054 131.31c-.54.186-1.06.41-1.551.684a8.042 8.042 0 0 0-3.044 2.978V98.1c.008.302.03.603.071.902zM37.295 99.003a8.2 8.2 0 0 0 .072-.898V134.972a8.043 8.043 0 0 0-3.044-2.978 9.514 9.514 0 0 0-1.551-.685zM15.192 145.472a4.25 4.25 0 0 1-1.232-1.659c-.235.26-.466.524-.686.799-4.073 5.065-4.805 11.335-4.747 15.5-.777-.911-1.754-1.749-2.937-2.219a5.563 5.563 0 0 0-3.365-.247c1.405-7.129 7.884-15.689 11.273-19.783-.008-1.331.247-2.64.744-3.865-.044.035-.098.057-.136.099-.539.583-13.203 14.41-14.102 24.978a1 1 0 0 0 1.45.976c1.222-.623 2.333-.72 3.392-.301 2.67 1.056 4.116 4.993 4.13 5.032a1 1 0 0 0 1.922-.533c-.021-.107-2.077-10.906 3.935-18.384.111-.139.243-.258.36-.393z" fill="#000000" opacity="1" data-original="#000000" class=""></path><path d="M95.806 144.46a4.69 4.69 0 0 1-.778-1.146c-.172 43.673-2.154 89.146-5.654 91.965H39.465c-3.517-2.952-5.495-48.356-5.667-91.965a4.69 4.69 0 0 1-.779 1.146c-.336.358-.75.667-1.196.953.067 9.096.254 24.93.777 40.752 1.635 49.459 4.887 50.58 6.276 51.06.105.036.215.054.326.054h50.422c.11 0 .221-.018.326-.054 1.389-.48 4.641-1.601 6.276-51.06.523-15.821.71-31.656.777-40.751-.446-.287-.86-.596-1.197-.954zM115.328 137.863c3.388 4.094 9.868 12.654 11.272 19.783a5.553 5.553 0 0 0-3.364.247c-1.183.47-2.16 1.308-2.937 2.218.057-4.164-.675-10.434-4.747-15.5-.22-.274-.452-.538-.687-.798a4.248 4.248 0 0 1-1.231 1.66c.113.13.241.246.35.381 6.008 7.46 3.965 18.288 3.944 18.396a1 1 0 0 0 1.921.532c.015-.04 1.461-3.976 4.13-5.032 1.06-.42 2.17-.322 3.393.301a1.001 1.001 0 0 0 1.45-.976c-.9-10.568-13.563-24.395-14.102-24.978-.038-.042-.092-.064-.137-.099.498 1.225.752 2.534.745 3.865zM97.054 137.345l-.163 4.06c-.281 4.41 15.697 5.254 15.967 1.019l.163-4.06a8 8 0 0 0-7.473-8.493 7.996 7.996 0 0 0-8.494 7.474zM15.804 138.364l.164 4.06c.27 4.235 16.248 3.39 15.966-1.02l-.163-4.059a7.997 7.997 0 0 0-8.493-7.474 8 8 0 0 0-7.474 8.493z" fill="#000000" opacity="1" data-original="#000000" class=""></path></g></svg>