<svg xmlns="http://www.w3.org/2000/svg" version="1.1" xmlns:xlink="http://www.w3.org/1999/xlink" width="512" height="512" x="0" y="0" viewBox="0 0 129.269 237.535" style="enable-background:new 0 0 512 512" xml:space="preserve" class=""><g><path d="M30.893 60.62a3.545 3.545 0 0 1 2.761 3l.545 4.205c.09.712-.033 1.42-.355 2.055l-7.677 15.096a3.529 3.529 0 0 1-2.693 1.902l-.85.11 3.252 24.4a7.86 7.86 0 0 0 .331-.132c.017-.007.035-.012.053-.02.041-.017.078-.04.12-.059.184-.084.366-.172.542-.27.07-.038.138-.08.206-.12.153-.09.304-.183.45-.283.085-.058.166-.118.247-.179.123-.09.244-.183.36-.281a8.2 8.2 0 0 0 .565-.52 8.051 8.051 0 0 0 .726-.847 8.07 8.07 0 0 0 .664-1.05c.038-.071.074-.144.11-.217.079-.162.153-.326.221-.494.027-.065.052-.131.077-.197a8.01 8.01 0 0 0 .18-.53l.058-.208c.047-.174.09-.35.124-.528.017-.086.03-.173.045-.259.026-.161.05-.323.066-.487.012-.114.018-.228.025-.343.008-.138.016-.277.016-.417.001-.142-.006-.285-.012-.428-.004-.085 0-.169-.008-.254-1.209-15.108 2.556-24.586 6.547-30.101V199.276l4.042 30.333a3.034 3.034 0 0 0 2.998 2.626h15.2a12.29 12.29 0 0 0 2.488-7.416v-90.271h4.635v90.271c0 2.787.933 5.35 2.488 7.416h15.2a3.034 3.034 0 0 0 2.998-2.626l4.042-30.335V73.164c3.991 5.516 7.756 14.993 6.547 30.101-.006.08-.003.16-.007.24-.007.15-.014.3-.013.449 0 .134.008.266.016.398.007.121.013.241.026.361.015.16.038.315.064.471.015.092.03.184.047.275.035.173.076.343.121.513a7.93 7.93 0 0 0 .535 1.432 7.931 7.931 0 0 0 .52.91 8.082 8.082 0 0 0 .73.942 8.13 8.13 0 0 0 .547.55c.09.082.181.164.275.242.113.094.23.184.349.272.085.063.17.126.258.187.142.097.289.187.437.275.073.043.145.087.22.128.172.095.35.181.53.263.043.02.083.045.127.064l.057.021c.108.046.216.09.326.13l3.252-24.4-.849-.11a3.529 3.529 0 0 1-2.693-1.902L95.425 69.88a3.533 3.533 0 0 1-.355-2.054l.545-4.206a3.545 3.545 0 0 1 2.761-2.999 3.05 3.05 0 0 1 2.323-1.508c-4.995-5.085-10.86-8.23-15.577-8.317a7.743 7.743 0 0 0-1.17-.098H45.317c-.399 0-.788.04-1.17.098-4.717.088-10.582 3.232-15.577 8.317a3.049 3.049 0 0 1 2.323 1.508z" fill="#000000" opacity="1" data-original="#000000" class=""></path><circle cx="64.634" cy="22.5" r="22.5" fill="#000000" opacity="1" data-original="#000000" class=""></circle><path d="M15.442 76.51c-2.001.164-3.742.063-5.176-.27l4.174 4.684 6.276-.812 3.121-6.138c-2.225 1.52-5.6 2.306-8.395 2.535zM7.643 67.99l.495 4.032c.615 4.2 16.47 2.05 15.83-2.322l-.496-4.032a7.997 7.997 0 0 0-9.076-6.755 8 8 0 0 0-6.753 9.077zM113.827 76.51c-2.795-.23-6.17-1.016-8.395-2.536l3.121 6.138 6.277.812 4.173-4.685c-1.434.334-3.175.435-5.176.27z" fill="#000000" opacity="1" data-original="#000000" class=""></path><path d="M113.536 107.1c.118-.271 2.92-6.73 5.07-14.233.78-2.725 1.37-5.237 1.79-7.57l-1.535 1.722a3.538 3.538 0 0 1-3.088 1.15l-3.872-.5.304-2.28 3.862.5c.404.052.808-.1 1.079-.403l11.266-12.645c.165-.185.27-.415.302-.662l.544-4.203a1.232 1.232 0 0 0-1.063-1.38 1.222 1.222 0 0 0-.932.27l.17-1.313a.742.742 0 0 0-.64-.831l-3.084-.4c.323 1.283.395 2.62.2 3.948l-.346 2.815 2.366.306a.72.72 0 0 0 .413-.08l-.023.175-10.58 11.875-8.686-1.124-7.209-14.178.023-.175c.106.091.23.164.38.183l2.893.375.382-3.108a10.225 10.225 0 0 1 1.178-3.471l-3.59-.465a.741.741 0 0 0-.831.64l-.17 1.315a1.221 1.221 0 0 0-.834-.5 1.232 1.232 0 0 0-1.38 1.063l-.544 4.204c-.032.246.012.496.124.716l7.676 15.097c.185.363.537.612.94.664l3.138.406-19.31 144.91a5.341 5.341 0 0 1-5.28 4.622H44.63a5.341 5.341 0 0 1-5.278-4.623L20.04 85.003l3.137-.406c.404-.052.756-.3.94-.663l7.677-15.097c.112-.221.156-.47.124-.717l-.544-4.203a1.232 1.232 0 0 0-1.38-1.064c-.35.045-.641.236-.833.5l-.17-1.315a.741.741 0 0 0-.831-.64l-3.591.465a10.226 10.226 0 0 1 1.179 3.471l.381 3.108 2.894-.375a.725.725 0 0 0 .38-.183l.022.175-7.21 14.178-8.684 1.124L2.95 71.486l-.023-.175a.72.72 0 0 0 .413.08l2.366-.306-.346-2.815a10.117 10.117 0 0 1 .2-3.947l-3.083.399a.742.742 0 0 0-.641.83l.17 1.314a1.221 1.221 0 0 0-.932-.27 1.232 1.232 0 0 0-1.064 1.38l.545 4.203c.031.246.137.477.301.662l11.267 12.645c.271.304.675.455 1.079.402l3.862-.5.304 2.28-3.872.501a3.538 3.538 0 0 1-3.088-1.15l-1.534-1.723c.419 2.334 1.008 4.846 1.79 7.571 2.15 7.504 4.951 13.962 5.07 14.233.013.03.032.056.045.086.15.333.316.655.508.961.02.03.041.059.06.089.173.266.362.52.563.763.052.062.101.125.154.185.215.244.443.474.686.69.063.056.13.109.195.163.227.19.463.368.71.532.038.025.074.053.112.077.287.183.588.344.897.49l.165.075c.233.103.47.195.713.276L36.376 230.31a8.293 8.293 0 0 0 2.34 4.742 8.317 8.317 0 0 0 5.913 2.484H84.64a8.306 8.306 0 0 0 5.594-2.178c.059-.054.115-.11.173-.166a8.294 8.294 0 0 0 2.486-4.882l15.834-118.821a7.951 7.951 0 0 0 .879-.352c.309-.146.61-.306.896-.49.039-.024.075-.052.113-.078a8.06 8.06 0 0 0 .709-.53c.066-.055.132-.108.196-.165.242-.215.47-.445.685-.688.053-.06.102-.124.154-.186.202-.244.391-.498.564-.765.02-.03.04-.056.059-.086.192-.306.359-.63.51-.964.013-.03.03-.055.044-.084z" fill="#000000" opacity="1" data-original="#000000" class=""></path><path d="m105.797 65.668-.495 4.032c-.642 4.372 15.214 6.522 15.83 2.322l.495-4.032a8 8 0 0 0-6.754-9.077 7.997 7.997 0 0 0-9.076 6.755z" fill="#000000" opacity="1" data-original="#000000" class=""></path></g></svg>