<svg xmlns="http://www.w3.org/2000/svg" version="1.1" xmlns:xlink="http://www.w3.org/1999/xlink" width="512" height="512" x="0" y="0" viewBox="0 0 518.856 282.585" style="enable-background:new 0 0 512 512" xml:space="preserve" class=""><g><path d="m30.487 245.114 5.051-1.931-13.047 17.237c-4.167 5.504-3.082 13.344 2.423 17.511a12.446 12.446 0 0 0 7.535 2.534 12.48 12.48 0 0 0 9.976-4.957l19.414-25.649-14.347-38.01-6.797 2.598a169.972 169.972 0 0 1 4.653-8.279l-9.187-24.338c-.962-2.549-.875-5.32.248-7.803s3.144-4.38 5.693-5.342a10.155 10.155 0 0 1 3.602-.66c4.218 0 8.053 2.652 9.543 6.601l3.787 10.032c4.072-7.868 3.883-17.659-2.252-22.058-7.149-5.129-20.362-5.385-30.444 6.366C12.568 185.206 6.363 196.87.57 218.472c-3.033 16.12 6.614 21.727 15.175 25 2.578.986 4.755 1.725 6.66 1.919 2.562.777 5.388.753 8.082-.277zM81.819 223.464a12.5 12.5 0 0 0-14.43-19.22l-.842.322 9.841 26.073z" fill="#000000" opacity="1" data-original="#000000"></path><path d="M42.878 170.744a8 8 0 0 0-4.659 10.31l34.64 91.771a8.003 8.003 0 0 0 7.486 5.177c.938 0 1.894-.166 2.824-.518a8 8 0 0 0 4.659-10.31l-34.64-91.771c-1.561-4.133-6.176-6.222-10.31-4.659zM101.208 137.01a22.423 22.423 0 0 0-12.302-11.879c-11.549-4.585-24.63 1.062-29.214 12.611-4.586 11.551 1.062 24.63 12.611 29.214 10.595 4.206 22.47-.2 27.902-9.871a62.16 62.16 0 0 1-5.677-2.968c-10.047-5.918-16.637-13.391-14.971-16.888.14 3.779 7.447 9.541 17.49 13.527 7.579 3.009 14.729 4.22 18.94 3.492 1.921-.332 3.231-1.067 3.689-2.22 1.397-3.52-5.661-9.65-15.942-14.011-.463-.196-.923-.394-1.398-.583-.379-.149-.753-.283-1.128-.424zM322.842 187.089c-4.954-7.268-17.427-6.661-25.769-.519-12.18 7.422-29.325 18.939-46.25 22.737-13.372 4.062-12.878 8.236-9.81 16.872l.138.381c-24.922 9.361-58.768 21.393-88.519 29.621-6.654 1.84-10.556 8.726-8.716 15.379 1.532 5.54 6.56 9.171 12.041 9.171 1.103 0 2.224-.147 3.338-.455 56.471-15.616 124.667-43.504 127.542-44.684a12.558 12.558 0 0 0 2.381-1.301 94.477 94.477 0 0 0 10.251-5.322V198.82c0-5.625 4.576-10.2 10.2-10.2s10.2 4.576 10.2 10.2v14.532c7.793-9.15 7.279-19.95 2.973-26.263zM374.916 195.598c.942-5.636-.243-11.631-3.797-16.672-7.16-10.156-21.198-12.585-31.353-5.425-10.158 7.161-12.585 21.199-5.426 31.354 6.567 9.315 18.908 12.106 28.745 6.984a62.071 62.071 0 0 1-3.118-5.573c-5.171-10.448-6.6-20.307-3.295-22.323-1.948 3.244 1.017 12.061 7.24 20.889 4.698 6.665 10.022 11.59 13.945 13.284 1.79.773 3.289.874 4.302.159 3.093-2.181.54-11.173-5.68-20.448-.28-.418-.558-.836-.853-1.254-.232-.333-.472-.651-.71-.975z" fill="#000000" opacity="1" data-original="#000000"></path><path d="M317.669 198.82a8 8 0 0 0-16 0v74.167a8 8 0 0 0 16 0zM457.158 281.803c1.432.53 2.897.782 4.34.782 5.08 0 9.856-3.12 11.723-8.162 19.169-51.756 26.432-103.403 27.408-110.806 3.43-20.741 2.598-33.754-2.851-53.599-1.212-4.314-3.099-7.803-5.361-10.577-2.182 9.366-3.791 15.227-3.986 15.931-1.219 4.404-5.259 7.48-9.825 7.48-.917 0-1.833-.125-2.724-.371-5.42-1.5-8.61-7.13-7.112-12.55.052-.189 1.988-7.247 4.545-18.582-.152.024-.311.034-.461.062-8.643 1.636-13.072 13.311-10.777 23.413 1.934 14.131 5.637 34.451 2.352 51.483-1.388 11.881 1.363 14.482 7.915 15.387-3.808 20.515-10.915 52.586-22.566 84.045-2.399 6.475.906 13.667 7.38 16.064zM476.421 56.668c.537.944 1.669 1.76 3.273 2.419a539.208 539.208 0 0 0 2.686-17.56 22.57 22.57 0 0 0-3.238.093c-12.362 1.253-21.369 12.291-20.116 24.653.933 9.209 7.296 16.551 15.589 19.183a615.228 615.228 0 0 0 4.854-25.045c-1.899-1.147-3.002-2.428-3.048-3.743zM503.892 64.773a61.027 61.027 0 0 1-4.451.053 613.641 613.641 0 0 1-2.971 15.892 22.477 22.477 0 0 0 7.422-15.945zM500.194 60.374c7.229-.962 13.284-3.022 16.399-5.39 1.552-1.18 2.376-2.436 2.25-3.67-.334-3.287-7.303-5.371-16.471-5.273a554.94 554.94 0 0 1-2.178 14.333z" fill="#000000" opacity="1" data-original="#000000"></path><path d="M476.467 120.361a8.031 8.031 0 0 0 2.138.292 8.003 8.003 0 0 0 7.705-5.867c.605-2.184 14.841-54.099 17.522-106.376a8 8 0 0 0-7.58-8.399c-4.412-.219-8.173 3.167-8.399 7.58C485.265 58.065 471.034 110 470.89 110.519a8 8 0 0 0 5.577 9.842zM170.468 204.576l10.076-10.076-10.076-10.076v8.076h-32.962v4h32.962zM432.968 160.076 443.044 150l-10.076-10.076V148h-32.962v4h32.962z" fill="#000000" opacity="1" data-original="#000000"></path></g></svg>