<svg xmlns="http://www.w3.org/2000/svg" version="1.1" xmlns:xlink="http://www.w3.org/1999/xlink" width="512" height="512" x="0" y="0" viewBox="0 0 64 64" style="enable-background:new 0 0 512 512" xml:space="preserve" class=""><g><g data-name="Layer 13"><path d="M18.593 30.407 23 43l7.86-9.431A7.136 7.136 0 0 1 36.343 31a7.141 7.141 0 0 1 5.794 2.967L58 56a4 4 0 0 1 4 4v1H51v-4L36 41l-8.939 16.252A7.232 7.232 0 0 1 20.723 61a7.235 7.235 0 0 1-5.887-3.029 71.869 71.869 0 0 1-5.108-8.288l-6-11.4a15 15 0 0 1-1.727-7v-.12a15.038 15.038 0 0 1 2.143-7.736A9.289 9.289 0 0 1 6.3 20.959L7 20.4l6.163-.154a24.912 24.912 0 0 1 2.007 2.641Z" style="" fill="#000000" data-original="#52a04f" class="" opacity="1"></path><path d="M62 61v-1a4 4 0 0 0-4-4L42.137 33.967a7.139 7.139 0 0 0-11.277-.4L23 43l-4.407-12.593-3.424-7.52a24.77 24.77 0 0 0-2.006-2.641L7 20.4l-.359.287a9.624 9.624 0 0 0-.5.742A15.038 15.038 0 0 0 4 29.165v.12a15 15 0 0 0 1.727 7l6 11.4a71.869 71.869 0 0 0 5.108 8.288A7.235 7.235 0 0 0 22.723 59a7.214 7.214 0 0 0 4.005-1.228c.114-.171.233-.338.333-.52L36 41l15 16v4Z" style="" fill="#000000" data-original="#6db569" class="" opacity="1"></path><path d="M58 56 42.137 33.967a7.139 7.139 0 0 0-11.277-.4L23 43a28.906 28.906 0 0 1-10.459 11.538 68.659 68.659 0 0 0 2.3 3.433A7.235 7.235 0 0 0 20.723 61a7.232 7.232 0 0 0 6.338-3.748L36 41l15 16v4h11v-1a4 4 0 0 0-4-4Z" style="" fill="#000000" data-original="#1d549c" class="" opacity="1"></path><path d="M62 61v-1a4 4 0 0 0-4-4L42.137 33.967a7.139 7.139 0 0 0-11.277-.4L23 43a28.888 28.888 0 0 1-8.2 9.942 73.138 73.138 0 0 0 2.037 3.029A7.235 7.235 0 0 0 22.723 59a7.214 7.214 0 0 0 4.005-1.228c.114-.171.233-.338.333-.52L36 41l15 16v4Z" style="" fill="#000000" data-original="#2b6bb2" class="" opacity="1"></path><rect width="14" height="18" x="3" y="3" rx="7" style="" fill="#e8a989" data-original="#e8a989"></rect><path d="M10 3a6.966 6.966 0 0 0-4.423 1.577A6.966 6.966 0 0 0 4 9v4a7 7 0 0 0 11.423 5.423A6.966 6.966 0 0 0 17 14v-4a7 7 0 0 0-7-7Z" style="" fill="#f6bb95" data-original="#f6bb95" class=""></path><path d="M9 9h7.92A7 7 0 0 0 3 10v4a6.983 6.983 0 0 0 2.508 5.365L9 15Z" style="" fill="#000000" data-original="#3f4042" class="" opacity="1"></path><path d="m58 56-7 1v4h11v-1a4 4 0 0 0-4-4Z" style="" fill="#969696" data-original="#969696" class=""></path><path d="m8.067 14.545 7.741 3.318A6.928 6.928 0 0 0 17 14V9.946l-4.176-1.391A10.77 10.77 0 0 0 9.41 8a3.41 3.41 0 0 0-1.343 6.545Z" style="" fill="#d69578" data-original="#d69578"></path><path d="M10 3a6.966 6.966 0 0 0-4.423 1.577A6.966 6.966 0 0 0 4 9v4a6.977 6.977 0 0 0 2.392 5.26L9 15V9h7.92A6.994 6.994 0 0 0 10 3Z" style="" fill="#000000" data-original="#5a5b5d" class="" opacity="1"></path><path d="m14.16 9-1.336-.445A10.77 10.77 0 0 0 9.41 8a3.41 3.41 0 0 0-1.343 6.545l.933.4V9Z" style="" fill="#000000" data-original="#3f4042" class="" opacity="1"></path><path d="M9 29.092A3.908 3.908 0 0 0 12.908 33a7.463 7.463 0 0 0 5.278-2.186l9.524-9.524A4.4 4.4 0 0 0 29 18.175 4.405 4.405 0 0 0 25.988 14l-13.48-4.5a9.8 9.8 0 0 0-3.1-.5A2.41 2.41 0 0 0 7 11.411a2.411 2.411 0 0 0 1.461 2.215L21 19l-10.26 6.84A3.909 3.909 0 0 0 9 29.092Z" style="" fill="#f6bb95" data-original="#f6bb95" class=""></path><path d="M58.532 55.027 42.948 33.384a8.138 8.138 0 0 0-12.857-.456l-6.73 8.077-3.617-10.335L28.417 22a5.4 5.4 0 0 0-2.117-8.952L18 10.28V10a8 8 0 0 0-16 0v4a7.987 7.987 0 0 0 3.329 6.481 10.27 10.27 0 0 0-2.044 2.433A16.039 16.039 0 0 0 1 31.165v.12a16.086 16.086 0 0 0 1.842 7.461l6 11.4a72.649 72.649 0 0 0 5.178 8.4 8.233 8.233 0 0 0 13.915-.819l8.276-15.045L50 57.4V61a1 1 0 0 0 1 1h11a1 1 0 0 0 1-1v-1a5 5 0 0 0-4.468-4.972ZM28 18.175a3.384 3.384 0 0 1-1 2.408l-9.524 9.523A6.422 6.422 0 0 1 12.908 32a2.908 2.908 0 0 1-1.608-5.328l10.26-6.84a1 1 0 0 0-.161-1.751L8.854 12.707A1.411 1.411 0 0 1 9.41 10a8.794 8.794 0 0 1 2.781.451l13.48 4.494A3.4 3.4 0 0 1 28 18.175Zm-21.046.985 2.827-3.535a.991.991 0 0 0 .154-.279l4.949 2.121A6.029 6.029 0 0 1 10 20a5.952 5.952 0 0 1-3.046-.84Zm9.8-.892 2.156.924-3.485 2.324q-.378-.526-.78-1.033a7.982 7.982 0 0 0 2.108-2.215ZM4 14v-4a6 6 0 0 1 11.98-.393l-3.156-1.052A10.77 10.77 0 0 0 9.41 8 3.407 3.407 0 0 0 8 14.51v.139l-2.577 3.222A5.97 5.97 0 0 1 4 14Zm.611 23.814A14.087 14.087 0 0 1 3 31.285v-.12a14.035 14.035 0 0 1 2-7.222 8.249 8.249 0 0 1 1.925-2.2l.306-.244a7.75 7.75 0 0 0 5.622-.048q.471.575.907 1.177l-3.574 2.383A4.908 4.908 0 0 0 12.908 34a8.4 8.4 0 0 0 5.243-1.826l3.759 10.739a27.9 27.9 0 0 1-9.071 10.216 70.69 70.69 0 0 1-2.226-3.911Zm32.118 2.5a1 1 0 0 0-1.6.2L26.186 56.77a6.236 6.236 0 0 1-10.537.62c-.6-.841-1.176-1.7-1.741-2.571a29.888 29.888 0 0 0 9.921-11.25l7.8-9.36a6.138 6.138 0 0 1 9.7.343l14.9 20.691-4.85.693ZM52 60v-2.132L58.044 57A2.993 2.993 0 0 1 61 60Z" fill="#000000" opacity="1" data-original="#000000" class=""></path></g></g></svg>