<svg xmlns="http://www.w3.org/2000/svg" version="1.1" xmlns:xlink="http://www.w3.org/1999/xlink" width="512" height="512" x="0" y="0" viewBox="0 0 200.459 233.373" style="enable-background:new 0 0 512 512" xml:space="preserve" class=""><g><path d="M200.459 223.373h-15.885l-10.531-106.992a42.975 42.975 0 0 0-21.985-33.407l-18.313-10.12 11.763-66.428-9.847-1.744-7.241 40.893c-2.5-.403-4.894 1.278-5.344 3.78l-3.163 17.594-33.96-13.373-3.664 9.305 7.464 2.939-3.995 7.718a12.426 12.426 0 0 1-10.522 6.687l-1.142.052c2.147-7.417 4.598-14.383 6.515-20.261 4.059-9.53 1.783-21.81-6.43-24.96-6.19-2.375-15.01-1.199-21.883 5.48l14.459 2.065c5.622.803 9.543 6.03 8.741 11.652-.723 5.043-5.1 8.845-10.184 8.846-.489 0-.984-.036-1.472-.105l-19.148-2.735 4.934 24.346c.191.944.236 1.882.168 2.798l25.7-1.183a18.428 18.428 0 0 0 15.591-9.923l2.852-5.51 1.427-2.756 22.744 8.956-5.09 28.315a4.687 4.687 0 0 0 3.773 5.427c.03.005.059.002.089.007L97.01 222.954l2.365.419H62.523v10H200.46v-10zM131.903 83.26l15.319 8.466a32.977 32.977 0 0 1 16.87 25.636l10.434 106.012h-67.434z" fill="#000000" opacity="1" data-original="#000000" class=""></path><circle cx="100.951" cy="22.5" r="22.5" fill="#000000" opacity="1" data-original="#000000" class=""></circle><path d="M41.58 96.742a10.226 10.226 0 0 1-7.444-1.34c-.113 2.517-.176 5.15-.193 7.931.698 9.964 4.96 14.961 10.241 17.576l2.529 34.763-36.437 6.589C3.483 163.49-1.028 169.992.2 176.786c1.092 6.041 6.355 10.278 12.286 10.277.738 0 1.487-.065 2.239-.201l47.495-8.589a12.502 12.502 0 0 0 10.243-13.208l-3.712-51.031c.155-1.137.278-2.391.366-3.784-.067-5.921.748-12.073 2.01-18.149l-23.653 1.093a10.235 10.235 0 0 1-5.894 3.548zM29.368 88.34l-1.206-5.952-2.724.126.261 5.68.014.314z" fill="#000000" opacity="1" data-original="#000000" class=""></path><path d="m47.375 85.058-5.581-27.541 22.377 3.196c4.371.628 8.425-2.415 9.051-6.788a8.001 8.001 0 0 0-6.789-9.051l-33.6-4.8a7.998 7.998 0 0 0-8.971 9.508l7.832 38.652a8.003 8.003 0 0 0 9.43 6.252 7.998 7.998 0 0 0 6.251-9.428z" fill="#000000" opacity="1" data-original="#000000" class=""></path></g></svg>