<svg xmlns="http://www.w3.org/2000/svg" version="1.1" xmlns:xlink="http://www.w3.org/1999/xlink" width="512" height="512" x="0" y="0" viewBox="0 0 117.867 226.183" style="enable-background:new 0 0 512 512" xml:space="preserve" class=""><g><path d="M102.279 89.207c-5.414 3.669-11.887 5.609-18.721 5.609h-.125c-6.404-.021-13.125-1.584-20.285-4.734v123.737c0 6.83 5.537 12.363 12.363 12.363 6.828 0 12.365-5.533 12.365-12.363v-78.271h4.635v78.271c0 6.83 5.537 12.363 12.363 12.363 6.828 0 12.365-5.533 12.365-12.363V69.672a53.141 53.141 0 0 1-.912 2.163c-3.477 7.646-8.074 13.326-14.048 17.372z" fill="#000000" opacity="1" data-original="#000000"></path><circle cx="90.195" cy="22.5" r="22.495" transform="rotate(-76.88 90.205 22.487)" fill="#000000" opacity="1" data-original="#000000"></circle><path d="M51.158 61.515c2.1 0 4.115.649 5.826 1.877a100.185 100.185 0 0 0 6.164 4.108 75.328 75.328 0 0 0 4.34 2.479c7.316 3.847 12.487 4.835 15.842 4.835 3.083-.019 5.176-.936 7.626-2.095 2.721-1.288 5.486-3.543 7.635-5.653-.279.493-.575.984-.894 1.466-1.52 2.332-3.424 4.428-5.671 5.877-2.271 1.44-4.846 2.382-8.594 2.406-4.297.024-10.435-1.441-18.563-5.986a76.245 76.245 0 0 1-1.722-.997 98.603 98.603 0 0 1-7.331-4.815 8.002 8.002 0 0 0-11.166 1.832 8.383 8.383 0 0 0-.513.823c-1.922 3.496-.979 7.956 2.345 10.34 5.941 4.26 11.472 7.504 16.665 9.865 7.392 3.36 14.095 4.916 20.284 4.936h.126c6.91 0 12.959-2.119 17.599-5.263 7.04-4.767 10.982-11.34 13.348-16.537a50.384 50.384 0 0 0 2.735-7.646c.087-.326.16-.617.222-.873.155-.644.238-1.06.262-1.176.789-4.125-1.746-8.109-5.727-9.206a7.716 7.716 0 0 0-2.485-.416H70.877a7.68 7.68 0 0 0-3.327.761 7.912 7.912 0 0 0-.873.428l-.002-.002-.004.002a32.58 32.58 0 0 1-3.93 1.801c-2.086.817-4.675 1.449-6.259 1.418-.702.002-1.17-.099-1.382-.176-.318-.172-.142.03-.468-.436-.286-.474-.876-2.018-.869-5.147-.03-5.044 1.581-13.844 6.249-26.798a8 8 0 1 0-15.06-5.399c-4.99 13.978-7.16 24.113-7.19 32.198.004 3.331.387 6.344 1.26 9.119a18.768 18.768 0 0 0 3.677 6.721c.107-.17.209-.342.327-.506a10.035 10.035 0 0 1 8.132-4.165zM21.517 101.927l14.052-16.158-.759-.612-18.916 17.453 9.36 3.188-12.304 14.619 3.46 2.517 13.716-18.728zM14.062 85.266l17.11-5.956-.303-.768-21.223 4.864 5.534 6.272L0 95.241l1.482 3.298 17.944-7.982zM43.941 87.368l-7.958 19.906 8.181-.96-4.002 15.404 3.502.65 3.595-19-7.293 1.375 4.763-17.19z" fill="#000000" opacity="1" data-original="#000000"></path></g></svg>