<svg xmlns="http://www.w3.org/2000/svg" version="1.1" xmlns:xlink="http://www.w3.org/1999/xlink" width="512" height="512" x="0" y="0" viewBox="0 0 480 480" style="enable-background:new 0 0 512 512" xml:space="preserve" class=""><g><path d="M56 144h40v16.863c2.594-.527 5.246-.863 8-.863s5.406.336 8 .863V112h40c30.871 0 56-25.121 56-56v-8h-56c-28.625 0-52.266 21.61-55.566 49.36C86.223 86.687 71.887 80 56 80H0v8c0 30.879 25.129 56 56 56zM304 97.121V64h40c30.871 0 56-25.121 56-56V0h-56c-30.871 0-56 25.121-56 56v41.055a57.935 57.935 0 0 1 8.016 6.152A55.835 55.835 0 0 1 304 97.121zM72 272c13.23 0 24-10.77 24-24 0-3.297-.91-6.457-2.297-9.512A39.925 39.925 0 0 1 72 223.754a39.925 39.925 0 0 1-21.703 14.734C48.91 241.543 48 244.703 48 248c0 13.23 10.77 24 24 24zM64 200c0 13.254-10.746 24-24 24s-24-10.746-24-24 10.746-24 24-24 24 10.746 24 24zM136 272c13.23 0 24-10.77 24-24 0-3.297-.91-6.457-2.297-9.512A39.925 39.925 0 0 1 136 223.754c-5.984 8.031-14.832 13.742-25.09 15.543.664 2.871 1.09 5.773 1.09 8.703 0 13.23 10.77 24 24 24zM201.023 307.55c-14.902 17.45-23.07 38.716-24.64 60.36l84.816.074zM192 200c0 13.254-10.746 24-24 24s-24-10.746-24-24 10.746-24 24-24 24 10.746 24 24zM103.8 272h.407c-.062-.09-.144-.168-.2-.246-.07.078-.152.156-.206.246zm0 0" fill="#000000" opacity="1" data-original="#000000" class=""></path><path d="M208 200c0 10.52-4.168 20.023-10.832 27.176 5.656 17.152 15.719 32.512 29.406 44.824H326.61a110.928 110.928 0 0 1 42.664-14.91c-5.015-13.13-12.699-25.203-22.93-35.434l11.313-11.312c11.617 11.617 20.414 25.273 26.23 40.129 10.54-16.594 16.114-35.57 16.114-55.536 0-32.44-14.742-62.433-40.45-82.296-17.64-13.625-43.32-10.368-57.277 7.261l-6.37 8.035-6.247-8.12c-13.719-17.32-38.879-20.946-56.097-8.024-19.461 14.633-32.985 35.422-38.598 58.863C202.92 177.97 208 188.36 208 200zm128-80c6.383 0 10.457 2.734 13.77 5.297 21.75 16.816 34.23 42.2 34.23 69.633 0 1.855-.063 3.71-.176 5.55l-15.969-.968a71.07 71.07 0 0 0 .145-4.582c0-22.45-10.207-43.22-28.016-56.977C337.457 136 336.902 136 336 136zM260.68 383.984l-84.2-.074c1.704 21.387 9.88 42.305 24.618 59.547zM128 200c0 13.254-10.746 24-24 24s-24-10.746-24-24 10.746-24 24-24 24 10.746 24 24zM272.566 356.734c.723-7.14 2.145-14.054 4.145-20.734h-24.79zM204.129 288l31.863 32h46.969c5.719-11.984 13.422-22.824 22.809-32zM287.91 479.648c22.152-1.664 42.93-10.25 59.785-24.808l-59.71-59.961zM390.063 272.305c1.226 6.855 1.937 13.847 1.937 20.953V304h-16v-10.742c0-7.051-.754-13.969-2.145-20.715C325.672 277.633 288 318.496 288 368c0 1.504.129 2.969.215 4.45l82.265 82.605-5.617 5.648c-.351.352-.742.649-1.093 1C370.457 463.168 377.207 464 384 464c52.938 0 96-43.062 96-96 0-50.887-39.832-92.535-89.938-95.695zm-53.622 45.687 10.59-11.984C357.238 315.03 370.367 320 384 320s26.762-4.969 36.969-13.992l10.59 11.984C418.434 329.602 401.535 336 384 336s-34.434-6.398-47.559-18.008zM384 448v-16c35.29 0 64-28.71 64-64h16c0 44.113-35.887 80-80 80zm0 0" fill="#000000" opacity="1" data-original="#000000" class=""></path><path d="M166.809 336H32v8c0 74.992 61.008 136 136 136h52.39c-9.109-5.246-17.628-11.64-25.253-19.297-33.535-33.68-42.89-82.465-28.328-124.703zM195.137 290.352 197.48 288H24c-4.414 0-8 3.586-8 8v16c0 4.414 3.586 8 8 8h149.52a119.896 119.896 0 0 1 21.617-29.648zM271.91 479.602l.074-84.297-59.593 59.496c16.785 14.496 37.441 23.101 59.52 24.8zm0 0" fill="#000000" opacity="1" data-original="#000000" class=""></path></g></svg>