<svg xmlns="http://www.w3.org/2000/svg" version="1.1" xmlns:xlink="http://www.w3.org/1999/xlink" width="512" height="512" x="0" y="0" viewBox="0 0 64 64" style="enable-background:new 0 0 512 512" xml:space="preserve" class=""><g><path d="M32.495 41.896a8.68 8.68 0 0 1 .02 1.031c-.02-.333-.03-.667-.02-1.03zM32.536 21.902c-.004.423-.05-.338-.06-.344-.013-.347.077.238.06.344zM26.602 55.998c.096.891-1.174 1.773-1.79 2.537a1.435 1.435 0 0 1-2.031.08L9.428 46.234a1.441 1.441 0 0 1-.081-2.042l1.405-1.506a1.443 1.443 0 0 1 2.032-.081l1.85 1.708.13.122 10.13 9.4c.497.567 1.735 1.29 1.708 2.164zM31.484 41.937a11.241 11.241 0 0 1-4.468 9.674l-1.678 1.263-9.451-8.764 3.67-2.375a2.051 2.051 0 0 0 .92-1.8l-.294-8.703a13.258 13.258 0 0 1 .86-5.247L28.32 6.536a1.637 1.637 0 0 1 2.184-.91 1.6 1.6 0 0 1 .89 1.921c-.01.03-3.9 13.508-3.912 13.536l-3.346 9.522a.505.505 0 0 0 .95.344l3.356-9.563a1.603 1.603 0 0 1 1.971-.99 1.586 1.586 0 0 1 1.092 1.667l-.82 8.764c-.299 2.38.66 8.67.8 11.11z" fill="#000000" opacity="1" data-original="#000000" class=""></path><path d="M31.484 21.568a1.123 1.123 0 0 1 .02.495c-.006-.127-.041-.42-.04-.546.01.02.01.03.02.05zM54.572 45.758 41.22 58.14a1.438 1.438 0 0 1-2.032-.081c-.612-.76-1.885-1.648-1.789-2.537-.027-.872 1.207-1.594 1.708-2.164l10.13-9.4.13-.122 1.85-1.708a1.48 1.48 0 0 1 1.031-.384c.89-.022 1.646 1.259 2.406 1.97a1.45 1.45 0 0 1-.08 2.043zM48.113 43.625l-9.451 8.774-1.678-1.263a11.22 11.22 0 0 1-4.468-8.158c-.144-1.25.688-8.227.798-9.613.302-2.09-.648-9.113-.788-11.302a1.84 1.84 0 0 0-.05-.657 1.59 1.59 0 0 1 3.072-.515c.006-.001 3.358 9.572 3.366 9.583a.505.505 0 0 0 .95-.344l-3.346-9.502c-.005-.068-3.902-13.494-3.912-13.556a1.618 1.618 0 0 1 3.074-1.01l7.278 19.448a13.258 13.258 0 0 1 .859 5.247l-.293 8.703a2.038 2.038 0 0 0 .93 1.8z" fill="#000000" opacity="1" data-original="#000000" class=""></path></g></svg>