<svg xmlns="http://www.w3.org/2000/svg" version="1.1" xmlns:xlink="http://www.w3.org/1999/xlink" width="512" height="512" x="0" y="0" viewBox="0 0 210.576 270.842" style="enable-background:new 0 0 512 512" xml:space="preserve" class=""><g><ellipse cx="105.29" cy="67.158" rx="22.495" ry="22.494" transform="rotate(-76.88 105.308 67.146)" fill="#000000" opacity="1" data-original="#000000"></ellipse><path d="M204.886 91.352c-2.512-3.027-5.805-5.126-9.522-5.21L172.053 0l-4.504 1.219 23.266 85.975c-2.105 1.069-3.814 2.86-5.02 4.994-1.706 3.011-2.59 6.77-2.595 10.85 0 1.591.138 3.232.426 4.905h.001c.029.17.07.334.103.503-31.88-8.171-57.846-12.152-58.015-12.182a7.977 7.977 0 0 0-2.893.093H87.75a7.966 7.966 0 0 0-2.887-.092h-.002c-.17.029-26.136 4.011-58.014 12.18.032-.169.073-.333.103-.504l-2.464-.424 2.464.422c.285-1.669.424-3.311.424-4.903-.004-4.078-.889-7.837-2.594-10.848-1.203-2.131-2.908-3.919-5.017-4.99L43.028 1.219 38.524 0 15.215 86.142c-3.719.081-7.014 2.182-9.525 5.21-2.565 3.105-4.442 7.276-5.264 12.032A28.677 28.677 0 0 0 0 108.285c.004 4.077.888 7.836 2.596 10.85 1.071 1.9 2.54 3.534 4.34 4.627a8.005 8.005 0 0 0 7.138 4.419c.726 0 1.463-.1 2.195-.308 18.594-5.297 36.404-9.257 49.534-11.885 4.853-.971 9.061-1.76 12.441-2.368v144.858c0 6.829 5.535 12.363 12.363 12.363s12.363-5.534 12.363-12.363v-78.272h4.637v78.272c0 6.829 5.535 12.363 12.363 12.363s12.363-5.534 12.363-12.363V113.621c12.523 2.256 36.503 6.996 61.972 14.251a8.03 8.03 0 0 0 2.195.308 8.003 8.003 0 0 0 7.138-4.42c1.803-1.093 3.271-2.726 4.343-4.625 1.706-3.014 2.59-6.772 2.595-10.85a29.337 29.337 0 0 0-.424-4.899c-.821-4.758-2.7-8.932-5.266-12.034zM5.351 104.233c.678-3.968 2.268-7.385 4.187-9.689 1.918-2.313 4.045-3.416 5.81-3.416h.041c.267.003.521.022.767.065 1.601.276 3.074 1.378 4.278 3.465 1.184 2.071 1.947 5.036 1.94 8.378a24.044 24.044 0 0 1-.349 4.059 23.82 23.82 0 0 1-.648 2.781 572.218 572.218 0 0 0-9.487 2.608 7.965 7.965 0 0 0-4.967 4.14c-1.172-2.069-1.926-5.018-1.92-8.339a23.437 23.437 0 0 1 .348-4.052zm198.303 12.392a7.967 7.967 0 0 0-4.965-4.14 575.13 575.13 0 0 0-9.488-2.609 23.868 23.868 0 0 1-.648-2.781l-2.464.423 2.464-.428a23.73 23.73 0 0 1-.355-4.052c-.004-3.341.757-6.309 1.942-8.377 1.204-2.09 2.679-3.191 4.263-3.463.259-.048.513-.07.782-.07 1.775-.017 3.919 1.084 5.853 3.416 1.919 2.307 3.509 5.722 4.186 9.687.237 1.387.35 2.749.35 4.055.005 3.321-.748 6.271-1.92 8.339z" fill="#000000" opacity="1" data-original="#000000"></path></g></svg>