<svg xmlns="http://www.w3.org/2000/svg" version="1.1" xmlns:xlink="http://www.w3.org/1999/xlink" width="512" height="512" x="0" y="0" viewBox="0 0 324.885 240.092" style="enable-background:new 0 0 512 512" xml:space="preserve" class=""><g><path d="M135.396 227.729c0 6.83 5.538 12.363 12.364 12.363 6.828 0 12.365-5.533 12.365-12.363v-21.663h-24.729zM164.76 227.729c0 6.83 5.537 12.363 12.363 12.363 6.828 0 12.365-5.533 12.365-12.363v-21.663H164.76z" fill="#000000" opacity="1" data-original="#000000" class=""></path><path d="M30.759 202.544v10.8h6.82v21.558c0 2.2 1.8 4 4 4h.716a4.015 4.015 0 0 0 3.916-3.188 4.015 4.015 0 0 0 3.916 3.188h.716c1.86 0 3.42-1.292 3.862-3.02.442 1.728 2.004 3.02 3.863 3.02h.716c2.2 0 4-1.8 4-4v-32.358H261.61v32.358c0 2.2 1.8 4 4 4h.716c1.86 0 3.422-1.292 3.863-3.02.443 1.727 2.003 3.02 3.864 3.02h.715c1.915 0 3.527-1.367 3.912-3.172a4.013 4.013 0 0 0 3.91 3.172h.716c2.2 0 4-1.8 4-4v-21.558h6.82v-10.8h30.759v-5.558h-30.758v-10.8h-6.822v-21.558c0-.15-.028-.292-.044-.438-.222-1.993-1.905-3.562-3.955-3.562h-.716a4.013 4.013 0 0 0-3.91 3.172c-.385-1.806-1.997-3.172-3.912-3.172h-.715c-1.86 0-3.421 1.292-3.864 3.02-.441-1.728-2.004-3.02-3.863-3.02h-.716c-2.05 0-3.733 1.569-3.955 3.562-.017.146-.045.288-.045.438v32.358h-72.122V130.3l2.614-12.914a10.326 10.326 0 0 1-2.256-1.62c-.442-.419-10.953-10.343-23.03-19.931-20.72-16.448-27.314-17.21-27.913-17.244a10.246 10.246 0 0 1-8.058-2.826c-1.266 3.102-2.445 6.477-3.537 10.117-4.076 13.587-6.93 30.896-8.53 51.86a8 8 0 0 0 15.953 1.217c1.698-22.25 4.682-37.736 7.936-48.512l2.216.659c-3.188 10.53-6.166 25.832-7.86 48.028a10.2 10.2 0 0 1-1.627 4.783v53.07H63.284v-32.359c0-.15-.028-.292-.044-.437-.223-1.994-1.905-3.563-3.956-3.563h-.716c-1.859 0-3.42 1.293-3.863 3.02-.441-1.727-2.002-3.02-3.862-3.02h-.716a4.015 4.015 0 0 0-3.916 3.188 4.015 4.015 0 0 0-3.916-3.188h-.716c-2.05 0-3.733 1.57-3.955 3.563-.017.145-.045.287-.045.437v21.558H30.76v10.8H0V202.545h30.759zm129.366-66.504 4.635.938v60.008h-4.635z" fill="#000000" opacity="1" data-original="#000000" class=""></path><path d="M179.581 79.668c3.461 2.747 7.06 5.721 10.739 8.873.397-4.56.18-7.909-.244-10.245l2.244-.378c.62 3.366.797 8.3-.231 15.199-3.969-3.472-8.788-7.561-13.938-11.648-25.004-19.843-35.033-21.694-40.972-21.096a8.001 8.001 0 0 0-7.156 8.764c.444 4.396 4.373 7.6 8.762 7.155.26-.017 6.705-.322 29.46 17.742 12.367 9.818 23.077 19.962 23.185 20.063a7.999 7.999 0 0 0 13.212-3.646c4.503-16.095 4.843-27.355 3.44-35.185-1.541-8.611-5.189-13.07-7.744-15.21a7.686 7.686 0 0 0-4.06-2.247l-8.895-1.801c-4.457 4.102-10.372 6.584-16.749 6.584-1.65 0-3.315-.168-4.945-.498-6.414-1.298-11.944-4.99-15.607-10.399-1.806.818-3.812 2.027-5.92 3.827-.925.79-1.824 1.66-2.702 2.6 6.424.722 16.885 4.693 38.121 21.546z" fill="#000000" opacity="1" data-original="#000000" class=""></path><path d="M166.145 59.84c12.18 2.466 24.051-5.408 26.517-17.588 2.466-12.18-5.407-24.051-17.588-26.517-12.178-2.466-24.051 5.408-26.517 17.588-2.466 12.18 5.41 24.052 17.588 26.517zm1.552-20.901c6.687-2.058 13.073-.588 14.263 3.283 1.193 3.872-5.42 1.668-12.105 3.725-6.687 2.058-10.915 7.598-12.108 3.727-1.19-3.871 3.265-8.677 9.95-10.735zM127.347 55.755l-16.298-19.624-3.643 9.1-13.832-12.938-2.67 3.294 17.827 14.547 2.701-8.404 15.27 14.75zM133.323 52.459l.775-.262-3.714-21.258-6.5 5.154-4.717-15.313-3.345 1.294 6.974 18.175 5.517-5.036zM124.686 64.684l-19.293-8.907.525 8.147-15.038-4.762-.828 3.437 18.622 4.535-.983-7.288 16.77 5.608zM221.369 12.49c-1.322-7.664-15.812-4.193-19.436 4.015 12.365-1.812 20.68 3.198 19.436-4.015zM200.2.682c-5.125-3.42-11.031 6.8-8.29 13.36 5.7-8.095 13.114-10.141 8.29-13.36zM214.413 29.281c.084-5.387-10.226-4.883-13.747.24 8.65.353 13.668 4.83 13.747-.24z" fill="#000000" opacity="1" data-original="#000000" class=""></path></g></svg>