<svg xmlns="http://www.w3.org/2000/svg" version="1.1" xmlns:xlink="http://www.w3.org/1999/xlink" width="512" height="512" x="0" y="0" viewBox="0 0 303.378 260.09" style="enable-background:new 0 0 512 512" xml:space="preserve" class=""><g><path d="M6.981 167.901a8 8 0 0 0 8.954-6.915c3.871-30.122 8.666-47.733 12.745-57.986v46.239c0 .292.019.579.051.863l-9.45 95.638c-.672 6.797 4.295 12.848 11.088 13.519 6.795.671 12.849-4.29 13.521-11.087l9.012-91.204h5.647l9.012 91.204c.672 6.797 6.726 11.759 13.521 11.087 6.793-.671 11.759-6.722 11.088-13.519l-9.449-95.63a7.82 7.82 0 0 0 .052-.871v-46.245c4.077 10.251 8.871 27.861 12.743 57.991a8 8 0 1 0 15.869-2.039c-5.941-46.232-15.306-74.105-27.833-82.845-3.586-2.502-6.721-3.02-8.813-2.983H36.692c-2.092-.032-5.218.49-8.793 2.983-12.527 8.74-21.891 36.613-27.833 82.845a8 8 0 0 0 6.915 8.955zM55.725 67.42c12.428 0 22.5-10.073 22.5-22.5s-10.072-22.5-22.5-22.5c-12.426 0-22.5 10.073-22.5 22.5 0 12.426 10.075 22.5 22.5 22.5zM37.98 38.071c1.388 4.676 8.793 8.249 17.746 8.249s16.358-3.573 17.746-8.249c.153.516.254 1.042.254 1.582 0 5.434-8.059 9.836-18 9.836s-18-4.402-18-9.836c0-.54.101-1.065.254-1.582zM237.432 66.767c12.428 0 22.5-10.073 22.5-22.5s-10.072-22.5-22.5-22.5c-12.426 0-22.5 10.073-22.5 22.5s10.075 22.5 22.5 22.5zm-17.744-29.349c1.388 4.676 8.793 8.249 17.746 8.249s16.358-3.573 17.746-8.249c.153.516.254 1.042.254 1.582 0 5.434-8.059 9.836-18 9.836s-18-4.402-18-9.836a5.49 5.49 0 0 1 .254-1.582z" fill="#000000" opacity="1" data-original="#000000" class=""></path><path d="M295.226 259.223c6.289-2.494 9.365-9.614 6.871-15.903-26.407-66.582-35.805-103.227-37.618-110.781v-46.68l35.46-24.618a8 8 0 0 0 2.758-9.798L282.13 4.776a8 8 0 1 0-14.641 6.453l17.907 40.631-29.68 20.605H219.15L189.47 51.86l17.907-40.631A8 8 0 0 0 203.283.682a7.998 7.998 0 0 0-10.547 4.094l-20.568 46.667a8 8 0 0 0 2.758 9.798l35.461 24.618v46.681c-1.813 7.553-11.21 44.197-37.618 110.78-2.494 6.289.582 13.409 6.871 15.903 1.482.588 3.01.866 4.513.866 4.875 0 9.484-2.93 11.391-7.737 17.058-43.011 27.159-73.688 32.817-92.683h18.146c5.657 18.995 15.758 49.672 32.817 92.683 1.907 4.807 6.516 7.737 11.391 7.737 1.502.001 3.03-.278 4.511-.866z" fill="#000000" opacity="1" data-original="#000000" class=""></path><path d="m166.339 128.043 10.076-10.077-10.076-10.076v8.076h-32.962v4h32.962z" fill="#000000" opacity="1" data-original="#000000" class=""></path></g></svg>