<svg xmlns="http://www.w3.org/2000/svg" version="1.1" xmlns:xlink="http://www.w3.org/1999/xlink" width="512" height="512" x="0" y="0" viewBox="0 0 138.173 228.888" style="enable-background:new 0 0 512 512" xml:space="preserve" class=""><g><path d="m12.433 125.778-.928.536 3.671 6.358a5.74 5.74 0 0 0-.809 5.495 5.753 5.753 0 0 0 5.385 3.732c.237 0 .476-.034.714-.064l2.705 4.685 4.33-2.5-2.24-3.879c8.227-3.461 21.136-10.251 22.042-19.073.771-7.503 1.876-12.064 3.084-14.847V218.98c0 5.471 4.436 9.908 9.911 9.908 5.469 0 9.906-4.437 9.906-9.908v-55.731h1.628v-8.976c0-6.731 5.478-12.208 12.21-12.208 4.08 0 7.69 2.019 9.908 5.103v-40.946c1.208 2.783 2.313 7.343 3.084 14.845.906 8.822 13.815 15.612 22.042 19.073l-2.24 3.879 4.33 2.5 2.705-4.685c.238.03.477.064.714.064a5.752 5.752 0 0 0 5.383-3.729 5.74 5.74 0 0 0-.808-5.496l3.672-6.359-1.003-.579c5.525-12.308 13.634-42.832-6.796-57.474-6.674-4.783-6.421-13.816-6.128-24.275.502-17.894 1.126-40.163-38.948-43.667-16.558-1.449-29.57 2.047-38.674 10.39-7.809 7.156-12.288 17.885-12.288 29.437 0 11.51-9.182 21.626-16.56 29.755-3.95 4.352-7.361 8.11-8.665 11.352-7.343 18.256-2.765 25.62 3.571 35.812 1.587 2.552 3.362 5.435 5.092 8.713zm-5.88-43.405c1.103-2.742 4.347-6.316 8.103-10.455 7.725-8.511 17.339-19.104 17.339-31.771 0-10.713 4.124-20.636 11.314-27.225C51.768 5.17 64.014 1.938 79.698 3.307c37.258 3.258 36.726 22.238 36.211 40.594-.304 10.843-.591 21.085 7.379 26.797 18.677 13.385 11.155 41.767 5.934 53.529l-.717-.414-3.621 6.271c-7.894-3.218-15.57-7.984-16.419-10.293-1.553-15.027-5.004-28.918-19.288-29.391a6.002 6.002 0 0 0-.955-.082h-4.661c-3.32 2.033-7.221 3.207-11.391 3.207s-8.07-1.174-11.39-3.207h-4.662c-.326 0-.644.032-.955.082-14.285.473-17.735 14.364-19.288 29.391-.849 2.31-8.526 7.077-16.419 10.293l-3.621-6.271-.803.464c-1.76-3.324-3.547-6.226-5.144-8.795C3.584 105.339-.221 99.218 6.553 82.373z" fill="#000000" opacity="1" data-original="#000000" class=""></path><path d="M84.044 144.364c-5.473 0-9.91 4.435-9.91 9.908v27.874c0 5.471 4.437 9.908 9.91 9.908 5.471 0 9.908-4.437 9.908-9.908v-27.874c0-5.473-4.437-9.908-9.908-9.908z" fill="#000000" opacity="1" data-original="#000000" class=""></path><circle cx="72.17" cy="71.649" r="19.577" transform="rotate(-45 72.163 71.667)" fill="#000000" opacity="1" data-original="#000000" class=""></circle></g></svg>