<svg xmlns="http://www.w3.org/2000/svg" version="1.1" xmlns:xlink="http://www.w3.org/1999/xlink" width="512" height="512" x="0" y="0" viewBox="0 0 60 60" style="enable-background:new 0 0 512 512" xml:space="preserve" class=""><g><path d="m10.477 24.478 5.964-.63 1.89 17.891-5.964.63zM23.205 21.131a1 1 0 0 0 .889-1.1l-.211-1.989a1 1 0 0 0-1.1-.889L2.9 19.257a1 1 0 0 0-.889 1.1l.21 1.989a1 1 0 0 0 1.1.889zM11.788 8.26A2.968 2.968 0 0 0 9.2 10.545l5.6-.592a2.963 2.963 0 0 0-3.012-1.693zM5.667 16.952l13.923-1.473a1 1 0 0 0 .889-1.1l-.21-1.988a1 1 0 0 0-1.1-.89L5.247 12.975a1 1 0 0 0-.889 1.1l.21 1.989a1 1 0 0 0 1.099.888zM26.27 30.477l1.23-8.215A5.022 5.022 0 0 1 32.44 18h15.12a5.022 5.022 0 0 1 4.94 4.264l1.241 8.244a20.321 20.321 0 0 1 3.311 4.05L55.635 20.4A5.981 5.981 0 0 0 49.67 15H30.33a5.954 5.954 0 0 0-4.6 2.184 3.065 3.065 0 0 1 .148.648l.21 1.989a3 3 0 0 1-1.969 3.13l-1.174 11.638a20.081 20.081 0 0 1 3.325-4.112zM17.046 57.983a2.969 2.969 0 0 0 2.592-2.283l-5.605.593a2.961 2.961 0 0 0 3.013 1.69zM25.939 46.987a1 1 0 0 0 .889-1.1l-.21-1.989a1 1 0 0 0-1.1-.889l-19.89 2.1a1 1 0 0 0-.889 1.1l.212 1.991a.994.994 0 0 0 1.1.889z" fill="#000000" opacity="1" data-original="#000000" class=""></path><path d="M57.972 44.051A17.989 17.989 0 0 0 22.4 41.328l2.913-.308a3 3 0 0 1 3.3 2.668l.21 1.989a3 3 0 0 1-2.668 3.3l-.184.02a2.938 2.938 0 0 1 .29.974l.21 1.988a2.977 2.977 0 0 1-1.489 2.913 16.7 16.7 0 0 0 1.209 1.654A4.052 4.052 0 0 0 29.3 58h21.4a4.034 4.034 0 0 0 3.078-1.427 17.912 17.912 0 0 0 4.194-12.522zm-2.943.653h-.084a1 1 0 0 1-1-.917 14.131 14.131 0 0 0-12.365-12.7A14.847 14.847 0 0 0 40 31a1 1 0 0 1 0-2 16.814 16.814 0 0 1 1.8.1 16.159 16.159 0 0 1 14.142 14.524 1 1 0 0 1-.913 1.076z" fill="#000000" opacity="1" data-original="#000000" class=""></path><path d="M23.167 49.292 9.244 50.764a1 1 0 0 0-.889 1.1l.21 1.99a1 1 0 0 0 1.1.888l13.923-1.472a1 1 0 0 0 .889-1.1l-.21-1.988a1 1 0 0 0-1.1-.89z" fill="#000000" opacity="1" data-original="#000000" class=""></path></g></svg>