<svg xmlns="http://www.w3.org/2000/svg" version="1.1" xmlns:xlink="http://www.w3.org/1999/xlink" width="512" height="512" x="0" y="0" viewBox="0 0 96 96" style="enable-background:new 0 0 512 512" xml:space="preserve" class=""><g><path d="M36.629 54.828c-4.545 5.286-12.684-.626-8.967-6.577l13.413-20.493H5a1 1 0 0 0-1 1V65.47a1 1 0 0 0 1 1h36.712a1 1 0 0 0 1-1V47.394zM18.767 34.9V33.63a1.2 1.2 0 0 1 1.2-1.2h6.778a1.2 1.2 0 0 1 1.2 1.2v1.271a1.2 1.2 0 0 1-1.2 1.2h-6.778a1.2 1.2 0 0 1-1.2-1.2zm7.691 29.57h-7.086v-4.087a1 1 0 0 1 1.317-.949l2.226.742 2.227-.742a1 1 0 0 1 1.316.949z" fill="#000000" opacity="1" data-original="#000000" class=""></path><path d="m75.584 31.67-17.07-12.56a7.448 7.448 0 0 0-10.645 1.92L29.335 49.347a3.57 3.57 0 0 0 5.746 4.214L49.558 35.87l12.145 9.403a4.32 4.32 0 0 1 1.02 5.729l-4.665 7.446a12.949 12.949 0 0 0-1.663 9.814l3.432 15.064a5.174 5.174 0 0 0 10.188-1.706l-1.24-11.467a11.015 11.015 0 0 1 2.04-7.664l7.875-10.852a14.371 14.371 0 0 0-3.106-19.968zM38.925 23.64a7.127 7.127 0 0 0 7.119-7.119c-.373-9.436-13.865-9.435-14.237 0a7.127 7.127 0 0 0 7.118 7.119zM80.638 31.331a1.007 1.007 0 0 1-.763-1.645l7.253-8.585a1 1 0 0 1 1.527 1.291l-7.253 8.585a.997.997 0 0 1-.764.355zM83.007 35.266a1.004 1.004 0 0 1-.371-1.93l7.993-3.193A1 1 0 0 1 91.37 32l-7.993 3.194a1.003 1.003 0 0 1-.371.072zM76.75 28.79a1.003 1.003 0 0 1-.977-1.219l1.818-8.115a1 1 0 0 1 1.951.437l-1.817 8.116a.999.999 0 0 1-.975.781z" fill="#000000" opacity="1" data-original="#000000" class=""></path></g></svg>