<svg xmlns="http://www.w3.org/2000/svg" version="1.1" xmlns:xlink="http://www.w3.org/1999/xlink" width="512" height="512" x="0" y="0" viewBox="0 0 225.101 246.809" style="enable-background:new 0 0 512 512" xml:space="preserve" class=""><g><path d="m112.135 125.924-10.077-10.076v8.076H69.096v4h32.962V136zM32.828 49.679c-8.537-2.129-20.912 2.508-25.947 17.15-6.805 20.174-8.267 33.305-5.681 55.52 1.903 9.792 6.731 14.235 12.283 16.191 2.767 16.855 6.642 52.512-.777 93.017-1.244 6.79 3.253 13.304 10.043 14.548.761.139 1.519.206 2.266.206 5.918 0 11.177-4.221 12.281-10.25 6.664-36.385 5.103-68.766 2.595-89.631a10.152 10.152 0 0 1-4.801 4.829 10.117 10.117 0 0 1-4.4 1.002c-3.906 0-7.52-2.275-9.206-5.797-18.559-38.755-5.68-78.924-5.122-80.614a10.183 10.183 0 0 1 12.882-6.494c5.331 1.756 8.247 7.525 6.5 12.86-.102.316-9.762 31.271 2.247 61.095a216.751 216.751 0 0 0-.936-5.099 54.685 54.685 0 0 0-.101-3.277c-2.305-17.191 2.555-37.268 5.295-51.264 2.868-9.953-.885-21.865-9.421-23.992z" fill="#000000" opacity="1" data-original="#000000" class=""></path><path d="M33.652 71.532a7.999 7.999 0 0 0-5.099-10.087 8 8 0 0 0-10.103 5.094c-.546 1.656-13.164 41.01 5.017 78.976a8 8 0 1 0 14.43-6.91c-15.328-32.014-4.369-66.689-4.245-67.073zM51.179 6.502A22.423 22.423 0 0 0 35.362 0c-12.426 0-22.5 10.074-22.5 22.5 0 12.428 10.074 22.5 22.5 22.5 11.399 0 20.81-8.476 22.291-19.469a62.21 62.21 0 0 1-6.371-.664c-11.521-1.793-20.404-6.308-20.145-10.172 1.524 3.461 10.442 6.12 21.247 6.12 8.154 0 15.247-1.513 18.892-3.742 1.663-1.017 2.61-2.184 2.61-3.424 0-3.787-8.822-6.88-19.987-7.14-.502-.012-1.003-.026-1.515-.026-.407-.001-.804.011-1.205.019zM213.815 163.587 174.03 159.7c-.074-14.802 3.622-30.503 5.885-42.06 2.869-9.953-.885-21.865-9.42-23.992-8.537-2.129-20.912 2.508-25.947 17.15-6.805 20.174-8.268 33.305-5.682 55.52 1.022 5.258 2.89 8.968 5.258 11.586l2.685 37.52-43.101 6.005c-6.837.953-11.608 7.269-10.655 14.105.871 6.253 6.226 10.777 12.365 10.777.574 0 1.156-.04 1.741-.121l54.678-7.618c6.516-.908 11.212-6.711 10.743-13.273L170.483 196c-.696.149-1.405.23-2.127.23-3.906 0-7.52-2.275-9.206-5.797-18.559-38.755-5.68-78.924-5.122-80.614a10.181 10.181 0 0 1 12.881-6.494c5.331 1.756 8.247 7.525 6.5 12.86-.106.331-10.744 34.355 4.14 65.438.563 1.176.87 2.406.961 3.634l20.856 2.038-2.908 46.229c-.434 6.891 4.8 12.827 11.69 13.261.267.017.532.024.797.024 6.544 0 12.046-5.093 12.463-11.715l3.667-58.281c.423-6.723-4.556-12.571-11.26-13.226z" fill="#000000" opacity="1" data-original="#000000" class=""></path><path d="M171.319 115.5a7.999 7.999 0 0 0-5.099-10.087 7.999 7.999 0 0 0-10.103 5.094c-.546 1.656-13.164 41.01 5.017 78.976a8 8 0 1 0 14.43-6.91c-15.329-32.013-4.37-66.688-4.245-67.073zM211.552 57.617c0-3.787-8.822-6.88-19.987-7.141-.502-.012-1.003-.026-1.515-.026-.406 0-.803.013-1.204.02a22.424 22.424 0 0 0-15.818-6.502c-12.426 0-22.5 10.074-22.5 22.5 0 12.428 10.074 22.5 22.5 22.5 11.399 0 20.81-8.476 22.291-19.469a62.21 62.21 0 0 1-6.371-.664c-11.521-1.793-20.404-6.308-20.145-10.172 1.524 3.461 10.442 6.12 21.247 6.12 8.154 0 15.247-1.513 18.892-3.742 1.663-1.017 2.61-2.184 2.61-3.424z" fill="#000000" opacity="1" data-original="#000000" class=""></path></g></svg>