<svg xmlns="http://www.w3.org/2000/svg" version="1.1" xmlns:xlink="http://www.w3.org/1999/xlink" width="512" height="512" x="0" y="0" viewBox="0 0 342.95 227.604" style="enable-background:new 0 0 512 512" xml:space="preserve" class=""><g><path d="m66.85 111.134 5.77 3.64-2.207 39.148-1.476-.115c-1.634-.12-3.096 1.104-3.225 2.756-.066.838.221 1.62.734 2.207.498.57 1.208.955 2.022 1.019l27.107 2.125a2.98 2.98 0 0 0 1.784-.427 2.991 2.991 0 0 0 1.441-2.33 3 3 0 0 0-2.756-3.225l-.702-.055.928-16.457 11.436-30.223 25.432-18.548 21.311-3.567a2.992 2.992 0 0 0 3.21 2.45 2.978 2.978 0 0 0 1.955-.99c.537-.6.84-1.406.76-2.27l-2.352-25.848a2.98 2.98 0 0 0-.83-1.795 2.963 2.963 0 0 0-2.43-.92 3 3 0 0 0-2.716 3.26l.105 1.15-48.697 8.151-4.222-2.663a3.016 3.016 0 0 1-.17.578c-7.382 18.119-26.564 37.49-32.212 42.95zM292.491 27.672a10.245 10.245 0 0 1 4.006 4.496l4.2 9.13c1.43.05 2.797.797 3.562 2.094.095.162.182.333.258.512.15.353.238.72.29 1.093 7.564-.219 14.84-4.246 18.884-11.29 6.188-10.777 2.467-24.528-8.31-30.715-10.777-6.188-24.527-2.468-30.715 8.31a22.417 22.417 0 0 0-2.439 16.132c.2-.109.399-.22.608-.316a10.296 10.296 0 0 1 9.656.554z" fill="#000000" opacity="1" data-original="#000000" class=""></path><path d="M284.642 50.181a1.997 1.997 0 0 0 1.941 3.466l14.75-6.227a1.998 1.998 0 0 0 1.065-2.62 2 2 0 0 0-2.62-1.066l-.41.173-4.96-10.777a7.999 7.999 0 0 0-10.611-3.923 8 8 0 0 0-3.924 10.612zM307.093 60.697l-5.157-11.208-14.397 6.078c-.12.05-.243.087-.367.113l18.094 39.318c.018.04.044.075.063.115.152.317.319.627.512.921l.023.04c.191.288.408.56.637.824.06.068.119.135.18.201.233.25.477.492.744.713l.041.031c.25.205.52.392.798.567.039.025.073.056.112.08.05.03.106.053.157.083.16.092.324.178.492.26.101.049.2.1.304.145l.017.006c.045.02.086.044.131.063.147.06.295.106.443.157.085.03.167.064.253.09.285.09.571.162.859.217.045.009.091.012.137.02.246.043.492.075.738.094.096.008.193.01.29.014.11.005.222.016.333.016.06 0 .12-.012.181-.013.249-.006.497-.026.746-.055.114-.014.228-.022.342-.04a7.97 7.97 0 0 0 .844-.19c.074-.02.15-.032.222-.054.34-.105.679-.23 1.012-.382l.024-.013c.024-.011.047-.026.071-.037a8.014 8.014 0 0 0 1.06-.613 7.95 7.95 0 0 0 .788-.603c.013-.012.028-.022.042-.035a7.947 7.947 0 0 0 .888-.943c.46-.57.835-1.195 1.121-1.86.017-.038.04-.071.055-.11 2.517-6.09 7.927-21.239 3.817-30.323-1.195-2.64-3.14-4.713-5.562-6.014a7.755 7.755 0 0 0-1.23-.622l-10.604-4.174 2.432 5.284a7.953 7.953 0 0 0-1.686 1.839zM213.501 146.306l-2.55 2.768a12.497 12.497 0 0 0-3.098 6.187l-10.697 57.55c-1.262 6.787 3.218 13.313 10.005 14.574.772.143 1.54.212 2.299.212 5.904 0 11.157-4.202 12.275-10.217l10.04-54.012 1.092-1.186-19.284-15.794c-.03-.025-.053-.056-.082-.082zM321.045 162.589l-22.942 8.29 20.844 48.948c2.024 4.754 6.646 7.606 11.506 7.606 1.633 0 3.294-.323 4.891-1.002 6.352-2.706 9.309-10.047 6.603-16.399l-20.32-47.721c-.182.11-.375.203-.582.278zM295.73 167.137l24.151-8.728a3.23 3.23 0 0 0 1.066-.636c.305-.274.545-.605.725-.966a3.227 3.227 0 0 0 .158-2.553 3.246 3.246 0 0 0-4.155-1.95l-.268.098-13.237-31.084a2.97 2.97 0 0 1-1.49.452c-4.829.118-10.019-.394-15.203-1.277-19.035-3.24-38.018-11.479-39.026-11.92a2.976 2.976 0 0 1-1.034-.76l-1.16 2.948-25.42 27.585-.148-.12a3.243 3.243 0 0 0-4.567.454 3.217 3.217 0 0 0-.72 1.967 3.227 3.227 0 0 0 1.174 2.6l19.867 16.27c.333.274.705.47 1.093.59a3.24 3.24 0 0 0 1.2.129 3.227 3.227 0 0 0 2.274-1.172 3.246 3.246 0 0 0-.454-4.567l-.346-.284 14.285-15.5 30.59 1.598 8.773 20.6-.334.121a3.243 3.243 0 0 0-1.95 4.155 3.216 3.216 0 0 0 1.322 1.626 3.227 3.227 0 0 0 2.834.324zM230.09 37.266l15.322-4.644a1.998 1.998 0 0 0 1.309-1.255c.028-.08.029-.168.046-.251.068-.32.08-.654-.02-.988a1.994 1.994 0 0 0-2.345-1.363l-1.727-5.841a8.001 8.001 0 0 0-15.343 4.539l1.753 5.928-.155.047a2 2 0 0 0-1.333 2.494c.128.423.386.767.715 1.013.492.37 1.144.513 1.778.321zM249.109 104.712c1.008.44 19.99 8.679 39.026 11.92 5.184.882 10.374 1.394 15.203 1.277a2.972 2.972 0 0 0 1.823-.69 2.983 2.983 0 0 0 1.103-2.382 2.994 2.994 0 0 0-2.357-2.85l4.323-10.983a10.35 10.35 0 0 1-1.047-.548 10.245 10.245 0 0 1-4.006-4.496l-18.41-40.004a4.279 4.279 0 0 1-2.923-2.48 4.267 4.267 0 0 1-.022-3.291c.043-.104.105-.195.155-.294l-3.245-7.05a7.948 7.948 0 0 0-4.262.416l-23.127 8.973-5.203-17.592-15.301 4.637c-.004.002-.008.002-.013.003l7.639 25.823a8 8 0 0 0 10.565 5.189l15.53-6.026-13.682 34.759a2.992 2.992 0 0 0-3.125 4.498c.31.51.769.934 1.356 1.19zM219.02 76.275c6.808-1.138 11.404-7.583 10.264-14.391s-7.58-11.407-14.392-10.265l-52.482 8.784 2.274 24.966zM67.003 214.4c-.39 6.893 4.883 12.796 11.776 13.185.24.014.477.02.715.02 6.58 0 12.094-5.144 12.469-11.797l2.783-49.364-24.929-1.954zM36.624 59.088a24.656 24.656 0 0 1-14.102 4.416 24.82 24.82 0 0 1-3.591-.272 7.95 7.95 0 0 0-2.48 3.444c-1.35 3.655-2.291 7.5-2.943 11.313-2.544 14.9-.58 29.32-.474 30.076a8 8 0 0 0 13.12 4.963l20.563-17.576-10.912-11.24a1.988 1.988 0 0 1-.227-.287l-7.286 6.228c.194-4.564.767-9.582 2.029-14.285l2.46-.31c-.806 2.762-1.401 5.856-1.78 9.253l3.45-2.948c-.17-1.137.099-2.332.852-3.289a4.267 4.267 0 0 1 3.445-1.642c.422.007.827.093 1.219.216l4.13-3.53a10.307 10.307 0 0 1 6.689-2.47c3.02 0 5.874 1.314 7.833 3.608a10.23 10.23 0 0 1 2.438 7.495 10.231 10.231 0 0 1-3.576 7.026l-3.4 2.906a4.28 4.28 0 0 1-1.25 3.621 4.26 4.26 0 0 1-4.198 1.036l-1.886 1.612 11.545 7.283c-.213.203-.34.321-.357.336a3 3 0 0 0 2.04 5.201c.134 0 .268-.018.402-.036a2.976 2.976 0 0 0 1.635-.763c1.027-.95 25.259-23.533 33.774-44.433a2.972 2.972 0 0 0 .095-1.947 2.983 2.983 0 0 0-1.742-1.963 2.983 2.983 0 0 0-2.947.404L69.916 49.112l42.796-.671-.89-15.606c-.007-.13 0-.258.017-.382l-63.509.995a8.036 8.036 0 0 0-1.553.178c1.964 9.46-1.725 19.624-10.153 25.462z" fill="#000000" opacity="1" data-original="#000000" class=""></path><circle cx="22.502" cy="38.702" r="22.5" fill="#000000" opacity="1" data-original="#000000" class=""></circle><path d="m113.952 32.58.912 15.984c.043.752.5 1.376 1.133 1.682a1.977 1.977 0 0 0 .977.201 2 2 0 0 0 1.883-2.102l9.474-.149a8 8 0 0 0-.123-15.999l-.128.001-10.134.16v-.006c-.063-1.103-1.01-1.932-2.111-1.883-.44.025-.833.194-1.15.453a1.992 1.992 0 0 0-.733 1.658zM50.115 94.7a1.994 1.994 0 0 0 1.265-3.234l4.607-3.938a8 8 0 0 0 .883-11.279 8 8 0 0 0-11.28-.883l-5.363 4.585-.109-.112a2 2 0 1 0-2.87 2.786L48.4 94.113a1.998 1.998 0 0 0 1.715.587z" fill="#000000" opacity="1" data-original="#000000" class=""></path></g></svg>