<svg xmlns="http://www.w3.org/2000/svg" version="1.1" xmlns:xlink="http://www.w3.org/1999/xlink" width="512" height="512" x="0" y="0" viewBox="0 0 442.311 442.311" style="enable-background:new 0 0 512 512" xml:space="preserve" class=""><g><path d="m440.496 250.577-20.711-29.42 20.713-29.42a9.945 9.945 0 0 0 .693-10.301 9.934 9.934 0 0 0-8.822-5.361l-38.766-.001a9.953 9.953 0 0 0-7.029 2.911l-28.916 28.919-120.993-.001c-4.054-104.124-55.514-186.748-118.198-186.748C53.144 21.155 0 110.875 0 221.155c0 110.279 53.144 200 118.466 200 62.684 0 114.144-82.621 118.198-186.744h120.994l28.918 28.918a9.934 9.934 0 0 0 7.027 2.91h38.766a9.932 9.932 0 0 0 8.822-5.361 9.932 9.932 0 0 0-.695-10.301zM134.967 378.951c-51.538 0-93.467-70.787-93.467-157.796S83.429 63.359 134.967 63.359c48.894 0 89.135 63.714 93.135 144.545h-57.12c-3.608-27.971-18.381-48.986-36.015-48.986-20.329 0-36.868 27.919-36.868 62.237 0 34.32 16.539 62.241 36.868 62.241 17.633 0 32.406-21.015 36.015-48.985h57.12c-4.003 80.828-44.242 144.54-93.135 144.54z" fill="#000000" opacity="1" data-original="#000000"></path></g></svg>