<svg xmlns="http://www.w3.org/2000/svg" version="1.1" xmlns:xlink="http://www.w3.org/1999/xlink" width="512" height="512" x="0" y="0" viewBox="0 0 149.682 183.044" style="enable-background:new 0 0 512 512" xml:space="preserve" class=""><g><path d="M78.879 111.955c-.072-.018-.144-.036-.216-.052.057.165.112.331.163.497.018-.148.033-.296.053-.445zM140.593 129.465l-23.259-6.604c-2.97 5.185-9.307 8.044-18.381 8.044-10.874 0-17.818-4.104-19.739-11.403a14.818 14.818 0 0 1-1.492 4.213l-6.892 12.877 3.261-.023 59.673 16.944c1.141.324 2.29.479 3.421.479 5.446 0 10.456-3.589 12.018-9.089 1.887-6.64-1.968-13.552-8.61-15.438z" fill="#000000" opacity="1" data-original="#000000" class=""></path><circle cx="41.271" cy="22.5" r="22.5" fill="#000000" opacity="1" data-original="#000000" class=""></circle><path d="M1.199 122.432c3.129 16.102 14.163 17.754 23.328 17.637 2.297-.029 4.275-.112 5.937-.441a12.523 12.523 0 0 0 2.385-.457l6.698-1.979-14.692 27.452c-3.258 6.086-.965 13.662 5.122 16.919a12.498 12.498 0 0 0 16.919-5.123l28.8-53.811a12.5 12.5 0 0 0-1.327-13.791 12.494 12.494 0 0 0-10.079-4.594l-4.2 1.102c-.656.172-1.329.258-2.006.298l-21.668 6.403c.168-4.754.679-9.553 1.356-14.24.199-1.381.411-2.752.636-4.108L19.63 79.239c-4.499-3.466-5.341-9.946-1.875-14.445a10.233 10.233 0 0 1 8.166-4.016c2.29 0 4.461.74 6.279 2.14l27.553 21.22 38.434-10.085a10.251 10.251 0 0 1 7.878 1.12 7.97 7.97 0 0 0-.205-3.263 7.945 7.945 0 0 0-2.818-4.189v-.015a4.101 4.101 0 0 0-4.089-4.089c-1.862 0-3.427 1.269-3.916 2.98l-34.729 9.581L39.931 55.06c-1.735-2.623-4.127-4.556-7.103-5.297-8.537-2.129-20.912 2.508-25.948 17.15-2.962 8.781-4.91 16.228-5.954 23.67-1.355 9.656-1.188 19.304.273 31.849z" fill="#000000" opacity="1" data-original="#000000" class=""></path><path d="M87.979 98.029c-4.271 4.569-7.025 11.267-7.025 17.076 0 9.941 8.059 13.5 18 13.5s18-3.559 18-13.5c0-8.143-5.408-18.037-12.828-21.352-.234.08-.468.162-.71.226zM102.831 91.754a8.002 8.002 0 0 0-4.061-15.477L59.244 86.649 30.797 64.74a8 8 0 0 0-9.764 12.677l31.56 24.306a8.004 8.004 0 0 0 6.912 1.4z" fill="#000000" opacity="1" data-original="#000000" class=""></path></g></svg>