<svg xmlns="http://www.w3.org/2000/svg" version="1.1" xmlns:xlink="http://www.w3.org/1999/xlink" width="512" height="512" x="0" y="0" viewBox="0 0 324.885 239.306" style="enable-background:new 0 0 512 512" xml:space="preserve" class=""><g><circle cx="162.442" cy="22.5" r="22.5" fill="#000000" opacity="1" data-original="#000000" class=""></circle><path d="M92.342 124.16H63.284V91.802c0-2.2-1.8-4-4-4h-.716c-1.859 0-3.421 1.292-3.863 3.02-.441-1.727-2.002-3.02-3.862-3.02h-.716a4.015 4.015 0 0 0-3.916 3.188 4.015 4.015 0 0 0-3.916-3.188h-.716c-2.199 0-4 1.8-4 4v21.558h-6.82v10.8H0v5.558h30.759v10.8h6.82v21.558c0 2.2 1.801 4 4 4h.716a4.015 4.015 0 0 0 3.916-3.188 4.015 4.015 0 0 0 3.916 3.188h.716c1.86 0 3.421-1.292 3.862-3.02.442 1.727 2.004 3.02 3.863 3.02h.716c2.2 0 4-1.8 4-4v-32.358h30.033a10.194 10.194 0 0 1-.975-5.558zM212.433 128.184l-1.198-4.024h-97.583l-1.198 4.024a10.08 10.08 0 0 1-.598 1.534h22.348l-10.823 43.606c-.166.67-.275 1.352-.326 2.039l-3.79 50.779c-.504 6.747 4.558 12.625 11.304 13.128.311.023.619.035.925.035 6.352-.001 11.723-4.903 12.203-11.339l3.713-49.746 8.635-34.787h12.8l8.635 34.787 3.713 49.746c.48 6.437 5.852 11.339 12.203 11.339.306 0 .614-.012.925-.035 6.746-.503 11.808-6.381 11.304-13.128l-3.79-50.779a12.232 12.232 0 0 0-.326-2.039l-10.823-43.606h22.348a9.69 9.69 0 0 1-.601-1.534zM261.61 162.076c0 2.2 1.8 4 4 4h.716c1.859 0 3.422-1.292 3.863-3.02.442 1.728 2.003 3.02 3.863 3.02h.716c1.915 0 3.526-1.367 3.911-3.172a4.013 4.013 0 0 0 3.91 3.172h.716c2.2 0 4-1.8 4-4v-21.558h6.821v-10.8h30.758v-5.558h-30.758v-10.8h-6.821V91.802c0-2.2-1.8-4-4-4h-.716a4.013 4.013 0 0 0-3.91 3.171 4.015 4.015 0 0 0-3.911-3.171h-.716c-1.86 0-3.421 1.292-3.863 3.02-.441-1.728-2.004-3.02-3.863-3.02h-.716c-2.2 0-4 1.8-4 4v32.358h-29.067a10.185 10.185 0 0 1-.976 5.558h30.043z" fill="#000000" opacity="1" data-original="#000000" class=""></path><path d="M94.914 122.961a7.998 7.998 0 0 0 5.384 9.95c.762.227 1.53.335 2.286.335a8.004 8.004 0 0 0 7.664-5.719l8.2-27.534 3.107-10.434c4.601-11.826 9.806-17.529 13.841-20.284v52.585h54.092V69.335c4.024 2.784 9.274 8.49 13.841 20.225l3.256 10.933 8.051 27.034a8.004 8.004 0 0 0 7.664 5.719 8 8 0 0 0 7.67-10.285l-8.374-28.12-3.024-10.154-.201-.591c-12.142-31.534-31.24-33.421-36.062-33.37-.182-.013-.364-.028-.549-.028h-38.635c-.184 0-.365.015-.545.028-4.815-.053-23.921 1.828-36.066 33.37l-4.089 13.699z" fill="#000000" opacity="1" data-original="#000000" class=""></path></g></svg>