<svg xmlns="http://www.w3.org/2000/svg" version="1.1" xmlns:xlink="http://www.w3.org/1999/xlink" width="512" height="512" x="0" y="0" viewBox="0 0 256 256" style="enable-background:new 0 0 512 512" xml:space="preserve" class=""><g><path fill="#ff4a73" d="M140.116 206.561c42.971 63.781 124.986-3.612 106.627-94.903-6.929-34.457-33.175-76.053-57.839-83.17-9.68-2.793-21.241-1.641-28.792 6.507-5.457 5.888-7.871 13.473-8.606 21.373-2.431 26.129 20.68 50.15-8.955 90.229-9.307 12.588-18.865 35.577-2.435 59.964z" opacity="1" data-original="#ff4a73"></path><path fill="#f973a3" d="M134.586 189.025a58.937 58.937 0 0 1-3.122-5.175c.788 7.234 3.384 14.901 8.649 22.717 42.978 63.775 124.992-3.617 106.628-94.908-1.397-6.965-3.589-14.206-6.386-21.412.32 1.301.597 2.589.859 3.869 18.364 91.292-63.65 158.684-106.628 94.909z" opacity="1" data-original="#f973a3"></path><path fill="#ea2a6a" d="M160.107 35.002c-5.449 5.882-7.866 13.471-8.605 21.366-2.425 26.129 20.687 50.152-8.955 90.231-8.643 11.697-17.509 32.36-5.555 54.795-1.682-15.335 4.755-28.689 11.082-37.252 29.643-40.079 6.531-64.101 8.955-90.231.739-7.895 3.157-15.483 8.605-21.366 7.561-8.155 19.117-9.302 28.79-6.513 19.684 5.677 40.387 33.313 51.458 61.759-8.015-33.639-33.229-72.452-56.986-79.302-9.671-2.789-21.227-1.642-28.789 6.513z" opacity="1" data-original="#ea2a6a"></path><g fill="#87828e"><path d="M54.276 25.521a4.333 4.333 0 0 0-2.869-1.083c-1.616 0-3.049-.187-4.483 1.084-58.444 51.837-50.666 110.753 6.091 165.407 53.655-51.598 60.477-112.932 1.261-165.408zM52.986 190.929c3.248 3.087 8.684 8.517 37.115 36.75 1.292 1.283.288 3.485-1.527 3.343l-12.348-.97c-11.848-.931-21.23-10.394-22.059-22.25zM52.986 190.929c-3.248 3.087-8.684 8.517-37.115 36.75-1.292 1.283-.288 3.485 1.527 3.343l12.348-.97c11.848-.931 21.23-10.394 22.059-22.25z" fill="#87828e" opacity="1" data-original="#87828e" class=""></path></g><path fill="#a4a4a5" d="M55.139 188.915c-.756.702-1.395 1.306-2.124 2.017a112.684 112.684 0 0 0-2.124-2.017c-13.551-12.733-90.025-87.057-3.971-163.39a4.296 4.296 0 0 1 2.879-1.084c1.631-.009 3.043-.19 4.478 1.084 1.706 1.51 3.35 3.012 4.914 4.523-62.443 64.399-14.688 125.713 6.469 147.778-4.451 5.198-8.281 8.992-10.521 11.089z" opacity="1" data-original="#a4a4a5" class=""></path><path fill="#ffe2e2" d="M164.427 152.801c-11.969 24.124-41.228 33.977-65.352 22.008s-33.977-41.228-22.008-65.352 57.669-67.114 81.793-55.145 17.536 74.365 5.567 98.489z" opacity="1" data-original="#ffe2e2"></path><path fill="#ffefee" d="M106.93 177.893a48.34 48.34 0 0 1-7.855-3.084c-24.119-11.967-33.975-41.233-22.008-65.352s57.674-67.112 81.793-55.145c2.571 1.275 4.782 3.123 6.689 5.434-25.098-.99-62.728 35.635-73.42 57.184-10.691 21.548-3.965 47.209 14.801 60.963z" opacity="1" data-original="#ffefee" class=""></path><path fill="#ffcfcf" d="M164.427 152.801c-11.967 24.119-41.233 33.975-65.352 22.008a48.334 48.334 0 0 1-7.207-4.389c22.303 6.624 46.806-3.543 57.497-25.092 10.692-21.549 17.093-73.669 1.122-93.055 2.993.121 5.802.764 8.373 2.04 24.12 11.966 17.534 74.368 5.567 98.488z" opacity="1" data-original="#ffcfcf"></path><circle cx="120.611" cy="131.402" r="25.504" fill="#f9d335" opacity="1" data-original="#f9d335"></circle><path fill="#f9e27d" d="M115.269 156.34a25.111 25.111 0 0 1-5.993-2.092c-12.615-6.259-17.77-21.565-11.511-34.18s21.565-17.77 34.18-11.511a25.158 25.158 0 0 1 5.291 3.506c-11.127-2.399-22.895 2.936-28.188 13.603-5.291 10.667-2.421 23.265 6.221 30.674z" opacity="1" data-original="#f9e27d"></path><path fill="#f2c300" d="M143.456 142.738c-6.259 12.615-21.565 17.77-34.18 11.511a25.158 25.158 0 0 1-5.291-3.506c11.127 2.399 22.895-2.936 28.188-13.603 5.292-10.667 2.422-23.265-6.22-30.674a25.111 25.111 0 0 1 5.993 2.092c12.615 6.258 17.769 21.565 11.51 34.18z" opacity="1" data-original="#f2c300"></path><g fill="#5f266d"><path d="M250.663 110.873c-6.94-34.51-33.55-78.41-60.65-86.23-19.038-5.481-36.166 3.425-41.19 23.65-10.69.25-23.7 5.99-37.86 16.89-5.19 3.99-10.29 8.5-15.03 13.24-6.15-19.62-19.19-38.34-39-55.9-3.182-2.805-9.301-2.973-12.66.01-27.22 24.14-41.23 50.54-41.64 78.48-.59 40.48 27.24 73.39 44.6 89.93-5.191 5.077-20.521 20.325-34.18 33.9-3.807 3.786-1.054 10.19 4.17 10.19.384 0 12.455-.96 12.84-.99 10.04-.79 18.65-6.98 22.92-15.63 4.27 8.65 12.89 14.84 22.93 15.63.367.029 12.462.99 12.83.99 5.251 0 7.967-6.424 4.18-10.19-22.944-22.783-30.035-29.844-34.14-33.86 4.8-4.61 13.42-13.63 21.55-25.95 11.54 13.863 29.599 20.735 47.01 18.45 2.451 26.203 25.205 41.929 26.2 42.93 14.026 9.986 30.742 12.149 47.6 5.11 31.278-13.066 49.89-50.178 52.084-88.371.127-1 .845-15.328-2.564-32.279zm-71.98-23.87 37.48-31.95c7.36 9.52 13.91 21.01 18.85 32.7-.37.15-.72.36-1.05.62l-59.85 49.14c4.108-15.621 6.073-34.764 4.57-50.51zm9.11-54.67c7.86 2.27 15.85 8.31 23.26 16.56l-33.72 28.75c-2.506-12.392-8.292-24.868-20.49-28.38 4.246-15.293 16.846-21.007 30.95-16.93zm-139.98 175.19c-.68 9.8-8.59 17.77-18.38 18.54l-6.8.53c16.108-15.984 16.77-16.656 25.63-25.44zm35.52 19.07-6.79-.53c-9.8-.77-17.7-8.74-18.39-18.54l-.44-6.37c11.104 11.01 9.256 9.205 25.62 25.44zm-30.32-41.17c-16.35-15.53-42.93-46.62-42.38-84.3.38-25.59 13.48-50.02 38.95-72.61.153-.153 1.939-.101 2.04 0 20.16 17.87 32.85 36.87 37.89 56.68-19.402 21.614-29.941 46.046-14.15 72.82-8.29 13.21-17.55 22.83-22.35 27.41zm47.84-14.2c-22.029-10.914-31.206-37.801-20.2-59.99 6.488-13.086 21.849-29.448 35.19-39.71 10.1-7.781 27.59-18.584 39.61-14.31 13.367 4.535 15.805 27.694 15.73 41.76-.101 15.677-3.504 38.269-10.34 52.05-10.927 22.063-37.769 31.244-59.99 20.2zm34.47 10.61c13.412-3.706 25.789-13.339 32.69-27.25.058-.116 1.28-2.641 1.28-2.77l68.71-56.4c5.409 15.058 7.71 30.362 7.33 45.33v.008l-90.152 76.86c-9.544-7.984-18.819-21.213-19.858-35.778zm62.74 42.31c-12.65 5.28-25.09 4.54-36.11-1.79-.003-.002 82.577-70.405 82.58-70.407-4.231 35.419-23.871 62.758-46.47 72.197z" fill="#000000" opacity="1" data-original="#5f266d" class=""></path><path d="m160.503 199.673 43.34-37.01a3.996 3.996 0 0 0 .44-5.64 4.004 4.004 0 0 0-5.64-.45l-43.34 37.02a3.995 3.995 0 0 0-.44 5.64c1.429 1.683 3.963 1.874 5.64.44zM215.253 152.923l13.56-11.59a3.996 3.996 0 1 0-5.19-6.08l-13.57 11.58a3.996 3.996 0 0 0-.44 5.64c1.425 1.678 3.949 1.874 5.64.45z" fill="#000000" opacity="1" data-original="#5f266d" class=""></path><circle cx="55.639" cy="54.982" r="6.483" transform="rotate(-45 55.632 54.996)" fill="#000000" opacity="1" data-original="#5f266d" class=""></circle><path d="M77.394 74.775a4 4 0 1 0-5.759-5.553c-.667.691-16.567 16.738-37.588-.329a4 4 0 0 0-5.043 6.211c19.863 16.126 39.488 8.908 48.39-.329zM147.043 144.513c7.243-14.584 1.244-32.308-13.32-39.54-14.663-7.281-32.381-1.144-39.54 13.32-7.32 14.744-1.119 32.383 13.32 39.54 14.739 7.317 32.366 1.152 39.54-13.32zm-35.99 6.15c-10.664-5.29-14.976-18.185-9.71-28.82 5.241-10.539 18.084-14.996 28.83-9.71 10.607 5.275 14.976 18.173 9.7 28.83-5.329 10.742-18.276 14.942-28.82 9.7z" fill="#000000" opacity="1" data-original="#5f266d" class=""></path></g></g></svg>