<svg xmlns="http://www.w3.org/2000/svg" version="1.1" xmlns:xlink="http://www.w3.org/1999/xlink" width="512" height="512" x="0" y="0" viewBox="0 0 64 64" style="enable-background:new 0 0 512 512" xml:space="preserve" class=""><g><g data-name="19-whey"><path fill="#e6e6e6" d="M44.37 15.5 47 13h14l2.63 2.5a1.851 1.851 0 0 1 .37 1.11V17H44v-.39a1.851 1.851 0 0 1 .37-1.11z" opacity="1" data-original="#e6e6e6"></path><path fill="#000000" d="M51 3h6v4h-6zM62 13a1 1 0 0 0 1-1V9.44a2.009 2.009 0 0 0-1.37-1.9L57 7h-6l-4.63.54A2.009 2.009 0 0 0 45 9.44V12a1 1 0 0 0 1 1zM21 11H10a2.006 2.006 0 0 1-2-2V4a3 3 0 0 1 3-3h24a3 3 0 0 1 3 3v5a2.006 2.006 0 0 1-2 2zM22.39 27.66 2 33v21l16.69-4.37L44 43V22z" opacity="1" data-original="#a64193" class=""></path><path fill="#b086f5" d="M64 17v1.1a3.708 3.708 0 0 1-1.19 2.72A2.985 2.985 0 0 0 61.78 23a5.3 5.3 0 0 0 1.34 3.05 3.831 3.831 0 0 1 .88 2.39V59a4.238 4.238 0 0 1-4.44 4H48.44a4.411 4.411 0 0 1-4.24-2.81A3.669 3.669 0 0 1 44 59V28.44a3.831 3.831 0 0 1 .88-2.39A5.3 5.3 0 0 0 46.22 23a2.985 2.985 0 0 0-1.03-2.18A3.708 3.708 0 0 1 44 18.1V17z" opacity="1" data-original="#94d1b2" class=""></path><path fill="#545c70" d="M44 43v14a6 6 0 0 1-6 6H8a6 6 0 0 1-6-6v-3l16.69-4.37zM12 11l-6.59 4.61A8 8 0 0 0 2 22.17V33l20.39-5.34L44 22a8.021 8.021 0 0 0-3.41-6.39L34 11z" opacity="1" data-original="#545c70" class=""></path><path fill="#000000" d="M35 5H11a2.986 2.986 0 0 1-2.817-2A2.986 2.986 0 0 0 8 4v5a2.006 2.006 0 0 0 2 2h26a2.006 2.006 0 0 0 2-2V4a2.986 2.986 0 0 0-.183-1A2.986 2.986 0 0 1 35 5z" opacity="1" data-original="#7d2c6e" class=""></path><path fill="#541e4c" d="M36 9H10a2.006 2.006 0 0 1-2-2v2a2.006 2.006 0 0 0 2 2h26a2.006 2.006 0 0 0 2-2V7a2.006 2.006 0 0 1-2 2z" opacity="1" data-original="#541e4c" class=""></path><path fill="#d3d3d3" d="M49.949 17H44v-.39a1.851 1.851 0 0 1 .37-1.11L47 13h14l2.1 2h-7.684a6.007 6.007 0 0 0-2.683.633L50 17" opacity="1" data-original="#d3d3d3"></path><path fill="#000000" d="M12.49 51.25 2 54V33l6-1.57V39a18.9 18.9 0 0 0 4.49 12.25z" opacity="1" data-original="#7d2c6e" class=""></path><path fill="#2e3442" d="M44 54.21V57a6 6 0 0 1-6 6H8a6 6 0 0 1-6-6v-3l10.49-2.75A18.924 18.924 0 0 0 27 58h10.19A7.985 7.985 0 0 0 44 54.21zM39.72 15H17.41A9.416 9.416 0 0 0 8 24.41v7.02L2 33V22.17a8 8 0 0 1 3.41-6.56L12 11h22z" opacity="1" data-original="#2e3442" class=""></path><path fill="#000000" d="M12.49 51.25 2 54V33l6-1.57V39a18.9 18.9 0 0 0 4.49 12.25z" opacity="1" data-original="#7d2c6e" class=""></path><path fill="#2e3442" d="M44 54.21V57a6 6 0 0 1-6 6H8a6 6 0 0 1-6-6v-3l10.49-2.75A18.924 18.924 0 0 0 27 58h10.19A7.985 7.985 0 0 0 44 54.21zM39.72 15H17.41A9.416 9.416 0 0 0 8 24.41v7.02L2 33V22.17a8 8 0 0 1 3.41-6.56L12 11h22z" opacity="1" data-original="#2e3442" class=""></path><path fill="#fb9f00" d="M7 50a.906.906 0 0 1-.146-.011A1 1 0 0 1 6 49V35h2v7.187l1.042-3.474a1 1 0 0 1 1.895-.065L12 41.485V33h2v14a1 1 0 0 1-1.937.352l-1.958-5.223-2.147 7.158A1 1 0 0 1 7 50zM22 30v8h-3v-6h-2v15h2v-7h3v5h2V30zM33 30v-2h-5a1 1 0 0 0-1 1v13a1 1 0 0 0 1 1h5v-2h-4v-5h3v-2h-3v-4zM41.937 26.352l-1.874-.704L38 31.152l-2.063-5.504-1.874.704L37 34.182V41h2v-6.818z" opacity="1" data-original="#fb9f00" class=""></path><path fill="#ed7e07" d="M6 49a1 1 0 0 0 .855.989A.906.906 0 0 0 7 50a1 1 0 0 0 .957-.713l1.164-3.878a18.838 18.838 0 0 1-.932-3.857L8 42.187V35H6z" opacity="1" data-original="#ed7e07" class=""></path><path fill="#000000" d="M54 42a1 1 0 0 1-.784-1.177L53.78 38H52a1 1 0 0 1-.929-1.371l1.629-4.072A1 1 0 0 1 54 32a1 1 0 0 1 .557 1.3l-1.08 2.7H55a1 1 0 0 1 .98 1.2l-.8 4.02A1 1 0 0 1 54 42z" opacity="1" data-original="#a64193" class=""></path><path fill="#1e004f" d="M50 17h-6v1.1a3.708 3.708 0 0 0 1.19 2.72A2.985 2.985 0 0 1 46.22 23a5.3 5.3 0 0 1-1.34 3.05 3.831 3.831 0 0 0-.88 2.39V59a3.669 3.669 0 0 0 .2 1.19A4.411 4.411 0 0 0 48.44 63h11.12A4.238 4.238 0 0 0 64 59v-3h-2a13 13 0 0 1-13-13V32a6 6 0 0 1 6-6h8.081a5.235 5.235 0 0 1-1.3-3 2.877 2.877 0 0 1 .864-2H50l-1.106-.553A1.617 1.617 0 0 1 48 19a1.617 1.617 0 0 1 .894-1.447z" opacity="1" data-original="#5cc199" class=""></path><rect width="3" height="18" x="60" y="36" fill="#1e004f" rx="1.5" opacity="1" data-original="#a3e6c4" class=""></rect><rect width="3" height="5" x="60" y="30" fill="#1e004f" rx="1.5" opacity="1" data-original="#a3e6c4" class=""></rect><g fill="#7d2c6e"><path d="M53 3v1a2 2 0 0 0 2 2h2v1h-6V3zM48 9.7a1.305 1.305 0 0 1 .58-1.084L51 7l-4.63.54A2.009 2.009 0 0 0 45 9.44V12a1 1 0 0 0 1 1h16a1 1 0 0 0 1-1v-1H49.3A1.3 1.3 0 0 1 48 9.7z" fill="#000000" opacity="1" data-original="#7d2c6e" class=""></path><path d="M59 9h2v4h-2zM55 9h2v4h-2zM51 9h2v4h-2zM47 9h2v4h-2z" fill="#000000" opacity="1" data-original="#7d2c6e" class=""></path></g><rect width="10" height="2" x="49" y="2" fill="#000000" rx="1" opacity="1" data-original="#a64193" class=""></rect><path fill="#000000" d="M58 3h-8a.986.986 0 0 1-.847-.5A.977.977 0 0 0 49 3a1 1 0 0 0 1 1h8a1 1 0 0 0 1-1 .977.977 0 0 0-.153-.5A.986.986 0 0 1 58 3z" opacity="1" data-original="#7d2c6e" class=""></path><path fill="#541e4c" d="M32 5h2v6h-2zM28 5h2v6h-2zM24 5h2v6h-2zM20 5h2v6h-2zM16 5h2v6h-2zM12 5h2v6h-2z" opacity="1" data-original="#541e4c" class=""></path><rect width="22" height="3" x="12" y="1" fill="#000000" rx="1.5" opacity="1" data-original="#c749b0" class=""></rect><path fill="#000000" d="M39 26a2 2 0 0 0 4 0v-3.738l-4 1.048z" opacity="1" data-original="#c749b0" class=""></path><path fill="#656f87" d="M40.328 17.148 37.1 15h-3.822a2 2 0 0 0 .613 2.664l4.218 2.813A2 2 0 0 1 39 22.141v1.169l4-1.048v-.121a5.992 5.992 0 0 0-2.672-4.993z" opacity="1" data-original="#656f87"></path><path fill="#434959" d="M36.109 14.336a2 2 0 0 0-2.773.555c-.024.035-.037.073-.058.109H37.1z" opacity="1" data-original="#434959"></path><path fill="#ffb700" d="m40.063 25.648-.6 1.613a1.925 1.925 0 0 0 1.872.706l.606-1.615z" opacity="1" data-original="#ffb700" class=""></path><rect width="4" height="12" x="39" y="29" fill="#000000" rx="2" opacity="1" data-original="#c749b0" class=""></rect><path fill="#ffb700" d="M39 31v3.182l1.941-5.176A2 2 0 0 0 39 31z" opacity="1" data-original="#ffb700" class=""></path><path fill="#fb9f00" d="M43.917 21.024a.964.964 0 0 0-.17.008L2 31.966V34a1.051 1.051 0 0 0 .253-.032L44 23.034V22a8.305 8.305 0 0 0-.083-.976zM2 52.966V55a1.051 1.051 0 0 0 .253-.032L44 44.034v-2.015a1.026 1.026 0 0 0-.253.013z" opacity="1" data-original="#fb9f00" class=""></path><path fill="#ed7e07" d="m8 30.394-6 1.572V34a1.051 1.051 0 0 0 .253-.032L8 32.463zM2 54v1a1.051 1.051 0 0 0 .253-.032l10.991-2.879c-.259-.273-.511-.551-.754-.839s-.448-.568-.666-.857L2 52.966z" opacity="1" data-original="#ed7e07" class=""></path></g></g></svg>