<svg xmlns="http://www.w3.org/2000/svg" version="1.1" xmlns:xlink="http://www.w3.org/1999/xlink" width="512" height="512" x="0" y="0" viewBox="0 0 226.114 170.357" style="enable-background:new 0 0 512 512" xml:space="preserve" class=""><g><path d="M149.784 167.176h5.684v2.905h-5.684zM218.753 167.176h5.684v2.905h-5.684zM178.385 127.388a10.311 10.311 0 0 1-4.825 1.205 10.287 10.287 0 0 1-9.104-5.469l-2.013-3.79h-2.995c-3.891 0-3.891 14.147 0 14.147h22.663v22.147h-34.003v10h78.006v-10h-34.003v-22.147h22.663c3.891 0 3.891-14.147 0-14.147h-30.979c-.341 3.302-2.264 6.383-5.41 8.054z" fill="#000000" opacity="1" data-original="#000000" class=""></path><circle cx="177.06" cy="22.502" r="22.5" transform="rotate(-57.11 177.07 22.454)" fill="#000000" opacity="1" data-original="#000000" class=""></circle><path d="M2.828 165.775a12.474 12.474 0 0 0 9.68 4.582c2.785 0 5.587-.926 7.911-2.827l116.826-95.634-8.284-15.594c-2.664-5.016-.751-11.264 4.265-13.928a10.317 10.317 0 0 1 4.825-1.205c3.823 0 7.312 2.096 9.104 5.47l6.05 11.389c5.089-5.546 7.387-13.041 4.052-18.62-4.512-7.554-16.527-13.056-30.459-6.297-19.101 9.405-29.441 17.629-43.365 35.131-4.979 7.341-5.328 13.339-3.566 18.316L4.582 148.184c-5.341 4.374-6.127 12.25-1.754 17.591z" fill="#000000" opacity="1" data-original="#000000" class=""></path><path d="M145.123 47.717a8 8 0 0 0-14.131 7.506l35.495 66.821a8 8 0 0 0 7.072 4.249 7.953 7.953 0 0 0 3.746-.937 8 8 0 0 0 3.313-10.818z" fill="#000000" opacity="1" data-original="#000000" class=""></path></g></svg>