<svg xmlns="http://www.w3.org/2000/svg" version="1.1" xmlns:xlink="http://www.w3.org/1999/xlink" width="512" height="512" x="0" y="0" viewBox="0 0 512 512" style="enable-background:new 0 0 512 512" xml:space="preserve" class=""><g><path d="M256 256h30v150h-30zM241 406V256h-39.272L181 297.455 160.272 256H121v150h30V304.545l30 60 30-60V406zM376 348.285 341.4 256H301v150h30v-92.285L365.6 406H406V256h-30zM151 121v15h30v-15c0-8.276 6.724-15 15-15s15 6.724 15 15-6.724 15-15 15v30c8.276 0 15 6.724 15 15s-6.724 15-15 15-15-6.724-15-15v-15h-30v15c0 24.814 20.186 45 45 45s45-20.186 45-45c0-11.514-4.351-22.031-11.484-30C236.65 143.031 241 132.514 241 121c0-24.814-20.186-45-45-45s-45 20.186-45 45zM271 121v60c0 24.814 20.186 45 45 45s45-20.186 45-45v-60c0-24.814-20.186-45-45-45s-45 20.186-45 45zm30 0c0-8.276 6.724-15 15-15s15 6.724 15 15v60c0 8.276-6.724 15-15 15s-15-6.724-15-15zM511.458 239.154l-.967-14.971-29.927 1.919.952 14.956c.633 9.732.62 19.59.103 28.125l-.894 14.971 29.941 1.787.894-14.971c.625-10.513.578-21.042-.102-31.816zM459.525 159.921a228.175 228.175 0 0 1 10.4 26.118l4.673 14.253 28.506-9.346-4.673-14.253a255.41 255.41 0 0 0-11.777-29.575l-6.401-13.564-27.129 12.803zM174.657 46.146a219.463 219.463 0 0 1 26.748-8.481l14.546-3.618-7.222-29.107-14.561 3.604a250.49 250.49 0 0 0-30.381 9.653l-13.989 5.435 10.884 27.964zM364.882 59.052l13.125 7.266 14.517-26.265-13.125-7.251a256.078 256.078 0 0 0-28.77-13.667l-13.931-5.566-11.147 27.847 13.916 5.581c8.76 3.5 17.226 7.543 25.415 12.055zM429.408 112.636l9.551 11.558 23.13-19.116-9.565-11.572a256.757 256.757 0 0 0-21.782-23.203L419.814 60.02l-20.566 21.826 10.928 10.298a223.027 223.027 0 0 1 19.232 20.492zM470.424 324.364a222.237 222.237 0 0 1-10.195 26.177l-6.313 13.623 27.231 12.612 6.299-13.608a257.601 257.601 0 0 0 11.572-29.692l4.556-14.282-28.579-9.126zM285.194 31.919l14.883 1.904L303.9 4.072l-14.868-1.919A258.305 258.305 0 0 0 257.274.058l-15-.059-.117 30 15 .059c9.492.045 18.853.674 28.037 1.861z" fill="#000000" opacity="1" data-original="#000000" class=""></path><path d="M430.463 398.09C387.959 450.253 324.777 482 256 482 131.928 482 30 380.072 30 256c0-54.545 20.737-106.058 55.683-146.567l-1.641 15.595 29.824 3.135 7.573-72.026-72.012-7.588-3.149 29.839 24.565 2.584C26.236 128.05 0 190.13 0 256c0 140.61 115.39 256 256 256 80.753 0 151.885-38.949 197.695-94.926l9.492-11.616-23.232-18.984z" fill="#000000" opacity="1" data-original="#000000" class=""></path></g></svg>