<svg xmlns="http://www.w3.org/2000/svg" version="1.1" xmlns:xlink="http://www.w3.org/1999/xlink" width="512" height="512" x="0" y="0" viewBox="0 0 64 64" style="enable-background:new 0 0 512 512" xml:space="preserve" class=""><g><g data-name="7-tire"><g data-name="color"><path fill="#603f21" d="M63 19a2.006 2.006 0 0 1-2 2H19a2 2 0 0 1 0-4h42a2.006 2.006 0 0 1 2 2z" opacity="1" data-original="#603f21"></path><path fill="#4d331a" d="M63 19a2.006 2.006 0 0 1-2 2H19a2.006 2.006 0 0 1-2-2z" opacity="1" data-original="#4d331a"></path><path fill="#ee194f" d="M47 19a2.006 2.006 0 0 1-2 2H33v-4h12a2.006 2.006 0 0 1 2 2z" opacity="1" data-original="#ee194f"></path><path fill="#b2123b" d="M47 19a2.006 2.006 0 0 1-2 2H33v-2z" opacity="1" data-original="#b2123b"></path><path fill="#3c3a40" d="M33 14v10l-2 3h-8l-2-3V14l2-3h8z" opacity="1" data-original="#3c3a40" class=""></path><path fill="#2c2a30" d="M27 11v16h-4l-2-3V14l2-3z" opacity="1" data-original="#2c2a30" class=""></path><path fill="#e6e4df" d="M33 14H21l2-3h8z" opacity="1" data-original="#e6e4df"></path><path fill="#c7c1b5" d="M27 11v3h-6l2-3z" opacity="1" data-original="#c7c1b5"></path><path fill="#e6e4df" d="m33 24-2 3h-8l-2-3z" opacity="1" data-original="#e6e4df"></path><path fill="#c7c1b5" d="M27 24v3h-4l-2-3z" opacity="1" data-original="#c7c1b5"></path><rect width="62" height="26" x="1" y="37" fill="#3c3a40" rx="6" opacity="1" data-original="#3c3a40" class=""></rect><g fill="#2c2a30"><path d="M57 37H7a6 6 0 0 0-6 6v14a6 6 0 0 0 6 6h50a6 6 0 0 0 6-6V43a6 6 0 0 0-6-6zm4 20a4 4 0 0 1-4 4H7a4 4 0 0 1-4-4V43a4 4 0 0 1 4-4h50a4 4 0 0 1 4 4z" fill="#2c2a30" opacity="1" data-original="#2c2a30" class=""></path><path d="M22 48a3.967 3.967 0 0 1-.41 1.77 3.788 3.788 0 0 1-.77 1.06 4.143 4.143 0 0 1-1.03.74A3.937 3.937 0 0 1 18 52a4 4 0 0 1-2.82-1.17l-.58-.58-1.83-1.83-9.83-9.83a5.884 5.884 0 0 1 1.71-1.12A6.121 6.121 0 0 1 7 37h5.65l8.17 8.18A3.915 3.915 0 0 1 22 48zM8 48a3.967 3.967 0 0 1-.41 1.77 3.788 3.788 0 0 1-.77 1.06 4.143 4.143 0 0 1-1.03.74A3.937 3.937 0 0 1 4 52a4 4 0 0 1-2.82-1.17L1 50.65V43a6.494 6.494 0 0 1 .05-.77 5.635 5.635 0 0 1 .7-2.13l5.07 5.08A3.915 3.915 0 0 1 8 48zM36 48a3.967 3.967 0 0 1-.41 1.77 3.788 3.788 0 0 1-.77 1.06 4.143 4.143 0 0 1-1.03.74A3.937 3.937 0 0 1 32 52a4 4 0 0 1-2.82-1.17l-.58-.58-1.83-1.83L15.35 37h11.3l8.17 8.18A3.915 3.915 0 0 1 36 48zM50 48a3.967 3.967 0 0 1-.41 1.77 3.788 3.788 0 0 1-.77 1.06 4.143 4.143 0 0 1-1.03.74A3.937 3.937 0 0 1 46 52a4 4 0 0 1-2.82-1.17l-.58-.58-1.83-1.83L29.35 37h11.3l8.17 8.18A3.915 3.915 0 0 1 50 48zM63 45.37v5.27c-.06.07-.12.13-.18.19a3.877 3.877 0 0 1-1.05.75 3.968 3.968 0 0 1-4.59-.75l-.58-.58-1.83-1.83L43.35 37h11.3l8.17 8.18c.06.06.12.12.18.19z" fill="#2c2a30" opacity="1" data-original="#2c2a30" class=""></path><path d="M29 52a3.955 3.955 0 0 1-1.18 2.83L19.65 63H8.35l11.44-11.43 2.39-2.39a3.952 3.952 0 0 1 4.59-.76 3.877 3.877 0 0 1 1.05.75 4.132 4.132 0 0 1 .78 1.08A4.01 4.01 0 0 1 29 52zM15 52a3.955 3.955 0 0 1-1.18 2.83l-8.04 8.04a5.474 5.474 0 0 1-2.01-.82 6.007 6.007 0 0 1-2.47-3.17A5.831 5.831 0 0 1 1 57v-.65l4.79-4.78 2.39-2.39a3.952 3.952 0 0 1 4.59-.76 3.877 3.877 0 0 1 1.05.75 4.132 4.132 0 0 1 .78 1.08A4.01 4.01 0 0 1 15 52zM43 52a3.955 3.955 0 0 1-1.18 2.83L33.65 63h-11.3l11.44-11.43 2.39-2.39a3.952 3.952 0 0 1 4.59-.76 3.877 3.877 0 0 1 1.05.75 4.132 4.132 0 0 1 .78 1.08A4.01 4.01 0 0 1 43 52zM57 52a3.955 3.955 0 0 1-1.18 2.83L47.65 63h-11.3l11.44-11.43 2.39-2.39a3.952 3.952 0 0 1 4.59-.76 3.877 3.877 0 0 1 1.05.75 4.132 4.132 0 0 1 .78 1.08A4.01 4.01 0 0 1 57 52zM63 50.35V57a5.994 5.994 0 0 1-6 6h-6.65z" fill="#2c2a30" opacity="1" data-original="#2c2a30" class=""></path></g><path fill="#4d4d4d" d="M19.41 49.41a1.98 1.98 0 0 1-2.82 0L4.65 37.47A6.121 6.121 0 0 1 7 37h2.82l9.59 9.59a1.974 1.974 0 0 1 0 2.82zM5.41 49.41a1.98 1.98 0 0 1-2.82 0L1 47.82V43a6.494 6.494 0 0 1 .05-.77l4.36 4.36a1.974 1.974 0 0 1 0 2.82zM33.41 49.41a1.98 1.98 0 0 1-2.82 0L18.18 37h5.64l9.59 9.59a1.974 1.974 0 0 1 0 2.82zM47.41 49.41a1.98 1.98 0 0 1-2.82 0L32.18 37h5.64l9.59 9.59a1.974 1.974 0 0 1 0 2.82zM61.41 49.41a1.98 1.98 0 0 1-2.82 0L46.18 37h5.64l9.59 9.59a1.974 1.974 0 0 1 0 2.82zM26.41 53.41 16.82 63h-5.64l12.41-12.41a1.994 1.994 0 0 1 2.82 2.82zM12.41 53.41l-8.64 8.64a6.007 6.007 0 0 1-2.47-3.17l8.29-8.29a1.994 1.994 0 0 1 2.82 2.82zM40.41 53.41 30.82 63h-5.64l12.41-12.41a1.994 1.994 0 0 1 2.82 2.82zM54.41 53.41 44.82 63h-5.64l12.41-12.41a1.994 1.994 0 0 1 2.82 2.82zM63 53.18V57a6.065 6.065 0 0 1-.44 2.26l-3.3 3.3A6.065 6.065 0 0 1 57 63h-3.82z" opacity="1" data-original="#4d4d4d" class=""></path></g><g fill="#3c3a40"><path d="M15 15a1 1 0 0 1-1-1V5a1 1 0 0 1 2 0v9a1 1 0 0 1-1 1zM15 3a1 1 0 0 1-1-1V1a1 1 0 0 1 2 0v1a1 1 0 0 1-1 1zM11 26a1 1 0 0 1-1-1V11a1 1 0 0 1 2 0v14a1 1 0 0 1-1 1z" fill="#3c3a40" opacity="1" data-original="#3c3a40" class=""></path></g></g></g></svg>