<svg xmlns="http://www.w3.org/2000/svg" version="1.1" xmlns:xlink="http://www.w3.org/1999/xlink" width="512" height="512" x="0" y="0" viewBox="0 0 512 512" style="enable-background:new 0 0 512 512" xml:space="preserve" class=""><g><path d="M382.98 354.248c.679-17.173-12.733-31.698-29.913-32.377-1.571.005-4.074-.431-7.568.439-4.087-11.312-14.777-20.027-28.105-20.552-1.873-.031-3.274-.281-5.775.088-2.083-14.606-14.373-26.133-29.631-26.736-1.911-.042-3.156-.231-5.272.019l1.305-33.033c.662-16.416-12.12-30.272-28.563-30.92-15.744-.791-30.253 11.619-30.92 28.567l-3.914 98.848-39.144-42.165c-6.451-9.225-19.069-11.759-28.616-5.588-18.073 11.703-23.261 35.936-11.565 54.017l33.956 52.434 39.824 67.846-.276 7.009c-.647 16.196 11.938 29.834 28.151 30.474l84.338 3.338c13.929.571 26.877-7.213 32.873-19.812 11.741-24.638 25.87-57.48 26.526-74.008v-.003zM340.067 479.42c-3.311 6.946-10.497 11.157-18.165 10.925l-84.33-3.338c-7.6-.309-13.459-6.695-13.16-14.243l.366-9.303c.029-.758-.586-3.441-1.068-4.265l-41.158-70.11-34.132-52.724c-7.026-10.848-3.906-25.389 6.935-32.412a5.371 5.371 0 0 1 5.951.072c.783.529-5.443-5.834 52.441 56.591l-.488 12.439v.034a7.81 7.81 0 0 0 7.499 8.11c4.104.263 7.942-3.177 8.11-7.495l5.279-133.342c.321-7.943 7.025-13.88 14.686-13.576 7.797.309 13.885 6.9 13.58 14.693l-2.838 71.75-1.373 34.677a7.802 7.802 0 0 0 7.492 8.113c4.41.221 7.949-3.181 8.117-7.495l2.182-55.089a2.905 2.905 0 0 1 .938-2.029c1.365-1.302 2.961-.552 4.44-.687 8.567.34 15.258 7.587 14.922 16.15l-.488 12.244c-.008.118-.015.24-.015.359l-2.106 53.216c-.168 4.314 3.189 7.946 7.499 8.113 4.081.351 7.942-3.181 8.11-7.495l2.113-53.361a2.944 2.944 0 0 1 .938-1.892c1.411-1.314 2.783-.536 4.432-.687 8.478.343 15.258 7.443 14.922 16.15l-2.708 68.306-.008.313a7.804 7.804 0 0 0 7.492 8.113c4.28.065 7.942-3.181 8.117-7.495l2.479-62.546a2.935 2.935 0 0 1 .946-2.041c1.403-1.322 2.861-.542 4.432-.687 8.567.34 15.258 7.587 14.922 16.15l-2.289 57.876v.001c-.426 10.681-9.543 35.433-25.014 67.917zM320.342 70.388c0 35.466-28.826 64.293-64.293 64.293-35.545 0-64.371-28.826-64.371-64.293 0-35.545 28.826-64.371 64.371-64.371 35.466 0 64.293 28.827 64.293 64.371zM146.524 129.291v113.04a7.785 7.785 0 0 1-7.812 7.812H25.594a7.785 7.785 0 0 1-7.812-7.812v-113.04c0-4.297 3.516-7.812 7.812-7.812h113.118c4.297 0 7.812 3.515 7.812 7.812zM493.222 189.756l-31.092 53.825c-1.406 2.422-3.984 3.906-6.719 3.906h-62.183a7.838 7.838 0 0 1-6.796-3.906l-31.014-53.825a7.761 7.761 0 0 1 0-7.812l31.014-53.825a7.75 7.75 0 0 1 6.796-3.984h62.183c2.734 0 5.313 1.484 6.719 3.984l31.092 53.825a8.157 8.157 0 0 1 0 7.812z" fill="#000000" opacity="1" data-original="#000000" class=""></path></g></svg>