<svg xmlns="http://www.w3.org/2000/svg" version="1.1" xmlns:xlink="http://www.w3.org/1999/xlink" width="512" height="512" x="0" y="0" viewBox="0 0 64 64" style="enable-background:new 0 0 512 512" xml:space="preserve" class=""><g><linearGradient id="a" x1="3.993" x2="60" y1="32" y2="32" gradientUnits="userSpaceOnUse"><stop stop-opacity="1" stop-color="#2bc0b6" offset="0.12808640194709675"></stop><stop stop-opacity="1" stop-color="#8cb8ed" offset="0.5216049019328505"></stop><stop stop-opacity="1" stop-color="#8cb8ed" offset="0.6913579803580776"></stop><stop stop-opacity="1" stop-color="#8cb8ed" offset="0.7145061274160631"></stop><stop stop-opacity="1" stop-color="#8cb8ed" offset="0.7723764950610269"></stop><stop stop-opacity="1" stop-color="#8cb8ed" offset="0.895833279370283"></stop><stop stop-opacity="1" stop-color="#8c9bed" offset="1"></stop></linearGradient><path fill="url(#a)" d="M14.64 43v16a1.003 1.003 0 0 1-1 1H5a1.003 1.003 0 0 1-1-1V43a1.003 1.003 0 0 1 1-1h8.64a1.003 1.003 0 0 1 1 1zm14.12-9h-8.64a1.003 1.003 0 0 0-1 1v24a1.003 1.003 0 0 0 1 1h8.64a1.003 1.003 0 0 0 1-1V35a1.003 1.003 0 0 0-1-1zm15.12-8h-8.64a1.003 1.003 0 0 0-1 1v32a1.003 1.003 0 0 0 1 1h8.64a1.003 1.003 0 0 0 1-1V27a1.003 1.003 0 0 0-1-1zM59 18h-8.64a1.003 1.003 0 0 0-1 1v40a1.003 1.003 0 0 0 1 1H59a1.003 1.003 0 0 0 1-1V19a1.003 1.003 0 0 0-1-1zM5.707 9.707 8 7.414V21a1 1 0 0 0 2 0V7.414l2.293 2.293a1 1 0 0 0 1.414-1.414l-4-4a1.007 1.007 0 0 0-1.09-.216c-.105-.151-4.182 4.142-4.324 4.216a1 1 0 0 0 1.414 1.414zm14.586 12a1.008 1.008 0 0 0 1.414 0l4-4a1 1 0 0 0-1.414-1.414L22 18.586V5a1 1 0 0 0-2 0v13.586l-2.293-2.293a1 1 0 0 0-1.414 1.414z" opacity="1" data-original="url(#a)" class=""></path></g></svg>