<svg xmlns="http://www.w3.org/2000/svg" version="1.1" xmlns:xlink="http://www.w3.org/1999/xlink" width="512" height="512" x="0" y="0" viewBox="0 0 96 96" style="enable-background:new 0 0 512 512" xml:space="preserve" class=""><g><path d="m90.918 74.694-2.049-.033c-.594-2.955-3.346-5.493-6.574-5.873a1.098 1.098 0 0 0-.128-.007h-2.52l-6.768-1.785-.003-.001-2.205-.58-1.21-.319a379.109 379.109 0 0 0-1.517-.399c-8.775-2.311-18.664-4.918-19.16-5.055l-.71-.227a222.907 222.907 0 0 0-1.37-.435l-.143-.045c-.499-.157-.739-.233-2.729-.88-1.008-1.144-5.265-5.439-12.795-6.034l-.008-.001c-.256-.02-.516-.035-.779-.046l-.074-.004a24.678 24.678 0 0 0-.726-.015c-.052 0-.102-.003-.155-.003-.214 0-.432.006-.65.012-.087.002-.172.002-.259.005-.19.007-.385.021-.578.033-.12.007-.237.012-.358.021-.165.013-.334.032-.502.048-.147.014-.293.025-.442.043a8.71 8.71 0 0 1-1.948-1.565c-1.691-1.792-2.343-3.925-1.94-6.341.753-4.515-.561-8.684-3.208-10.891.047-.028.091-.061.137-.089.013-.008.029-.01.042-.019.073-.046.14-.097.211-.145.082-.056.166-.11.246-.17.109-.081.213-.167.317-.253a7.191 7.191 0 0 0 .649-.602c.058-.062.112-.128.169-.192.092-.104.182-.209.267-.318.054-.068.105-.139.156-.209.082-.113.161-.228.237-.346.045-.071.091-.142.134-.214a6.8 6.8 0 0 0 .216-.394c.034-.067.071-.132.103-.2.058-.122.11-.248.162-.374.269.137.558.243.873.287a2.77 2.77 0 0 0 2.069-.535 2.77 2.77 0 0 0 1.084-1.842l.315-2.245a2.796 2.796 0 0 0-2.377-3.154 2.76 2.76 0 0 0-1.454.197l-.012-.032c-.031-.069-.069-.134-.102-.202l-.022-.044a7.304 7.304 0 0 0-2.422-2.807l-.09-.063a7.394 7.394 0 0 0-.339-.212c-.089-.053-.181-.103-.272-.153-.086-.046-.171-.092-.258-.135a7.07 7.07 0 0 0-.59-.259l-.002-.001-.004-.001-.001-.001-.014-.005a7.335 7.335 0 0 0-.645-.209c-.064-.018-.129-.032-.193-.048a7.74 7.74 0 0 0-.675-.137 7.294 7.294 0 0 0-.586-.066l-.065-.005a7.32 7.32 0 0 0-5.76 2.25l-.007.007a7.4 7.4 0 0 0-.458.522l-.008.013a7.366 7.366 0 0 0-1.096 1.932l-.546 1.432-.052.136c-1.093 2.946-.17 6.148 2.063 8.106-3.941 1.652-5.722 5.544-5.685 12.246.024 4.739 2.233 10.219 5.772 14.357l1.161 9.362c-1.733.671-3.07 2.183-3.443 3.876l-3.491-.057h-.018A1.105 1.105 0 0 0 4 74.386a1.1 1.1 0 0 0 1.081 1.117l4.44.072c.028.002.055.008.084.008h.015l.217-.003 81.046 1.312h.018a1.1 1.1 0 0 0 .017-2.198zm-11.414-3.715h2.595c1.949.255 3.738 1.713 4.413 3.422l-6.738-.813c-1.966-.431-4.243-.83-6.783-1.19l.492-2.969 5.74 1.514c.092.024.186.036.281.036zM10.802 26.18l.042-.108.549-1.441c.09-.235.199-.458.319-.672l3.459 1.505a.971.971 0 0 1 .592.534.982.982 0 0 1 .015.764 3.27 3.27 0 0 0-.017 2.21c.012.036.027.07.043.104l1.747 3.704c-.21.083-.423.155-.639.21l-.009-.002-3.157-.225c-.012-.001-.024.002-.037.002a5.172 5.172 0 0 1-2.907-6.585zm2.577 45.2.099-.02a1.1 1.1 0 0 0 .871-1.212l-1.321-10.655v-.002l-1.58-12.736c-.112-.899.153-1.772.746-2.458s1.419-1.074 2.325-1.093c.14-.003.276.018.413.033.085.009.171.009.255.025.14.027.273.074.408.119.065.022.132.034.195.06.145.06.282.14.417.222.046.027.096.046.14.076a3.198 3.198 0 0 1 .901.915c.349.538.524 1.169.5 1.827l-.98 26.809-5.865.079c.407-.946 1.376-1.766 2.476-1.989zm5.581 2.137.276-7.555c1.037.351 2.107.604 3.203.738 4.46.534 6.783 1.736 9.03 2.898 2.743 1.419 5.334 2.759 10.982 2.79a376.505 376.505 0 0 1 5.66.182c6.137.244 15.08.756 23.088 1.805l-52.239-.846v-.012z" fill="#000000" opacity="1" data-original="#000000"></path></g></svg>