<svg xmlns="http://www.w3.org/2000/svg" version="1.1" xmlns:xlink="http://www.w3.org/1999/xlink" width="512" height="512" x="0" y="0" viewBox="0 0 468 468" style="enable-background:new 0 0 512 512" xml:space="preserve" class=""><g><path fill="#ffddcc" d="M157.695 289.143c-2.735-12.174-31.495-23.391-53.989 0 0 0-13.947-30.509-45.405-9.623l20.575-49.059 4.652 2.116c8.056 3.665 17.558.095 21.206-7.969l3.784-8.365c5.297-11.71-1.017-25.395-13.364-28.965l-14.606-4.223c-18.363-5.309-37.818 3.819-45.454 21.329L9.74 262.516c-9.629 22.077-4.331 48.005 13.575 64.116 48.701 43.818 130.947 27.9 130.947 27.9" opacity="1" data-original="#ffddcc"></path><path fill="#ffccbc" d="M25.315 308.632c-11.243-10.116-17.512-24.103-18.24-38.577-5.61 20.22.337 42.269 16.24 56.577 48.701 43.818 130.947 27.9 130.947 27.9l.935-17.81c-9.723 1.662-84.416 12.818-129.882-28.09z" opacity="1" data-original="#ffccbc"></path><path fill="#ffddcc" d="M310.305 289.143c2.735-12.174 31.495-23.391 53.989 0 0 0 13.947-30.509 45.405-9.623l-20.575-49.059-4.652 2.116c-8.056 3.665-17.558.095-21.206-7.969l-3.784-8.365c-5.297-11.71 1.017-25.395 13.364-28.965l14.606-4.223c18.363-5.309 37.818 3.819 45.454 21.329l25.354 58.132c9.629 22.077 4.331 48.005-13.575 64.116-48.701 43.818-130.947 27.9-130.947 27.9" opacity="1" data-original="#ffddcc"></path><path fill="#ffccbc" d="M458.908 264.085c.914 16.537-5.438 33.044-18.223 44.547-43.116 38.792-112.512 30.766-127.865 28.415l.918 17.485s82.246 15.918 130.947-27.9c17.485-15.731 22.94-40.82 14.223-62.547z" opacity="1" data-original="#ffccbc"></path><path fill="#9affa2" d="m365.934 463-15.792-119.583a80.002 80.002 0 0 0-47.898-63.1 173.787 173.787 0 0 0-136.487 0 80.002 80.002 0 0 0-47.898 63.1L102.067 463" opacity="1" data-original="#9affa2" class=""></path><path fill="#20d9a8" d="M184.757 280.317a173.72 173.72 0 0 1 58.743-13.692 173.746 173.746 0 0 0-77.743 13.692 80.002 80.002 0 0 0-47.898 63.1L102.067 463h19l15.792-119.583a80 80 0 0 1 47.898-63.1z" opacity="1" data-original="#20d9a8"></path><path fill="#333333" d="M148.37 468c-2.983 0-5.371-2.704-4.959-5.684l7.584-54.937a5.006 5.006 0 0 1 5.637-4.27 5.001 5.001 0 0 1 4.27 5.637l-7.584 54.937A5.002 5.002 0 0 1 148.37 468zM321.305 468a5 5 0 0 1-4.947-4.317l-7.584-54.937a5 5 0 0 1 4.27-5.637 5.006 5.006 0 0 1 5.637 4.27l7.584 54.937c.411 2.981-1.977 5.684-4.96 5.684z" opacity="1" data-original="#333333"></path><path fill="#ffddcc" d="M234.003 322.996h-.005c-14.776 0-26.754-11.978-26.754-26.754v-86.203h53.512v86.203c0 14.776-11.978 26.754-26.753 26.754z" opacity="1" data-original="#ffddcc"></path><path fill="#666666" d="M307.709 191.215c2.613-9.77 5.438-26.706-1.207-44.607-15.702-42.297-74.776-64.091-96.616-48.641-11.465 8.111-14.977 28.425-17.713 27.563-2.234-.704 1.724-13.737-1.611-15.403-4.368-2.182-20.73 15.395-28.18 34.859-6.412 16.753-5.675 33.482-2.804 47.165 7.394 19.068 18.287 27.802 24.499 31.74 30.506 19.34 81.969 7.861 123.632-32.676z" opacity="1" data-original="#666666"></path><path fill="#ffddcc" d="M168.688 191.146c-9.885-1.223-21.056 5.339-21.056 17.059 0 9.501 7.649 17.203 17.085 17.203.715 0 1.415-.058 2.107-.144C174.4 255.43 201.6 277.761 234 277.761c32.401 0 59.6-22.331 67.177-52.498.692.086 1.392.144 2.107.144 9.436 0 17.085-7.702 17.085-17.203 0-9.23-7.225-16.74-16.289-17.162l-25.989-28.422c-22.071 30.034-66.776 30.533-89.512 1l-.77-1z" opacity="1" data-original="#ffddcc"></path><path fill="#333333" d="m462.815 260.517-25.351-58.132c-8.611-19.745-30.717-30.119-51.42-24.133l-14.604 4.223c-14.985 4.333-22.985 21.556-16.529 35.829l3.784 8.365c4.721 10.433 17.361 15.197 27.792 10.476l13.377 31.901c-14.036-4.655-28.053.547-36.647 12.288-14.15-11.738-37.684-16.036-52.256-2.353-9.837-5.286-20.809-8.916-31.574-11.74a74.287 74.287 0 0 0 25.55-36.899c11.403-.856 20.419-10.459 20.419-22.14 0-8.54-4.792-15.957-11.869-19.662 9.943-44.901-20.66-83.934-62.591-96.898-21.494-6.644-44.019-5.368-55.349 16.496-1.956-3.162-5.924-3.78-9.151-2.523-7.926 3.083-21.872 19.812-28.674 37.584-5.367 14.025-6.626 29.497-3.773 46.04-6.878 3.864-11.305 11.025-11.305 18.964 0 11.681 9.016 21.284 20.419 22.14a74.298 74.298 0 0 0 25.55 36.899c-10.764 2.823-21.733 6.452-31.568 11.736-14.574-13.685-38.107-9.388-52.262 2.356-8.589-11.736-22.605-16.945-36.647-12.288l13.377-31.901c10.432 4.721 23.071-.042 27.792-10.476l3.784-8.365c6.452-14.263-1.539-31.494-16.529-35.829l-14.604-4.223c-20.7-5.987-42.809 4.388-51.42 24.133l-25.35 58.132c-10.585 24.272-4.632 52.335 14.813 69.832 26.705 24.031 62.869 30.726 90.356 31.823L97.127 462.345c-.35 2.651 1.527 5.169 4.167 5.59 2.742.438 5.382-1.524 5.746-4.281l15.79-119.583c5.415-41.005 40.212-61.737 77.66-69.326.586.297 1.164.608 1.759.89v20.607c0 17.509 14.243 31.753 31.754 31.753 17.507 0 31.75-14.245 31.75-31.753v-20.607c.594-.282 1.172-.593 1.759-.89 37.441 7.588 72.243 28.308 77.66 69.326l15.79 119.583c.364 2.756 3.003 4.719 5.746 4.281 2.639-.421 4.517-2.938 4.167-5.59l-13.228-100.18c27.488-1.095 63.647-7.781 90.357-31.816 19.443-17.496 25.395-45.56 14.811-69.832zm-349.898 82.244-1.248 9.451c-25.892-.916-60.171-6.97-84.984-29.297-16.238-14.612-21.196-38.081-12.334-58.4l25.351-58.132c6.61-15.158 23.582-23.123 39.478-18.524l14.604 4.223c9.235 2.671 14.196 13.26 10.196 22.101l-3.784 8.365c-3.687 8.151-12.682 6.957-19.23 3.362-2.965-1.012-5.192-.139-6.681 2.618l-20.573 49.059c-1.865 4.451 3.346 8.778 7.376 6.099 13.353-8.866 30.643-8.625 38.087 7.536 1.44 3.148 5.748 3.888 8.15 1.387 10.075-10.478 27.438-16.847 40.705-8.026-19.013 13.54-32 34.611-35.113 58.178zm54.144-195.986c5.201-13.589 14.447-25.058 19.796-29.707-.048.66-.103 1.287-.145 1.788-.404 4.651-.862 9.922 3.963 11.444 5.746 1.807 8.296-5.218 9.997-9.277 9.349-22.318 24.227-26.951 47.271-19.825 35.921 11.106 63.627 43.704 56.308 82.631l-21.166-23.149v-4.248c0-12.313-10.016-22.33-22.332-22.33-2.761 0-4.996 2.239-4.996 5s2.24 5 5.001 5c6.798 0 12.328 5.531 12.328 12.33v4.473c-20.214 25.851-60.521 25.673-80.539-.333-2.01-3.012-6.489-4.307-8.885-.735L166.127 186a25.22 25.22 0 0 0-2.549.16c-2.242-14.224-1.083-27.454 3.483-39.385zm88.692 149.467c0 11.995-9.758 21.753-21.755 21.753-11.994 0-21.751-9.758-21.751-21.753v-16.743c14.112 4.325 29.394 4.325 43.506 0zM234 272.76c-29.489 0-55.116-20.033-62.319-48.716a5 5 0 0 0-4.845-3.782c-7.326 0-14.193-3.701-14.193-12.058 0-7.928 8.041-13.01 15.439-12.096a5.011 5.011 0 0 0 4.767-2.178l15.395-22.968c23.941 25.923 66.522 25.608 90.064-.69l22.075 24.144a4.996 4.996 0 0 0 3.457 1.621c6.459.3 11.519 5.645 11.519 12.167 0 6.729-5.42 12.203-12.083 12.203-2.837 0-6.063.091-6.955 3.638-7.205 28.683-32.831 48.715-62.321 48.715zm207.316 50.155c-24.816 22.33-59.092 28.379-84.985 29.293l-1.247-9.447c-3.112-23.566-16.098-44.635-35.109-58.176 13.26-8.828 30.628-2.452 40.7 8.023 2.399 2.495 6.682 1.757 8.142-1.369 7.492-16.11 24.647-16.484 38.096-7.554 4.033 2.677 9.246-1.635 7.376-6.099l-20.573-49.059c-1.489-2.757-3.716-3.629-6.681-2.618l-4.652 2.117c-5.434 2.474-12.144-.097-14.578-5.479l-3.784-8.365c-4-8.84.961-19.43 10.196-22.101l14.604-4.223c15.893-4.598 32.868 3.367 39.478 18.524l25.351 58.132c8.861 20.32 3.904 43.789-12.334 58.401zM234 54.237a5 5 0 0 1-5-5V5a5 5 0 1 1 10 0v44.237a5 5 0 0 1-5 5z" opacity="1" data-original="#333333"></path><g fill="#333"><path d="M151.631 76.594a4.996 4.996 0 0 1-4.334-2.501l-22.118-38.311a5 5 0 0 1 8.659-5l22.118 38.311c1.884 3.264-.537 7.501-4.325 7.501zM90.595 137.644a4.974 4.974 0 0 1-2.495-.671l-38.31-22.119a5 5 0 0 1 4.999-8.66l38.31 22.119c4.318 2.493 2.502 9.331-2.504 9.331zM379.435 137.594c-5.006 0-6.823-6.838-2.505-9.331l38.309-22.119a5 5 0 0 1 4.999 8.66l-38.309 22.119a4.968 4.968 0 0 1-2.494.671zM318.377 76.566c-3.787 0-6.209-4.237-4.325-7.501l22.118-38.311a5 5 0 0 1 8.659 5l-22.118 38.311a4.997 4.997 0 0 1-4.334 2.501z" fill="#333333" opacity="1" data-original="#333333"></path></g></g></svg>