<svg xmlns="http://www.w3.org/2000/svg" version="1.1" xmlns:xlink="http://www.w3.org/1999/xlink" width="512" height="512" x="0" y="0" viewBox="0 0 168 168" style="enable-background:new 0 0 512 512" xml:space="preserve" class=""><g><path fill="#0bceb2" d="M58.346 115.534a2 2 0 0 0 .862 2.694 2.027 2.027 0 0 0 2.694-.862 16.68 16.68 0 0 1 5.98-6.05 2 2 0 1 0-1.99-3.47 20.748 20.748 0 0 0-7.546 7.688zM111.012 101.622l-7.048 4.227-4.435-2.62a2 2 0 0 0-2.035 0l-5.5 3.25a1.999 1.999 0 0 0-.982 1.72v6.499a1.999 1.999 0 0 0 .982 1.72l5.5 3.25a2.014 2.014 0 0 0 2.035 0l5.5-3.25a1.999 1.999 0 0 0 .983-1.72v-5.414l6.874-4.124 4.668 2.546a2.04 2.04 0 0 0 1.915 0l5.5-3a2 2 0 0 0 1.042-1.754V97.61l3.089-2.002 2.903 1.612a2.01 2.01 0 0 0 1.943 0l4.5-2.498a2 2 0 0 0 1.028-1.748v-4.998a1.999 1.999 0 0 0-1.028-1.748l-4.5-2.5a2.003 2.003 0 0 0-1.943 0l-4.5 2.5a1.999 1.999 0 0 0-1.029 1.748v4.568l-2.911 1.888-4.094-2.233a2.002 2.002 0 0 0-1.915 0l-4.479 2.442-6.566-3.882v-8.553l5.768-3.15 4.473 2.682a2.068 2.068 0 0 0 2.058 0l5-2.999a1.999 1.999 0 0 0 .971-1.714v-5.998a1.999 1.999 0 0 0-.971-1.714l-5-3a2 2 0 0 0-2.058 0l-5 3a1.999 1.999 0 0 0-.97 1.714v4.29l-6.461 3.529-8.847-4.864a2 2 0 0 0-1.927 0l-10 5.498a1.999 1.999 0 0 0-1.036 1.752v10.996a1.999 1.999 0 0 0 1.036 1.752l10 5.498a1.926 1.926 0 0 0 1.927 0l9.289-5.106 6.25 3.695zm-9 11.934-3.5 2.068-3.5-2.068v-4.215l3.5-2.068 3.5 2.068zm28.462-24.404 2.5-1.388 2.5 1.388v2.646l-2.5 1.388-2.5-1.388zm-11.962 7.08 3.096 1.689c.022.04.037.082.062.12a2.001 2.001 0 0 0 .342.398v3.326l-3.5 1.908-3.5-1.908V98.14zm-3.733-24.073 3-1.8 3 1.8v3.734l-3 1.8-3-1.8zm-12.27 18.887-8 4.4-8-4.4v-8.632l8-4.398 8 4.398z" opacity="1" data-original="#0bceb2"></path><g fill="#2d4356"><path d="M136.632 119.472a38.966 38.966 0 1 0-9.258 6.893 5.845 5.845 0 0 1-2.136-3.398 35.189 35.189 0 1 1 8.767-6.551 1.999 1.999 0 0 0-3.913.035l-.967 4.817a2.046 2.046 0 0 0 1.96 2.392c.04 0 5.025-.296 5.025-.296a2 2 0 0 0 .522-3.892zM38.11 33.947a3 3 0 1 0-3-3 3.003 3.003 0 0 0 3 3zm0-4.5a1.5 1.5 0 1 1-1.5 1.5 1.501 1.501 0 0 1 1.5-1.5zM159.11 49.61a2 2 0 1 0 2 2 2.002 2.002 0 0 0-2-2zm0 3a1 1 0 1 1 1-1 1.001 1.001 0 0 1-1 1zM8.89 16.61a2 2 0 1 0 2 2 2.002 2.002 0 0 0-2-2zm0 3a1 1 0 1 1 1-1 1.001 1.001 0 0 1-1 1zM116.553 9a2 2 0 1 0 2 2 2.002 2.002 0 0 0-2-2zm0 3a1 1 0 1 1 1-1 1.001 1.001 0 0 1-1 1zM87.89 38.61a2 2 0 1 0-2 2 2.002 2.002 0 0 0 2-2zm-3 0a1 1 0 1 1 1 1 1.001 1.001 0 0 1-1-1z" fill="#2d4356" opacity="1" data-original="#2d4356" class=""></path></g><path fill="#0bceb2" d="m16.303 52.621 1.486-1.955-.938-.532-.955 2.19h-.032l-.969-2.175-.955.548 1.471 1.909v.031l-2.301-.297v1.064l2.316-.297v.031l-1.486 1.908.891.564 1.018-2.206h.031l.939 2.19.986-.563-1.502-1.878v-.031l2.362.282V52.34l-2.362.313zM62.781 13.677l-.856 1.099.514.324.586-1.27h.017l.541 1.261.568-.324-.865-1.081v-.018l1.36.162v-.613l-1.36.18v-.018l.856-1.126-.54-.306-.55 1.261h-.018l-.559-1.252-.55.315.847 1.099v.018l-1.325-.171v.613l1.334-.171zM122.614 36.638v-1.044l-2.317.307v-.03l1.458-1.919-.921-.521-.936 2.148h-.031l-.951-2.133-.937.537 1.443 1.873v.03l-2.257-.292v1.044l2.272-.291v.03l-1.458 1.872.874.553.999-2.164h.03l.921 2.149.967-.553-1.473-1.842v-.03zM151.333 17.196l1.258-1.655-.795-.45-.807 1.853h-.027l-.82-1.84-.809.464 1.245 1.615v.027l-1.947-.252v.9l1.96-.251v.026l-1.258 1.615.755.477.861-1.867h.026l.794 1.853.835-.476-1.271-1.589v-.026l1.998.238v-.9l-1.998.264z" opacity="1" data-original="#0bceb2"></path><circle cx="2" cy="143" r="2" fill="#2d4356" opacity="1" data-original="#2d4356" class=""></circle><path fill="#2d4356" d="M11 141H8a2 2 0 0 0 0 4h3a2 2 0 1 0 0-4zM160 141h-3a2 2 0 0 0 0 4h3a2 2 0 0 0 0-4z" opacity="1" data-original="#2d4356" class=""></path><circle cx="166" cy="143" r="2" fill="#2d4356" opacity="1" data-original="#2d4356" class=""></circle><path fill="#0bceb2" d="M118.154 149h-8.308a2.006 2.006 0 0 0 0 4h8.308a2.006 2.006 0 0 0 0-4zM58.154 149h-8.308a2.006 2.006 0 0 0 0 4h8.308a2.006 2.006 0 0 0 0-4zM104 149H64a2 2 0 1 0 0 4h15.94v2H72a2 2 0 1 0 0 4h25a2 2 0 0 0 0-4h-8.94v-2H104a2 2 0 1 0 0-4z" opacity="1" data-original="#0bceb2"></path><path fill="#2d4356" d="M150.721 141h-50.339a40.071 40.071 0 0 0 2.407-1.217 2 2 0 1 0-1.93-3.503c-13.952 7.691-29.697 3.992-35.686 2.103.373-.5.65-.92.781-1.124a2 2 0 0 0-3.374-2.148 13.28 13.28 0 0 1-1.968 2.417c-11.52 1.664-23.443-2.452-23.565-2.496a2.001 2.001 0 0 0-.413-.097c-4.943-.627-7.054-2.993-7.127-3.075a1.964 1.964 0 0 0-.432-.39c-.708-.961-1.623-4.98-2.314-9.307.564.327 1.108.62 1.588.857a2.027 2.027 0 0 0 2.678-.907 1.999 1.999 0 0 0-.908-2.678 21.15 21.15 0 0 1-4.432-2.899c-5.94-12.557 5.551-42.262 5.57-42.336 2.557-9.612-.295-19.693-.418-20.118a3.28 3.28 0 0 1-.107-2.448c.669-1.499 2.671-2.586 3.64-2.991a4.972 4.972 0 0 0 3.46-2.433 4.043 4.043 0 0 1 .748-.87c1.389-.648 4.432-.28 6.589.398a7.433 7.433 0 0 1 4.413 3.542 8.047 8.047 0 0 1 .751 2.876 3.095 3.095 0 0 0 .692 2.582c2.085 1.972 1.852 3.383 1.775 3.847-.543 3.28-6.03 6.477-7.908 7.338a2 2 0 0 0-1.155 1.57c-.703 5.597 1.43 21.718 1.522 22.402a1.998 1.998 0 0 0 .357.901c6.688 9.318 1.681 19.662 1.467 20.093a2 2 0 0 0 3.474 1.972 35.963 35.963 0 0 1 15.969-14.078q-.325-2.032-.452-4.125a39.047 39.047 0 0 0-13.053 8.729 22.447 22.447 0 0 0-3.86-14.503c-.587-4.507-1.771-15.066-1.54-19.851 2.511-1.32 8.303-4.857 9.124-9.788a7.875 7.875 0 0 0-2.417-6.856c.001-.044.005-.708-.007-.815a12.635 12.635 0 0 0-1.129-4.015 11 11 0 0 0-6.824-5.636c-.991-.311-6.103-1.785-9.483-.204a6.086 6.086 0 0 0-2.279 2.126 2.765 2.765 0 0 1-.486.647 3.083 3.083 0 0 1-.852.29c-.469.168-4.617 1.733-6.18 5.202a6.726 6.726 0 0 0-.07 5.286c.252.933 2.508 9.729.402 17.797-.92 2.373-12.062 31.778-5.197 45.529 1.522 12.863 3.486 15.413 4.479 16.111a15.897 15.897 0 0 0 9.221 4.168A61.828 61.828 0 0 0 44.555 141H17.278a2.017 2.017 0 1 0 0 4h133.443a2.017 2.017 0 1 0 0-4z" opacity="1" data-original="#2d4356" class=""></path></g></svg>