<svg xmlns="http://www.w3.org/2000/svg" version="1.1" xmlns:xlink="http://www.w3.org/1999/xlink" width="512" height="512" x="0" y="0" viewBox="0 0 64 64" style="enable-background:new 0 0 512 512" xml:space="preserve" class=""><g><path d="M54.255 45.552c-.05-.04-42.997.008-43.084-.01a4.12 4.12 0 1 0-.32 8.229h43.574a4.048 4.048 0 0 0 2.91-1.2 4.14 4.14 0 0 0-3.08-7.019zM32.638 60a7.186 7.186 0 0 0 6.56-4.23H26.078A7.208 7.208 0 0 0 32.64 60zM30.638 20.006c-.147 10.975 12.629 17.842 21.677 11.698 11.47-7.592 6.257-25.579-7.679-25.696a14.042 14.042 0 0 0-13.998 13.998zm19.497-6.169a1 1 0 0 1 2 0v12.338a1 1 0 1 1-2 0zm-12.998 3.09a4.094 4.094 0 0 1 4.09-4.09h1.54a4.094 4.094 0 0 1 4.089 4.09v9.248a1 1 0 0 1-2 0v-5.17h-5.719v5.17a1 1 0 0 1-2 0z" fill="#000000" opacity="1" data-original="#000000" class=""></path><path d="M44.856 16.927a2.095 2.095 0 0 0-2.09-2.09h-1.54a2.095 2.095 0 0 0-2.089 2.09v2.08h5.72z" fill="#000000" opacity="1" data-original="#000000" class=""></path><path d="M12.961 43.542h39.354v-9.508C41.98 39.95 28.432 31.927 28.64 20.006a16.017 16.017 0 0 1 9.548-14.638c2.355-.645-4.638-1.46-5.549-1.36a19.68 19.68 0 0 0-19.677 19.678zM10.443 10.933c-.808 1.075-1.788 5.223.19 5.43a1.003 1.003 0 0 0 .977-1.222 4.194 4.194 0 0 1 3.126-5.003 1 1 0 0 0 .745-1.202c-.763-2.132-4.467.787-5.038 1.997z" fill="#000000" opacity="1" data-original="#000000" class=""></path><path d="M7.625 15.886a8.118 8.118 0 0 1 6.046-9.677 1 1 0 0 0-.45-1.949 10.129 10.129 0 0 0-7.545 12.075 1 1 0 0 0 1.949-.45z" fill="#000000" opacity="1" data-original="#000000" class=""></path></g></svg>