<svg xmlns="http://www.w3.org/2000/svg" version="1.1" xmlns:xlink="http://www.w3.org/1999/xlink" width="512" height="512" x="0" y="0" viewBox="0 0 32 32" style="enable-background:new 0 0 512 512" xml:space="preserve" class=""><g><g fill="#3b3c3d"><path d="M16.788 15.431c1.693.803 3.273 1.51 4.862 1.604.69.04 2.084-.216 3.214-.513 1.13-.297 2.03-.606 2.03-.606 1.267-.443 1.948 1.404.678 1.84 0 0-.966.334-2.178.652s-2.638.65-3.869.577c-2.1-.125-3.919-.992-5.624-1.8-2.823-1.113-5.552-2.16-8.473-2.262-.797-.026-2.35.456-2.35.456-1.352.378-1.936-1.533-.47-1.898 0 0 1.638-.507 2.481-.485 3.332.088 6.818 1.088 9.699 2.435z" fill="#000000" opacity="1" data-original="#3b3c3d"></path><path d="M7.393 15.923c-.176 0-.75.082-1.203.192-.398.095-.641.172-.717.195l1.277 4.686c.328 1.202.83 2.328 1.56 3.152.367.412.79.748 1.278.982.244.118.503.21.78.272.042.01.089.013.132.022v1.564l1 .01.842-1.515c2.689.018 5.378.02 8.067 0L21.25 27l1-.01v-1.527a3.477 3.477 0 0 0 1.145-.337 3.991 3.991 0 0 0 1.244-.993c.715-.829 1.217-1.956 1.611-3.138l.66-1.979c-.37.114-.766.236-1.261.365-1.234.324-2.73.692-4.186.606-2.118-.176-4.401-1.225-5.927-1.867-2.792-1.175-5.439-2.1-8.143-2.194zM12.361 5.434s-.613.653-.613 1.535.613 1.536.613 1.536.391.564.391.9-.391.9-.391.9l.775.636s.613-.653.613-1.536c0-.882-.613-1.535-.613-1.535s-.384-.565-.384-.9.384-.901.384-.901zM15.86 5.928s-.613.654-.613 1.536.613 1.535.613 1.535.391.565.391.9-.391.902-.391.902l.775.634s.613-.653.613-1.535c0-.882-.613-1.535-.613-1.535s-.384-.565-.384-.901.384-.9.384-.9zM19.366 6.43s-.612.654-.612 1.536.612 1.535.612 1.535.384.565.384.9-.384.902-.384.902l.768.634s.613-.653.613-1.535c0-.882-.613-1.535-.613-1.535s-.384-.565-.384-.901c0-.336.384-.9.384-.9zM22.865 6.925s-.612.653-.612 1.536c0 .882.612 1.535.612 1.535s.384.565.384.9-.384.901-.384.901l.775.635s.613-.653.613-1.535c0-.883-.613-1.536-.613-1.536s-.39-.565-.39-.9c0-.336.39-.901.39-.901z" fill="#000000" opacity="1" data-original="#3b3c3d"></path></g></g></svg>