<svg xmlns="http://www.w3.org/2000/svg" version="1.1" xmlns:xlink="http://www.w3.org/1999/xlink" width="512" height="512" x="0" y="0" viewBox="0 0 512 512" style="enable-background:new 0 0 512 512" xml:space="preserve" class=""><g><g fill-rule="evenodd" clip-rule="evenodd"><path fill="#ff2121" d="M237.95 143.62c-35.86 46.78-84.97 110.84-84.97 152.48 0 55.95 46.35 101.46 103.33 101.46 56.97 0 103.32-45.51 103.32-101.46 0-41.64-49.11-105.71-84.97-152.49-6.59-8.59-12.9-16.82-18.35-24.21-5.46 7.39-11.78 15.62-18.36 24.22z" opacity="1" data-original="#1d5074" class=""></path><g fill="#2a7abd"><path d="M256.3 27.38c42.92 0 84.33 11.8 120.48 34.22l-27.5 5.77a6.01 6.01 0 0 0-4.64 7.11 5.998 5.998 0 0 0 5.86 4.77c.41 0 .82-.04 1.24-.13l41.54-8.72c1.56-.33 2.92-1.26 3.79-2.59s1.18-2.96.85-4.51l-8.72-41.54a6 6 0 0 0-7.1-4.64 6 6 0 0 0-4.64 7.1l5.71 27.23C345.11 27.82 301.5 15.37 256.3 15.37c-50.23 0-98.38 15.3-139.22 44.26a5.993 5.993 0 0 0-1.42 8.36 5.992 5.992 0 0 0 4.9 2.53c1.2 0 2.41-.36 3.47-1.11 38.79-27.49 84.54-42.03 132.27-42.03zM444.69 115.73a6.007 6.007 0 0 0-1.43 8.37c27.51 38.8 42.05 84.54 42.05 132.28 0 42.95-11.8 84.34-34.22 120.49l-5.78-27.51a5.992 5.992 0 0 0-7.1-4.64 5.992 5.992 0 0 0-4.64 7.1l8.72 41.54a5.99 5.99 0 0 0 7.1 4.64l41.54-8.72c3.24-.68 5.32-3.86 4.64-7.1s-3.86-5.32-7.11-4.64l-27.21 5.71c23.63-38.06 36.06-81.64 36.06-126.87 0-50.24-15.3-98.38-44.26-139.22-1.92-2.71-5.67-3.35-8.36-1.43zM79.05 160.93l-8.72-41.54a5.993 5.993 0 0 0-7.1-4.63l-41.54 8.71a6.005 6.005 0 0 0-4.64 7.11c.68 3.24 3.86 5.31 7.1 4.64l27.21-5.71C27.73 167.56 15.3 211.13 15.3 256.38c0 50.23 15.3 98.37 44.26 139.22a5.992 5.992 0 0 0 4.9 2.53c1.2 0 2.41-.36 3.46-1.11a5.993 5.993 0 0 0 1.42-8.36c-27.5-38.81-42.04-84.55-42.04-132.28 0-42.97 11.79-84.35 34.22-120.5l5.77 27.52a6.01 6.01 0 0 0 5.87 4.77c.41 0 .82-.04 1.24-.13 3.25-.68 5.32-3.86 4.65-7.11zM160.86 433.64l-41.54 8.71a6.01 6.01 0 0 0-3.79 2.59 6.008 6.008 0 0 0-.85 4.52L123.4 491c.59 2.82 3.09 4.76 5.87 4.76.41 0 .82-.04 1.24-.12a6.01 6.01 0 0 0 4.64-7.11l-5.71-27.21c38.06 23.63 81.64 36.06 126.88 36.06 50.23 0 98.38-15.31 139.22-44.26a5.994 5.994 0 0 0 1.42-8.36 5.998 5.998 0 0 0-8.37-1.43c-38.8 27.51-84.55 42.05-132.28 42.05-42.96 0-84.35-11.8-120.49-34.23l27.52-5.77a6 6 0 0 0 4.64-7.1c-.7-3.25-3.88-5.32-7.12-4.64z" fill="#02111f" opacity="1" data-original="#2a7abd" class=""></path></g></g></g></svg>