<svg xmlns="http://www.w3.org/2000/svg" version="1.1" xmlns:xlink="http://www.w3.org/1999/xlink" width="512" height="512" x="0" y="0" viewBox="0 0 277.273 278.994" style="enable-background:new 0 0 512 512" xml:space="preserve" class=""><g><path d="M25.637 266.494c0 6.903 5.597 12.5 12.5 12.5s12.5-5.597 12.5-12.5c0-.071-.009-.141-.011-.212H25.648c-.002.071-.011.14-.011.212zM226.637 266.494c0 6.903 5.597 12.5 12.5 12.5s12.5-5.597 12.5-12.5c0-.071-.01-.141-.011-.212h-24.979c0 .071-.01.14-.01.212z" fill="#000000" opacity="1" data-original="#000000" class=""></path><ellipse cx="138.624" cy="22.5" rx="22.494" ry="22.495" transform="rotate(-76.88 138.635 22.48)" fill="#000000" opacity="1" data-original="#000000" class=""></ellipse><path d="m136.479 125.923 11.428.001c-4.099-2.915-8.238-5.128-11.935-6.895-.451-6.591-.011-13.478.849-20.204a23.418 23.418 0 0 0 8.504 1.603l.221-.001c7.943-.05 16.412-3.267 26.49-9.803a8 8 0 0 0 2.331-11.07 7.996 7.996 0 0 0-11.069-2.331c-8.574 5.623-14.537 7.253-17.752 7.204-2.449-.056-3.504-.604-4.751-1.618-.356-.29-.712-.686-1.065-1.131.684-3.438 1.363-6.699 1.945-9.673 2.87-9.952-.884-21.864-9.42-23.992a16.248 16.248 0 0 0-1.935-.353 7.962 7.962 0 0 0-7.969.749c-3.321 1.014-6.634 2.922-9.51 5.856 2.23.003 4.317.071 6.158.164 3.733.188 6.434.481 7.13.56a10.033 10.033 0 0 1 8.749 8.554 9.878 9.878 0 0 1 .037 2.564c-.599 5.025-4.866 8.818-9.92 8.818-.396 0-.795-.025-1.192-.072-.031-.003-.265-.031-.771-.081a86.535 86.535 0 0 0-2.391-.206c-.183-.014-.384-.027-.586-.041a109.227 109.227 0 0 0-7.332-.262c-3.549 0-6.808.213-9.404.607a127.049 127.049 0 0 0-1.182 4.578c2.279 2.636 6.24 6.578 13.061 11.961a9.92 9.92 0 0 1 3.733 6.683 9.939 9.939 0 0 1-2.085 7.367 9.963 9.963 0 0 1-7.854 3.798c-2.238 0-4.438-.765-6.196-2.156a186.335 186.335 0 0 1-3.342-2.713c.083 4.986.475 10.305 1.172 16.296.379 1.953.877 3.689 1.472 5.239h4.074z" fill="#000000" opacity="1" data-original="#000000" class=""></path><path d="M108.994 107.256a8.001 8.001 0 0 0 4.966-14.277c-5.534-4.364-9.585-8.104-12.359-11.129a42.8 42.8 0 0 1-2.175-2.547c-1.317-1.672-2.103-3.017-2.496-3.902a7.113 7.113 0 0 1-.262-.676c.799-.443 2.616-1.211 4.997-1.604a37.852 37.852 0 0 1 2.244-.352c2.771-.36 5.897-.509 8.812-.506 2.603 0 5.037.109 6.979.234a104.381 104.381 0 0 1 3.527.283c.565.057.812.088.812.088a8.005 8.005 0 0 0 8.891-6.997 8.003 8.003 0 0 0-6.998-8.892c-.135-.015-2.937-.349-7.052-.555a125.78 125.78 0 0 0-6.159-.159c-.541.002-1.096.011-1.651.02-5.315.085-11.206.515-16.748 2.177-3.058.957-6.127 2.274-8.897 4.782-2.783 2.421-4.97 6.635-4.882 10.956.081 5.462 2.527 10.107 6.298 14.98 3.037 3.86 7.148 7.97 12.592 12.579a180.91 180.91 0 0 0 4.606 3.774 7.976 7.976 0 0 0 4.955 1.723zM79.72 232.255a12.447 12.447 0 0 0 5.271 1.172c4.71 0 9.219-2.674 11.339-7.225 17.166-36.855 26.692-66.774 31.303-83.418 1.17.61 2.349 1.276 3.495 1.996 3.459 2.133 6.545 4.725 8.426 7.232 1.898 2.573 2.701 4.671 2.736 7.44-.008 2.219-.591 5.24-2.928 9.532-2.328 4.266-6.452 9.67-13.068 15.945-5.007 4.753-5.213 12.665-.459 17.672s12.668 5.21 17.674.457c7.992-7.599 13.814-14.839 17.778-22.063 3.955-7.195 6.012-14.508 6.003-21.542.031-7.443-2.337-14.136-5.722-19.533H102.46c-4.666 16.163-13.574 43.066-28.792 75.726-2.916 6.255-.206 13.693 6.052 16.609z" fill="#000000" opacity="1" data-original="#000000" class=""></path><path d="M3 264.283h271.273c1.656 0 3-1.344 3-3v-20.999a3 3 0 0 0-3-3h-12.987l-39.771-125.202c-.317-.998-1.162-1.682-2.154-1.89l24.797-30.347a1.429 1.429 0 0 0-.201-2.008l-5.891-4.811a1.423 1.423 0 0 0-2.006.202l-44.693 54.694-40.799-.001h-14.109l-30.767-.001H64.999c-13.809.004-24.997 11.192-24.999 25.004v84.359H3a3 3 0 0 0-3 3v20.999a3 3 0 0 0 3 3.001zm100.032-126.362H206.64l31.562 99.362H50v-84.359c.016-8.284 6.718-14.986 14.999-15.003z" fill="#000000" opacity="1" data-original="#000000" class=""></path></g></svg>