<svg xmlns="http://www.w3.org/2000/svg" version="1.1" xmlns:xlink="http://www.w3.org/1999/xlink" width="512" height="512" x="0" y="0" viewBox="0 0 512 512" style="enable-background:new 0 0 512 512" xml:space="preserve" class=""><g><path d="M.942 64.966v380.533a6.901 6.901 0 0 0 6.901 6.901h220.478c-5.041-13.546-8.609-28.044-10.427-42.984v-.003c-4.016-33.176 5.147-71.069 42.915-77.923 7.751-1.401 15.999-1.355 24.304-.015 3.015.487 5.751-1.819 5.751-4.874 0-1.48-.827-2.816-2.113-3.547-8.685-4.932-15.52-11.489-20.326-19.725-16.407-28.121-3.603-64.627-3.05-66.168a4.582 4.582 0 0 1 5.987-2.716 121.515 121.515 0 0 1 11.472 5.187c3.664 1.899 8.021-.817 8.021-4.944V64.966a5.38 5.38 0 0 0-5.38-5.38H6.322a5.38 5.38 0 0 0-5.38 5.38zM139.27 339.584c-60.205 0-109.186-48.98-109.186-109.185s48.98-109.185 109.186-109.185a4.581 4.581 0 0 1 4.582 4.582v100.022h100.021a4.581 4.581 0 0 1 4.582 4.582c0 60.204-48.981 109.184-109.185 109.184zm116.014-145.747h-73.295a4.581 4.581 0 0 1-4.582-4.582v-73.294a4.582 4.582 0 0 1 4.582-4.582c20.5 0 40.571 8.314 55.066 22.809 14.497 14.495 22.811 34.566 22.811 55.066a4.582 4.582 0 0 1-4.582 4.583zM290.855 45.042V39.97c0-22.069-17.891-39.96-39.96-39.96H40.933C18.846.01.942 17.915.942 40.001v5.04a5.38 5.38 0 0 0 5.38 5.38h279.152a5.38 5.38 0 0 0 5.381-5.379z" fill="#000000" opacity="1" data-original="#000000" class=""></path><path d="M186.571 120.699v63.974h63.974c-1.125-16.468-8.261-32.298-19.969-44.005-11.707-11.707-27.537-18.844-44.005-19.969zM232.032 461.564H7.843a6.9 6.9 0 0 0-6.901 6.901v3.538c0 22.087 17.905 39.992 39.992 39.992h209.961c1.991 0 3.97-.152 5.923-.449 3.566-.542 4.935-4.998 2.43-7.594a74.284 74.284 0 0 1-2.063-2.203c-10.054-11.395-18.552-25.072-25.153-40.185zM272.623 244.897c-2.674 10.134-7.378 34.84 3.739 53.852 6.437 11.007 17.34 18.596 32.472 22.626 2.263.602 4.586-.736 5.087-3.023 3.482-15.899 5.604-52.725-41.298-73.455z" fill="#000000" opacity="1" data-original="#000000" class=""></path><path d="M134.688 230.399v-99.918c-53.034 2.402-95.44 46.301-95.44 99.918 0 55.152 44.87 100.021 100.022 100.021 53.616 0 97.515-42.405 99.918-95.44H139.27a4.58 4.58 0 0 1-4.582-4.581zM409.446 462.343c7.753-16.398 13.107-34.814 15.446-54.034 3.514-29.028-3.954-62.085-35.454-67.803-19.468-3.522-42.704 3.338-60.619 17.899-.034.027-.076.036-.109.062-.365.28-.765.511-1.204.672-.064.024-.127.037-.192.058-.44.14-.899.235-1.383.235h-.004c-.067 0-.136-.001-.204-.004a4.527 4.527 0 0 1-1.423-.317 4.535 4.535 0 0 1-1.202-.672c-.019-.014-.042-.019-.06-.033-17.91-14.559-41.126-21.417-60.595-17.899-31.499 5.717-38.967 38.774-35.451 67.805l-.001-.002c1.975 16.225 6.09 31.885 11.986 46.238.245.389.427.818.546 1.274 7.344 17.465 17.328 32.947 29.372 45.026 17.353 17.404 42.061 10.626 55.246 5.037a4.587 4.587 0 0 1 3.577 0c13.183 5.589 37.897 12.363 55.275-5.039 10.439-10.471 19.322-23.507 26.293-38.163.048-.117.102-.229.16-.34z" fill="#000000" opacity="1" data-original="#000000" class=""></path><path d="M467.083 80.728c-.416-.099-.687-.234-2.333-.595-3.956-.869-8-1.275-12.05-1.275h-25.994a58.643 58.643 0 0 0-14.901 1.911c-29.297 7.615-47.86 35.926-43.201 65.918l28.145 180.5c.55 3.528 2.948 6.433 6.228 7.844 27.794 11.961 34.568 45.018 31.013 74.383-2.179 17.911-6.861 35.191-13.605 50.943-1.353 3.162-1.864 6.619-1.334 10.017l4.334 27.809c1.591 10.189 9.678 13.804 16.121 13.804 6.442 0 14.529-3.616 16.118-13.805l54.721-351.497c4.658-29.996-13.938-58.334-43.262-65.957zm-69.304 103.421a4.581 4.581 0 1 1 0-9.164h37.556a4.581 4.581 0 1 1 0 9.164zm70.376 89.842h-37.554a4.581 4.581 0 1 1 0-9.164h37.554a4.581 4.581 0 1 1 0 9.164z" fill="#000000" opacity="1" data-original="#000000" class=""></path><path d="M439.478 94.13c-4.211 0-7.636-3.426-7.636-7.636V7.637c0-4.211 3.426-7.636 7.636-7.636s7.636 3.426 7.636 7.636v78.856c.001 4.211-3.425 7.637-7.636 7.637zM467.747 96.125c-4.203-.224-7.441-3.828-7.217-8.032 1.606-30.081 11-59.326 27.165-84.573A7.602 7.602 0 0 1 494.13 0c1.46 0 2.883.417 4.114 1.207a7.585 7.585 0 0 1 3.341 4.794 7.586 7.586 0 0 1-1.028 5.754c-14.743 23.026-23.31 49.704-24.775 77.151a7.636 7.636 0 0 1-7.622 7.23zM410.76 96.171a7.635 7.635 0 0 1-7.622-7.229c-1.466-27.474-10.033-54.164-24.774-77.188A7.59 7.59 0 0 1 377.336 6a7.588 7.588 0 0 1 3.342-4.795A7.623 7.623 0 0 1 384.791 0a7.604 7.604 0 0 1 6.436 3.52c16.163 25.242 25.555 54.498 27.163 84.607.224 4.205-3.014 7.808-7.219 8.033zM325.593 365.534c-4.213-.189-7.481-3.765-7.293-7.971 2.38-53.132 42.821-64.627 43.229-64.737a7.622 7.622 0 0 1 1.99-.265 7.648 7.648 0 0 1 7.371 5.647c1.093 4.053-1.31 8.25-5.357 9.357-1.211.339-30.103 8.904-31.975 50.682a7.622 7.622 0 0 1-7.626 7.295z" fill="#000000" opacity="1" data-original="#000000" class=""></path></g></svg>