<svg xmlns="http://www.w3.org/2000/svg" version="1.1" xmlns:xlink="http://www.w3.org/1999/xlink" width="512" height="512" x="0" y="0" viewBox="0 0 512.017 512.017" style="enable-background:new 0 0 512 512" xml:space="preserve" class=""><g><path d="M153.008 25h-40.999c-8.284 0-15 6.716-15 15v9h-25c-8.284 0-15 6.716-15 15s6.716 15 15 15h25v26h-25c-8.284 0-15 6.716-15 15s6.716 15 15 15h25v26h-25c-8.284 0-15 6.716-15 15s6.716 15 15 15h25v9c0 8.284 6.716 15 15 15h40.999c8.284 0 15-6.716 15-15V40c0-8.284-6.716-15-15-15zM304.008 0c-42.107 0-79.143 12.348-106.001 32.965v173.594c56.896 43.076 153.676 43.311 211.107.682 29.595-21.967 45.893-52.949 45.893-87.24C455.008 51.589 390.092 0 304.008 0zm48 135h-96c-8.284 0-15-6.716-15-15s6.716-15 15-15h96c8.284 0 15 6.716 15 15s-6.716 15-15 15zM248.034 488.247c31.018 31.689 80.923 31.696 111.948 0 11.272-11.515 18.688-25.802 21.612-41.247H226.422c2.925 15.445 10.34 29.732 21.612 41.247zM354.667 263.507c-32.778 7.322-68.487 7.334-101.318 0-7.632 59.461-24.6 105.957-27.806 153.493h156.931c-3.208-47.557-20.169-93.984-27.807-153.493z" fill="#000000" opacity="1" data-original="#000000" class=""></path></g></svg>