<svg xmlns="http://www.w3.org/2000/svg" version="1.1" xmlns:xlink="http://www.w3.org/1999/xlink" width="512" height="512" x="0" y="0" viewBox="0 0 64 64" style="enable-background:new 0 0 512 512" xml:space="preserve" class=""><g><path d="M43.21 40.43a2.14 2.14 0 0 0 1.62-2.18l-.58-11.6a7 7 0 0 0-7-6.65H26.57a7 7 0 0 0-7 6.65L19 38.25a2.14 2.14 0 0 0 4.25.41L24.92 27v33.51A2.44 2.44 0 0 0 27.31 63a2.3 2.3 0 0 0 1.58-.62 2.53 2.53 0 0 0 .79-1.55l.13-1.13 2.1-17.5L34 59.7l.13 1.13a2.53 2.53 0 0 0 .87 1.55 2.3 2.3 0 0 0 1.58.62 2.44 2.44 0 0 0 2.39-2.49V27l1.66 11.66a2.14 2.14 0 0 0 2.58 1.77zM32 1a8.5 8.5 0 0 0-7.5 4.51 3.51 3.51 0 0 0-2.5 3.4v1.9a2.67 2.67 0 0 0 2.51 2.68 8.47 8.47 0 0 0 15 0A2.67 2.67 0 0 0 42 10.81v-1.9a3.51 3.51 0 0 0-2.5-3.4A8.5 8.5 0 0 0 32 1zm8 9.81a.67.67 0 0 1-.64.69H24.64a.67.67 0 0 1-.64-.69v-1.9a1.5 1.5 0 0 1 1.33-1.53L29.6 7c.8-.08 1.6-.11 2.4-.11s1.6 0 2.4.11l4.27.4A1.5 1.5 0 0 1 40 8.91z" fill="#000000" opacity="1" data-original="#000000" class=""></path><path d="M21.91 47.56c-1.21.11-4.82.24-6.44.39V37.13a4.2 4.2 0 0 0-1.6-3.28A5 5 0 0 0 11 32.1c-7.92-1.53-8-3.25-8-4.1 0-1.23 4.66-3.52 14.28-4.93a1 1 0 0 0 .86-1.13 1 1 0 0 0-1.14-.85c-5.79.85-15.39 2.75-16 6.55a2 2 0 0 1 0-.24v28.29c0 2.06 3.62 3.94 9.44 5.27a4.15 4.15 0 0 0 5-4.1V50c2-.17 5.25-.32 6.62-.45a1 1 0 1 0-.18-2zM47 21.09a1 1 0 0 0-1.14.85 1 1 0 0 0 .86 1.13C56.34 24.48 61 26.77 61 28c0 .85-.08 2.57-8 4.1a5 5 0 0 0-2.91 1.75 4.2 4.2 0 0 0-1.6 3.28V48c-1.62-.15-5.23-.28-6.44-.39a1 1 0 1 0-.18 2c1.37.13 4.57.28 6.62.45v6.86a4.15 4.15 0 0 0 5 4.1c5.89-1.39 9.51-3.27 9.51-5.33V27.4a2 2 0 0 1 0 .24c-.61-3.8-10.21-5.7-16-6.55z" fill="#000000" opacity="1" data-original="#000000" class=""></path></g></svg>