<svg xmlns="http://www.w3.org/2000/svg" version="1.1" xmlns:xlink="http://www.w3.org/1999/xlink" width="512" height="512" x="0" y="0" viewBox="0 0 512 512" style="enable-background:new 0 0 512 512" xml:space="preserve" class=""><g><path fill-rule="evenodd" d="M271.29 135.29h27.73V114.5h-27.73c-3.31 0-6-2.69-6-6V80.77h-20.78v27.73c0 3.32-2.69 6-6 6h-27.73v20.79h27.73c3.31 0 6 2.68 6 6v27.73h20.78v-27.73c0-3.32 2.7-6 6-6zm-40.62 230.8c-9.73-7.36-16.04-19.03-16.04-32.14 0-2.09.17-4.16.48-6.17a53.633 53.633 0 0 0-20.68-4.12h-18.1c-7.19 0-14.12 1.4-20.68 4.12.31 2.01.48 4.07.48 6.17 0 13.12-6.31 24.79-16.04 32.14 20.18 4.74 36.84 18.69 45.29 37.17 8.44-18.48 25.1-32.43 45.29-37.17zm24.23-3.86c-15.59 0-28.28-12.69-28.28-28.28s12.69-28.28 28.28-28.28 28.28 12.69 28.28 28.28-12.68 28.28-28.28 28.28zm78.58-38.57h-18.1c-7.19 0-14.12 1.4-20.68 4.12.31 2.01.48 4.07.48 6.17 0 13.12-6.31 24.79-16.04 32.14 20.18 4.74 36.84 18.69 45.29 37.17 8.45-18.48 25.11-32.42 45.29-37.17-9.73-7.36-16.04-19.03-16.04-32.14 0-2.09.17-4.16.48-6.17a53.559 53.559 0 0 0-20.68-4.12zm-9.04-70.64c-15.59 0-28.28 12.68-28.28 28.28 0 15.59 12.69 28.28 28.28 28.28s28.28-12.69 28.28-28.28c0-15.6-12.7-28.28-28.28-28.28zM157.1 281.29c0 15.59 12.69 28.28 28.28 28.28s28.28-12.69 28.28-28.28-12.69-28.28-28.28-28.28-28.28 12.69-28.28 28.28zm-41.25 80.94c-15.59 0-28.28-12.69-28.28-28.28s12.69-28.28 28.28-28.28 28.28 12.69 28.28 28.28c-.01 15.59-12.69 28.28-28.28 28.28zm63.53 68.57v54.48H52.31V430.8c0-30.04 24.44-54.48 54.48-54.48h18.1c30.05 0 54.49 24.44 54.49 54.48zm139.05 0v54.48H191.37V430.8c0-30.04 24.44-54.48 54.48-54.48h18.1c30.05 0 54.48 24.44 54.48 54.48zm66.49-54.48h18.1c30.04 0 54.48 24.44 54.48 54.48v54.48H330.43V430.8c0-30.04 24.45-54.48 54.49-54.48zm9.04-70.65c15.59 0 28.28 12.69 28.28 28.28s-12.69 28.28-28.28 28.28-28.28-12.69-28.28-28.28 12.69-28.28 28.28-28.28zM277.3 102.5h27.73c3.32 0 6 2.69 6 6v32.79c0 3.31-2.68 6-6 6H277.3v27.73c0 3.31-2.68 6-6 6h-32.78c-3.32 0-6-2.69-6-6v-27.73h-27.73c-3.32 0-6-2.69-6-6V108.5c0-3.31 2.68-6 6-6h27.73V74.78c0-3.31 2.68-6 6-6h32.78c3.32 0 6 2.69 6 6zm-22.4 114.41c-72.16-46.36-110.73-89.09-114.66-127.02-2.93-28.21 13.32-48.94 30.73-56.99 8.36-3.86 16.98-5.75 25.6-5.75 19.08 0 38.09 9.29 53.85 27.02 1.13 1.28 2.77 2.01 4.48 2.01s3.35-.74 4.48-2.01c22.88-25.74 52.58-33.69 79.45-21.27 17.41 8.04 33.66 28.78 30.73 56.99-3.93 37.94-42.49 80.66-114.66 127.02z" clip-rule="evenodd" fill="#000000" opacity="1" data-original="#000000" class=""></path></g></svg>