<svg xmlns="http://www.w3.org/2000/svg" version="1.1" xmlns:xlink="http://www.w3.org/1999/xlink" width="512" height="512" x="0" y="0" viewBox="0 0 152.194 231.977" style="enable-background:new 0 0 512 512" xml:space="preserve" class=""><g><path d="m90.757 134.154-1.829 12.813 16.627 2.373a8.107 8.107 0 0 1 5.377 3.182 8.101 8.101 0 0 1 1.591 5.63l13.309 13.29 1.367 47.393c.196 6.778 5.752 12.14 12.488 12.14.122 0 .245-.003.367-.005 6.9-.2 12.334-5.956 12.135-12.856l-1.5-52a12.504 12.504 0 0 0-3.225-8.025l-29-32.06 10.514-46.746-44.124 54.028zm24.137 7.319a.999.999 0 0 1 1.16-.805c.175.032 4.332.817 6.724 4.369 1.572 2.333 2 5.27 1.275 8.73a1 1 0 0 1-1.958-.411c.612-2.903.285-5.32-.965-7.186-1.908-2.85-5.399-3.527-5.434-3.534a1.002 1.002 0 0 1-.802-1.163zm-2.326 4.25a.998.998 0 0 1 1.114-.864c.124.016 3.053.408 4.811 2.775 1.139 1.532 1.514 3.495 1.116 5.834a1 1 0 1 1-1.972-.335c.303-1.772.053-3.217-.74-4.293-1.237-1.68-3.446-1.994-3.468-1.997a1.003 1.003 0 0 1-.861-1.12zM69.449 230.821a12.45 12.45 0 0 0 5.237 1.156c4.722 0 9.242-2.69 11.354-7.258l1.09-2.355-24.912-3.555c-.262 4.956 2.45 9.802 7.23 12.012zM87.727 19.984c-1.39 12.349 7.493 23.486 19.84 24.877 12.35 1.39 23.487-7.492 24.878-19.841 1.39-12.349-7.492-23.486-19.841-24.877-12.348-1.39-23.486 7.492-24.877 19.841zm38.511 7.904-.263 2.988c-9.735-.86-19.104-.28-20.054 1.24l-2.544-1.59c2.49-3.985 16.817-3.172 22.861-2.638z" fill="#000000" opacity="1" data-original="#000000" class=""></path><path d="M95.3 221.207a5.864 5.864 0 0 0 6.632-4.976l8.275-57.981a5.863 5.863 0 0 0-4.977-6.634l-18.904-2.697 1.828-12.813-5-.714-3.305 4.048c-.414.507-.879.958-1.37 1.371l2.86.408-.978 6.848-29.16-4.16.977-6.85 3.733.534a10.393 10.393 0 0 1-1.178-1.724 10.245 10.245 0 0 1-1.25-4.71l-6.418-.915-1.829 12.813-18.904-2.698a5.863 5.863 0 0 0-6.633 4.976l-8.274 57.982a5.864 5.864 0 0 0 4.976 6.633z" fill="#000000" opacity="1" data-original="#000000" class=""></path><path d="M61.516 138.616a7.969 7.969 0 0 0 1.998.31c-2.647-3.69-2.626-8.836.38-12.516l14.975-18.337 11.643-39.458 2.266.45-10.154 34.41 25.579-31.32 2.822.18-45.35 55.53a8 8 0 1 0 12.393 10.12l52.59-64.395 4.053-4.963a8 8 0 0 0-1.136-11.257 7.97 7.97 0 0 0-2.438-1.354l-.001-.004-.033-.007a7.979 7.979 0 0 0-1.879-.407L89.91 47.093a6.67 6.67 0 0 0-.593-.105 8.112 8.112 0 0 0-.693-.243 7.998 7.998 0 0 0-9.937 5.409l-3.935 13.335-18.645 63.19a8 8 0 0 0 5.41 9.937zM17.297 134.159c-2.334 1.8-2.673 4.737-2.687 4.86a.998.998 0 0 0 .996 1.105c.501 0 .934-.378.993-.888.002-.022.275-2.236 1.933-3.504 1.062-.812 2.502-1.088 4.28-.817a1 1 0 1 0 .3-1.978c-2.347-.355-4.303.055-5.815 1.222z" fill="#000000" opacity="1" data-original="#000000" class=""></path><path d="M23.329 128.488c-3.473-.662-6.401-.18-8.706 1.434-3.508 2.456-4.217 6.626-4.246 6.803a.999.999 0 0 0 .989 1.157c.48 0 .904-.347.985-.836.006-.035.62-3.538 3.435-5.498 1.843-1.283 4.254-1.653 7.167-1.095a1 1 0 0 0 .376-1.965zM11.03 212.218c-.023-.003-2.237-.28-3.502-1.94-.81-1.063-1.083-2.504-.81-4.28a1 1 0 1 0-1.977-.303c-.36 2.345.048 4.301 1.212 5.815 1.796 2.338 4.732 2.682 4.856 2.695a.998.998 0 0 0 1.106-.993 1.002 1.002 0 0 0-.886-.994z" fill="#000000" opacity="1" data-original="#000000" class=""></path><path d="M8.831 216.461c-.035-.006-3.537-.626-5.491-3.445-1.28-1.845-1.646-4.256-1.083-7.168a1 1 0 0 0-1.964-.379c-.668 3.47-.192 6.4 1.418 8.708 2.45 3.512 6.619 4.229 6.796 4.258a.999.999 0 0 0 1.159-.987c0-.48-.346-.904-.835-.987z" fill="#000000" opacity="1" data-original="#000000" class=""></path></g></svg>