<svg xmlns="http://www.w3.org/2000/svg" version="1.1" xmlns:xlink="http://www.w3.org/1999/xlink" width="512" height="512" x="0" y="0" viewBox="0 0 64 64" style="enable-background:new 0 0 512 512" xml:space="preserve" class=""><g><path fill="#ffa31d" d="M59 17h-4a1 1 0 0 1-1-1v-4a1 1 0 0 1 1-1h4a3 3 0 0 1 0 6zm-3-2h3a1 1 0 0 0 0-2h-3zM51 17h-4a3 3 0 0 1 0-6h4a1 1 0 0 1 1 1v4a1 1 0 0 1-1 1zm-4-4a1 1 0 0 0 0 2h3v-2z" opacity="1" data-original="#ffa31d" class=""></path><path fill="#000000" d="M21 18.667V17a2 2 0 0 0-2-2 2 2 0 0 0-2 2v2.306a2 2 0 0 0 1.671 1.973l8.606 1.434A1.48 1.48 0 0 0 29 21.253a1.48 1.48 0 0 0-1.236-1.459z" opacity="1" data-original="#2678db" class=""></path><path fill="#000000" d="M45 27h16v34H45zM24 35h16v26H24zM3 43h16v18H3z" opacity="1" data-original="#00c383" class=""></path><path fill="#ffa31d" d="M54 17h-2l-2 10h6z" opacity="1" data-original="#ffa31d" class=""></path><path fill="#ffa31d" d="M48 11h10v3a5 5 0 0 1-5 5 5 5 0 0 1-5-5v-3z" opacity="1" data-original="#ffa31d" class=""></path><circle cx="18" cy="9" r="4" fill="#000000" opacity="1" data-original="#2678db" class=""></circle><path fill="#000000" d="M14.328 43a2.084 2.084 0 0 1-2.071-2.314L14 25h6l-3.637 16.368A2.084 2.084 0 0 1 14.328 43z" opacity="1" data-original="#2678db" class=""></path><path fill="#000000" d="M22 25v-8a4 4 0 0 0-4-4h-2.127a4 4 0 0 0-3.073 1.439L9.65 18.22A4.007 4.007 0 0 0 8.8 20l-1.442 7.21A1.5 1.5 0 0 0 8.829 29a1.5 1.5 0 0 0 1.455-1.136l1.645-6.582a1.061 1.061 0 0 1 .277-.488 1.051 1.051 0 0 1 1.794.743V25a4 4 0 0 0 4 4h7v4a2 2 0 0 0 2 2 2 2 0 0 0 2-2v-6a2 2 0 0 0-2-2z" opacity="1" data-original="#2678db" class=""></path><g fill="#ffa31d"><path d="M57 6h1v1a1 1 0 0 0 2 0V6h1a1 1 0 0 0 0-2h-1V3a1 1 0 0 0-2 0v1h-1a1 1 0 0 0 0 2zM43 20h-1v-1a1 1 0 0 0-2 0v1h-1a1 1 0 0 0 0 2h1v1a1 1 0 0 0 2 0v-1h1a1 1 0 0 0 0-2zM41 8h1v1a1 1 0 0 0 2 0V8h1a1 1 0 0 0 0-2h-1V5a1 1 0 0 0-2 0v1h-1a1 1 0 0 0 0 2z" fill="#ffa31d" opacity="1" data-original="#ffa31d" class=""></path></g></g></svg>