<svg xmlns="http://www.w3.org/2000/svg" version="1.1" xmlns:xlink="http://www.w3.org/1999/xlink" width="512" height="512" x="0" y="0" viewBox="0 0 512 512" style="enable-background:new 0 0 512 512" xml:space="preserve" class=""><g><path d="M351.332 153.66V65.207C351.332 29.254 322.078 0 286.122 0H65.202C29.25 0 0 29.254 0 65.207v147.715c0 30.797 21.457 56.672 50.203 63.469v36.949a15.006 15.006 0 0 0 15 15c3.902 0 7.738-1.524 10.61-4.395l45.812-45.812h9.047v-29.266c0-52.5 42.707-95.207 95.203-95.207zm0 0" fill="#000000" opacity="1" data-original="#000000" class=""></path><path d="M446.793 183.66H225.875c-35.953 0-65.203 29.25-65.203 65.207v147.715c0 35.957 29.25 65.207 65.203 65.207h164.496l45.813 45.816a14.998 14.998 0 0 0 16.347 3.254A15.006 15.006 0 0 0 461.793 497v-36.95C490.543 453.259 512 427.38 512 396.583V248.867c0-35.957-29.254-65.207-65.207-65.207zm-46.598 114.168-71.007 71.008a14.95 14.95 0 0 1-10.606 4.39c-3.84 0-7.68-1.46-10.605-4.39l-35.508-35.504c-5.86-5.855-5.86-15.355 0-21.215 5.855-5.855 15.355-5.855 21.21 0l24.903 24.899 60.398-60.403c5.86-5.855 15.356-5.855 21.215 0 5.86 5.86 5.86 15.36 0 21.215zm0 0" fill="#000000" opacity="1" data-original="#000000" class=""></path></g></svg>