<svg xmlns="http://www.w3.org/2000/svg" version="1.1" xmlns:xlink="http://www.w3.org/1999/xlink" width="512" height="512" x="0" y="0" viewBox="0 0 60 60" style="enable-background:new 0 0 512 512" xml:space="preserve" class=""><g><path d="M9 57a1 1 0 0 0 1 1h10a1 1 0 0 0 1-1V30H9zM13 18a2 2 0 0 0 4 0v-4h-4zM7 27a1 1 0 0 0 1 1h14a1 1 0 0 0 1-1v-1H7zM21 3a1 1 0 0 0-1-1H10a1 1 0 0 0-1 1v1h12z" fill="#000000" opacity="1" data-original="#000000" class=""></path><circle cx="51" cy="15" r="7" fill="#000000" opacity="1" data-original="#000000" class=""></circle><path d="M42 15a8.971 8.971 0 0 1 .232-2H40v4h2.232A8.971 8.971 0 0 1 42 15zM31 6H5a3 3 0 0 0-3 3v12a3 3 0 0 0 3 3h26a3 3 0 0 0 3-3V9a3 3 0 0 0-3-3zM6 21a1 1 0 0 1-2 0V9a1 1 0 0 1 2 0zm13-3a4 4 0 0 1-8 0v-4a2 2 0 0 1 2-2h4a2 2 0 0 1 2 2zM37 10h-1v10h1a1 1 0 0 0 1-1v-8a1 1 0 0 0-1-1zM42.684 4.329l1.55.517A3.031 3.031 0 0 0 47.723 3.6a1 1 0 0 1 1.387-.277l.226.151a3 3 0 0 0 3.328 0l.227-.151a.993.993 0 0 1 .75-.149 1.055 1.055 0 0 1 .68.491 3 3 0 0 0 3.444 1.182l1.551-.517a1 1 0 1 0-.632-1.9l-1.552.516a1.03 1.03 0 0 1-1.191-.458 3 3 0 0 0-4.159-.833l-.227.152a1 1 0 0 1-1.11 0l-.226-.15a2.981 2.981 0 0 0-2.253-.446 3.031 3.031 0 0 0-1.951 1.343 1 1 0 0 1-1.148.393l-1.551-.516a1 1 0 1 0-.632 1.9zM59.316 25.671l-1.55-.517a3.035 3.035 0 0 0-3.489 1.246 1 1 0 0 1-1.387.277l-.226-.151a3 3 0 0 0-3.328 0l-.227.151a.984.984 0 0 1-.75.149 1.055 1.055 0 0 1-.68-.491 3.007 3.007 0 0 0-3.444-1.182l-1.551.517a1 1 0 1 0 .632 1.9l1.552-.516a1.028 1.028 0 0 1 1.191.458 2.978 2.978 0 0 0 1.907 1.278 3.016 3.016 0 0 0 .595.059 2.977 2.977 0 0 0 1.657-.5l.227-.152a1 1 0 0 1 1.11 0l.226.15a2.986 2.986 0 0 0 2.253.446 3.031 3.031 0 0 0 1.951-1.343 1 1 0 0 1 1.148-.393l1.551.516a1 1 0 1 0 .632-1.9z" fill="#000000" opacity="1" data-original="#000000" class=""></path></g></svg>