<svg xmlns="http://www.w3.org/2000/svg" version="1.1" xmlns:xlink="http://www.w3.org/1999/xlink" width="512" height="512" x="0" y="0" viewBox="0 0 64 64" style="enable-background:new 0 0 512 512" xml:space="preserve" class=""><g><linearGradient id="a" x1="4" x2="60" y1="32" y2="32" gradientUnits="userSpaceOnUse"><stop stop-opacity="1" stop-color="#00c0ff" offset="0"></stop><stop stop-opacity="1" stop-color="#000001" offset="0.9382715489765898"></stop><stop stop-opacity="1" stop-color="#000001" offset="0.9652777205442395"></stop><stop stop-opacity="1" stop-color="#000001" offset="1"></stop></linearGradient><path fill="url(#a)" d="M58.247 11.855a4.713 4.713 0 0 0-4.222-2.614H34.418a2.466 2.466 0 0 0-2.407 1.914 2.092 2.092 0 0 0-.069.562v14.735a2.482 2.482 0 0 0 2.476 2.476h19.607a4.713 4.713 0 0 0 4.222-2.614 15.783 15.783 0 0 0 0-14.459zm-5.78 10.74h-12.96a3.511 3.511 0 0 1 0-7.022h12.96a3.511 3.511 0 0 1 0 7.023zm-24.411-9.714h1.913v12.407h-1.913a2.61 2.61 0 0 1-2.614-2.603v-7.2a2.61 2.61 0 0 1 2.614-2.604zm-6.5 2.564h1.914v7.28h-1.914a2.62 2.62 0 0 1-2.614-2.654H15.5c-1.324 6.834-11.338 6.054-11.5-.986.157-7.04 10.18-7.82 11.5-.987-.002-.029 3.524.061 3.443-.04a2.618 2.618 0 0 1 2.613-2.613zM55.12 30.802v20.545c-.184 3.903-5.001 3.698-7.94 3.037a3.183 3.183 0 0 1-2.248-4.379 34.472 34.472 0 0 0 2.564-10.168c.333-2.892-2.663-3.667-4.665-3.245-2.4.425-5.475-.23-6.608-2.348a5.467 5.467 0 0 1-.533-3.343h18.335a5.997 5.997 0 0 0 1.095-.1zm-2.653-10.179h-12.96a1.539 1.539 0 0 1 0-3.077h12.96a1.539 1.539 0 0 1 0 3.077z" opacity="1" data-original="url(#a)" class=""></path></g></svg>