<svg xmlns="http://www.w3.org/2000/svg" version="1.1" xmlns:xlink="http://www.w3.org/1999/xlink" width="512" height="512" x="0" y="0" viewBox="0 0 267.649 252.31" style="enable-background:new 0 0 512 512" xml:space="preserve" class=""><g><path d="m69.705 198.987-46.754 41.039H2.397A2.397 2.397 0 0 0 0 242.422v9.888h69.635v-9.888a2.397 2.397 0 0 0-2.397-2.396H47.165l32.695-28.69a27.028 27.028 0 0 1-10.155-12.349zM73.159 124.475c2.607 4.125 4.954 8.834 6.662 14.138l21.955 23.449c1.724.024 3.499.057 5.317.098a14.389 14.389 0 0 1-2.001-7.841c.029-.8.045-1.572.045-2.32-.02-8.532-1.661-15.591-5.02-21.571-2.71-4.772-6.456-8.71-11.453-12.033-3.486-2.344-7.274-4.058-10.828-5.328l-.446 6.11c-.185 2.515-1.927 4.588-4.231 5.298z" fill="#000000" opacity="1" data-original="#000000"></path><path d="M265.252 240.026h-31.11l-8.406-23.251a43.342 43.342 0 0 0 7.871-24.96c0-20.082-13.597-36.98-32.083-42.016l-12.413-34.334 10.744-9.428a4 4 0 0 0 .367-5.644l-5.277-6.013a4 4 0 0 0-5.645-.368l-5.592 4.908-6.988-19.33 10.673-9.446a3.75 3.75 0 1 0-4.971-5.617l-14.855 13.147a10.058 10.058 0 0 1 2.063 2.721 9.912 9.912 0 0 1 1.076 5.509c-.026.28-.068.555-.116.827l6.504 17.994-43.439 38.129c.321 2.985.488 6.038.479 9.15 0 1.088-.02 2.186-.056 3.294a14.505 14.505 0 0 1-2.683 7.949c1.002.069 2.006.144 3.012.221l42.608-37.39 8.122 22.467c-12.219 1.373-22.909 7.795-29.927 17.138a43.83 43.83 0 0 0-1.35 1.902c-7.191-.986-14.576-1.702-21.616-2.22-.843-.062-1.679-.121-2.511-.177a14.442 14.442 0 0 1-10.143 4.117c-.161 0-.321-.003-.475-.006-.298-.01-.591-.045-.886-.073a14.425 14.425 0 0 1-9.24-4.517c-.036-.038-.065-.08-.1-.118-.116-.126-.22-.26-.331-.39l-1.29-.033a526.49 526.49 0 0 0-6.374-.119l-19.887-21.242-19.447-20.772 9.553.696c.301.021.594.004.88-.039a3.996 3.996 0 0 0 3.4-3.661l.483-6.635a69 69 0 0 0-5.752-1.579h-.121c-2.513 0-6.464-.733-10.601-2.275a38.08 38.08 0 0 1-6.586-3.187l-7.376-.537-.09-.096-.089.083-14.876-1.084a4 4 0 0 0-4.279 3.7l-.582 7.978a4 4 0 0 0 3.699 4.28l12.062.879 40.85 43.634 1.991 2.127c-.869.404-1.704.869-2.515 1.367-7.125 4.373-11.888 12.221-11.888 21.194 0 3.064.557 5.997 1.571 8.708a24.951 24.951 0 0 0 10.118 12.381 24.75 24.75 0 0 0 13.184 3.784c6.747 0 32.095-.146 56.145-3.17.307.641.627 1.272.963 1.895 7.36 13.629 21.771 22.891 38.347 22.891a43.335 43.335 0 0 0 23.89-7.143l4.265 11.799h-17.797a2.397 2.397 0 0 0-2.398 2.396v9.888h69.635v-9.888a2.392 2.392 0 0 0-2.394-2.395zm-160.376-50.84c0 .069-.009.137-.01.206a8.033 8.033 0 0 1-7.505 7.811c-.175.011-.348.026-.526.026a8.042 8.042 0 0 1 .001-16.084 8 8 0 0 1 2.858.532l-5.025 5.545a2.927 2.927 0 0 0 .201 4.131 2.923 2.923 0 0 0 1.964.755c.797 0 1.591-.322 2.169-.959l3.149-3.475 1.876-2.069a8.002 8.002 0 0 1 .848 3.581zm-8.041 18.85c-3.658 0-7.062-1.06-9.953-2.863a18.898 18.898 0 0 1-7.09-7.974 18.688 18.688 0 0 1-1.639-5.627 18.966 18.966 0 0 1-.167-2.386c0-10.408 8.438-18.849 18.849-18.849 1.656 0 3.254.235 4.785.637a18.7 18.7 0 0 1 5.547 2.457l-1.537 1.696-.102.112a16.333 16.333 0 0 0-6.161-2.288 16.506 16.506 0 0 0-2.532-.215c-9.085 0-16.449 7.364-16.449 16.449 0 .138.017.271.021.407.1 4.051 1.661 7.73 4.179 10.544a16.524 16.524 0 0 0 4.186 3.378 16.364 16.364 0 0 0 8.063 2.12c9.083 0 16.449-7.363 16.449-16.449a16.39 16.39 0 0 0-3.423-10.018l1.64-1.81a18.856 18.856 0 0 1 2.481 4.033 18.75 18.75 0 0 1 1.702 7.794c0 10.412-8.439 18.852-18.849 18.852zm112.496 7.431a30.385 30.385 0 0 1-19.277 6.864c-9.914 0-18.718-4.731-24.293-12.053a30.844 30.844 0 0 1-1.271-1.807 30.373 30.373 0 0 1-4.952-16.657c0-8.493 3.474-16.175 9.074-21.707a31.215 31.215 0 0 1 1.855-1.688 30.373 30.373 0 0 1 19.283-7.112c.102-.001.202-.008.303-.008 6.586 0 12.68 2.094 17.667 5.643 7.772 5.531 12.848 14.607 12.848 24.872 0 2.711-.358 5.338-1.022 7.841a30.516 30.516 0 0 1-10.215 15.812z" fill="#000000" opacity="1" data-original="#000000"></path><path d="M191.163 165.213a25.489 25.489 0 0 0-1.109-.028 26.495 26.495 0 0 0-14.703 4.429 26.319 26.319 0 0 0-2.11 1.553c-5.99 4.883-9.817 12.317-9.817 20.648a26.512 26.512 0 0 0 6.643 17.589c4.88 5.541 12.023 9.041 19.987 9.041 6.874 0 13.14-2.605 17.865-6.883 5.382-4.872 8.765-11.914 8.765-19.747l-.002-.087a26.517 26.517 0 0 0-6.103-16.879c-4.665-5.637-11.607-9.315-19.416-9.636zm-1.109 39.622c-1.139 0-2.239-.161-3.292-.436a12.88 12.88 0 0 1-2.799-1.08c-4.12-2.186-6.928-6.517-6.928-11.504 0-7.19 5.828-13.02 13.02-13.02 1.106 0 2.174.153 3.2.413 1.247.315 2.42.809 3.495 1.456a12.968 12.968 0 0 1 6.324 11.15c0 1.507-.269 2.948-.74 4.294-1.778 5.078-6.597 8.727-12.28 8.727zM125.838 92.182c4.619 3.48 10.183 6.236 16.546 7.78l-2.272 2.011a3.75 3.75 0 1 0 4.971 5.616l7.113-6.295c.591.021 1.184.036 1.786.036h.156a76.255 76.255 0 0 0 1.672-.025c3.897-.109 7.061-2.991 7.665-6.701-.863.24-1.772.372-2.713.372-.313 0-.623-.017-.936-.046-.133-.012-.262-.028-.394-.04a113.215 113.215 0 0 1-9.792-1.35c-16.298-2.997-28.232-9.107-36.709-15.397 3.281 5.043 7.475 9.972 12.907 14.039z" fill="#000000" opacity="1" data-original="#000000"></path><circle cx="136.238" cy="22.495" r="22.495" transform="rotate(-44.2 136.313 22.487)" fill="#000000" opacity="1" data-original="#000000"></circle><path d="M52.951 103.063a34.537 34.537 0 0 0 4.849 2.656c4.846 2.175 9.792 3.178 12.535 3.093a70.837 70.837 0 0 1 7.643 2.182c3.926 1.368 8.049 3.221 11.793 5.737 4.79 3.183 8.981 7.239 12.089 12.718 3.088 5.498 5.252 12.561 5.275 22.551 0 .77-.013 1.565-.043 2.388a12.457 12.457 0 0 0 .505 3.942 12.46 12.46 0 0 0 1.933 3.891c.27.366.555.72.862 1.054.33.358.683.695 1.053 1.014.826.71 1.746 1.314 2.741 1.792 1.12.537 2.332.915 3.611 1.098a12.71 12.71 0 0 0 1.792.131c2.68 0 5.166-.859 7.211-2.31a12.44 12.44 0 0 0 5.278-9.767 97.38 97.38 0 0 0 .056-3.232 82.52 82.52 0 0 0-.33-7.521c-1.121-12.621-5.115-23.298-10.898-31.69-5.147-7.524-11.552-13.183-18.039-17.364-6.184-3.977-12.439-6.678-18.123-8.554.348-.467.716-.919 1.071-1.381 4.989-6.491 10.6-12.506 15.734-17.825-7.705-8.773-10.693-16.504-11.261-18.115-1.779-5.242 1.023-10.935 6.246-12.707a9.956 9.956 0 0 1 8.637 1.071 9.989 9.989 0 0 1 4.043 5.165c.056.137.144.365.284.681.284.643.775 1.685 1.521 2.995a45.78 45.78 0 0 0 3.505 5.229 49.87 49.87 0 0 0 4.266 4.86c.71.705 1.442 1.387 2.189 2.053a75.923 75.923 0 0 1-3.422-11.193 57.614 57.614 0 0 1-.569-2.88 26.631 26.631 0 0 1-.115-.717c-.023-.149-.021-.155-.023-.155a7.943 7.943 0 0 0-.891-2.756c-.43-2.097-1.345-4.015-2.83-5.589-6.036-6.401-18.955-9.181-31.099.424C65.717 49.093 57.397 59.228 47.81 78.6c-.18.364-.359.724-.54 1.094-6.306 10.991-1.414 18.665 5.681 23.369z" fill="#000000" opacity="1" data-original="#000000"></path><path d="M113.554 53.992a48.105 48.105 0 0 1-4.269-6.246 35.736 35.736 0 0 1-1.615-3.182 17.665 17.665 0 0 1-.347-.84 7.978 7.978 0 0 0-3.924-4.529 7.969 7.969 0 0 0-6.221-.46c-4.185 1.42-6.421 5.966-5.002 10.15v-.003c.244.693 2.951 8.4 10.766 17.339a68.89 68.89 0 0 0 7.112 7.061c9.175 7.882 22.699 15.361 41.52 18.548 2.707.458 5.505.842 8.435 1.11.253.023.504.035.753.035.303 0 .602-.022.898-.056a8 8 0 0 0 6.863-6.073c.087-.366.159-.74.195-1.126a7.972 7.972 0 0 0-2.652-6.715 7.956 7.956 0 0 0-4.567-1.995c-18.398-1.757-30.546-7.68-38.736-14.025a58.047 58.047 0 0 1-5.384-4.725 52.127 52.127 0 0 1-3.825-4.268z" fill="#000000" opacity="1" data-original="#000000"></path></g></svg>