<svg xmlns="http://www.w3.org/2000/svg" version="1.1" xmlns:xlink="http://www.w3.org/1999/xlink" width="512" height="512" x="0" y="0" viewBox="0 0 193.872 238.742" style="enable-background:new 0 0 512 512" xml:space="preserve" class=""><g><path d="M134.611 87.368c.032.199.053.403.08.604.341.099.676.234.996.419l7.34 4.238-9.984 16.945 1.009 2.227 10.606-18c1.345 1.408 1.684 3.579.662 5.348l-9.525 16.498 1.757 3.877h6.703l1.696-2.894 6.221-10.616 8.981-9.532 31.257-33.174-4.302-4.053a7.443 7.443 0 0 0 1.985-5.312 7.448 7.448 0 0 0-2.346-5.236l-6.711-6.323a7.471 7.471 0 0 0-5.366-2.031 7.45 7.45 0 0 0-5.236 2.347l-3.522 3.738a22.412 22.412 0 0 0-8.004-5.194c-11.621-4.4-24.609 1.454-29.009 13.076-3.411 9.01-.655 18.839 6.17 24.853l-3.053 3.241a16.824 16.824 0 0 1 1.595 4.954zm41.287-44.019c1.155 0 2.244.43 3.081 1.218l6.402 6.032-34.744 35.985 1.438 1.389 34.554-35.788c.278.569.446 1.192.465 1.848a4.467 4.467 0 0 1-1.216 3.22l-36.974 39.242a7.494 7.494 0 0 0-3.732-6.089l-7.986-4.61a7.458 7.458 0 0 0-2.41-.877l37.84-40.161a4.473 4.473 0 0 1 3.142-1.404c.047-.004.093-.005.14-.005zM63.406 207.268l41.61-16.823 6.872-8.46-49.096-17.361c-1.907-.674-3.055-2.513-2.974-4.436l46.662 16.809.678-1.881L60.28 158.23l2.844-8.042a4.505 4.505 0 0 1 5.743-2.743l1.271.45a21.786 21.786 0 0 1-.675-3.398c-3.788-1.105-7.837.925-9.167 4.691l-3.074 8.693c-1.378 3.898.672 8.192 4.571 9.571l2.478.876-18.538 64.022a5 5 0 1 0 9.605 2.781zm3.537-12.217 6.771-23.383 27.24 9.632z" fill="#000000" opacity="1" data-original="#000000" class=""></path><path d="M85.44 159.94c.545.281 1.107.539 1.705.743l35.243 12.024-29.051 35.763c-4.353 5.358-3.538 13.231 1.821 17.583a12.446 12.446 0 0 0 7.873 2.798c3.635 0 7.239-1.578 9.71-4.619l40.358-49.683a12.5 12.5 0 0 0-5.666-19.711l-39.753-13.563c2.418-6.248 5.588-12.375 8.895-18.129l-10.978-24.223c-2.344-5.173-.043-11.289 5.13-13.633a10.21 10.21 0 0 1 4.246-.92 10.33 10.33 0 0 1 9.388 6.049l5.254 11.594c4.333-8.05 4.154-18.307-2.238-22.738-5.626-3.901-14.874-4.791-23.362.615a10.219 10.219 0 0 1 1.026 7.547 10.28 10.28 0 0 1-9.987 7.803 10.34 10.34 0 0 1-2.502-.309 17.109 17.109 0 0 0-2.059-.367c-9.085 12.53-13.949 23.651-18.425 41.475-2.541 14.798 5.404 20.617 13.372 23.901z" fill="#000000" opacity="1" data-original="#000000" class=""></path><path d="m117.996 139.049 3.271-5.552-1.009-2.227-3.984 6.763z" fill="#000000" opacity="1" data-original="#000000" class=""></path><path d="M182.977 129.824a8 8 0 0 0-8-8h-38.908l-13.802-30.456a8 8 0 0 0-14.574 6.605l15.932 35.154a7.982 7.982 0 0 0 4.279 4.092 6.747 6.747 0 0 0-.405 2.291v.005a10.319 10.319 0 0 1-3.997-2.574l-3.522 6.1 8.746 2.984.919-1.568a6.773 6.773 0 0 0 4.659 1.859h1.579v2.151l1.364.465h17.738l3.136 9.256-2.068.836a14.762 14.762 0 0 1 1.57 3.555c.611 2.127.705 4.327.361 6.451l3.352-1.355 17.944 52.958-30.97-21.459 11.819-14.945c2.328-2.942 1.827-7.23-1.116-9.56a6.765 6.765 0 0 0-2.477-1.236c-.463.899-1 1.766-1.65 2.566l-.174.214c.028-.001.056-.009.084-.009a3.79 3.79 0 0 1 2.356.819 3.809 3.809 0 0 1 .624 5.345l-33.145 41.909a3.774 3.774 0 0 1-2.543 1.413 3.777 3.777 0 0 1-2.801-.789 3.777 3.777 0 0 1-1.412-2.544 3.871 3.871 0 0 1-.01-.783l-2.464 3.034a6.732 6.732 0 0 0 2.026 2.646 6.744 6.744 0 0 0 5.011 1.415 6.755 6.755 0 0 0 4.549-2.531l15.11-19.106 43.93 30.439a4.993 4.993 0 0 0 5.857-.116 5 5 0 0 0 1.726-5.598l-28.065-82.826h14.298v-2.616h.695a6.813 6.813 0 0 0 6.805-6.806 6.796 6.796 0 0 0-2.922-5.58 6.792 6.792 0 0 0-2.078-.974c.406-.962.634-2.02.634-3.131zm1.363 9.685a3.81 3.81 0 0 1-3.805 3.806h-46.232a3.81 3.81 0 0 1-3.805-3.806 3.81 3.81 0 0 1 3.805-3.805h46.232a3.81 3.81 0 0 1 3.805 3.805z" fill="#000000" opacity="1" data-original="#000000" class=""></path><circle cx="48.85" cy="22.5" r="22.5" fill="#000000" opacity="1" data-original="#000000" class=""></circle><path d="M19.605 68.095a10.23 10.23 0 0 1 2.411-7.505 10.286 10.286 0 0 1 7.858-3.638c2.436 0 4.8.869 6.659 2.446l8.239 6.989 32.269 8.34c3.372-.571 6.895-.94 10.402-.94 3.632 0 7.031.39 10.104 1.158a10.234 10.234 0 0 1 5.134 3.072c4.229-2.724 8.902-4.184 13.712-4.222-.321-3.245-2.611-6.097-5.952-6.961L33.775 47.019a10.904 10.904 0 0 0-.946-.288 15.635 15.635 0 0 0-1.124-.232 8.017 8.017 0 0 0-1.387-.187c-8.297-.745-18.876 4.309-23.436 17.569C.076 84.055-1.386 97.186 1.2 119.401c1.956 10.067 7.003 14.485 12.75 16.355l7.403 31.464-12.272 54.901c-1.506 6.737 2.735 13.42 9.473 14.926.918.205 1.835.304 2.738.304 5.724 0 10.887-3.957 12.188-9.776l12.897-57.7a12.485 12.485 0 0 0-.032-5.59l-9.293-39.494a55.245 55.245 0 0 0-.099-2.803c-1.451-10.82-.062-22.781 1.849-33.652L23.207 75.107a10.236 10.236 0 0 1-3.602-7.012z" fill="#000000" opacity="1" data-original="#000000" class=""></path><path d="M93.109 92.698a8 8 0 0 0 9.701-5.821 8 8 0 0 0-5.82-9.702c-13.265-3.317-29.371 1.713-37.389 4.805L35.045 61.152a8 8 0 0 0-10.349 12.201l28.294 24a7.995 7.995 0 0 0 8.549 1.153c4.97-2.312 21.442-8.34 31.57-5.808z" fill="#000000" opacity="1" data-original="#000000" class=""></path></g></svg>