<svg xmlns="http://www.w3.org/2000/svg" version="1.1" xmlns:xlink="http://www.w3.org/1999/xlink" width="512" height="512" x="0" y="0" viewBox="0 0 25 24" style="enable-background:new 0 0 512 512" xml:space="preserve" class=""><g><path fill="#000000" d="M21.599 6.5c0-.142-.07-.26-.165-.351l-.003-.003c-.022-.021-.037-.05-.063-.067-1.048-1.165-1.027-4.134.064-5.225A.499.499 0 0 0 21.079 0H5.799C4.085 0 2.58 1.402 2.58 3v18c0 1.738 1.144 3 2.72 3h15.78a.5.5 0 0 0 .5-.5V6.599c.007-.033.02-.064.02-.099zM3.579 3c0-1.047 1.059-2 2.22-2h14.33c-.288.581-.452 1.28-.506 2H5.579a.5.5 0 0 0 0 1h14.043c.054.72.219 1.419.506 2H5.8c-1.162 0-2.221-.953-2.221-2zm15.9 8.252c-.196.904-.664 1.812-1.221 2.369a2.978 2.978 0 0 1-3.89.29l-1.678 1.492 5.743 5.743a.5.5 0 0 1-.708.708L11.94 16.07l-6.53 5.804a.501.501 0 0 1-.664-.748l6.486-5.765-.094-.094A4.3 4.3 0 0 0 8.079 14a.504.504 0 0 1-.354-.146l-3-3a.5.5 0 0 1 .707-.707l2.857 2.857a5.31 5.31 0 0 1 1.638.345 5.303 5.303 0 0 1-.345-1.638L6.725 8.854a.5.5 0 0 1 .707-.707l3 3c.094.093.147.22.147.353a4.3 4.3 0 0 0 1.268 3.061l.135.135 1.685-1.498a2.972 2.972 0 0 1-.53-1.698c0-.801.312-1.555.878-2.121.766-.766 2.136-1.321 3.258-1.321.705 0 1.29.212 1.692.614.569.568.75 1.485.514 2.58z" opacity="1" data-original="#000000" class=""></path></g></svg>