<svg xmlns="http://www.w3.org/2000/svg" version="1.1" xmlns:xlink="http://www.w3.org/1999/xlink" width="512" height="512" x="0" y="0" viewBox="0 0 520 520" style="enable-background:new 0 0 512 512" xml:space="preserve" class=""><g><g data-name="23-Shower"><path d="M462.362 231.056h-.577v-1.076a75.756 75.756 0 0 0-54.278-72.545v-23.473a98.054 98.054 0 0 0-98.054-98.053h-95.371a97.438 97.438 0 0 0-83.39 46.471l-32.069 51.845a55.582 55.582 0 0 0-15.508-2.21H42a10 10 0 0 0-10 10v119.7a10 10 0 0 0 10 10h41.115a55.846 55.846 0 0 0 55.785-55.783V187.8a56.242 56.242 0 0 0-.36-6.259l43.314-66.681.118-.187A44.436 44.436 0 0 1 220 93.478h82.98A44.718 44.718 0 0 1 347.7 138.2v19.238a75.756 75.756 0 0 0-54.278 72.545v1.076h-.578a25.666 25.666 0 0 0-25.637 25.637v14.713a25.666 25.666 0 0 0 25.637 25.637h169.518A25.667 25.667 0 0 0 488 271.406v-14.713a25.667 25.667 0 0 0-25.638-25.637zm5.638 40.35a5.644 5.644 0 0 1-5.638 5.637H292.844a5.643 5.643 0 0 1-5.637-5.637v-14.713a5.643 5.643 0 0 1 5.637-5.637h169.518a5.644 5.644 0 0 1 5.638 5.637zM312.2 335.218a10 10 0 0 1-10-10v-11.2a10 10 0 0 1 20 0v11.2a10 10 0 0 1-10 10zM312.2 384.843a10 10 0 0 1-10-10v-11.2a10 10 0 0 1 20 0v11.2a10 10 0 0 1-10 10zM312.2 434.467a10 10 0 0 1-10-10v-11.2a10 10 0 0 1 20 0v11.2a10 10 0 0 1-10 10zM312.2 484.091a10 10 0 0 1-10-10V462.9a10 10 0 0 1 20 0v11.2a10 10 0 0 1-10 9.991zM355.8 335.218a10 10 0 0 1-10-10v-11.2a10 10 0 0 1 20 0v11.2a10 10 0 0 1-10 10zM355.8 384.843a10 10 0 0 1-10-10v-11.2a10 10 0 0 1 20 0v11.2a10 10 0 0 1-10 10zM355.8 434.467a10 10 0 0 1-10-10v-11.2a10 10 0 0 1 20 0v11.2a10 10 0 0 1-10 10zM355.8 484.091a10 10 0 0 1-10-10V462.9a10 10 0 0 1 20 0v11.2a10 10 0 0 1-10 9.991zM399.405 335.218a10 10 0 0 1-10-10v-11.2a10 10 0 1 1 20 0v11.2a10 10 0 0 1-10 10zM399.405 384.843a10 10 0 0 1-10-10v-11.2a10 10 0 1 1 20 0v11.2a10 10 0 0 1-10 10zM399.405 434.467a10 10 0 0 1-10-10v-11.2a10 10 0 0 1 20 0v11.2a10 10 0 0 1-10 10zM399.405 484.091a10 10 0 0 1-10-10V462.9a10 10 0 0 1 20 0v11.2a10 10 0 0 1-10 9.991zM443.01 335.218a10 10 0 0 1-10-10v-11.2a10 10 0 1 1 20 0v11.2a10 10 0 0 1-10 10zM443.01 384.843a10 10 0 0 1-10-10v-11.2a10 10 0 1 1 20 0v11.2a10 10 0 0 1-10 10zM443.01 434.467a10 10 0 0 1-10-10v-11.2a10 10 0 0 1 20 0v11.2a10 10 0 0 1-10 10zM443.01 484.091a10 10 0 0 1-10-10V462.9a10 10 0 0 1 20 0v11.2a10 10 0 0 1-10 9.991z" fill="#000000" opacity="1" data-original="#000000"></path></g></g></svg>