<svg xmlns="http://www.w3.org/2000/svg" version="1.1" xmlns:xlink="http://www.w3.org/1999/xlink" width="512" height="512" x="0" y="0" viewBox="0 0 259.694 326.613" style="enable-background:new 0 0 512 512" xml:space="preserve" class=""><g><path d="M240.75 236.434a15.054 15.054 0 0 1-4.865-.983 15.066 15.066 0 0 1-6.26.708l-19.32-1.829-6.173 29.704v21.324l10.644 5.543h25.975v-54.467z" fill="#000000" opacity="1" data-original="#000000"></path><path d="m207.915 231.09 21.996 2.082a12.176 12.176 0 0 0 6.045-.959c1.47.72 3.098 1.14 4.794 1.219v-7.498c-1.652.428-3.374.679-5.158.679a20.5 20.5 0 0 1-11.338-3.414c-11.08 2.465-22.546 4.271-23.229 4.378-.53.083-1.067.124-1.597.124-4.784 0-9.01-3.393-10.048-8.07-.101-.454-.79-3.651-1.424-8.554a12.206 12.206 0 0 0-1.798 4.291l-11.37 54.71 22.58 11.758z" fill="#000000" opacity="1" data-original="#000000"></path><path d="M234.308 141.112c.03.073.067.14.096.214 2.513 6.33 2.412 13.261-.287 19.514-2.7 6.254-7.673 11.082-14.004 13.596a25.625 25.625 0 0 1-5.672 1.529 25.352 25.352 0 0 1-21.942-7.366c-1.154 3.813-1.946 7.73-2.476 11.618-2.63 19.273 1.35 37.783 1.602 38.916a8.002 8.002 0 0 0 9.045 6.172c.64-.1 10.838-1.704 21.223-3.94-4.129-3.68-6.77-8.981-6.907-14.903-3.207.65-6.308 1.23-8.95 1.703-.812-6.427-1.515-16.126-.244-25.668l2.257.326c-.602 4.545-.732 9.136-.622 13.398l2.955 7.48.486 1.23c1.37-.263 2.776-.54 4.189-.828.954-10.497 9.794-18.75 20.535-18.75 1.784 0 3.506.25 5.158.678v-45.217l-6.433.297h-.009z" fill="#000000" opacity="1" data-original="#000000"></path><path d="M219.006 171.647c11.55-4.585 17.195-17.664 12.61-29.214-4.586-11.55-17.664-17.196-29.215-12.61-11.549 4.585-17.195 17.665-12.61 29.215s17.666 17.194 29.215 12.61zm-22.912-13.94s14.889 2.778 24.158-3.146c0 0-9.51 19.901-24.158 3.146zM217.962 205.982c0 9.737 7.893 17.63 17.63 17.63a17.62 17.62 0 0 0 5.158-.77v-10.364a8.258 8.258 0 0 1-5.158 1.804 8.3 8.3 0 1 1 0-16.6c1.951 0 3.741.678 5.158 1.805v-10.364a17.616 17.616 0 0 0-5.158-.771c-9.737 0-17.63 7.893-17.63 17.63z" fill="#000000" opacity="1" data-original="#000000"></path><path d="M235.592 209.47a3.488 3.488 0 1 0 0-6.976 3.488 3.488 0 0 0 0 6.977zM188.057 97.481l-8.877-15.596-.512 1.467 8.79 15.637zM190.793 90.587l-9.278-15.4-.534 1.53 9.186 15.448zM194.93 103.504l-18.923-32.321-.48 1.473 18.736 32.41z" fill="#000000" opacity="1" data-original="#000000"></path><path d="M259.694 0h-10v.16L160.949 53.44l-.529.425v218.885l.53.425 88.744 53.278v.16h10V0zm-96.645 267.34V59.277l81.001-43.655v295.375z" fill="#000000" opacity="1" data-original="#000000"></path><path d="m214.04 59.184 10.906 19.401.743-1.87-11.015-19.352zM229.084 68.16 217.57 49.051l-.662 1.9 11.397 19.167zM234.217 84.188l-23.48-40.104-.596 1.827 23.248 40.215zM71.431 236.159a15.066 15.066 0 0 1-6.26-.707 15.064 15.064 0 0 1-5.123.998 15.36 15.36 0 0 1-2.428-.145l-15.398-2.152-12.829 44.591v12.157h67.531v-26.867l-6.173-29.704zM85.044 293.402h10.63v2.814h-10.63zM30.644 293.402h10.63v2.814h-10.63z" fill="#000000" opacity="1" data-original="#000000"></path><path d="M22.964 208.177a12.211 12.211 0 0 0-3.511 5.654L.48 279.778c-1.87 6.501 1.883 13.288 8.386 15.159 1.212.349 2.435.502 3.633.478 5.228-.103 10.004-3.575 11.526-8.864l16.033-55.73 17.976 2.513c2.51.35 4.948-.086 7.066-1.12 1.838.8 3.9 1.164 6.045.959l21.996-2.082 11.489 55.278c1.219 5.865 6.444 9.871 12.223 9.757a12.24 12.24 0 0 0 2.264-.257c6.623-1.376 10.877-7.862 9.5-14.486l-13.72-66.015a12.205 12.205 0 0 0-1.798-4.291c-.634 4.903-1.322 8.1-1.423 8.555-1.038 4.676-5.264 8.07-10.048 8.07-.53 0-1.068-.042-1.598-.125-.682-.107-12.148-1.913-23.228-4.378a20.5 20.5 0 0 1-11.34 3.414c-11.375 0-20.63-9.255-20.63-20.63s9.255-20.63 20.63-20.63c10.742 0 19.583 8.253 20.537 18.75 1.413.288 2.818.565 4.188.828l.486-1.23 2.955-7.48c.11-4.262-.02-8.852-.622-13.398l2.257-.326c1.272 9.542.568 19.24-.243 25.668a413.175 413.175 0 0 1-8.95-1.703c-.138 5.921-2.779 11.222-6.907 14.903 10.384 2.236 20.583 3.84 21.222 3.94a8.002 8.002 0 0 0 9.045-6.171c.251-1.134 4.232-19.644 1.602-38.917-.53-3.888-1.322-7.805-2.476-11.618a25.352 25.352 0 0 1-21.942 7.366 25.627 25.627 0 0 1-5.672-1.53c-6.33-2.513-11.304-7.341-14.003-13.595-2.7-6.253-2.801-13.183-.287-19.514.029-.073.065-.141.095-.214l-.008-.001-35.045-1.617a7.994 7.994 0 0 0-8.351 7.471l-3.538 54.316a7.957 7.957 0 0 0 1.137 4.65 8.041 8.041 0 0 0 2.02 2.246zm28.233-51.767-14.889 37.688 2.492-38.26z" fill="#000000" opacity="1" data-original="#000000"></path><path d="M82.05 171.647c11.55 4.586 24.63-1.06 29.215-12.61s-1.06-24.629-12.61-29.214c-11.55-4.586-24.629 1.06-29.214 12.61-4.586 11.55 1.059 24.629 12.61 29.214zm-1.245-17.086c9.27 5.924 24.158 3.146 24.158 3.146-14.648 16.755-24.158-3.146-24.158-3.146zM83.095 205.982c0-9.737-7.894-17.63-17.63-17.63s-17.631 7.893-17.631 17.63c0 9.737 7.893 17.63 17.63 17.63s17.63-7.893 17.63-17.63zm-17.63-8.3a8.3 8.3 0 1 1 0 16.6 8.3 8.3 0 0 1 0-16.6z" fill="#000000" opacity="1" data-original="#000000"></path><path d="M65.464 202.494a3.488 3.488 0 1 0 0 6.977 3.488 3.488 0 0 0 0-6.977z" fill="#000000" opacity="1" data-original="#000000"></path></g></svg>