<svg xmlns="http://www.w3.org/2000/svg" version="1.1" xmlns:xlink="http://www.w3.org/1999/xlink" width="512" height="512" x="0" y="0" viewBox="0 0 512 512" style="enable-background:new 0 0 512 512" xml:space="preserve" class=""><g><path d="M405.916 122.335H106.084c-24.767 0-44.916 20.149-44.916 44.917v299.833c0 24.767 20.149 44.916 44.916 44.916h299.832c24.767 0 44.916-20.149 44.916-44.916V167.251c0-24.767-20.149-44.916-44.916-44.916zM111.167 477.581c-8.605 0-15.581-6.976-15.581-15.581s6.976-15.581 15.581-15.581 15.581 6.976 15.581 15.581-6.976 15.581-15.581 15.581zm0-289.665c-8.605 0-15.581-6.976-15.581-15.581s6.976-15.581 15.581-15.581 15.581 6.976 15.581 15.581-6.976 15.581-15.581 15.581zm232.248 72.452c0 8.284-6.716 15-15 15h-144.83c-8.284 0-15-6.716-15-15v-83.033c0-8.284 6.716-15 15-15h144.83c8.284 0 15 6.716 15 15zm57.418 217.213c-8.605 0-15.581-6.976-15.581-15.581s6.976-15.581 15.581-15.581 15.581 6.976 15.581 15.581-6.976 15.581-15.581 15.581zm0-289.665c-8.605 0-15.581-6.976-15.581-15.581s6.976-15.581 15.581-15.581 15.581 6.976 15.581 15.581-6.976 15.581-15.581 15.581z" fill="#000000" opacity="1" data-original="#000000" class=""></path><path d="M198.585 192.335h114.83v53.033h-114.83zM285.396 93.205c-3.117 0-6.261-.968-8.953-2.975-10.963-8.172-36.418-8.248-46.958-.138-6.565 5.051-15.984 3.824-21.035-2.742-5.052-6.566-3.824-15.984 2.742-21.035 21.086-16.223 61.511-16.291 83.181-.138 6.642 4.951 8.013 14.349 3.062 20.991a14.978 14.978 0 0 1-12.039 6.037zM312.107 46.038c-3.063 0-6.154-.935-8.82-2.877-23.909-17.419-77.53-17.488-100.654-.128-6.626 4.973-16.028 3.635-21.002-2.99s-3.635-16.028 2.99-21.001C200.751 6.932 225.445 0 252.42 0h.391c26.899.066 51.736 6.96 68.143 18.913 6.695 4.878 8.169 14.261 3.291 20.957a14.987 14.987 0 0 1-12.138 6.168z" fill="#000000" opacity="1" data-original="#000000" class=""></path></g></svg>