<svg xmlns="http://www.w3.org/2000/svg" version="1.1" xmlns:xlink="http://www.w3.org/1999/xlink" width="512" height="512" x="0" y="0" viewBox="0 0 64 64" style="enable-background:new 0 0 512 512" xml:space="preserve" class=""><g><path d="M53.865 45.387c-.159-.113-6.374-13.622-6.726-14.223a1.962 1.962 0 0 0-.39-1.881c-2.44-2.16-8.387 3.42-10.74 5.554-1.036 1.1-8.213 7.714-6.005 10.49a1.939 1.939 0 0 0 1.832.46l9.248 4.864-4.484 4.304a2.458 2.458 0 0 0-.78 1.762 3.35 3.35 0 0 0 1.37 2.502 2.526 2.526 0 0 0 3.573.08l6.006-5.755c4.736 1.614 9.35-3.657 7.096-8.157zm-22.22-1.582c-.011-.887 1.985-3.88 5.745-7.526 3.815-3.627 6.822-5.383 7.777-5.445-.536 1.538-2.136 3.932-5.805 7.506-3.703 3.466-6.178 5.021-7.717 5.465zM37.337 23.897a1 1 0 0 0-.96 1.039l.152 3.88a1 1 0 1 0 2-.079l-.153-3.88a.987.987 0 0 0-1.04-.96zM26.101 34.779a1.001 1.001 0 0 0-.165 1.995l3.87.32a1.001 1.001 0 0 0 .165-1.996zM32.346 32.461a1.001 1.001 0 0 0 1.446-1.385l-2.323-2.425a1.001 1.001 0 0 0-1.445 1.385zM19.074 38.53a9.54 9.54 0 0 0-9.528 9.539c.522 12.646 18.549 12.632 19.067 0a9.543 9.543 0 0 0-9.539-9.538zm1.912 7.687v3.844a3.02 3.02 0 0 1-2.902 3.112h-.861a2.638 2.638 0 0 1 0-5.264 1.048 1.048 0 0 1 1.05 1 .964.964 0 0 1-.96 1.002c-.315-.041-.557.244-.56.63 0 .34.21.63.47.63h.86a1.022 1.022 0 0 0 .901-1.11v-6.106a1.01 1.01 0 0 1 1.692-.72 29.095 29.095 0 0 0 3.002 2.532.98.98 0 0 1 .741.43 1 1 0 0 1-.26 1.392c-.49.34-.87.6-3.173-1.372zM19.074 34.427a9.54 9.54 0 0 0 9.539-9.528c-.507-12.646-18.56-12.653-19.067 0a9.538 9.538 0 0 0 9.528 9.528zm-3.322-10.129h1.55v-1.681a3.697 3.697 0 0 1 3.694-3.694c1.034-.023 2.96.58 2.262 1.922a1.004 1.004 0 0 1-1.371.33 1.667 1.667 0 0 0-.89-.25 1.69 1.69 0 0 0-1.692 1.692v1.681h1.891a1.001 1.001 0 0 1 0 2.002h-1.891v3.573a1 1 0 1 1-2.002 0V26.3h-1.551a1.001 1.001 0 0 1 0-2.002zM40.013 23.297a9.684 9.684 0 0 0 9.668-9.678C49.155.787 30.862.8 30.334 13.619a9.692 9.692 0 0 0 9.679 9.678zm-5.375-12.47a2.58 2.58 0 0 1 2.572-2.583h5.595a2.589 2.589 0 0 1 2.582 2.582v5.595a2.58 2.58 0 0 1-2.582 2.573H37.21a2.571 2.571 0 0 1-2.572-2.573z" fill="#000000" opacity="1" data-original="#000000" class=""></path><path d="M37.21 16.992h5.595a.572.572 0 0 0 .58-.57v-5.596a.581.581 0 0 0-.58-.58H37.21a.572.572 0 0 0-.57.58v5.595a.564.564 0 0 0 .57.57zm2.803-6.116a2.748 2.748 0 0 1 0 5.495 2.748 2.748 0 0 1 0-5.495z" fill="#000000" opacity="1" data-original="#000000" class=""></path><path d="M40.013 14.37a.746.746 0 0 0 0-1.492.746.746 0 0 0 0 1.491z" fill="#000000" opacity="1" data-original="#000000" class=""></path></g></svg>