<svg xmlns="http://www.w3.org/2000/svg" version="1.1" xmlns:xlink="http://www.w3.org/1999/xlink" width="512" height="512" x="0" y="0" viewBox="0 0 60 60" style="enable-background:new 0 0 512 512" xml:space="preserve" class=""><g><path d="M15.657 30c-.87-2.013-3.84-8.87-6.743-15.406-1-2.256-1.2-4.118-.6-5.533a4.786 4.786 0 0 1 2.347-2.307l8.311 19.978A5.955 5.955 0 0 0 18 30zM38 56h6a1 1 0 0 1 1 1v1H15v-1a1 1 0 0 1 1-1zm-1-2H23a2 2 0 0 1 2-2h10a2 2 0 0 1 2 2zm-11-4v-2h8v2zm9-4H25a2 2 0 0 1-2-2h14a2 2 0 0 1-2 2zm5-4H20a4 4 0 0 1-4-4v-6h2.35a5.984 5.984 0 0 0 9.4 2.68l16.2 3.852A3.992 3.992 0 0 1 40 42zM20 30a4 4 0 1 1 4 4 4 4 0 0 1-4-4zm37.659 9.351a.979.979 0 0 1-.838.186l-27.616-6.565a5.989 5.989 0 0 0-8.723-7.822L11.654 3.926a.993.993 0 0 1 .006-.782 1.023 1.023 0 0 1 .581-.554c2.765-1 6.547-1.228 8.864 3.4 3.943 7.885 8.928 19.3 8.978 19.413a1 1 0 0 0 .659.566c.151.04 15.071 4.021 21.984 6 4.837 1.379 5.335 5.055 5.324 6.578a1.028 1.028 0 0 1-.391.804z" fill="#000000" opacity="1" data-original="#000000" class=""></path><path d="M31 13h2a1 1 0 0 1 1 1 3 3 0 0 0 3 3 1 1 0 0 1 1 1 3 3 0 0 0 3 3 1 1 0 0 1 1 1v2a1 1 0 0 0 2 0v-2a3 3 0 0 0-3-3 1 1 0 0 1-1-1 3 3 0 0 0-3-3 1 1 0 0 1-1-1 3 3 0 0 0-3-3h-2a1 1 0 0 0 0 2zM36 8h2a1 1 0 0 1 1 1 3 3 0 0 0 3 3 1 1 0 0 1 1 1 3 3 0 0 0 3 3 1 1 0 0 1 1 1v2a1 1 0 0 0 2 0v-2a3 3 0 0 0-3-3 1 1 0 0 1-1-1 3 3 0 0 0-3-3 1 1 0 0 1-1-1 3 3 0 0 0-3-3h-2a1 1 0 0 0 0 2z" fill="#000000" opacity="1" data-original="#000000" class=""></path></g></svg>