<svg xmlns="http://www.w3.org/2000/svg" version="1.1" xmlns:xlink="http://www.w3.org/1999/xlink" width="512" height="512" x="0" y="0" viewBox="0 0 512 512" style="enable-background:new 0 0 512 512" xml:space="preserve" class=""><g><path fill-rule="evenodd" d="M287.23 139.5c0 5.35 4.37 9.7 9.8 9.7h52.43c1.55 0 3.06.62 4.21 1.72l14.66 14.37V155.2c0-3.31 2.69-6 6-6h5.43c5.39 0 9.8-4.35 9.8-9.7V86.98c0-5.35-4.41-9.71-9.8-9.71H330.1v15.88c0 11.97-9.8 21.7-21.8 21.7h-21.07zm21.15 175.17H202.59c-3.31 0-6-2.69-6-6 0-3.32 2.69-6 6-6h38.86a4.914 4.914 0 0 1 2.32-9.25h124.1c3.09 0 5.81-2.09 6.65-5.11l32.09-119.85c.33-1.25 1.17-2.31 2.3-2.97 1.17-.65 2.48-.84 3.75-.5s2.3 1.16 2.95 2.29c.66 1.15.84 2.47.52 3.73l-35.26 131.66h45.37c3.31 0 6 2.68 6 6 0 3.31-2.69 6-6 6H320.38v180.25c0 3.31-2.69 6-6 6s-6-2.69-6-6zM203.2 404.29h-69.17c-26.3 0-47.69-21.39-47.69-47.68v-69.17c0-3.32-2.69-6-6-6s-6 2.68-6 6v69.17c0 20.65 10.53 38.88 26.5 49.59l-11.72 85.07a6.002 6.002 0 0 0 5.14 6.77c.29.04.53.06.82.06 2.94 0 5.51-2.18 5.92-5.19l5.06-36.71h91.18l.04 38.73a5.97 5.97 0 0 0 6 5.99c3.31 0 6-2.69 6-6.01l-.08-84.63c-.04-3.31-2.7-5.99-6-5.99zm-69.17 12c-7.72 0-15.11-1.49-21.89-4.16l-4.41 32.07h89.46v-27.91zm21.93-228.21H131.3c-8.53 0-15.48 6.94-15.48 15.47V353.8c0 13.64 11.11 24.74 24.74 24.74h80.89c3.31 0 6 2.68 6 6v77.54c0 15.83 12.33 24.36 23.97 24.36 5.76 0 11.02-2.07 14.78-5.83 4.45-4.43 6.82-11.18 6.82-19.5v-92.69c0-18.59-14.09-34.15-31.44-34.74h-64.15c-3.31 0-6-2.68-6-6v-61.53l-20.29-24.79c-2.08-2.57-1.71-6.35.86-8.45s6.33-1.72 8.41.85l26.83 32.75c6.66 8.16 36.38 11.68 52.35 13.57 4.86.57 9.02 1.06 12.41 1.59 14.37 2.27 22.13-3.54 23.27-9.89 1.14-6.39-4.29-14.59-18.9-17.51l-36.71-7.35c-15.88-3.18-30.5-23.35-42.26-39.57-2.53-3.45-4.9-6.72-6.9-9.3-.24-.32-.49-.66-.65-1.02-2.71-5.35-8.26-8.95-13.89-8.95zm27.27-63.34c0-18.49-15.03-33.53-33.52-33.53-18.5 0-33.52 15.04-33.52 33.53 0 18.48 15.03 33.52 33.52 33.52s33.52-15.04 33.52-33.52zm72.64-21.89c-1.55 0-3.06.62-4.21 1.72L237 118.94v-10.09c0-3.31-2.69-6-6-6h-5.43c-5.43 0-9.8-4.35-9.8-9.7V40.62c0-5.35 4.37-9.7 9.8-9.7h82.72c5.43 0 9.8 4.35 9.8 9.7v52.53c0 5.35-4.37 9.7-9.8 9.7zm33.52-19.4h-54.1c-3.35 0-6-2.68-6-6 0-3.31 2.65-6 6-6h54.1c3.31 0 6 2.69 6 6 .01 3.32-2.69 6-6 6zm6.17-24c3.31 0 6-2.69 6-6 0-3.32-2.69-6-6-6h-60.27c-3.35 0-6 2.68-6 6 0 3.31 2.65 6 6 6z" clip-rule="evenodd" fill="#000000" opacity="1" data-original="#000000" class=""></path></g></svg>