<svg xmlns="http://www.w3.org/2000/svg" version="1.1" xmlns:xlink="http://www.w3.org/1999/xlink" width="512" height="512" x="0" y="0" viewBox="0 0 512 512" style="enable-background:new 0 0 512 512" xml:space="preserve" class=""><g><path d="m273 176.6 6.8-38.8c.4-3 3.5-5.2 6.5-4.6 25 4.5 76.2 13.7 101.3 18.2 1.5.3 2.8 1.3 3.6 2.5s1.1 2.6.8 4l-6.8 38.8c-.5 3-3.3 5.1-6.3 4.5L315.6 190l-38.1-6.9c-3-.4-5-3.6-4.5-6.5zm141 27.7c.1 0 .1-.1 0 0 .5-.7.8-1.3.9-2.1l6.8-38.8c.6-3-1.6-6.1-4.6-6.6l-13.1-2.3c1.2 2.7-6.5 40.8-6.9 44.5-.3 1.9-1 3.6-1.9 5.4l13.1 2.3c2.2.3 4.5-.6 5.7-2.4zm43.5-22.2-25.1-9.4-4.2 23.8 27-1.8zm12.4-.9-2.7 14.6c7.9.3 15.2-6.1 16.8-15.2.8-4.4.1-8.8-1.8-12.4-3.8 4.6-7.9 9-12.3 13zm-181.5-60 44.2 8c8.6-6.2 11.4-12.5 19.4-18.6 16.1-12.6 41.2-13.6 74.8-3 20.1 13.8 33.5 35.7 40.8 59 3.5-3.6 6.8-7.6 9.6-11.6 21.2-28.7 26.1-62.5 12.1-84.1-9.7-15-26.7-20.9-36-23-1.4-.4-2.7-1.2-3.6-2.4-68-90.7-185.4-35-162.4 75.6.3-.1.7 0 1.1.1zm144.4 35.4c.1.4.7 3.5.8 3.5l21.7 8.1c-6.4-18.8-17.6-36.6-33.3-49.4-37.6-10.8-56.4-9.5-74.1 12.9l71.3 12.9c6.3 1.2 11.5 5.9 13.6 12zm19 50.7-26.7 1.8c-3.3 7-11.4 11-19 9.7l-29.5-5.3c-15.3-2.8-64.6-11.7-79.1-14.3 4.6 25.8 19.6 49.4 40.9 64.2 42.1 30.1 100.2-13.2 113.4-56.1zm-101.2 76.3v6.1c-.1 10.3 7.9 19.2 18.2 19.5 10.1.5 18.7-7.7 19.3-18 .2-.5.2-7.4.2-8.1-12.4 3.6-25.5 4.4-37.7.5zm-6 191.2c-19.9-3.9-39.5-10.4-57.6-19.4v55.4c26.1.2 90.3-.2 117.5-.1l-39.1-25.6c-8.3 3.9-15.1-5.9-20.8-10.3zm41.5-43.2-4.8-1.6-25.8 38.1 5.5 4.8zm-69.5-10.7c1.8-2.9 5.6-3.6 8.4-1.8 10.2 7.7-13.5 25.6-22.6 29.9 13.6 5.8 27.8 10.4 42.3 13.3l27.6-40.6c-9.7-30.5-35.9-51.9-64.5-51.9-22.9 0-50.6 13-58.4 35.4-6.7 22.1-.3 40 22 39.4 12.5-.3 22.3-3.9 32-10.2 6.7-4.7 10.8-9.9 13.2-13.5zm83-125.1c-7.3 33.7-53.4 34.1-60.5 0-50-2.6-78.9 35.9-107.7 71l-47 54.4c-2.2 2.6-6.3 2.8-8.7.4l-25-24.1c-7.3 7.1-18.8 18.1-26 25.1l41.2 50.4c7 8.5 19.1 9.8 27.6 3 14.8-11.8 30.1-22.7 46.7-34.4-21.3-46.1 25.2-84.9 67.8-84.1 33.8 0 64.5 24.9 75.8 60.4l8.4 2.7c5.3 1.5 8.5 7.7 6.6 13l20 6.7c.5-16.3 5.1-32.4 13.4-46.4 1.7-2.9 5.4-3.9 8.3-2.1 2.8 1.8 3.8 5.5 2.1 8.5-4.3 7.3-7.4 15.2-9.4 23.5-1.9 8.1-2.6 16.5-2.1 24.8.1 2-.7 4-2.4 5.2-1.5 1.3-3.7 1.6-5.6 1l-30.5-10.2-19.1 31.4c3.1 1.8 54.1 36.2 55.8 35.2 10.2 3.2 21.6-2.1 26.7-11.6 12.5-22.6 11.5-21.6 19-39.6 13.3-31.1 27-63.3 18.5-96.3-10.3-41.4-52-70.3-93.9-67.9zm-256 84.8c-8.6 7.4-26.1 22.6-34.6 30.1l4.1 6.2c11.4-10.8 23.4-22.8 34.8-33.5zm-54.7-77c-22.2-6.5-53.1-1.2-66.4 18.7-7.2 10.7-10.6 27.2-4.1 34.7 10.5 12.3 33.9 12.9 48.8 7.4 5.9-2.1 11.4-5.3 16.3-9.6 2.5-2.2 6.3-1.9 8.5.7 7.9 10.8-21.9 21.6-29.5 23 11.7 9.2 24.2 17.1 37.5 23.8 6.6-5.7 29.9-26 36.9-32.1-1.6-31.5-21-58.7-48-66.6z" fill="#000000" opacity="1" data-original="#000000"></path></g></svg>