<svg xmlns="http://www.w3.org/2000/svg" version="1.1" xmlns:xlink="http://www.w3.org/1999/xlink" width="512" height="512" x="0" y="0" viewBox="0 0 512 512" style="enable-background:new 0 0 512 512" xml:space="preserve" class=""><g><path d="M483.089 96.821c1.003 1.11 2.712 1.174 3.769.116l19.208-19.208c2.781-2.8 2.781-7.373-.011-10.184l-8.325-8.325c-2.802-2.783-7.377-2.779-10.184.011l-19.594 19.594c-1.098 1.098-.983 2.884.224 3.862a132.228 132.228 0 0 1 14.913 14.134zM288.773 92.179V72.127a5.173 5.173 0 0 0-5.172-5.172H9.021a5.173 5.173 0 0 0-5.172 5.172v375.758a5.173 5.173 0 0 0 5.172 5.172H283.6a5.173 5.173 0 0 0 5.172-5.172v-19.844c0-.035-.011-.069-.011-.104s.011-.069.011-.104V277.167c0-2.688-1.013-5.253-2.76-7.296-19.629-22.942-31.5-52.709-31.5-85.198s11.871-62.256 31.5-85.198c1.748-2.043 2.761-4.608 2.761-7.296zm-130.46 1.144c22.071 0 40.028 17.957 40.028 40.029s-17.957 40.029-40.028 40.029-40.028-17.957-40.028-40.029c-.001-22.072 17.957-40.029 40.028-40.029zm116.949 300.736a4.596 4.596 0 0 1-4.596 4.596h-60.631a4.595 4.595 0 0 1-4.596-4.584l-.172-68.202-52.828.082-37.016 36.867c-5.032 5.032-11.953 7.841-19.106 7.865l-41.063-.083a33.683 33.683 0 0 1-33.298 28.055 4.596 4.596 0 0 1-4.596-4.596v-60.63a4.596 4.596 0 0 1 4.596-4.596h68.692l24.985-24.819 1.36-17.738-45.26-24.861c-4.744-2.625-7.942-7.363-8.57-12.68-.666-5.285 1.291-10.643 5.242-14.298l53.32-50.781c3.414-3.248 7.9-5.036 12.638-5.036h22.762c.224 0 .447.017.669.049 15.733 2.314 26.993 16.939 25.633 33.297l-5.933 72.405 48.434-.083c11.474 0 20.833 9.312 20.871 20.757l.2 55.681c16.165 2.609 28.263 16.485 28.263 33.333zM393.447 49.942V26.749a4.596 4.596 0 0 1 4.596-4.596h13.35c5.294 0 10.117-3.57 11.188-8.754 1.471-7.116-3.967-13.4-10.85-13.4h-51.707c-5.281 0-10.084 3.576-11.134 8.752-1.445 7.121 3.986 13.401 10.858 13.401h13.688c1.27 0 2.419.515 3.249 1.346a4.59 4.59 0 0 1 1.347 3.25v23.193c0 2.042 1.704 3.644 3.745 3.575a115.84 115.84 0 0 1 3.962-.07c1.327 0 2.648.025 3.963.07 2.041.07 3.745-1.532 3.745-3.574z" fill="#000000" opacity="1" data-original="#000000" class=""></path><circle cx="158.308" cy="133.368" r="30.838" transform="translate(-.718 .857)" fill="#000000" opacity="1" data-original="#000000" class=""></circle><path d="m237.824 364.91-.215-59.834c-.021-6.395-5.258-11.597-11.673-11.597l-53.423.092h-.007c-.064 0-.126-.017-.188-.019-.063-.003-.124.009-.187.004-.093-.008-.178-.037-.269-.05a4.471 4.471 0 0 1-.467-.086 4.538 4.538 0 0 1-.425-.132c-.142-.051-.281-.104-.417-.168s-.265-.136-.393-.213a4.464 4.464 0 0 1-.364-.238 4.702 4.702 0 0 1-.344-.283c-.109-.098-.214-.197-.313-.304s-.19-.22-.278-.336a4.654 4.654 0 0 1-.254-.365 4.562 4.562 0 0 1-.208-.383 4.832 4.832 0 0 1-.181-.409 4.812 4.812 0 0 1-.135-.432 4.7 4.7 0 0 1-.096-.43 4.428 4.428 0 0 1-.049-.477c-.005-.09-.027-.175-.027-.265 0-.065.017-.125.018-.188.003-.066-.009-.129-.003-.195l6.343-77.389c.95-11.429-6.715-21.639-17.495-23.399h-22.409a9.086 9.086 0 0 0-6.299 2.502l-53.368 50.825c-1.828 1.691-2.709 4.097-2.408 6.483a7.598 7.598 0 0 0 3.885 5.745l47.842 26.28.001.001 7.689 4.228a7.652 7.652 0 0 0 4.123.882 7.607 7.607 0 0 0 6.156-3.92c2.015-3.707.679-8.294-3.058-10.415L98.279 248.22a4.597 4.597 0 0 1-.918-7.407l43.142-39.863a4.596 4.596 0 0 1 6.232 6.756l-38.438 35.512 35.107 19.18c8.066 4.579 11.018 14.82 6.642 22.864-2.791 5.046-7.864 8.276-13.586 8.669a16.892 16.892 0 0 1-9.137-1.975l-1.479-.814-1.171 15.283a4.593 4.593 0 0 1-1.343 2.909l-27.55 27.355a4.6 4.6 0 0 1-3.239 1.335h-65.99v51.014c11.052-2.072 19.48-11.495 19.972-23.151v-.081a4.596 4.596 0 0 1 4.596-4.596c.434 0 .845.079 1.242.191l43.99.089c4.679-.001 9.265-1.864 12.581-5.18l38.364-38.211a4.596 4.596 0 0 1 3.243-1.34l59.305-.092h.007c2.533 0 4.59 2.05 4.596 4.584l.172 68.209h51.03c-2.076-11.162-11.599-19.61-23.373-19.977a4.59 4.59 0 0 1-4.452-4.573zM378.682 189.58c4.175 3.057 10.06 2.15 13.122-2.028l35.611-48.631-48.727 35.507a9.765 9.765 0 0 0-2.036 2.034c-3.056 4.174-2.146 10.059 2.03 13.118zM9.021 462.248a5.173 5.173 0 0 0-5.172 5.172v5.911c0 21.117 17.206 38.296 38.358 38.296h208.209c21.151 0 38.358-17.179 38.358-38.296v-5.911a5.173 5.173 0 0 0-5.172-5.172zM288.773 52.591V46.71c0-21.167-17.16-38.327-38.327-38.327H47.379c-24.041 0-43.53 19.489-43.53 43.53v.678a5.173 5.173 0 0 0 5.172 5.172H283.6a5.171 5.171 0 0 0 5.173-5.172z" fill="#000000" opacity="1" data-original="#000000" class=""></path><path d="M385.739 306.708c67.291 0 122.036-54.745 122.036-122.035S453.029 62.638 385.739 62.638s-122.035 54.745-122.035 122.035 54.744 122.035 122.035 122.035zm-.163-222.498c.049-.001.097-.015.148-.015.048 0 .091.013.139.014 54.65.066 99.187 43.998 100.291 98.403.001.04.012.077.012.117 0 .024-.006.046-.007.07.012.625.048 1.245.048 1.872 0 55.398-45.07 100.467-100.468 100.467l-.015.001-.025-.002c-55.38-.022-100.426-45.082-100.426-100.466 0-.628.036-1.247.048-1.872 0-.024-.007-.046-.007-.07 0-.04.011-.078.012-.117 1.103-54.391 45.618-98.314 100.25-98.402z" fill="#000000" opacity="1" data-original="#000000" class=""></path><path d="M309.133 178.135a4.596 4.596 0 1 1 0 9.192h-14.602c1.369 47.569 39.28 86.14 86.597 88.506v-16.479a4.596 4.596 0 1 1 9.192 0v16.48c47.33-2.351 85.26-40.928 86.629-88.507h-14.602a4.596 4.596 0 1 1 0-9.192h14.409c-3.258-45.778-40.401-82.335-86.436-84.621v12.625a4.596 4.596 0 1 1-9.192 0V93.514c-46.021 2.301-83.146 38.853-86.404 84.621zm60.106-7.106a19.132 19.132 0 0 1 3.996-4l.018-.013 48.632-35.613a9.207 9.207 0 0 1 6.889-1.681 9.202 9.202 0 0 1 6.06 3.682 9.233 9.233 0 0 1 .001 10.944l-35.614 48.635c-3.637 4.963-9.29 7.595-15.016 7.595-3.809 0-7.65-1.164-10.952-3.582-8.266-6.053-10.066-17.702-4.014-25.967zM386.268 511.992a7.643 7.643 0 0 1-7.266-6.695L364.864 393.06c-.201-1.593-2.467-1.701-2.819-.134l-8.224 36.687a7.659 7.659 0 0 1-7.474 5.984h-61.114c-4.006 0-7.664-2.874-8.071-6.859-.467-4.581 3.131-8.459 7.618-8.459h55.434l18.27-81.495c.778-3.468 3.918-5.984 7.466-5.984a7.644 7.644 0 0 1 7.607 6.701l13.996 111.107c.201 1.598 2.48 1.699 2.821.124l13.344-61.627a7.68 7.68 0 0 1 7.478-6.038 7.658 7.658 0 0 1 7.266 5.212l10.793 32h56.171c4.006 0 7.664 2.874 8.071 6.859.467 4.581-3.131 8.459-7.618 8.459h-62.124a7.659 7.659 0 0 1-7.258-5.212l-2.959-8.776c-.202-.599-1.064-.55-1.198.067l-18.252 84.287c-.759 3.499-3.906 6.038-7.484 6.038a35.756 35.756 0 0 1-.336-.009z" fill="#000000" opacity="1" data-original="#000000" class=""></path></g></svg>