<svg xmlns="http://www.w3.org/2000/svg" version="1.1" xmlns:xlink="http://www.w3.org/1999/xlink" width="512" height="512" x="0" y="0" viewBox="0 0 495 495.383" style="enable-background:new 0 0 512 512" xml:space="preserve" class=""><g><path d="M220.883 221.402v-52.964c0-4.88-3.953-8.829-8.828-8.829s-8.828 3.95-8.828 8.828v52.965a8.829 8.829 0 0 0 17.656 0zM274.305 200.957l-8.828 26.484a8.835 8.835 0 0 0 5.597 11.172 8.836 8.836 0 0 0 11.176-5.593l8.828-26.485a8.833 8.833 0 0 0-1.777-8.656 8.83 8.83 0 0 0-8.387-2.79 8.832 8.832 0 0 0-6.61 5.868zM150.262 239.055a8.823 8.823 0 0 0 7.156-3.664 8.84 8.84 0 0 0 1.21-7.95l-8.827-26.484a8.832 8.832 0 0 0-6.61-5.867 8.833 8.833 0 0 0-8.386 2.789 8.842 8.842 0 0 0-1.778 8.656l8.828 26.485a8.828 8.828 0 0 0 8.407 6.035zM278.523 88.785a69.597 69.597 0 0 1-28.98-9.039l5.906 22.95a20.84 20.84 0 0 0 12.13 6.675 31.487 31.487 0 0 0 20.304-5.05l-7.813-10.505a8.577 8.577 0 0 1-1.547-5.03zm0 0" fill="#000000" opacity="1" data-original="#000000" class=""></path><path d="M492.77 403.004c-5.649-31.375-26.25-138.922-54.446-205.227C402.13 112.63 335.454 13.695 317.312 4.562c-19.417-9.808-135.828-3.039-171.96 13.047-34.067 15.157-30.192 54.325-23.832 89.836.98 4.922 1.71 9.89 2.187 14.883a23.807 23.807 0 0 0 11.637 1.969 19.113 19.113 0 0 0 12.047-7.777 11.135 11.135 0 0 0 3.125-7.75l-3.477-20.004a8.828 8.828 0 0 1 2.941-8.465 8.828 8.828 0 0 1 14.45 5.457l3.273 18.918a24.148 24.148 0 0 0 11.098 14.457 21.006 21.006 0 0 0 16.187-.883c-.086-.254-.289-.441-.351-.695l-8.828-37.032a8.834 8.834 0 0 1 6.543-10.64c4.742-1.13 9.503 1.8 10.636 6.543l8.36 35.082a18.449 18.449 0 0 0 11.945 6.91 23.277 23.277 0 0 0 16.258-7.883 8.939 8.939 0 0 1-.73-1.64L227.43 64.758a8.826 8.826 0 0 1 9.941-10.903 8.683 8.683 0 0 1 6.293 1.508C262.7 68.965 277.988 74 287.804 69.922a25.498 25.498 0 0 0 12.63-17.656 8.835 8.835 0 0 1 10.128-7.043 8.832 8.832 0 0 1 7.282 9.957 43.773 43.773 0 0 1-21.93 30.277l26.05 34.992a42.922 42.922 0 0 1 8.556 24.488c.433 13.243.222 26.438 0 39.239a371.818 371.818 0 0 0 4.414 79.773 800.874 800.874 0 0 0 26.836 93.399l2.058 6.23c.024.145.043.29.05.434.15.61.224 1.234.231 1.863a9.58 9.58 0 0 1 0 1.57 8.828 8.828 0 0 1-.449 1.606 8.3 8.3 0 0 1-.601 1.57 7.96 7.96 0 0 1-.938 1.203c-.367.496-.797.95-1.27 1.352-.124.094-.175.238-.308.324a8.165 8.165 0 0 1-2.023 1.008c-.114 0-.184.133-.297.176h-.075a8.805 8.805 0 0 1-2.425.398c-.09 0-.184.043-.282.043a8.728 8.728 0 0 1-3.53-.883 8.9 8.9 0 0 1-.75-.37 8.626 8.626 0 0 1-2.852-2.403l-.063-.059c-.637-.883-63.558-88.965-119.598-99.613C152.73 257.39 76.473 304.523 75.703 305a8.847 8.847 0 0 1-8.844.309 8.838 8.838 0 0 1-4.691-7.5 8.84 8.84 0 0 1 4.152-7.817 280.648 280.648 0 0 1 52.567-24.265l-3.246-4.414a144.616 144.616 0 0 0-38.453-40.61 305.609 305.609 0 0 0-40.625-19.605c-5.122-2.18-10.235-4.352-15.254-6.602L.19 185.023v310.032h44.137a8.287 8.287 0 0 1 1.633.328l.133-.063c.496-.12 40.52-10.257 66.465-20.062a258.333 258.333 0 0 1-59.551-45.79 8.832 8.832 0 0 1 13.242-11.687c.883.996 89.297 98.727 218.79 66.074 114.6-28.867 157.007-41.578 167.265-44.792a8.478 8.478 0 0 0 2.648-1.36l34.516-26.086a8.82 8.82 0 0 0 3.3-8.613zm-216.82 47.668a215.586 215.586 0 0 1-52.243 6.93c-71.293 0-97.5-44.137-98.8-46.426-2.438-4.223-.989-9.625 3.238-12.063 4.222-2.437 9.625-.988 12.062 3.235 1.375 2.332 33.992 55.535 131.469 31.164a8.82 8.82 0 0 1 8.636 2.332 8.83 8.83 0 0 1-4.363 14.793zm0 0" fill="#000000" opacity="1" data-original="#000000" class=""></path></g></svg>