<svg xmlns="http://www.w3.org/2000/svg" version="1.1" xmlns:xlink="http://www.w3.org/1999/xlink" width="512" height="512" x="0" y="0" viewBox="0 0 450 450" style="enable-background:new 0 0 512 512" xml:space="preserve" class=""><g><path d="M42.2 17.6H71v365.7H42.2zM10 393.5h93.1v38.9H10zM379.1 17.6h28.8v365.7h-28.8zM346.9 393.5H440v38.9h-93.1zM81.1 92.5h287.8v10.2H81.1z" fill="#000000" opacity="1" data-original="#000000" class=""></path><g fill-rule="evenodd" clip-rule="evenodd"><path d="M171.7 75.1c1.1-3.9 5.1-6.2 9-5.1s6.2 5.1 5.1 9c-.1.2-19.3 66.8 8.9 98.6h60.6c28.2-31.8 9-98.4 8.9-98.6-1.1-3.9 1.2-7.9 5.1-9s7.9 1.2 9 5.1c.1.3 25.4 88.1-22.5 121.6V265c0 .4.1.8.1 1.2v123.5c0 6.1-4.9 11-11 11s-11-4.9-11-11V278.5h-17.7v111.3c0 6.1-4.9 11-11 11s-11-4.9-11-11V196.6c-47.9-33.5-22.6-121.3-22.5-121.5z" fill="#000000" opacity="1" data-original="#000000" class=""></path><circle cx="225" cy="137.9" r="26.9" fill="#000000" opacity="1" data-original="#000000" class=""></circle></g></g></svg>