<svg xmlns="http://www.w3.org/2000/svg" version="1.1" xmlns:xlink="http://www.w3.org/1999/xlink" width="512" height="512" x="0" y="0" viewBox="0 0 512 512" style="enable-background:new 0 0 512 512" xml:space="preserve" class=""><g><path d="m426.183 313.9-24.016-24.015a17.917 17.917 0 0 0-12.756-5.285 17.927 17.927 0 0 0-12.756 5.283l-85.635 85.635.001-347.617c0-4.82-1.877-9.35-5.283-12.755a17.924 17.924 0 0 0-12.756-5.284l-33.966.002c-9.946 0-18.038 8.092-18.038 18.039l-.001 347.617-85.635-85.637a17.924 17.924 0 0 0-12.755-5.283 17.927 17.927 0 0 0-12.755 5.283L85.815 313.9c-7.033 7.033-7.033 18.477 0 25.512l132.783 132.782c.194.214.396.426.613.645l24.018 24.016a18.041 18.041 0 0 0 7.571 4.516 18.04 18.04 0 0 0 5.213.768c4.82 0 9.35-1.876 12.755-5.282l24.019-24.017c.21-.211.413-.425.61-.643L426.185 339.41a17.925 17.925 0 0 0 5.282-12.754c0-4.817-1.877-9.347-5.284-12.756z" fill="#000000" opacity="1" data-original="#000000" class=""></path></g></svg>