<svg xmlns="http://www.w3.org/2000/svg" version="1.1" xmlns:xlink="http://www.w3.org/1999/xlink" width="512" height="512" x="0" y="0" viewBox="0 0 512 512" style="enable-background:new 0 0 512 512" xml:space="preserve" class=""><g><path d="M121.041 154.696c-8.146-12.551-12.529-27.235-12.529-42.638 0-20.991 8.112-40.664 22.843-55.394s34.403-22.843 55.395-22.843 40.663 8.112 55.395 22.843l11.198 11.198a5.999 5.999 0 0 0 8.484 0l11.198-11.198c14.731-14.73 34.404-22.843 55.395-22.843s40.664 8.112 55.395 22.843 22.843 34.403 22.843 55.394c0 15.403-4.384 30.087-12.529 42.638H345.67l-15.335-56.752a6 6 0 0 0-11.76.95l-6.733 65.394-22.31-78.004a6.002 6.002 0 0 0-6.015-4.345 6.002 6.002 0 0 0-5.639 4.823l-23.877 119.864-36.306-91.145a6 6 0 0 0-5.383-3.777 5.982 5.982 0 0 0-5.612 3.426l-18.765 39.567h-66.894zm214.241 7.565-8.089-29.935-6.603 64.125a6 6 0 0 1-11.737 1.035l-24.049-84.084-22.996 115.441a6.001 6.001 0 0 1-11.459 1.048l-38.709-97.18-14.491 30.556a6 6 0 0 1-5.421 3.429h-61.094c.243.25.473.509.72.756l126.229 126.229 126.229-126.229c.247-.247.477-.507.72-.756h-43.459a6 6 0 0 1-5.792-4.435zm-228.338-7.565h.15s-.123-.087-.15 0zm227.763 235.308a2720.337 2720.337 0 0 1-10.143 4.521l-.007-.015c-4.916 10.313-15.438 17.458-27.599 17.458h-67.977c-.104 0-.206-.003-.31-.008-3.698-.191-7.174-.345-10.436-.489-30.74-1.361-47.673-2.111-50.062-29.396a6 6 0 0 1 11.955-1.046c1.38 15.77 6.141 17.015 38.638 18.454 3.243.144 6.696.296 10.368.485h67.822c10.233 0 18.559-8.331 18.559-18.572s-8.325-18.565-18.559-18.565h-67.977c-19.002-.06-33.188-7.351-48.982-25.167q-4.766-5.376-18.263-5.376h-56.096v102.393c20.366 5.03 39.046 9.692 55.642 13.835 30.974 7.732 55.439 13.84 74.096 18.158 40.229 9.31 50.337 5.353 79.185-9.82.041-.022.082-.043.124-.063 97.689-48.52 154.122-75.292 172.565-83.957-32.212-36.659-101.404-5.708-152.546 17.17zM91.772 305.685H24.398a1.893 1.893 0 0 0-1.869 1.868v152.409c0 1.012.855 1.868 1.869 1.868h67.374a1.893 1.893 0 0 0 1.869-1.868V307.553a1.893 1.893 0 0 0-1.869-1.868zm405.812-150.989h-89.51c-3.131 6.479-7.727 12-7.727 12h97.237a6 6 0 0 0 0-12zm-387.163 5.777-4.086-5.777H17.584a6 6 0 0 0 0 12h97.237a322.943 322.943 0 0 1-4.4-6.223z" fill="#000000" opacity="1" data-original="#000000" class=""></path></g></svg>