<svg xmlns="http://www.w3.org/2000/svg" version="1.1" xmlns:xlink="http://www.w3.org/1999/xlink" width="512" height="512" x="0" y="0" viewBox="0 0 512 512" style="enable-background:new 0 0 512 512" xml:space="preserve" class=""><g><path d="M247.3 433H164v-30h75.469c-1.63-9.34-2.649-19.32-2.93-30H164v-30h75.672c2.777-10.5 7.297-20.762 13.36-30.238H164v-30h90.21v28.199c2.75-4.133 5.802-8.11 9.118-11.871 8.73-9.88 18.8-17.77 29.953-23.442 12.578-6.398 25.86-9.648 39.48-9.648 9.626 0 18.75 1.207 27.239 3.55V91.72h-60v70.61H60v-70.61H0V512h300.656c-15.664-15.645-39.562-40.121-53.355-79zM164 222.625h90.21v30H164zM134 433h-30v-30h30zm0-60h-30v-30h30zm0-59.668h-30v-30h30zm0-60.707h-30v-30h30zm0 0" fill="#000000" opacity="1" data-original="#000000" class=""></path><path d="M270 91.719V62.14h-42.602V48.07c0-12.837-5-24.907-14.082-33.985C204.234 5.004 192.164 0 179.328 0c-26.504 0-48.066 21.563-48.066 48.07v14.07H90v70.188h180zM197.398 62.14h-36.14V48.07c0-9.966 8.105-18.071 18.07-18.071 4.82 0 9.36 1.883 12.774 5.297a17.945 17.945 0 0 1 5.296 12.773zM486.348 315.184C473.949 302.809 457.73 296 440.664 296h-.129c-13.969.027-27.008 4.105-37.863 11.05v-4.722C402.672 285.055 416.727 271 434 271v-30c-33.816 0-61.328 27.512-61.328 61.328v4.719A70.255 70.255 0 0 0 360 300.664v-.074c-7.797-3.371-16.95-4.59-27.238-4.59-36.762 0-66.313 37.5-66.313 71.059 0 73.27 40.121 108.132 60.942 129.25C335.949 505 346.03 512 358.14 512c.62 0 1.242-.05 1.859-.129v-.098c.176.004.352.008.527.016.266-.043.536-.074.801-.129v.14c3.414-.019 6.848-.679 10.215-1.968h.004c9.371-3.59 19.582-3.746 28.754-.45a40.965 40.965 0 0 0 13.879 2.423c13.484 0 26.273-6.27 36.984-18.137 2.254-2.496 4.73-5.11 7.352-7.871 21.214-22.371 50.27-53.004 50.27-113.367 0-22.477-7.97-42.809-22.438-57.246zm0 0" fill="#000000" opacity="1" data-original="#000000" class=""></path></g></svg>