<svg xmlns="http://www.w3.org/2000/svg" version="1.1" xmlns:xlink="http://www.w3.org/1999/xlink" width="512" height="512" x="0" y="0" viewBox="0 0 440.965 440.965" style="enable-background:new 0 0 512 512" xml:space="preserve" class=""><g><path d="M341.508 36.207A220.151 220.151 0 0 0 220.587.154C98.892.271.235 98.832 0 220.527a215.892 215.892 0 0 0 36.48 120.32L.853 426.18c-2.189 5.469.47 11.677 5.939 13.867a10.672 10.672 0 0 0 7.928 0l85.333-35.627c101.679 66.676 238.158 38.3 304.834-63.379s38.3-238.158-63.379-304.834zm-120.707 383.36h-.213v.213h-.001a200.961 200.961 0 0 1-113.28-36.053 10.673 10.673 0 0 0-5.973-1.92 10.47 10.47 0 0 0-4.053 0l-66.774 28.587 27.947-66.56a10.666 10.666 0 0 0-1.067-10.24 194.766 194.766 0 0 1-36.053-113.067c-.118-110.045 88.995-199.349 199.04-199.467 110.044-.118 199.349 88.995 199.467 199.04.118 110.045-88.995 199.349-199.04 199.467z" fill="#000000" opacity="1" data-original="#000000" class=""></path><path d="M288.514 162.764c-4.633-33.756-33.865-58.657-67.927-57.864-36.795-.118-66.752 29.552-66.987 66.347 0 5.891 4.776 10.667 10.667 10.667s10.667-4.776 10.667-10.667c.471-25.209 21.289-45.263 46.499-44.792 25.21.471 45.263 21.289 44.792 46.499-.465 24.874-20.759 44.796-45.637 44.8-5.891 0-10.667 4.776-10.667 10.667v47.787c0 5.891 4.776 10.667 10.667 10.667s10.667-4.776 10.667-10.667v-37.973c36.652-5.029 62.288-38.819 57.259-75.471z" fill="#000000" opacity="1" data-original="#000000" class=""></path><circle cx="219.697" cy="325.147" r="11.675" fill="#000000" opacity="1" data-original="#000000" class=""></circle></g></svg>
