<svg xmlns="http://www.w3.org/2000/svg" version="1.1" xmlns:xlink="http://www.w3.org/1999/xlink" width="512" height="512" x="0" y="0" viewBox="0 0 512 512" style="enable-background:new 0 0 512 512" xml:space="preserve" class=""><g><g fill-rule="evenodd"><path fill="#0062d9" d="m218.062 11.117-186.4 62.777c-8.604 2.897-14.149 10.616-14.149 19.695v171.754c0 111.991 116.573 158.476 200.549 213.374 83.976-54.898 200.548-101.382 200.548-213.374V93.589c0-9.079-5.545-16.798-14.149-19.695z" opacity="1" data-original="#0062d9" class=""></path><path fill="#2a92fa" d="M217.987 442.932c18.163-11.257 36.683-21.955 54.899-33.114 54.026-33.093 115.478-73.804 115.478-144.475V100.389L218.062 43.032 47.759 100.388v164.955c0 21.087 5.096 40.272 15.867 58.408 29.486 49.649 101.39 86.792 154.361 119.181z" opacity="1" data-original="#2a92fa"></path><path fill="#4eb1fc" d="M218.062 442.886c18.139-11.24 36.633-21.925 54.825-33.068 54.026-33.093 115.478-73.804 115.478-144.475V100.389L218.062 43.032z" opacity="1" data-original="#4eb1fc"></path><path fill="#fcdb35" d="M213.062 79.269a5 5 0 0 1 10 0v15.424a5 5 0 0 1-10 0zm-121 111.708a4.98 4.98 0 0 1 0-9.96l17.644-.029a4.98 4.98 0 0 1 0 9.96zm40.111-81.665a4.978 4.978 0 0 1 7.382-6.68l10.418 11.528a4.979 4.979 0 0 1-7.382 6.68zm211.889 71.705a4.98 4.98 0 0 1 0 9.96l-17.643-.029a4.98 4.98 0 0 1 0-9.96zm-47.493-78.384a4.978 4.978 0 0 1 7.382 6.68l-10.418 11.528a4.978 4.978 0 0 1-7.382-6.68zM262.139 338.371c0 8.501-6.956 15.457-15.457 15.457h-56.916c-8.501 0-15.457-6.956-15.457-15.457v-30.433c0-42.541-43.915-54.491-43.915-111.661 0-52.454 43.915-78.681 87.831-78.681s87.831 26.227 87.831 78.681c0 57.171-43.915 69.121-43.915 111.661v30.433z" opacity="1" data-original="#fcdb35"></path><path fill="#ffeb87" d="M262.139 338.371c0 8.501-6.956 15.457-15.457 15.457h-39.461c-8.501 0-15.457-6.956-15.457-15.457v-34.422c0-42.541-43.915-54.491-43.915-111.661 0-39.169 24.488-63.71 55.177-73.631a109.56 109.56 0 0 1 15.198-1.061c43.915 0 87.831 26.227 87.831 78.681 0 57.171-43.915 69.121-43.915 111.661v30.433z" opacity="1" data-original="#ffeb87"></path><path fill="#495586" d="M194.733 331.598h46.98v30.824c0 6.505-5.325 11.83-11.83 11.83h-23.32c-6.505 0-11.83-5.323-11.83-11.83z" opacity="1" data-original="#495586"></path><path fill="#5d689e" d="M212.189 331.598h29.525v30.824c0 6.505-5.325 11.83-11.83 11.83h-10.113c-4.423-1.716-7.582-6.024-7.582-11.035v-31.618z" opacity="1" data-original="#5d689e"></path><path fill="#fda02f" d="M227.58 309.367v-59.725h-.02c0-.391.002-.779.005-1.167-3.087.494-6.215.741-9.342.741s-6.255-.247-9.342-.741c.002.388.005.775.005 1.167h-.02v59.725h-9.961v-59.725h-.019c0-1.263-.014-2.5-.038-3.716a54.428 54.428 0 0 1-4.848-1.981c-10.182-4.749-18.87-12.685-24.059-23.81-5.866-12.577-5.818-22.654-2.688-28.768 2.36-4.61 6.315-7.209 11.046-7.453 4.207-.217 8.864 1.553 13.211 5.601 7.793 7.258 15.297 22.829 17.011 48.737 3.183.643 6.441.965 9.702.965s6.519-.322 9.702-.965c1.713-25.908 9.218-41.48 17.011-48.737 4.347-4.048 9.004-5.818 13.211-5.601 4.731.244 8.686 2.843 11.046 7.453 3.13 6.114 3.178 16.191-2.687 28.768-5.189 11.125-13.877 19.061-24.059 23.81a54.551 54.551 0 0 1-4.848 1.981 180.66 180.66 0 0 0-.038 3.716h-.019v59.725h-9.96zm24.153-112.549c-5.934 5.526-11.662 17.605-13.534 38.077l.029-.014c8.15-3.801 15.091-10.125 19.215-18.966 4.423-9.483 4.766-16.341 2.883-20.019-.646-1.262-1.607-1.968-2.687-2.023-1.604-.083-3.658.851-5.906 2.944zm-53.515 38.064.029.014c-1.873-20.473-7.601-32.551-13.534-38.077-2.248-2.094-4.302-3.027-5.906-2.944-1.08.056-2.041.761-2.687 2.023-1.882 3.677-1.54 10.535 2.883 20.019 4.124 8.841 11.064 15.165 19.215 18.966z" opacity="1" data-original="#fda02f"></path><path fill="#5d689e" d="M262.138 338.371c0 8.501-6.956 15.457-15.457 15.457h-56.917c-8.501 0-15.457-6.956-15.457-15.457v-29.004h87.831z" opacity="1" data-original="#5d689e"></path><path fill="#7986bf" d="M262.138 338.371c0 8.495-6.945 15.446-15.437 15.457H207.22c-8.501 0-15.457-6.956-15.457-15.457v-29.004h70.375z" opacity="1" data-original="#7986bf"></path></g><path fill="#7986bf" d="M174.308 309.367h87.831v22.23h-87.831z" opacity="1" data-original="#7986bf"></path><path fill="#909cd1" d="M191.764 309.367h70.375v22.23h-70.375z" opacity="1" data-original="#909cd1"></path><g fill-rule="evenodd"><path fill="#e8333c" d="m444.595 397.266 39.936 84.318-31.155-9.694-15.138 28.905-31.499-87.819z" opacity="1" data-original="#e8333c"></path><path fill="#fb545c" d="m444.595 397.266 35.223 74.367-22.622-7.038-13.55 25.874-28.976-80.784z" opacity="1" data-original="#fb545c"></path><path fill="#e8333c" d="m400.254 413.022-31.382 87.861-15.176-28.885-31.142 9.735 39.823-84.37z" opacity="1" data-original="#e8333c"></path><path fill="#fb545c" d="m400.254 413.022-27.361 76.604-10.663-20.295-28.436 8.889 36.601-77.542z" opacity="1" data-original="#fb545c"></path><path fill="#f9ac00" d="M423.249 271.735c5.316 7.484 13.89 11.036 22.941 9.503 8.414-1.427 15.451.111 21.643 6.303 6.195 6.194 7.729 13.227 6.304 21.644-1.534 9.051 2.018 17.625 9.502 22.941 6.959 4.943 10.847 11.003 10.847 19.762s-3.888 14.819-10.847 19.762c-7.484 5.316-11.036 13.89-9.503 22.941 1.427 8.414-.111 15.451-6.303 21.643-6.194 6.194-13.227 7.729-21.644 6.304-9.051-1.534-17.626 2.018-22.941 9.502-4.943 6.959-11.003 10.847-19.762 10.847s-14.819-3.888-19.762-10.847c-5.316-7.485-13.89-11.036-22.941-9.503-8.414 1.427-15.451-.111-21.643-6.303-6.194-6.194-7.729-13.227-6.304-21.643 1.533-9.051-2.018-17.625-9.503-22.941-6.959-4.943-10.847-11.003-10.847-19.762s3.888-14.819 10.847-19.762c7.485-5.316 11.036-13.89 9.503-22.941-1.427-8.414.111-15.451 6.303-21.643 6.194-6.195 13.227-7.729 21.643-6.304 9.051 1.534 17.626-2.018 22.941-9.502 4.943-6.959 11.003-10.847 19.762-10.847s14.819 3.888 19.762 10.847z" opacity="1" data-original="#f9ac00"></path><path fill="#fdc72e" d="M423.249 271.735c5.316 7.484 13.89 11.036 22.942 9.503 8.414-1.427 15.451.111 21.643 6.303 6.195 6.194 7.729 13.227 6.304 21.643-1.534 9.051 2.018 17.626 9.503 22.942 6.959 4.943 10.847 11.003 10.847 19.762s-3.888 14.819-10.847 19.762c-7.485 5.316-11.036 13.89-9.503 22.942 1.427 8.414-.111 15.451-6.303 21.643-6.194 6.194-13.227 7.728-21.643 6.304-9.051-1.534-17.626 2.018-22.942 9.503-3.918 5.516-8.539 9.103-14.65 10.353-6.11-1.25-10.731-4.836-14.65-10.353-5.316-7.484-13.89-11.036-22.941-9.503-.388.066-.774.125-1.156.178-2.89-.631-5.951-.706-9.068-.178l-.118.019c-4.095-.844-7.83-2.852-11.301-6.323-6.195-6.194-7.729-13.227-6.304-21.643 1.534-9.051-2.018-17.626-9.502-22.942-6.959-4.943-10.847-11.003-10.847-19.762s3.888-14.819 10.847-19.762c7.484-5.316 11.036-13.89 9.502-22.942-1.427-8.414.111-15.451 6.304-21.643 3.472-3.472 7.208-5.48 11.303-6.323l.116.019c3.117.528 6.177.453 9.067-.178.383.053.768.113 1.157.178 9.051 1.533 17.625-2.018 22.941-9.503 3.918-5.517 8.539-9.103 14.65-10.353 6.11 1.25 10.731 4.836 14.65 10.353z" opacity="1" data-original="#fdc72e"></path></g><circle cx="411.058" cy="351.97" r="43.884" fill="#f9ac00" transform="rotate(-83.22 410.974 351.978)" opacity="1" data-original="#f9ac00"></circle><circle cx="403.487" cy="351.889" r="43.883" fill="#f3f3ff" transform="rotate(-68.16 403.338 351.975)" opacity="1" data-original="#f3f3ff"></circle></g></svg>