<svg xmlns="http://www.w3.org/2000/svg" version="1.1" xmlns:xlink="http://www.w3.org/1999/xlink" width="512" height="512" x="0" y="0" viewBox="0 0 234.683 214.82" style="enable-background:new 0 0 512 512" xml:space="preserve" class=""><g><path d="M69.754 41.761c10.641-6.413 14.064-20.238 7.65-30.879C70.991.243 57.165-3.18 46.527 3.234a22.395 22.395 0 0 0-9.636 11.89l16.808 29.423a22.41 22.41 0 0 0 16.055-2.786zM90.658 110.076H158.8c12.368 0 22.485 9.817 22.978 22.067l38.088 26.886c.089-.114.189-.214.275-.332 4.074-5.574 2.858-13.395-2.715-17.469l-25.807-18.864c.294-6.43-1.097-12.955-4.226-18.502-5.707-10.114-15.963-15.252-28.88-14.434-12.544.779-20.688-1.733-24.206-7.482-2.368-3.871-2.364-8.764-1.454-13.34l11.107-8.79a8 8 0 0 0 1.309-11.238c-.071-.09-.15-.17-.225-.256l10.506-15.179-4.985-3.451-10.992 15.881a7.962 7.962 0 0 0-5.542 1.697L103.8 71.195 81.209 53.898c-5.557-6.121-13.868-9.263-19.984-5.703-1.326.772-2.59 1.777-3.742 2.977l31.53 55.196a20.199 20.199 0 0 1 1.645 3.708zM130.5 70.47c-.545 4.31-.188 8.775 2.1 12.517 3.934 6.434 12.698 9.272 26.039 8.438 12.107-.754 21.705 4.01 27.013 13.421 2.729 4.838 4.039 10.466 4.001 16.081l-21.644-15.821a12.507 12.507 0 0 0-7.376-2.408h-40.57c-.939-1.053-2.07-2.185-3.421-3.42-3.776-2.968-7.304-6.488-10.609-10.266a7.939 7.939 0 0 0 2.813-1.407zM81.806 110.076h5.643a17.053 17.053 0 0 0-1.043-2.22l-54.56-95.515C27.188 4.188 16.804 1.354 8.651 6.012 3.692 8.845.716 13.799.182 19.08l-.018-.012-.018.304c-.016.188-.019.376-.029.565-.078 1.653-.207 5.64-.024 11.416.845 26.679 8.393 91.399 58.714 139.52v-37.794c0-12.683 10.317-23.003 22.999-23.003z" fill="#000000" opacity="1" data-original="#000000" class=""></path><path d="m227.501 168.092-45.699-32.259v41.618l26.061 18.396c7.663 5.422 18.273 3.605 23.696-4.058 5.423-7.665 3.606-18.275-4.058-23.697z" fill="#000000" opacity="1" data-original="#000000" class=""></path><circle cx="86.925" cy="136.613" r="9.875" fill="#000000" opacity="1" data-original="#000000" class=""></circle><path d="M178.725 191.82c.037-.497.076-.994.076-1.5v-57.243c0-11.046-8.954-20-20-20H81.807c-11.046 0-20 8.954-20 20v57.243c0 .506.039 1.003.076 1.5h-1.579c-.487 0-.964.04-1.435.099-5.673.708-10.065 5.537-10.065 11.401 0 6.352 5.148 11.5 11.5 11.5h120c6.352 0 11.5-5.148 11.5-11.5 0-5.864-4.392-10.693-10.064-11.401a11.542 11.542 0 0 0-1.436-.099zm-16.359-69.561v5.684h-5.684v-5.684zm-10.99 0v5.684h-5.684v-5.684zm-10.989 0v5.684h-5.684v-5.684zm-53.462-.646c8.284 0 15 6.716 15 15s-6.716 15-15 15c-8.285 0-15-6.716-15-15s6.715-15 15-15z" fill="#000000" opacity="1" data-original="#000000" class=""></path></g></svg>