<svg xmlns="http://www.w3.org/2000/svg" version="1.1" xmlns:xlink="http://www.w3.org/1999/xlink" width="512" height="512" x="0" y="0" viewBox="0 0 60 60" style="enable-background:new 0 0 512 512" xml:space="preserve" class=""><g><g fill="#c0dadc"><path d="M29 11h2v13h-2zM33.226 24.573l8.407-10.087 1.536 1.28-8.407 10.087zM37.35 28.375l10.814-2.357.426 1.954-10.815 2.357zM36.603 35.956l.798-1.834 12.29 5.348-.798 1.834zM16.816 15.744l1.536-1.28 8.406 10.087-1.536 1.28zM11.41 27.982l.426-1.954 10.814 2.358-.426 1.954zM10.312 39.474l12.29-5.348.798 1.834-12.29 5.348z" fill="#c0dadc" opacity="1" data-original="#c0dadc" class=""></path></g><circle cx="30" cy="7" r="6" fill="#13997f" opacity="1" data-original="#13997f" class=""></circle><circle cx="15" cy="12" r="6" fill="#13997f" opacity="1" data-original="#13997f" class=""></circle><circle cx="7" cy="26" r="6" fill="#13997f" opacity="1" data-original="#13997f" class=""></circle><circle cx="7" cy="42" r="6" fill="#13997f" opacity="1" data-original="#13997f" class=""></circle><circle cx="45" cy="12" r="6" fill="#13997f" opacity="1" data-original="#13997f" class=""></circle><circle cx="53" cy="26" r="6" fill="#13997f" opacity="1" data-original="#13997f" class=""></circle><circle cx="53" cy="42" r="6" fill="#13997f" opacity="1" data-original="#13997f" class=""></circle><path fill="#105ac6" d="M27 45a10 10 0 0 0-10 10v2a2 2 0 0 0 2 2h22a2 2 0 0 0 2-2v-2a10 10 0 0 0-10-10z" opacity="1" data-original="#105ac6"></path><path fill="#7c3e32" d="M21 35v-4a9 9 0 0 1 9-9 9 9 0 0 1 9 9v4z" opacity="1" data-original="#7c3e32"></path><path fill="#e8a991" d="M33 43.02V45a3 3 0 0 1-6 0v-1.98z" opacity="1" data-original="#e8a991"></path><path fill="#f9bb9d" d="M22.8 33.2a1.8 1.8 0 0 0 0 3.6l.318 1.9a4.5 4.5 0 0 0 1.917 2.992C26.253 42.515 28.036 44 30 44s3.747-1.485 4.965-2.306a4.5 4.5 0 0 0 1.917-2.994l.318-1.9a1.8 1.8 0 0 0 0-3.6 2.24 2.24 0 0 0-1.692-2.343 13.047 13.047 0 0 1-4.99-1.7.957.957 0 0 0-1.036 0 13.047 13.047 0 0 1-4.99 1.7A2.24 2.24 0 0 0 22.8 33.2z" opacity="1" data-original="#f9bb9d"></path><path fill="#ffffff" d="M29 10a1 1 0 0 1-.707-.293l-1-1a1 1 0 1 1 1.414-1.414l.185.185L31.2 4.4a1 1 0 1 1 1.6 1.2l-3 4a1 1 0 0 1-.729.4zM14 15a1 1 0 0 1-.707-.293l-1-1a1 1 0 0 1 1.414-1.414l.185.185L16.2 9.4a1 1 0 1 1 1.6 1.2l-3 4a1 1 0 0 1-.729.4zM6 29a1 1 0 0 1-.707-.293l-1-1a1 1 0 0 1 1.414-1.414l.185.185L8.2 23.4a1 1 0 0 1 1.6 1.2l-3 4a1 1 0 0 1-.729.4zM6 45a1 1 0 0 1-.707-.293l-1-1a1 1 0 0 1 1.414-1.414l.185.185L8.2 39.4a1 1 0 1 1 1.6 1.2l-3 4a1 1 0 0 1-.729.4zM44 15a1 1 0 0 1-.707-.293l-1-1a1 1 0 0 1 1.414-1.414l.185.185L46.2 9.4a1 1 0 1 1 1.6 1.2l-3 4a1 1 0 0 1-.729.4zM52 29a1 1 0 0 1-.707-.293l-1-1a1 1 0 0 1 1.414-1.414l.185.185L54.2 23.4a1 1 0 1 1 1.6 1.2l-3 4a1 1 0 0 1-.729.4zM52 45a1 1 0 0 1-.707-.293l-1-1a1 1 0 0 1 1.414-1.414l.185.185L54.2 39.4a1 1 0 1 1 1.6 1.2l-3 4a1 1 0 0 1-.729.4z" opacity="1" data-original="#ffffff"></path></g></svg>