<svg xmlns="http://www.w3.org/2000/svg" version="1.1" xmlns:xlink="http://www.w3.org/1999/xlink" width="512" height="512" x="0" y="0" viewBox="0 0 254.088 235.506" style="enable-background:new 0 0 512 512" xml:space="preserve" class=""><g><ellipse cx="48.863" cy="22.498" rx="22.493" ry="22.495" transform="rotate(-76.88 48.87 22.492)" fill="#000000" opacity="1" data-original="#000000" class=""></ellipse><path d="M19.359 70.201c-1.319-2.429-1.612-5.188-.839-7.8a10.12 10.12 0 0 1 4.909-6.067 10.184 10.184 0 0 1 4.866-1.242c3.71 0 7.132 2.016 8.93 5.262.069.118.163.27.3.483.298.459.803 1.194 1.536 2.126a40.872 40.872 0 0 0 3.906 4.266c1.233-9.085-2.571-18.664-10.139-20.55-8.537-2.129-20.912 2.508-25.947 17.15-6.805 20.174-8.268 33.305-5.682 55.519 2.112 10.871 7.83 15.151 14.142 16.752 2.547 8.388 5.723 22.193 5.7 38.757-.002 13.218-1.977 28.171-7.765 43.8-2.395 6.475.908 13.666 7.382 16.064 1.432.53 2.897.781 4.34.781 5.08 0 9.857-3.12 11.724-8.163 6.955-18.781 9.322-36.775 9.32-52.481-.031-25.049-5.913-44.315-9.091-52.939-1.388-10.376-.164-21.795 1.624-32.299a65.257 65.257 0 0 1-4.996-3.563c-8.874-6.984-13.128-13.902-14.22-15.856z" fill="#000000" opacity="1" data-original="#000000" class=""></path><path d="M96.32 81.036c-.09.015-.18.021-.271.039-6.129 1.2-11.66 1.706-16.654 1.706-16.765-.033-27.58-5.598-34.57-11.038-3.477-2.725-5.939-5.445-7.49-7.416a30.5 30.5 0 0 1-1.652-2.29 14.293 14.293 0 0 1-.334-.536l-.021-.034a13.42 13.42 0 0 0-.027-.05c-2.128-3.843-6.958-5.256-10.82-3.152a7.997 7.997 0 0 0-3.207 10.849h-.002c.362.648 4.386 7.911 13.674 15.216 9.223 7.289 23.906 14.453 44.297 14.453h.153c6.079 0 12.649-.62 19.728-2.007a7.99 7.99 0 0 0 6.155-5.673 35.76 35.76 0 0 1-8.959-10.067zM239.955 143.838h-43.339c-1.78-5.14-5.911-9.703-14.74-12.166-17.816-3.539-29.873-3.936-44.84-1.191v19.194c0 5.626-4.576 10.202-10.201 10.202-5.623 0-10.201-4.576-10.201-10.202v-12.608c-7.896 5.393-10.812 13.78-9.728 20.311 1.399 8.439 12.383 13.111 22.323 11.463h98.525l1.336 54.472c.164 6.797 5.729 12.195 12.489 12.195.105 0 .208-.001.313-.004 6.901-.169 12.358-5.9 12.191-12.802l-1.634-66.668c-.167-6.789-5.706-12.196-12.494-12.196z" fill="#000000" opacity="1" data-original="#000000" class=""></path><ellipse cx="79.703" cy="148.196" rx="22.5" ry="22.499" transform="rotate(-4.44 79.813 148.185)" fill="#000000" opacity="1" data-original="#000000" class=""></ellipse><path d="M56.826 177.006h162.501v13H56.826zM118.835 149.674a8 8 0 0 0 8 8.002 8.003 8.003 0 0 0 8.002-8.002v-52.17c-2.574.596-5.25.921-8.002.921s-5.427-.325-8-.92zM126.837 94.656c17.523 0 31.73-14.206 31.73-31.73s-14.207-31.73-31.73-31.73-31.73 14.206-31.73 31.73 14.207 31.73 31.73 31.73zm-12.566-31.73c0-6.94 5.625-12.566 12.566-12.566s12.566 5.626 12.566 12.566-5.625 12.566-12.566 12.566-12.566-5.626-12.566-12.566z" fill="#000000" opacity="1" data-original="#000000" class=""></path><circle cx="126.837" cy="62.926" r="9.425" fill="#000000" opacity="1" data-original="#000000" class=""></circle></g></svg>