<svg xmlns="http://www.w3.org/2000/svg" version="1.1" xmlns:xlink="http://www.w3.org/1999/xlink" width="512" height="512" x="0" y="0" viewBox="0 0 512 512" style="enable-background:new 0 0 512 512" xml:space="preserve" class=""><g><path d="M355.724 384.775c-99.313 0-179.823-80.51-179.823-179.823 0-62.061 31.44-116.78 79.261-149.097a231.388 231.388 0 0 0-16.784-.611C112.248 55.244 10 157.492 10 283.622S112.248 512 238.378 512c101.368 0 187.31-66.044 217.147-157.449-28.555 19.088-62.876 30.224-99.801 30.224zM439.463 94.007 495.465 0H393v30h49.674l-56.002 94.007H502v-30z" fill="#000000" opacity="1" data-original="#000000" class=""></path><path d="M353.742 114.257h-92.651v30h39.86L257.735 216.8h95.023v-30h-42.232zM409.572 284.758l27.353-45.915H359.51v30h24.624l-27.353 45.915h81.229v-30z" fill="#000000" opacity="1" data-original="#000000" class=""></path></g></svg>