<svg xmlns="http://www.w3.org/2000/svg" version="1.1" xmlns:xlink="http://www.w3.org/1999/xlink" width="512" height="512" x="0" y="0" viewBox="0 0 512 512" style="enable-background:new 0 0 512 512" xml:space="preserve" class=""><g><path fill="#a2b9dd" d="M401 504.5 283.043 497l-12.723 7.5h-152l-41.746-5.245c-11.046 0-20-8.954-20-20l-2.213-448.34C54.362 20.889 68 7.72 68 7.72c.978-.147 1.981-.22 3-.22h330c11.046 0 20 8.954 20 20v88l-6.468 16.5L421 484.5c0 11.046-8.954 20-20 20z" opacity="1" data-original="#a2b9dd" class=""></path><path fill="#92acd3" d="M421 115.5v369c0 11.05-8.95 20-20 20H270.32c-3.08-6-4.82-12.8-4.82-20v-325c0-24.26 19.74-44 44-44zM95.89 436.362a4 4 0 0 1-4-4L84.66 239.5H72a4 4 0 0 1-4-4V7.72c-9.63 1.45-17 9.75-17 19.78v457c0 11.046 8.954 20 20 20h47.32c.57-1.62 1.01-3.32 1.3-5.07l6.041-36.228a3.949 3.949 0 0 1 1.893-2.768c6.102-3.558 10.838-9.193 13.226-15.934z" opacity="1" data-original="#92acd3"></path><path fill="#f3f0f3" d="M383.553 441.5 92.5 439a4 4 0 0 1-4-4L86.872 46.234a4 4 0 0 1 4-4L104 37.5h283a4 4 0 0 1 4 4v74l-10.085 13.372 6.638 308.628a4 4 0 0 1-4 4z" opacity="1" data-original="#f3f0f3" class=""></path><path fill="#e2dee2" d="M309.5 115.5c-24.301 0-44 19.699-44 44v257a4 4 0 0 1-4 4H147.45a4.95 4.95 0 0 1-4.95-4.95V329.5c0-10.899-5.84-20.445-14.554-25.702a4.975 4.975 0 0 1-2.357-3.435l-5.969-35.793c-1.435-8.614-6.395-15.824-13.264-20.269-1.443-.934-2.356-2.497-2.356-4.216V37.5H85a4 4 0 0 0-4 4v399a4 4 0 0 0 4 4h306v-329z" opacity="1" data-original="#e2dee2" class=""></path><path fill="#afe593" d="M307 241c0 39.212-31.788 64.553-71 64.553S171.043 280.212 171.043 241c0-17.631 2.063-33.011 12.702-45.426 4.278-4.991 13.052-13.779 13.052-13.779C208.031 174.342 221.508 170 236 170c10.525 0 20.516 2.29 29.5 6.4 0 0 6.257 5.716 9.394 7.813C293.939 196.947 307 216.37 307 241z" opacity="1" data-original="#afe593"></path><path fill="#97da7b" d="M288.301 289.003c2.088-2.347 3.506-3.868 6.899-8.803l-.002.001C302.653 268.966 307 255.49 307 241c0-28.68-17.01-53.4-41.5-64.6v113.185c0 1.012-.754 1.877-1.759 1.987A70.932 70.932 0 0 1 256 292c-39.21 0-71-31.79-71-71 0-14.49 4.34-27.97 11.8-39.2-20.003 13.269-32.9 36.414-31.726 62.481 1.655 36.756 31.706 66.437 68.478 67.678 11.426.385 22.269-1.94 31.948-6.37v.011c7.497-3.55 15.348-8.461 22.801-16.597z" opacity="1" data-original="#97da7b"></path><path fill="#f3f0f3" d="M484.5 504.5h-175c-11.046 0-20-8.954-20-20v-325c0-11.046 8.954-20 20-20h175c11.046 0 20 8.954 20 20v325c0 11.046-8.954 20-20 20z" opacity="1" data-original="#f3f0f3" class=""></path><path fill="#e2dee2" d="M504.5 476.5v8c0 11.05-8.95 20-20 20h-175c-11.05 0-20-8.95-20-20v-325c0-11.05 8.95-20 20-20h7v322c0 8.28 6.72 15 15 15z" opacity="1" data-original="#e2dee2" class=""></path><path fill="#afe593" d="M442 312c0-24.853-20.147-45-45-45a44.822 44.822 0 0 0-20.213 4.784c-11.383 11.556-20.638 22.377-20.638 39.961 0 24.853 15.998 41.213 40.851 41.213 17.584 0 28.93-7.758 40.216-20.745A44.809 44.809 0 0 0 442 312z" opacity="1" data-original="#afe593"></path><path fill="#97da7b" d="M437.216 332.213C429.816 346.913 414.58 357 397 357c-24.85 0-45-20.15-45-45 0-17.58 10.087-32.816 24.787-40.216C373.717 277.864 372 284.74 372 292c0 24.85 20.15 45 45 45 7.26 0 14.136-1.717 20.216-4.787z" opacity="1" data-original="#97da7b"></path><path fill="#b2caec" d="M90.029 504.5H48.67l-6.019-1.57a10 10 0 0 1-9.864-8.356L24.872 444.5h79.532l1.262 16.999-5.774 34.645a9.999 9.999 0 0 1-9.863 8.356z" opacity="1" data-original="#b2caec"></path><path fill="#a2b9dd" d="m108.5 444.5-43-10.138-44 10.138 8.61 51.64c.8 4.83 4.97 8.36 9.86 8.36h8.7l-6.199-37.178a5 5 0 0 1 4.932-5.822h58.267z" opacity="1" data-original="#a2b9dd" class=""></path><path fill="#b2caec" d="M90.029 259.5H48.67l-6.019 1.57a10 10 0 0 0-9.864 8.356L24.872 319.5h79.532l1.262-16.999-5.774-34.645a9.999 9.999 0 0 0-9.863-8.356z" opacity="1" data-original="#b2caec"></path><path fill="#a2b9dd" d="m108.5 319.5-43 10.138-44-10.138 8.61-51.64c.8-4.83 4.97-8.36 9.86-8.36h8.7l-6.199 37.178a5 5 0 0 0 4.932 5.822h58.267z" opacity="1" data-original="#a2b9dd" class=""></path><path fill="#f3f0f3" d="m106.75 439.5-84.25-2.133c-5.523 0-10-4.477-10-10L13.17 332c0-5.523 4.477-10 10-10l3.33-2.5h86c5.523 0 10 4.477 10 10v90.947l-5.75 9.053c0 5.523-4.477 10-10 10z" opacity="1" data-original="#f3f0f3" class=""></path><path fill="#e2dee2" d="M122.5 420.447V434.5c0 5.52-4.48 10-10 10h-95c-5.52 0-10-4.48-10-10v-105c0-5.52 4.48-10 10-10h9v93.947c0 3.87 3.13 7 7 7z" opacity="1" data-original="#e2dee2" class=""></path><circle cx="65.5" cy="382.5" r="25" fill="#afe593" opacity="1" data-original="#afe593"></circle><path d="M243.52 474.5a7.5 7.5 0 0 0-7.5-7.5h-.01c-4.142 0-7.495 3.357-7.495 7.5s3.363 7.5 7.505 7.5 7.5-3.357 7.5-7.5z" fill="#000000" opacity="1" data-original="#000000" class=""></path><path d="M484.5 132h-56V27.5C428.5 12.337 416.164 0 401 0H71C55.836 0 43.5 12.337 43.5 27.5V252h-3.529c-8.59 0-15.85 6.15-17.262 14.623l-7.593 45.559C6.593 313.351 0 320.661 0 329.5v105c0 8.839 6.593 16.149 15.116 17.318l7.593 45.559A17.446 17.446 0 0 0 39.971 512h101.178c4.142 0 7.5-3.357 7.5-7.5s-3.358-7.5-7.5-7.5h-33.795l7.544-45H282v32.5c0 4.5 1.093 8.747 3.018 12.5H176.149c-4.142 0-7.5 3.357-7.5 7.5s3.358 7.5 7.5 7.5H484.5c15.164 0 27.5-12.337 27.5-27.5v-325c0-15.163-12.336-27.5-27.5-27.5zM39.971 267h50.058c1.227 0 2.264.879 2.466 2.09L99.646 312H30.354l7.152-42.91a2.491 2.491 0 0 1 2.465-2.09zm-2.466 227.91L30.354 452h69.334l-7.193 42.91a2.493 2.493 0 0 1-2.466 2.09H39.971a2.493 2.493 0 0 1-2.466-2.09zM130 437v-31c0-4.143-3.358-7.5-7.5-7.5s-7.5 3.357-7.5 7.5v28.5c0 1.379-1.122 2.5-2.5 2.5h-95a2.503 2.503 0 0 1-2.5-2.5v-105c0-1.379 1.122-2.5 2.5-2.5h95c1.378 0 2.5 1.121 2.5 2.5V370c0 4.143 3.358 7.5 7.5 7.5s7.5-3.357 7.5-7.5v-40.5c0-8.839-6.593-16.149-15.116-17.318l-7.593-45.559A17.446 17.446 0 0 0 90.029 252H88.5V45h158.117c4.142 0 7.5-3.357 7.5-7.5s-3.358-7.5-7.5-7.5H81a7.5 7.5 0 0 0-7.5 7.5V252h-15V27.5C58.5 20.607 64.107 15 71 15h330c6.893 0 12.5 5.607 12.5 12.5V132h-15V37.5A7.5 7.5 0 0 0 391 30H281.617c-4.142 0-7.5 3.357-7.5 7.5s3.358 7.5 7.5 7.5H383.5v87h-74c-15.164 0-27.5 12.337-27.5 27.5v17.901a78.513 78.513 0 0 0-46-14.901c-23.762 0-45.988 10.593-60.979 29.062a7.5 7.5 0 0 0 11.647 9.454C198.797 186.07 216.778 177.5 236 177.5c17.419 0 34.032 7.175 46 19.75v87.498c-11.968 12.574-28.586 19.752-46 19.752-35.014 0-63.5-28.486-63.5-63.5 0-3.986.371-7.974 1.103-11.852a7.501 7.501 0 0 0-14.74-2.782 79.146 79.146 0 0 0-1.363 14.633c0 43.285 35.215 78.5 78.5 78.5a78.53 78.53 0 0 0 46-14.902V437zm367 47.5c0 6.893-5.607 12.5-12.5 12.5h-175c-6.893 0-12.5-5.607-12.5-12.5v-325c0-6.893 5.607-12.5 12.5-12.5h175c6.893 0 12.5 5.607 12.5 12.5z" fill="#000000" opacity="1" data-original="#000000" class=""></path><path d="M377 177h40c4.142 0 7.5-3.357 7.5-7.5s-3.358-7.5-7.5-7.5h-40c-4.142 0-7.5 3.357-7.5 7.5s3.358 7.5 7.5 7.5zM446.27 162h-.01c-4.142 0-7.495 3.357-7.495 7.5s3.363 7.5 7.505 7.5 7.5-3.357 7.5-7.5-3.358-7.5-7.5-7.5zM65.52 297c4.142 0 7.5-3.357 7.5-7.5s-3.358-7.5-7.5-7.5h-.01c-4.142 0-7.495 3.357-7.495 7.5s3.363 7.5 7.505 7.5zM65.52 467h-.01c-4.142 0-7.495 3.357-7.495 7.5s3.363 7.5 7.505 7.5 7.5-3.357 7.5-7.5-3.358-7.5-7.5-7.5zM65.5 350C47.58 350 33 364.579 33 382.5S47.58 415 65.5 415 98 400.421 98 382.5 83.42 350 65.5 350zm0 50c-9.649 0-17.5-7.851-17.5-17.5S55.851 365 65.5 365 83 372.851 83 382.5 75.149 400 65.5 400zM397 259.5c-28.949 0-52.5 23.552-52.5 52.5s23.551 52.5 52.5 52.5 52.5-23.552 52.5-52.5-23.551-52.5-52.5-52.5zm0 90c-20.678 0-37.5-16.822-37.5-37.5s16.822-37.5 37.5-37.5 37.5 16.822 37.5 37.5-16.822 37.5-37.5 37.5zM422 379.5h-50c-4.142 0-7.5 3.357-7.5 7.5s3.358 7.5 7.5 7.5h50c4.142 0 7.5-3.357 7.5-7.5s-3.358-7.5-7.5-7.5z" fill="#000000" opacity="1" data-original="#000000" class=""></path></g></svg>