<svg xmlns="http://www.w3.org/2000/svg" version="1.1" xmlns:xlink="http://www.w3.org/1999/xlink" width="512" height="512" x="0" y="0" viewBox="0 0 511.991 511.991" style="enable-background:new 0 0 512 512" xml:space="preserve" class=""><g><path fill="#818181" d="M407.789 476.699h-13.096c-8.668 0-15.694-7.027-15.694-15.694s7.027-15.694 15.694-15.694h13.096c3.961 0 7.184-3.223 7.184-7.183v-92.395c0-8.668 7.027-15.694 15.694-15.694 8.668 0 15.694 7.027 15.694 15.694v92.395c0 21.268-17.303 38.571-38.572 38.571z" opacity="1" data-original="#818181"></path><path fill="#818181" d="M444.84 345.928H67.151a15.693 15.693 0 0 1-15.38-12.573L26.153 207.134c-9.98-49.173 2.509-99.655 34.264-138.503S139.163 7.502 189.338 7.502h133.315c50.175 0 97.164 22.28 128.92 61.128 31.755 38.848 44.245 89.331 34.264 138.503L460.22 333.355a15.693 15.693 0 0 1-15.38 12.573zM79.98 314.54h352.031l23.066-113.649c8.098-39.904-2.036-80.87-27.806-112.396C401.501 56.97 363.37 38.89 322.653 38.89H189.338c-40.717 0-78.849 18.08-104.619 49.605S48.815 160.986 56.913 200.89z" opacity="1" data-original="#818181"></path><g fill="#595959"><path d="M432.011 314.54h16.937l23.066-113.649c8.098-39.904-2.036-80.87-27.806-112.396C418.438 56.97 380.307 38.89 339.59 38.89h-16.937c40.717 0 78.848 18.08 104.618 49.605s35.904 72.492 27.806 112.396zM68.708 333.355 43.09 207.134c-9.98-49.173 2.509-99.655 34.264-138.503S156.1 7.502 206.276 7.502h-16.937c-50.176 0-97.165 22.28-128.921 61.128s-44.244 89.331-34.264 138.503l25.618 126.221a15.695 15.695 0 0 0 15.38 12.573h16.937a15.692 15.692 0 0 1-15.381-12.572z" fill="#595959" opacity="1" data-original="#595959"></path></g><path fill="#e29375" d="M283.404 80.572h-54.817c-78.442 0-142.031 63.59-142.031 142.031v123.13h338.88v-123.13c0-78.442-63.59-142.031-142.032-142.031z" opacity="1" data-original="#e29375"></path><path fill="#da8059" d="M315.688 84.252c-62.884 14.636-109.742 71.024-109.742 138.351v129.649H86.555V222.603c0-78.435 63.579-142.031 142.031-142.031h54.811a142.581 142.581 0 0 1 32.291 3.68z" opacity="1" data-original="#da8059" class=""></path><path fill="#ffeee6" d="M380.162 254.269v124.492c0 68.463-54.758 125.212-123.219 125.722-69.008.515-125.114-55.274-125.114-124.163V254.269c0-.341.001.309.004-.032 0 .001 96.085 48.928 248.329.032z" opacity="1" data-original="#ffeee6" class=""></path><path fill="#ffdfcf" d="M292.99 498.813c-11.379 3.595-23.488 5.58-36.055 5.681-69.006.509-125.106-55.269-125.106-124.174V254.269s26.693-31.729 74.229-9.547V380.32c0 55.626 36.547 102.67 86.932 118.493z" opacity="1" data-original="#ffdfcf" class=""></path><path fill="#818181" d="M401.252 330.232H110.739c-17.582 0-31.835-14.253-31.835-31.835s14.253-31.835 31.835-31.835h290.513c17.582 0 31.835 14.253 31.835 31.835 0 17.581-14.253 31.835-31.835 31.835z" opacity="1" data-original="#818181"></path><path fill="#595959" d="M433.088 298.396c0 8.799-3.568 16.751-9.322 22.516a31.74 31.74 0 0 1-22.516 9.322H110.742c-17.588 0-31.838-14.25-31.838-31.838 0-4.855 1.088-9.469 3.045-13.581 5.095 10.777 16.071 18.237 28.793 18.237H401.25a31.74 31.74 0 0 0 22.516-9.322 31.822 31.822 0 0 0 6.278-8.914 31.563 31.563 0 0 1 3.044 13.58z" opacity="1" data-original="#595959"></path><path fill="#fe646f" d="M380.164 378.757h54.115c29.905 0 54.148-24.243 54.148-54.148 0-29.905-24.243-54.148-54.148-54.148h-54.115zM131.832 378.757H77.717c-29.905 0-54.148-24.243-54.148-54.148 0-29.905 24.243-54.148 54.148-54.148h54.115z" opacity="1" data-original="#fe646f" class=""></path><path fill="#fd4755" d="M488.42 324.612c0 29.902-24.242 54.145-54.145 54.145h-54.113V335.42h54.113c22.202 0 41.275-13.361 49.625-32.476a53.831 53.831 0 0 1 4.52 21.668zM131.83 335.42v43.337H77.717c-29.903 0-54.145-24.242-54.145-54.145a53.84 53.84 0 0 1 4.52-21.669c8.349 19.115 27.423 32.476 49.625 32.476h54.113z" opacity="1" data-original="#fd4755"></path><path fill="#818181" d="M227.289 80.569h57.421v173.702h-57.421z" opacity="1" data-original="#818181"></path><path fill="#595959" d="M227.289 80.569h20.92v173.702h-20.92z" opacity="1" data-original="#595959"></path><path fill="#aedeff" d="M359.593 367.946H152.398c-20.829 0-37.714-16.885-37.714-37.714v-63.671c0-20.829 16.885-37.714 37.714-37.714h207.195c20.829 0 37.714 16.885 37.714 37.714v63.671c.001 20.829-16.885 37.714-37.714 37.714z" opacity="1" data-original="#aedeff" class=""></path><path fill="#89c8fd" d="M206.096 367.944h-53.695c-20.831 0-37.718-16.887-37.718-37.718V266.56c0-20.831 16.887-37.718 37.718-37.718h53.695c-20.831 0-37.718 16.887-37.718 37.718v63.666c0 20.832 16.887 37.718 37.718 37.718z" opacity="1" data-original="#89c8fd" class=""></path><path d="M493.191 208.631c10.43-51.386-2.622-104.143-35.809-144.744S375.088 0 322.654 0H189.337C136.903 0 87.796 23.286 54.609 63.887S8.37 157.246 18.8 208.632l14.809 72.926c-11.312 11.572-17.543 26.823-17.543 43.046 0 33.997 27.658 61.655 61.655 61.655h46.747c1.46 33.122 15.095 64.007 38.777 87.515 24.853 24.669 57.752 38.217 92.747 38.217.334 0 .673-.001 1.008-.003 69.56-.521 126.593-56.252 130.448-125.728h20.027v51.553h-12.788c-12.789 0-23.193 10.405-23.193 23.194 0 12.79 10.404 23.194 23.193 23.194h13.1c25.406 0 46.076-20.67 46.076-46.076v-55.06a61.338 61.338 0 0 0 12.729-5.951 7.5 7.5 0 0 0-7.875-12.766 46.516 46.516 0 0 1-24.442 6.913h-46.61v-5.623c10.433-8.29 17.143-21.075 17.143-35.405V277.96h29.468c12.46 0 24.175 4.853 32.989 13.666 8.809 8.8 13.66 20.51 13.66 32.974 0 7.424-1.688 14.515-5.018 21.075a7.501 7.501 0 0 0 6.682 10.896 7.498 7.498 0 0 0 6.693-4.107c4.408-8.684 6.643-18.058 6.643-27.864 0-16.224-6.232-31.476-17.543-43.046zm-54.326 177.454v52.039c0 17.135-13.94 31.076-31.076 31.076h-13.1c-4.518 0-8.193-3.676-8.193-8.194s3.676-8.194 8.193-8.194h13.1c8.1 0 14.688-6.589 14.688-14.688V386.26h11.799c1.535 0 3.066-.062 4.589-.175zM66.223 73.38C96.55 36.279 141.423 15 189.337 15h133.316c47.914 0 92.788 21.279 123.115 58.38 30.326 37.101 42.252 85.311 32.722 132.266l-13.321 65.6a60.85 60.85 0 0 0-15.436-6.334l12.698-62.527c8.547-42.121-2.152-85.363-29.354-118.64-27.199-33.273-67.447-52.357-110.423-52.357H189.337c-42.976 0-83.223 19.083-110.423 52.357-27.202 33.277-37.901 76.519-29.353 118.64l12.696 62.528a60.88 60.88 0 0 0-15.435 6.334l-13.322-65.6c-9.531-46.956 2.396-95.165 32.723-132.267zm368.053 189.58h-1.351V222.6c0-82.451-67.074-149.53-149.52-149.53h-54.82c-35.25 0-69.481 12.504-96.387 35.208a7.5 7.5 0 0 0 9.674 11.464c21.958-18.53 49.343-29.505 77.917-31.382v132.987h-67.391c-23.718 0-43.215 18.361-45.058 41.613H94.065V222.6c0-30.132 9.733-58.613 28.147-82.365a7.499 7.499 0 0 0-1.332-10.522 7.498 7.498 0 0 0-10.522 1.332C89.886 157.451 79.065 189.11 79.065 222.6v40.359h-1.344c-.185 0-.368.012-.552.013L64.261 199.4c-7.649-37.691 1.925-76.386 26.266-106.163 24.339-29.774 60.354-46.85 98.81-46.85h133.316c38.456 0 74.471 17.076 98.81 46.85 24.342 29.778 33.915 68.473 26.268 106.162l-12.909 63.573c-.183 0-.364-.012-.546-.012zm-199.487-41.614V88.07h42.421v133.276zM31.066 324.604c0-12.465 4.852-24.176 13.665-32.98 8.812-8.812 20.528-13.665 32.99-13.665h29.462v52.272c0 14.333 6.711 27.12 17.148 35.409v5.618h-46.61c-25.726.001-46.655-20.928-46.655-46.654zm225.823 172.383c-.298.002-.595.003-.894.003-31.007 0-60.162-12.005-82.183-33.863-22.236-22.071-34.481-51.481-34.481-82.812v-1.499c0-.02.003-.039.003-.058v-5.245a45.069 45.069 0 0 0 13.063 1.932h207.195a45.05 45.05 0 0 0 13.071-1.934v5.245c.001 64.715-51.935 117.753-115.774 118.231zm132.919-166.756c0 16.66-13.555 30.214-30.215 30.214H152.398c-16.66 0-30.214-13.554-30.214-30.214V266.56c0-16.66 13.554-30.214 30.214-30.214h207.195c16.66 0 30.215 13.554 30.215 30.214zm-30.215-108.885H292.21V88.365c70.086 4.552 125.715 63.013 125.715 134.235v40.36h-13.274c-1.842-23.252-21.339-41.614-45.058-41.614z" fill="#000000" opacity="1" data-original="#000000" class=""></path><path d="M287.737 391.588c-8.478 8.479-19.751 13.148-31.741 13.148s-23.263-4.669-31.742-13.148a7.5 7.5 0 0 0-10.606 0 7.5 7.5 0 0 0 0 10.606c11.312 11.312 26.352 17.542 42.349 17.542s31.037-6.23 42.349-17.542a7.5 7.5 0 0 0 0-10.606 7.505 7.505 0 0 0-10.609 0zM178.721 256.481a7.498 7.498 0 0 0-9.482 4.753l-9.727 29.281-10.227-29.464a7.501 7.501 0 0 0-14.171 4.919l16.442 47.37a8.592 8.592 0 0 0 8.088 5.709h.059c3.65-.025 6.893-2.364 8.085-5.87l15.685-47.215a7.502 7.502 0 0 0-4.752-9.483zM229.362 275.995c0-11.02-9.282-19.984-20.691-19.984h-12.766a7.501 7.501 0 0 0-7.5 7.525l-.016 48.013a7.5 7.5 0 0 0 15 0v-9.636l12.842 14.592a7.478 7.478 0 0 0 5.633 2.545 7.5 7.5 0 0 0 5.627-12.455l-10.74-12.203c7.406-3.047 12.611-10.145 12.611-18.397zm-20.691-4.984c3.032 0 5.691 2.329 5.691 4.984s-2.659 4.985-5.691 4.985c-1.256 0-3.213.007-5.218.016-.009-1.93-.02-7.954-.025-9.985z" fill="#000000" opacity="1" data-original="#000000" class=""></path></g></svg>